<svg id="Layer_1" data-name="Layer 1" xmlns="http://www.w3.org/2000/svg" viewBox="0 0 250 350"><defs><style>.cls-1{fill:#e10025;}.cls-2{font-size:55.62px;fill:#f4f4f4;font-family:Bebas, Bebas;}.cls-3{letter-spacing:0.02em;}</style></defs><title>adobe-rpc-01</title><path class="cls-1" d="M105.28,211.69h-.12a.44.44,0,0,1-.3-.52,23.31,23.31,0,0,0-.1-2.42q0-34.29,0-68.58c0-.64-.27-1.3.3-1.85.1,0,0,0,.05-.05.35,0,.17.31.17.55q0,36.27,0,72.53C105.31,211.47,105.29,211.58,105.28,211.69Z"/><path class="cls-1" d="M52.64,138.28c-1.63,3.93-3.24,7.86-4.88,11.78L22.35,210.91l-.2.46a1.58,1.58,0,0,1-.13-1q0-35.53,0-71.06c0-.81.17-1.1,1.05-1.1C32.92,138.28,42.78,138.28,52.64,138.28Z"/><path class="cls-1" d="M105,211.38,90.87,177.53l-16.16-38.7c-.07-.18-.12-.37-.19-.55h30.61q0,36.15,0,72.29A1.26,1.26,0,0,1,105,211.38Z"/><path class="cls-1" d="M70.32,211.83c-1.84-4.65-3.69-9.3-5.51-14a1,1,0,0,0-1.15-.77c-4.26,0-8.53,0-12.8,0-.54,0-.75,0-.48-.66q6.52-15.31,13-30.63a4.45,4.45,0,0,1,.22-.39c.29.66.55,1.26.8,1.85l18.51,44c.06.15.11.31.17.47a1.89,1.89,0,0,1-.47.13Z"/><rect class="cls-1" x="105.16" y="138.28" width="122.84" height="73.42"/><text class="cls-2" transform="translate(113.91 199.37) scale(1.15 1)"><tspan class="cls-3">R</tspan><tspan x="31.45" y="0">PC</tspan></text></svg>