<?xml version="1.0" encoding="utf-8"?>
<!-- Generator: Adobe Illustrator 22.1.0, SVG Export Plug-In . SVG Version: 6.00 Build 0)  -->
<svg version="1.1" id="Layer_1" xmlns="http://www.w3.org/2000/svg" xmlns:xlink="http://www.w3.org/1999/xlink" x="0px" y="0px"
	 viewBox="0 0 250 350" style="enable-background:new 0 0 250 350;" xml:space="preserve">
<style type="text/css">
	.st0{fill:#E10025;}
	.st1{fill:#F4F4F4;}
	.st2{font-family:'Candara';}
	.st3{font-size:55.62px;}
	.st4{letter-spacing:0.9;}
</style>
<title>adobe-rpc-01</title>
<g>
	<path class="st0" d="M105.3,211.7h-0.1c-0.2-0.1-0.4-0.3-0.3-0.5c0-0.8,0-1.6-0.1-2.4c0-22.9,0-45.7,0-68.6c0-0.6-0.3-1.3,0.3-1.9
		c0.1,0,0,0,0.1-0.1c0.3,0,0.2,0.3,0.2,0.6c0,24.2,0,48.4,0,72.5C105.3,211.4,105.3,211.6,105.3,211.7z"/>
	<path class="st0" d="M52.6,138.3c-1.6,3.9-3.2,7.9-4.9,11.8l-25.4,60.9l-0.2,0.5c-0.2-0.3-0.2-0.7-0.1-1c0-23.7,0-47.4,0-71.1
		c0-0.8,0.2-1.1,1-1.1C32.9,138.3,42.8,138.3,52.6,138.3z"/>
	<path class="st0" d="M105,211.4l-14.1-33.9l-16.2-38.7c-0.1-0.2-0.1-0.4-0.2-0.6h30.6c0,24.1,0,48.2,0,72.3
		C105.2,210.8,105.1,211.1,105,211.4z"/>
	<path class="st0" d="M70.3,211.8c-1.8-4.6-3.7-9.3-5.5-14c-0.1-0.5-0.6-0.9-1.1-0.8c-4.3,0-8.5,0-12.8,0c-0.5,0-0.8,0-0.5-0.7
		c4.3-10.2,8.7-20.4,13-30.6c0.1-0.1,0.1-0.3,0.2-0.4c0.3,0.7,0.5,1.3,0.8,1.9l18.5,44c0.1,0.1,0.1,0.3,0.2,0.5
		c-0.2,0.1-0.3,0.1-0.5,0.1H70.3z"/>
	<rect x="105.2" y="138.3" class="st0" width="122.8" height="73.4"/>
	<text transform="matrix(1.15 0 0 1 111.4147 195.3502)" class="st1 st2 st3 st4">R</text>
	<text transform="matrix(1.15 0 0 1 147.5822 195.3502)" class="st1 st2 st3">PC</text>
</g>
</svg>
