<?xml version="1.0" encoding="utf-8"?>
<!-- Generator: Adobe Illustrator 22.1.0, SVG Export Plug-In . SVG Version: 6.00 Build 0)  -->
<svg version="1.1" id="Layer_1" xmlns="http://www.w3.org/2000/svg" xmlns:xlink="http://www.w3.org/1999/xlink" x="0px" y="0px"
	 viewBox="0 0 250 350" style="enable-background:new 0 0 250 350;" xml:space="preserve">
<style type="text/css">
	.st0{fill:url(#SVGID_1_);}
	.st1{fill:url(#SVGID_2_);}
	.st2{fill:url(#SVGID_3_);}
	.st3{fill:url(#SVGID_4_);}
	.st4{fill:url(#SVGID_5_);}
	.st5{fill:url(#SVGID_6_);}
	.st6{fill:url(#SVGID_7_);}
	.st7{fill:url(#SVGID_8_);}
	.st8{fill:url(#SVGID_9_);}
	.st9{fill:url(#SVGID_10_);}
	.st10{fill:url(#SVGID_11_);}
	.st11{fill:url(#SVGID_12_);}
</style>
<title>electron-kasir</title>
<g>
	
		<linearGradient id="SVGID_1_" gradientUnits="userSpaceOnUse" x1="53.0778" y1="174.8898" x2="196.9222" y2="174.8898" gradientTransform="matrix(1 0 0 -1 0 349.8898)">
		<stop  offset="0" style="stop-color:#CCE0F4"/>
		<stop  offset="0.13" style="stop-color:#C3DDEC"/>
		<stop  offset="0.35" style="stop-color:#A9D6D8"/>
		<stop  offset="0.63" style="stop-color:#80CAB6"/>
		<stop  offset="0.96" style="stop-color:#47B987"/>
		<stop  offset="0.99" style="stop-color:#40B782"/>
	</linearGradient>
	<path class="st0" d="M192.4,166.9c-5.8-6.2-13.2-9.5-20.9-12.2c-16.4-5.7-33.4-7.5-51.6-7.9c5.5-6.8,11.9-13,18.8-18.3
		c4.4-3.4,9.1-6.5,14.6-8c7.1-2,11.1,0.9,11.6,8.2c0.4,5-0.1,10-1.4,14.9c-0.6,2.3-0.1,4.2,2.2,4.9c2.6,0.8,3.9-0.8,4.5-3.2
		c1.8-6.2,2.2-12.7,1.4-19.1c-1.3-9.5-8.3-14.4-17.7-12.8c-6.2,1.1-11.5,4.2-16.6,7.7c-9.1,6.4-16.8,14.3-23.9,22.7
		c-1.2,1.5-2.2,3.3-4.6,3.5c-4.4,0.3-8.8,1-13.2,1.5c-1.6,0.2-2.7,0.1-3.1-1.9c-1.6-7.9-2.6-15.8-0.6-23.8c1.5-6.1,5.4-8,11.4-5.7
		c3.8,1.4,7,3.9,10.1,6.4c1.8,1.4,3.7,1.6,5.3-0.4s0.7-3.5-0.9-4.9c-3.3-3-7-5.4-11.1-7.2c-10.4-4.4-19-0.2-21.6,10.7
		c-1.9,7.9-1.3,16,0.3,23.8c0.8,3.8,0,4.8-3.6,5.8c-9,2.4-17.9,5.3-24.5,12.4c-5.3,5.8-5.5,13-0.3,19c3.7,4.3,8.5,7.2,13.6,9.6
		c2.2,1.1,4.3,1.3,5.6-1.1s-0.2-4-2.4-5.1c-3.3-1.4-6.4-3.3-9.2-5.6c-6-5.2-5.9-10,0.5-14.7c6.2-4.6,13.5-6.7,20.8-8.7
		c1.9-0.5,2.4,0.5,2.9,2.1c0.9,3.4,2.1,6.8,3.5,10.1c1,2.1,0.8,4.5-0.5,6.4c-5,9.1-8.9,18.9-11.4,29.1c-1.7,7.4-2.9,14.9-0.4,22.4
		c2.1,6.5,6.8,9.8,13.6,9.6c8-0.1,14.3-4.4,20.7-8.6c2.1-1.4,3.7-3.2,2.1-5.6s-4-1.5-6-0.1c-3.1,2.3-6.5,4.2-10,5.8
		c-9.8,4.2-14.6,1.1-14.7-9.4c-0.1-13.6,5.3-25.5,10.9-37.6c1.4,0.9,1.7,2.2,2.2,3.3c6.2,12.5,13.3,24.4,22.4,35
		c6.5,7.7,13.6,14.8,23,19c10.3,4.5,19,0.2,21.7-10.7c1.3-5.9,1.5-12,0.6-17.9c-2.2-16.3-7.7-31.6-14.9-46.3
		c-1.1-2.3-2.3-4.7-5.4-3.3s-2,3.9-0.9,6.2c5.5,10.8,9.7,22.3,12.5,34.1c1.9,8.5,3.4,17.2,1.3,25.9c-1.5,6.2-5.3,8.1-11.3,6
		c-3.6-1.4-6.9-3.4-9.9-6c-12-9.9-21-22.3-28.1-36c-11.1-21.8-11.5-13.4,2-34c1.6-2.4,3.5-3.2,6.4-3.2c10.9-0.1,21.7,0.9,32.4,2.8
		c12,2.1,23.8,5.1,33.9,12.4c7.6,5.6,7.3,11.5-0.6,16.6c-3.6,2.1-7.4,3.9-11.3,5.2c-1.9,0.8-3.1,2.3-2.1,4.4
		c0.9,1.9,2.4,2.6,4.6,1.9c6-2,11.7-4.6,16.5-8.9C198.4,182,198.7,173.6,192.4,166.9z M98,164.8c-3.8-9.8-5.3-9.3,6.6-10.1L98,164.8
		z"/>
	
		<linearGradient id="SVGID_2_" gradientUnits="userSpaceOnUse" x1="115.7832" y1="163.8789" x2="146.7452" y2="163.8789" gradientTransform="matrix(1 0 0 -1 0 349.8898)">
		<stop  offset="0" style="stop-color:#CCE0F4"/>
		<stop  offset="0.13" style="stop-color:#C3DDEC"/>
		<stop  offset="0.35" style="stop-color:#A9D6D8"/>
		<stop  offset="0.63" style="stop-color:#80CAB6"/>
		<stop  offset="0.96" style="stop-color:#47B987"/>
		<stop  offset="0.99" style="stop-color:#40B782"/>
	</linearGradient>
	<path class="st1" d="M145.8,197.3c0.3-0.2,0.4-0.3,0.2-0.6c-0.4-0.6-0.2-1.4,0.4-1.8c0.5-0.3,0.4-0.6,0.1-1
		c-2.4-4.1-4.9-8.3-7.3-12.5l-6.4-11.1c-0.3-0.6-0.6-1.1-1-1.7c-0.1-0.3-0.3-0.4-0.6-0.3c-0.7,0.4-1.5,0.2-1.9-0.5
		c-0.2-0.3-0.4-0.3-0.6-0.1l-12,7c-0.3,0.2-0.3,0.3-0.2,0.6c0.4,0.6,0.2,1.3-0.3,1.7c-0.6,0.4-0.4,0.7-0.1,1.2
		c4.8,8.2,9.6,16.5,14.4,24.7c0.1,0.1,0.2,0.3,0.3,0.4s0.3,0.3,0.6,0.2c0.7-0.4,1.5-0.2,1.9,0.5c0.2,0.3,0.4,0.3,0.7,0.1
		C137.8,201.9,141.8,199.6,145.8,197.3z M133.3,203.4c-0.4-0.4-1-0.6-1.6-0.5c-0.5,0.1-0.7-0.1-0.9-0.5c-3.9-6.8-7.9-13.6-11.8-20.4
		c-0.7-1.3-1.5-2.5-2.2-3.8c-0.2-0.3-0.2-0.4,0.1-0.7c0.5-0.5,0.6-1.1,0.5-1.8c-0.1-0.3,0-0.6,0.3-0.7c3.7-2.1,7.3-4.3,11-6.4
		c0.2-0.2,0.6-0.1,0.7,0.1c0.4,0.4,1.1,0.6,1.6,0.5c0.5-0.1,0.6,0.1,0.9,0.4c2.3,4,4.7,8,7,12c2.3,4,4.7,8,7,12
		c0.2,0.4,0.4,0.7,0,1.1c-0.4,0.4-0.6,1.1-0.4,1.7c0.1,0.2,0,0.5-0.3,0.6c0,0,0,0,0,0c-3.7,2.1-7.4,4.3-11,6.4
		c-0.2,0.2-0.5,0.2-0.7,0.1C133.4,203.5,133.3,203.4,133.3,203.4z"/>
	
		<linearGradient id="SVGID_3_" gradientUnits="userSpaceOnUse" x1="131.2272" y1="165.1238" x2="131.2272" y2="165.1238" gradientTransform="matrix(1 0 0 -1 0 349.8898)">
		<stop  offset="0" style="stop-color:#CCE0F4"/>
		<stop  offset="0.13" style="stop-color:#C3DDEC"/>
		<stop  offset="0.35" style="stop-color:#A9D6D8"/>
		<stop  offset="0.63" style="stop-color:#80CAB6"/>
		<stop  offset="0.96" style="stop-color:#47B987"/>
		<stop  offset="0.99" style="stop-color:#40B782"/>
	</linearGradient>
	<polygon class="st2" points="131.2,184.8 131.2,184.8 131.2,184.8 	"/>
	
		<linearGradient id="SVGID_4_" gradientUnits="userSpaceOnUse" x1="131.9872" y1="170.7938" x2="131.9872" y2="170.7938" gradientTransform="matrix(1 0 0 -1 0 349.8898)">
		<stop  offset="0" style="stop-color:#CCE0F4"/>
		<stop  offset="0.13" style="stop-color:#C3DDEC"/>
		<stop  offset="0.35" style="stop-color:#A9D6D8"/>
		<stop  offset="0.63" style="stop-color:#80CAB6"/>
		<stop  offset="0.96" style="stop-color:#47B987"/>
		<stop  offset="0.99" style="stop-color:#40B782"/>
	</linearGradient>
	<path class="st3" d="M132,179.1L132,179.1L132,179.1z"/>
	
		<linearGradient id="SVGID_5_" gradientUnits="userSpaceOnUse" x1="131.9872" y1="170.8138" x2="131.9872" y2="170.8138" gradientTransform="matrix(1 0 0 -1 0 349.8898)">
		<stop  offset="0" style="stop-color:#CCE0F4"/>
		<stop  offset="0.13" style="stop-color:#C3DDEC"/>
		<stop  offset="0.35" style="stop-color:#A9D6D8"/>
		<stop  offset="0.63" style="stop-color:#80CAB6"/>
		<stop  offset="0.96" style="stop-color:#47B987"/>
		<stop  offset="0.99" style="stop-color:#40B782"/>
	</linearGradient>
	<path class="st4" d="M132,179.1L132,179.1z"/>
	
		<linearGradient id="SVGID_6_" gradientUnits="userSpaceOnUse" x1="124.1672" y1="163.8671" x2="138.3571" y2="163.8671" gradientTransform="matrix(1 0 0 -1 0 349.8898)">
		<stop  offset="0" style="stop-color:#CCE0F4"/>
		<stop  offset="0.13" style="stop-color:#C3DDEC"/>
		<stop  offset="0.35" style="stop-color:#A9D6D8"/>
		<stop  offset="0.63" style="stop-color:#80CAB6"/>
		<stop  offset="0.96" style="stop-color:#47B987"/>
		<stop  offset="0.99" style="stop-color:#40B782"/>
	</linearGradient>
	<path class="st5" d="M135.2,191.9c2.9-1.9,4-5.8,2.4-8.9c-1-2.3-3.2-3.8-5.7-3.9l0,0l0,0c0.6,1,1.1,1.9,1.7,2.9
		c0.5,0.7,0.5,1.7-0.1,2.4c-0.6,0.7-1.6,0.8-2.4,0.4l0,0c0,0.6-0.3,1.1-0.8,1.4c-0.5,0.3-0.9,0.6-1.3,1c-0.1,0-0.1-0.1-0.1-0.1
		c-0.6-1-0.6-1,0.3-1.7c0.8-0.5,1-1.5,0.5-2.2c-0.1-0.2-0.3-0.4-0.5-0.5c-0.2-0.2-0.3-0.1-0.5,0c-0.5,0.3-1,0.5-1.4,0.8
		s-0.6-0.2-0.8-0.4s-0.5-0.5,0-0.8c1.6-0.9,3.1-1.8,4.7-2.7c0.2-0.1,0.4-0.3,0.6-0.4l0,0l0,0c-0.1,0-0.2-0.1-0.2-0.1
		c-3.9-0.2-7.3,2.7-7.5,6.6c-0.2,3.9,2.7,7.3,6.6,7.5c1.6,0.1,3.1-0.3,4.4-1.2L135.2,191.9z M131.7,191.2c-0.9-0.4-1.3-1.4-1-2.3
		l-1.3,0.7c-0.3,0.2-0.8,0.2-1.1-0.1c-0.1-0.1-0.2-0.3-0.1-0.5c0-0.2,0.1-0.3,0.3-0.4l4.9-2.8c0.1-0.1,0.3-0.3,0.4,0s0.6,0.6,0.4,1
		c-0.1,0.2-0.1,0.2,0.1,0.3c1,0.4,1.5,1.6,1.1,2.6c-0.2,0.4-0.4,0.7-0.8,0.9l-0.2,0.2C133.6,191.5,132.5,191.6,131.7,191.2
		L131.7,191.2z"/>
	
		<linearGradient id="SVGID_7_" gradientUnits="userSpaceOnUse" x1="131.9272" y1="170.8238" x2="131.9272" y2="170.8238" gradientTransform="matrix(1 0 0 -1 0 349.8898)">
		<stop  offset="0" style="stop-color:#CCE0F4"/>
		<stop  offset="0.13" style="stop-color:#C3DDEC"/>
		<stop  offset="0.35" style="stop-color:#A9D6D8"/>
		<stop  offset="0.63" style="stop-color:#80CAB6"/>
		<stop  offset="0.96" style="stop-color:#47B987"/>
		<stop  offset="0.99" style="stop-color:#40B782"/>
	</linearGradient>
	<path class="st6" d="M131.9,179.1L131.9,179.1L131.9,179.1z"/>
	
		<linearGradient id="SVGID_8_" gradientUnits="userSpaceOnUse" x1="132.3078" y1="170.3947" x2="132.3078" y2="170.3947" gradientTransform="matrix(0.9962 -1.294149e-03 -1.294149e-03 -0.9962 -0.4879 348.9961)">
		<stop  offset="0" style="stop-color:#CCE0F4"/>
		<stop  offset="0.13" style="stop-color:#C3DDEC"/>
		<stop  offset="0.35" style="stop-color:#A9D6D8"/>
		<stop  offset="0.63" style="stop-color:#80CAB6"/>
		<stop  offset="0.96" style="stop-color:#47B987"/>
		<stop  offset="0.99" style="stop-color:#40B782"/>
	</linearGradient>
	<polygon class="st7" points="131.1,179.1 131.1,179.1 131.1,179.1 131.1,179.1 	"/>
	
		<linearGradient id="SVGID_9_" gradientUnits="userSpaceOnUse" x1="131.9272" y1="170.7638" x2="131.9272" y2="170.7638" gradientTransform="matrix(1 0 0 -1 0 349.8898)">
		<stop  offset="0" style="stop-color:#CCE0F4"/>
		<stop  offset="0.13" style="stop-color:#C3DDEC"/>
		<stop  offset="0.35" style="stop-color:#A9D6D8"/>
		<stop  offset="0.63" style="stop-color:#80CAB6"/>
		<stop  offset="0.96" style="stop-color:#47B987"/>
		<stop  offset="0.99" style="stop-color:#40B782"/>
	</linearGradient>
	<path class="st8" d="M131.9,179.1C131.9,179.1,131.9,179.1,131.9,179.1L131.9,179.1L131.9,179.1z"/>
	
		<linearGradient id="SVGID_10_" gradientUnits="userSpaceOnUse" x1="131.9872" y1="170.8038" x2="131.9872" y2="170.8038" gradientTransform="matrix(1 0 0 -1 0 349.8898)">
		<stop  offset="0" style="stop-color:#CCE0F4"/>
		<stop  offset="0.13" style="stop-color:#C3DDEC"/>
		<stop  offset="0.35" style="stop-color:#A9D6D8"/>
		<stop  offset="0.63" style="stop-color:#80CAB6"/>
		<stop  offset="0.96" style="stop-color:#47B987"/>
		<stop  offset="0.99" style="stop-color:#40B782"/>
	</linearGradient>
	<path class="st9" d="M132,179.1L132,179.1z"/>
	
		<linearGradient id="SVGID_11_" gradientUnits="userSpaceOnUse" x1="130.3083" y1="167.4521" x2="132.6882" y2="167.4521" gradientTransform="matrix(1 0 0 -1 0 349.8898)">
		<stop  offset="0" style="stop-color:#CCE0F4"/>
		<stop  offset="0.13" style="stop-color:#C3DDEC"/>
		<stop  offset="0.35" style="stop-color:#A9D6D8"/>
		<stop  offset="0.63" style="stop-color:#80CAB6"/>
		<stop  offset="0.96" style="stop-color:#47B987"/>
		<stop  offset="0.99" style="stop-color:#40B782"/>
	</linearGradient>
	<path class="st10" d="M132.4,182.1c-0.1-0.2-0.2-0.4-0.3-0.6c-0.2-0.6-0.6-0.6-1.1-0.3c-0.9,0.6-0.9,0.5-0.4,1.4l0.2,0.4
		c0.4,0.7,0.8,0.8,1.4,0.5S132.8,182.9,132.4,182.1z"/>
	
		<linearGradient id="SVGID_12_" gradientUnits="userSpaceOnUse" x1="131.3571" y1="161.019" x2="134.2547" y2="161.019" gradientTransform="matrix(1 0 0 -1 0 349.8898)">
		<stop  offset="0" style="stop-color:#CCE0F4"/>
		<stop  offset="0.13" style="stop-color:#C3DDEC"/>
		<stop  offset="0.35" style="stop-color:#A9D6D8"/>
		<stop  offset="0.63" style="stop-color:#80CAB6"/>
		<stop  offset="0.96" style="stop-color:#47B987"/>
		<stop  offset="0.99" style="stop-color:#40B782"/>
	</linearGradient>
	<path class="st11" d="M134,188c-0.2-0.3-0.6-0.4-0.9-0.4c-0.3,0.1-0.6,0.2-0.8,0.3c-0.8,0.4-1,1-0.8,1.6c0.1,0.4,0.5,0.7,0.9,0.7
		c0.7,0,1.4-0.4,1.8-1C134.3,188.8,134.3,188.3,134,188z"/>
</g>
</svg>
