<svg id="Layer_1" data-name="Layer 1" xmlns="http://www.w3.org/2000/svg" xmlns:xlink="http://www.w3.org/1999/xlink" viewBox="0 0 250 350"><defs><style>.cls-1{fill:none;}.cls-2{fill:#40b782;}.cls-3{fill:#34495e;}.cls-4{clip-path:url(#clip-path);}.cls-5{fill:#367f32;}.cls-6{fill:#d1d166;}.cls-7{fill:#d36666;}.cls-8{fill:#367f33;}.cls-9{fill:#a99603;}.cls-10{fill:#357f33;}.cls-11{fill:#a99602;}.cls-12{fill:#bf3d3d;}.cls-13{fill:#367e32;}.cls-14{fill:#c03d3e;}.cls-15{fill:#aa9601;}.cls-16{fill:#bc3c3d;}.cls-17{fill:#a99503;}.cls-18{fill:#a99601;}.cls-19{fill:#bf3d3e;}</style><clipPath id="clip-path"><path class="cls-1" d="M128.87,157.16l-3.41,3.35a21.89,21.89,0,0,1-3.63-4q-9.38-16.27-18.76-32.54l-8.89-15.38H50.39a1.56,1.56,0,0,0-.74.06v.13c.12.17.24.33.35.51L68.3,141l55.83,96.74c.27.46.54.92.86,1.45.16-.27.29-.45.4-.65l20.16-34.92q26-45.08,52-90.16c.91-1.57,1.75-3.18,2.76-4.68v-.13a1.56,1.56,0,0,0-.74-.06H156.89l-9.53,16.51Z"/></clipPath></defs><title>i-lo-vue</title><g id="ilovue"><path class="cls-2" d="M211.15,99.61H177.34c-.24,0-10.69.09-15.5.25a21.32,21.32,0,0,1-1.74,3.21l-3.2,5.55h42.72a1.56,1.56,0,0,1,.74.06v.13c-1,1.51-1.86,3.12-2.76,4.68q-26,45.08-52,90.16l-20.16,34.92c-.11.19-.23.38-.4.65-.31-.53-.59-1-.86-1.45L68.3,141,50,109.32c-.1-.18-.23-.34-.35-.51v-.13a1.56,1.56,0,0,1,.74-.06H94.18l-4.77-8.24a1.94,1.94,0,0,1-.19-.43c-1.89-.21-16.3-.38-16.58-.33H38.85a1.8,1.8,0,0,0-.85.07v.15c.13.2.28.38.4.59L59.54,137,124,248.73c.31.54.63,1.06,1,1.67.19-.31.33-.52.46-.74l23.28-40.32q30-52.05,60.09-104.1c1-1.81,2-3.67,3.19-5.41v-.15A1.81,1.81,0,0,0,211.15,99.61Z"/><path class="cls-3" d="M105.45,99.69l-.19,0c-2,0-1.17,0,0,0H89.18a.64.64,0,0,0,0,.24,1.94,1.94,0,0,0,.19.43l4.77,8.24L103.07,124q9.39,16.27,18.76,32.54a21.89,21.89,0,0,0,3.63,4l3.41-3.35,18.49-32,9.53-16.51,3.2-5.55a21.32,21.32,0,0,0,1.74-3.21l.06-.15-.72,0c-10.17,0-4.1,0-14.28,0a1.11,1.11,0,0,0-1.12.65L141,108.62q-7.25,12.57-14.51,25.14c-.12.21-.18.49-.48.6l-.38-.64-14.48-25.1-4.78-8.29a1.09,1.09,0,0,0-.92-.64"/><g class="cls-4"><path class="cls-2" d="M153.28,126.94q20.85,0,41.7,0c.82,0,1.19.28,1.13,1.12,0,.64,0,1.28,0,1.92-2.78,0-5.55,0-8.33,0H155.32c-2.36,0-2,.28-2.07-2C153.25,127.62,153.27,127.28,153.28,126.94Z"/><path class="cls-5" d="M213.59,220.58q-18.86,0-37.72,0c-.51,0-1.26.3-1.49-.34a4,4,0,0,1,0-2.4c.16-.57.81-.32,1.25-.32q8.85,0,17.7,0l20.52,0c.44,1,.78,2.06-.07,3.06h-.09Z"/><path class="cls-2" d="M132.91,142.82l.1.75a2.72,2.72,0,0,1,0,2.3.6.6,0,0,0,0,.19q-17.7,0-35.39,0c-.86,0-1.17-.3-1.08-1.12a2.82,2.82,0,0,0,0-.77c-.18-1.15.31-1.43,1.42-1.43C109.57,142.84,121.24,142.82,132.91,142.82Z"/><path class="cls-2" d="M147.88,116.37q18.4,0,36.81,0c.9,0,1.24.28,1.16,1.17a15.57,15.57,0,0,0,0,1.67,2.4,2.4,0,0,1-1.61.26H150.55c-.55,0-1.11,0-1.66,0-.81.07-1.11-.31-1-1.11S147.87,117,147.88,116.37Z"/><path class="cls-6" d="M118.88,225.66c.1-3,.1-3,3.08-3l34.86,0c.13,3.06.13,3.06-2.88,3.06H120.4C119.89,225.78,119.39,225.7,118.88,225.66Z"/><path class="cls-6" d="M109.09,135.36l-1.13,0-40.46-.06a3.57,3.57,0,0,1-2.14-.25c-1.06-1-.46-1.95,0-2.93a14.27,14.27,0,0,1,4.42-.38c8.59,0,17.19-.16,25.77,0,4,.1,8.11-.32,12.14.16a4.93,4.93,0,0,1,1.43.27Z"/><path class="cls-7" d="M91.19,116.43c-.1,3-.1,3-5.77,3l-43.86,0c-1.16-.95-.75-1.94-.32-2.94l.32-.16h46.8C89.31,116.35,90.25,116.4,91.19,116.43Z"/><path class="cls-8" d="M203.11,222.67H228c2,0,2,0,2,2,0,.34,0,.68,0,1q-13,0-26,0c-.68,0-1.05-.18-1-.93S203.08,223.39,203.11,222.67Z"/><path class="cls-8" d="M159.17,222.69c8.08,0,16.16,0,24.23,0,1.26,0,1.86.28,1.67,1.63a9.22,9.22,0,0,0,0,1.41c-3.24,0-6.47.06-9.71.07-4.9,0-9.8,0-14.7,0-1.24,0-1.72-.34-1.54-1.57A13.16,13.16,0,0,0,159.17,222.69Z"/><path class="cls-2" d="M209.27,123.8c0,.76-.28,1-1.06,1-7.9,0-15.8,0-23.7,0-1.43,0-1.14-.89-1.18-1.71s0-1.43,1.18-1.42c8.24.06,16.48,0,24.73.06Z"/><path class="cls-9" d="M145.55,116.34v3.1c-8.12,0-16.24-.05-24.36,0-1.48,0-1.35-.71-1.4-1.7s.24-1.45,1.4-1.44C129.31,116.37,137.43,116.35,145.55,116.34Z"/><path class="cls-10" d="M216.16,119.47c-1.23.16-1.79-.31-1.58-1.61a10.29,10.29,0,0,0,0-1.51c.89-.82,2-.32,2.95-.33,7.18-.1,14.37-.06,21.55-.06a1.52,1.52,0,0,1,1.18.39q0,1.54,0,3.08a2.19,2.19,0,0,1-1.8.48q-10.26,0-20.52,0A2.52,2.52,0,0,1,216.16,119.47Z"/><path class="cls-2" d="M138.86,236.44c-8,0-16.07,0-24.11.06-.88,0-1.07-.35-1.07-1.14,0-2,0-2,1.91-2H137c2.08,0,1.86-.23,1.88,1.82,0,.34,0,.68,0,1A.47.47,0,0,0,138.86,236.44Z"/><path class="cls-2" d="M131.94,239.08c-.09,2.6-.09,2.6-2.68,2.6-7,0-14.09,0-21.14,0-1.4,0-1.34-.66-1.36-1.63s.1-1.52,1.35-1.51c7.86.06,15.71,0,23.57,0Z"/><path class="cls-2" d="M138.86,174.93c0,3,0,3-3.1,3H115.94c-1.68,0-1.68,0-1.69-1.63,0-.47,0-.94,0-1.41,3.59,0,7.18-.07,10.77-.06C129.63,174.87,134.24,174.91,138.86,174.93Z"/><path class="cls-2" d="M109.14,228h23c.72,0,1.57-.17,1.4,1-.12.87.59,2.25-1.25,2.09-7.44,0-14.88,0-22.31,0-.74,0-.86-.19-.83-.81C109.13,229.58,109.13,228.81,109.14,228Z"/><path class="cls-2" d="M202.8,116.61c-.09,2.83-.09,2.83-3,2.83-3.59,0-7.17-.06-10.76,0-1.36,0-1.15-.77-1.14-1.56s-.24-1.6,1.13-1.58c4.57.09,9.13.07,13.7.09A.69.69,0,0,0,202.8,116.61Z"/><path class="cls-6" d="M171.43,124.8h-14.5c-.29-3.1-.29-3.1,2.79-3.1,3.5,0,7,0,10.5,0,1.07,0,1.48.29,1.33,1.36C171.46,123.61,171.46,124.2,171.43,124.8Z"/><path class="cls-11" d="M117.55,116.38c0,3,0,3-3,3s-6.22,0-9.33,0c-1,0-1.29-.31-1.19-1.23a16,16,0,0,0,0-1.79Z"/><path class="cls-8" d="M187.16,225.69c.05-3,.05-3,3.07-3s6.06,0,9.09,0c1.1,0,1.6.24,1.44,1.41a12,12,0,0,0,0,1.66Z"/><path class="cls-7" d="M84.16,146.05c-4.18,0-8.37,0-12.55,0-1.13,0-1.66-.21-1.49-1.07a2.37,2.37,0,0,0,0-.9c-.19-1,.39-1.33,1.78-1.31,4.07.05,8.13,0,12.2,0Z"/><path class="cls-12" d="M85.45,228.08c.07,3,.07,3-2.93,3-2.17,0-4.35,0-6.52,0-.79,0-1.21-.17-1.11-1.05.07-.68,0-1.36.06-2Z"/><path class="cls-10" d="M196.08,212.14c.11,3.06.11,3.06-2.93,3.06-1.67,0-3.34,0-5,0-.83,0-1.07-.32-1-1l0-2.05h0Z"/><path class="cls-2" d="M138.64,167.15c0-3,0-3,3.07-3,1.24,0,2.48.05,3.71,0,1-.06,1.52.28,1.4,1.37a15,15,0,0,0,0,1.66Q142.73,167.31,138.64,167.15Z"/><path class="cls-13" d="M134,241.61c0-3,0-3,3.07-3H142l.25.26a2.34,2.34,0,0,1,0,2.75C139.47,241.73,136.75,241.72,134,241.61Z"/><path class="cls-10" d="M204.91,116.39c2.13,0,4.26,0,6.39-.05.79,0,1.11.26,1,1s.25,1.45-.25,2.1h-6.42c-.51,0-.77-.23-.75-.78C204.92,117.92,204.9,117.16,204.91,116.39Z"/><path class="cls-6" d="M167.86,135.34c-2.09,0-4.19,0-6.28,0-.9,0-1.26-.25-1.14-1.15a5.45,5.45,0,0,0,0-1.15c-.05-.63.24-.81.83-.8,1.92,0,3.85,0,5.77,0,1.52,0,.54,1.22.89,1.79Z"/><path class="cls-2" d="M173.8,121.74c2.09,0,4.19,0,6.28-.06,1.22-.06,1.16.64,1.14,1.45s.19,1.74-1.22,1.68c-2-.08-4.1,0-6.15,0Q173.83,123.27,173.8,121.74Z"/><path class="cls-6" d="M115,201.39q14.81,0,29.63,0c.47,0,1.19-.28,1.36.31a5.39,5.39,0,0,1,0,2.53c0,.22-.34.22-.55.22h-.9q-29.5,0-59,0c-.5,0-1.29.35-1.46-.35a5.45,5.45,0,0,1,0-2.41c.12-.54.82-.3,1.26-.3Z"/><path class="cls-7" d="M100.63,215.2c-6.67,0-13.34,0-20,0-1,0-1.32-.19-1.28-1.23.09-2.25-.15-1.92,1.93-1.92q19.69,0,39.38,0c.51,0,1.3-.32,1.46.35a6.06,6.06,0,0,1,0,2.53c-.09.42-.76.23-1.17.23Z"/><path class="cls-2" d="M152.94,220.56c-5.86,0-11.71,0-17.57,0-1.35,0-1.38-.58-1.41-1.6s.2-1.55,1.46-1.54c11.71.05,23.42,0,35.13,0,.47,0,1.18-.29,1.35.35a3.84,3.84,0,0,1-.07,2.51c-.18.4-.78.21-1.2.21Z"/><path class="cls-7" d="M84,196.26c.42,0,.85-.11,1.27-.11h33.5c2,0,1.85-.33,1.87,1.82,0,.34,0,.68,0,1a2.33,2.33,0,0,1-1.49.23c-11.17,0-22.33,0-33.5,0-1.25,0-1.84-.24-1.61-1.59A7.59,7.59,0,0,0,84,196.26Z"/><path class="cls-2" d="M125.91,206.73c4.49,0,9,.05,13.46,0,1.33,0,1.29.65,1.29,1.57s0,1.58-1.29,1.57q-13.59-.09-27.17,0c-1.4,0-1.34-.66-1.36-1.64s.11-1.53,1.36-1.51C116.77,206.78,121.34,206.73,125.91,206.73Z"/><path class="cls-2" d="M172.5,206.74q0,1.52,0,3l-29.74,0c0-3,0-3,3-3Z"/><path class="cls-10" d="M157.88,212.09c3.94,0,7.87.06,11.8,0,1.36,0,1.27.69,1.27,1.59s.07,1.59-1.28,1.58q-11.93-.1-23.87,0c-1.35,0-1.27-.68-1.27-1.58s-.07-1.62,1.28-1.59C149.84,212.15,153.86,212.09,157.88,212.09Z"/><path class="cls-14" d="M92.28,220.54c-3.85,0-7.69,0-11.54,0-1.18,0-1.49-.39-1.4-1.48.07-.9-.16-1.68,1.32-1.67q11.67.12,23.34,0c1.46,0,1.27.73,1.32,1.65s-.13,1.52-1.36,1.5C100.06,220.49,96.17,220.54,92.28,220.54Z"/><path class="cls-14" d="M92,241.7c-3.85,0-7.69-.06-11.54,0-1.39,0-1.1-.81-1.13-1.58s-.15-1.57,1.17-1.56q11.41.08,22.82,0c1.45,0,1.12.85,1.18,1.66s0,1.5-1.22,1.48C99.54,241.65,95.78,241.7,92,241.7Z"/><path class="cls-6" d="M108.06,190.77l.5,0a7.41,7.41,0,0,1,0,3.07h0a1.73,1.73,0,0,1-1,.12Q96.3,194,85,194c-.35,0-.78.2-1.06-.21v-2.88c.36-.47.87-.21,1.3-.22,7.45-.06,14.89.07,22.34-.09A.86.86,0,0,1,108.06,190.77Z"/><path class="cls-15" d="M161.47,204.42l0-2.57c.15-.6.64-.46,1-.46,6.63,0,13.25,0,19.88,0,.91,0,1.23.32,1.16,1.2,0,.59,0,1.2,0,1.79-.24.27-.55.18-.84.18H162.21a1.19,1.19,0,0,1-.74-.12Z"/><path class="cls-2" d="M88.55,180.28c.44-.4,1-.22,1.47-.22q8.64,0,17.27,0c.83-.08,1.19.33,1,1.11s.55,1.69-.5,2.23a2.48,2.48,0,0,1-1.49.26c-5.38,0-10.77,0-16.15,0a2,2,0,0,1-1.36-.25C88.32,182.37,88.72,181.3,88.55,180.28Z"/><path class="cls-7" d="M133.35,215.2c-2.57,0-5.13,0-7.69,0-.94,0-1.28-.23-1.23-1.21.1-2.22-.21-1.93,1.91-1.93,5,0,9.92,0,14.88,0,1.42,0,1.21.77,1.22,1.62s.13,1.64-1.25,1.58C138.57,215.12,136,215.2,133.35,215.2Z"/><path class="cls-15" d="M83.89,233.38c2.6,0,5.21,0,7.81,0,.94,0,1.27.22,1.23,1.2-.08,2.29.15,1.89-1.92,1.89-4.95,0-9.9-.06-14.85,0-1.5,0-1.24-.79-1.29-1.67s.09-1.54,1.34-1.48C78.77,233.45,81.33,233.38,83.89,233.38Z"/><path class="cls-8" d="M201.76,204.38q-8.07.17-16.14,0c0-3,0-3,3.11-3H200c1.78,0,1.78,0,1.78,1.73C201.76,203.53,201.76,204,201.76,204.38Z"/><path class="cls-8" d="M203.84,204.38c.09-3,.09-3,3.11-3l12.75,0a7.29,7.29,0,0,1,.08,3.07l0,0c-4.34.63-8.7.27-13,.31A6.51,6.51,0,0,1,203.84,204.38Z"/><path class="cls-2" d="M101.22,206.73c2.1,0,4.19.07,6.29,0,1.27-.06,1.15.7,1.1,1.48s.38,1.67-1,1.65c-4.28-.06-8.55,0-12.83,0-.89,0-1.06-.36-1.05-1.15,0-2,0-2,1.9-1.95Z"/><path class="cls-7" d="M124.49,217.46c2.05,0,4.1,0,6.15,0,.81,0,1.21.19,1.1,1.07a7.76,7.76,0,0,0,0,1.28c0,.55-.24.75-.77.75H117.89c-.52,0-.8-.21-.79-.76a13.5,13.5,0,0,0,0-1.41c-.06-.75.29-.94,1-.93C120.22,217.48,122.35,217.46,124.49,217.46Z"/><path class="cls-6" d="M109.35,225.79c-2.05,0-4.11,0-6.16,0-.82,0-1.2-.22-1.1-1.08a7.92,7.92,0,0,0,0-1.28c0-.56.24-.75.77-.74H116c.53,0,.81.21.78.76,0,.17,0,.34,0,.51,0,1.82,0,1.82-1.75,1.82Z"/><path class="cls-7" d="M88.56,188.42c-.51-.84.06-1.66.05-2.49,0-.51.39-.46.73-.46,3.61,0,7.23,0,10.84,0,.66,0,.92.28.9.92s0,1.36,0,2c-.17.28-.44.2-.69.2H89.25C89,188.62,88.73,188.7,88.56,188.42Z"/><path class="cls-10" d="M173.06,215.19c-.15-3.09-.15-3.09,2.88-3.09,2.52,0,5,0,7.55,0,1,0,1.52.24,1.38,1.34a16.57,16.57,0,0,0,0,1.79Z"/><path class="cls-16" d="M84.82,225.78c-1.45,0-2.91,0-4.36,0-.82,0-1.12-.21-1.12-1.08,0-2-.05-2,2-2,2.61,0,5.22.07,7.83,0,1.46-.05,1.14.88,1.17,1.69s.13,1.54-1.12,1.45C87.74,225.7,86.28,225.78,84.82,225.78Z"/><path class="cls-17" d="M148.45,201.35h10.63c.43.89.13,1.83.18,2.74,0,.49-.42.45-.75.45H149c-.34,0-.78,0-.75-.45C148.32,203.18,148,202.24,148.45,201.35Z"/><path class="cls-10" d="M93.11,228c1.37,0,2.74,0,4.1,0,.82,0,1.2.22,1.1,1.08a6.8,6.8,0,0,0,0,1.15c0,.58-.17.87-.8.86q-4.49,0-9,0c-.53,0-.81-.19-.78-.75,0-.21,0-.43,0-.64,0-1.69,0-1.69,1.64-1.69Z"/><path class="cls-2" d="M133,196.2q0,1.51,0,3c-3.06,0-6.12,0-9.18.05-.88,0-1.11-.33-1-1.12,0-.63,0-1.27,0-1.91Z"/><path class="cls-18" d="M96.09,225.78c-.94,0-1.87,0-2.81,0-.66,0-.9-.21-.89-.88,0-2.74-.26-2.15,2.1-2.2,1.45,0,2.9,0,4.34,0,.78,0,1,.22,1,1-.06,2.55.19,2-2,2.08C97.29,225.8,96.69,225.78,96.09,225.78Z"/><path class="cls-19" d="M87.61,209.81H85.95c-2,0-2.35-.45-2-2.5.1-.53.39-.58.81-.58,1.92,0,3.85,0,5.77,0,.67,0,.94.25.87.9a2.39,2.39,0,0,0,0,.64c.2,1.21-.23,1.73-1.51,1.56A18.16,18.16,0,0,0,87.61,209.81Z"/><path class="cls-7" d="M111.34,217.46H113c1.9,0,2.41.68,1.93,2.54-.13.51-.46.55-.86.55-1.88,0-3.77,0-5.65,0-.67,0-1-.22-.88-.89a1.23,1.23,0,0,0,0-.13c0-2.52-.22-2,2-2.08C110.14,217.44,110.74,217.46,111.34,217.46Z"/><path class="cls-2" d="M188.82,140.71q-14.75,0-29.5,0c-.47,0-1.19.28-1.37-.32a4.47,4.47,0,0,1,0-2.52c0-.12.36-.19.55-.21a7.25,7.25,0,0,1,.9,0q29.37,0,58.74,0c.51,0,1.27-.32,1.5.32a4,4,0,0,1,0,2.4c-.16.59-.81.34-1.24.34q-10.52,0-21,0Z"/><path class="cls-6" d="M77.78,121.69c11.44,0,22.87.05,34.31,0,2.72,0,2.31.76,2.41,1.67s-.2,1.49-2.49,1.49c-22.63-.05-45.27,0-67.9,0-.85,0-2.2.31-2.48-.34a2.37,2.37,0,0,1,.13-2.51c.31-.4,1.44-.2,2.2-.2Z"/><path class="cls-6" d="M135.53,124.77c-5.82,0-11.63,0-17.45,0-1.22,0-1.44-.43-1.36-1.49s-.16-1.67,1.31-1.66q17.58.1,35.15,0c1.43,0,1.41.63,1.44,1.68s-.19,1.48-1.39,1.47C147.33,124.73,141.43,124.77,135.53,124.77Z"/><path class="cls-11" d="M141.14,135.26c-.51,0-1,.09-1.53.09H113c-1.87,0-1.62.16-1.64-1.65,0-.47,0-.94,0-1.41,9.36,0,18.73,0,28.09,0,1.28,0,1.83.28,1.61,1.61A8.35,8.35,0,0,0,141.14,135.26Z"/><path class="cls-2" d="M117.84,130c-4,0-8,0-11.93,0-1.26,0-1.25-.62-1.22-1.51s-.18-1.64,1.23-1.63q11.87.09,23.73,0c1.51,0,1.18.93,1.25,1.78s-.16,1.37-1.25,1.35C125.71,129.95,121.78,130,117.84,130Z"/><path class="cls-2" d="M142,126.91c2.61,0,5.22.06,7.82,0,1.25,0,1.16.69,1.11,1.47s.37,1.67-1.05,1.65q-8-.08-15.9,0c-1.21,0-1-.74-1-1.44s-.3-1.7,1.08-1.67C136.73,126.94,139.38,126.91,142,126.91Z"/><path class="cls-6" d="M158.13,135.35l-14.81,0c-.12-3-.12-3,2.9-3,3.54,0,7.08,0,10.61,0,1,0,1.52.2,1.36,1.32A16,16,0,0,0,158.13,135.35Z"/><path class="cls-7" d="M96.41,130c-1.5,0-3-.08-4.48,0-1.19.09-1.53-.38-1.38-1.46a4.46,4.46,0,0,0,0-.9c0-.55.24-.76.77-.76q5.19,0,10.38,0c.57,0,.75.27.72.79a5.13,5.13,0,0,0,0,1c.15,1-.25,1.35-1.27,1.29C99.57,129.95,98,130,96.41,130Z"/><path class="cls-2" d="M144.54,137.7l11,0c0,3.05,0,3.05-3.09,3.05-2.18,0-4.36,0-6.53,0-1,0-1.52-.27-1.4-1.36A14.51,14.51,0,0,0,144.54,137.7Z"/><path class="cls-7" d="M66.09,126.93c.39,3.09.39,3.09-5.26,3.09-3.07,0-6.15,0-9.22,0-1.41,0-2.07-.21-1.92-1a3,3,0,0,0,0-1.15c-.14-.73.41-1,1.75-.94,4.89,0,9.77,0,14.66,0Z"/><path class="cls-6" d="M111.81,169.5v3.09h0a7.24,7.24,0,0,1-2.93.21c-12.31-.18-24.62,0-36.94-.09a3.56,3.56,0,0,1-1.87-.17h.06q0-1.48,0-3c3.06,0,6.12-.06,9.18-.06Z"/><path class="cls-2" d="M123.9,167.22c-3.76,0-7.53,0-11.29,0-1.23,0-1.3-.56-1.25-1.48s-.24-1.67,1.2-1.66q11.35.09,22.71,0c1.35,0,1.27.73,1.28,1.63s0,1.53-1.23,1.5C131.51,167.16,127.71,167.22,123.9,167.22Z"/><path class="cls-7" d="M70.4,167.3l-.35-.37v-.77a6.37,6.37,0,0,0,.06-1c-.07-.7.3-1,1.31-1q16,0,32,0c1,0,1.43.24,1.31,1a1.34,1.34,0,0,0,0,.51c.28,1.25-.3,1.67-2.16,1.65-9.84-.08-19.68,0-29.53,0-.76,0-1.53,0-2.29.08Z"/><path class="cls-2" d="M118.12,137.66l-.05,3H103.83c-1.67,0-1.67,0-1.67-1.65q0-.71,0-1.41l15.92,0Z"/><path class="cls-7" d="M70.05,140l0-2.26c3.17-.24,6.35-.07,9.53-.1,3.65,0,7.3,0,11,0,1.14,0,1.63.23,1.51,1.09-.1.68-.11,1.36-.16,2q-9.92,0-19.85,0c-.71,0-1.57.22-2-.46Z"/><path class="cls-2" d="M142.45,137.7c0,3,0,3-3.08,3h-17.7c-.72,0-1.43.06-1.32-1,.29-.66-.49-1.58.15-2s1.41-.11,2.13-.11h18.42C141.52,137.63,142,137.68,142.45,137.7Z"/><path class="cls-2" d="M128.86,190.81h22.08c.11,3.08.11,3.08-2.9,3.08-5.9,0-11.79,0-17.69,0-1.25,0-1.71-.35-1.53-1.57A12.57,12.57,0,0,0,128.86,190.81Z"/><path class="cls-6" d="M126.28,190.77l.32.3-.06,2.79a7.67,7.67,0,0,1-3.13.17c-3.92,0-7.84-.08-11.76.05-.72,0-1.09-.26-1.07-.92a5.89,5.89,0,0,1,.34-2.34l0,0a1,1,0,0,1,.73-.15h14.16A1.37,1.37,0,0,1,126.28,190.77Z"/><path class="cls-5" d="M153.28,190.82c2.26,0,4.51,0,6.77,0,.83,0,1.23.15,1.22,1.11,0,2,0,2-2,2h-6Q153.28,192.35,153.28,190.82Z"/><path class="cls-7" d="M88.57,177.71V175a60.32,60.32,0,0,1,10.77,0c-.19,1,.21,2.06-.25,3a1.66,1.66,0,0,1-1.19.36c-2.56,0-5.12,0-7.69,0C89.59,178.35,88.94,178.36,88.57,177.71Z"/><path class="cls-7" d="M101.65,178c-.47-1-.05-2-.25-3.05.23-.27.55-.18.84-.18h9.2a1.17,1.17,0,0,1,.74.12h0a7,7,0,0,1,0,3.08l0,0a3.55,3.55,0,0,1-1.7.41q-3.76,0-7.51,0A1.8,1.8,0,0,1,101.65,178Z"/><path class="cls-2" d="M95.35,162c-7.84,0-15.69,0-23.53,0-1.87,0-1.74-.68-1.75-1.58s0-1.57,1.78-1.57q23.53.08,47.05,0c1.53,0,1.8.43,1.71,1.36s.33,1.79-1.74,1.78C111,162,103.2,162,95.35,162Z"/><path class="cls-2" d="M70.09,156.6q0-1.48,0-3c5.13,0,10.25,0,15.38-.07.93,0,1.28.25,1.22.91a6.65,6.65,0,0,0,0,1.28c.06.65-.29.91-1.22.91C80.34,156.63,75.22,156.62,70.09,156.6Z"/><path class="cls-2" d="M98.31,153.58c2.09,0,4.18,0,6.27,0,.86,0,1.21.2,1.2,1.14,0,2,0,2-1.89,2-1.45,0-2.91-.07-4.35,0-1,.06-1.38-.33-1.27-1.31.06-.59,0-1.19,0-1.79Z"/><path class="cls-7" d="M74.34,151.32H72.4c-2.27,0-2.18,0-2.3-1.67-.08-1.08.24-1.56,1.89-1.44a49.13,49.13,0,0,0,4.95,0c1.14,0,1.55.26,1.57,1.11,0,2,.08,2-2.57,2Z"/></g></g></svg>