<?xml version="1.0" encoding="utf-8"?>
<!-- Generator: Adobe Illustrator 22.1.0, SVG Export Plug-In . SVG Version: 6.00 Build 0)  -->
<svg version="1.1" id="Layer_1" xmlns="http://www.w3.org/2000/svg" xmlns:xlink="http://www.w3.org/1999/xlink" x="0px" y="0px"
	 viewBox="0 0 250 350" style="enable-background:new 0 0 250 350;" xml:space="preserve">
<style type="text/css">
	.st0{fill:#40B782;}
	.st1{fill:#34495E;}
	.st2{clip-path:url(#SVGID_2_);}
	.st3{fill:#367F32;}
	.st4{fill:#D1D166;}
	.st5{fill:#D36666;}
	.st6{fill:#367F33;}
	.st7{fill:#A99603;}
	.st8{fill:#357F33;}
	.st9{fill:#A99602;}
	.st10{fill:#BF3D3D;}
	.st11{fill:#367E32;}
	.st12{fill:#C03D3E;}
	.st13{fill:#AA9601;}
	.st14{fill:#BC3C3D;}
	.st15{fill:#A99503;}
	.st16{fill:#A99601;}
	.st17{fill:#BF3D3E;}
</style>
<title>i-lo-vue</title>
<g id="ilovue">
	<path class="st0" d="M211.1,99.6h-33.8c-0.2,0-10.7,0.1-15.5,0.3c-0.5,1.1-1.1,2.2-1.7,3.2l-3.2,5.6h42.7c0.2,0,0.5,0,0.7,0.1v0.1
		c-1,1.5-1.9,3.1-2.8,4.7c-17.3,30.1-34.7,60.1-52,90.2l-20.2,34.9c-0.1,0.2-0.2,0.4-0.4,0.6c-0.3-0.5-0.6-1-0.9-1.4L68.3,141
		L50,109.3c-0.1-0.2-0.2-0.3-0.3-0.5v-0.1c0.2-0.1,0.5-0.1,0.7-0.1h43.8l-4.8-8.2c-0.1-0.1-0.1-0.3-0.2-0.4
		c-1.9-0.2-16.3-0.4-16.6-0.3H38.8c-0.3,0-0.6,0-0.8,0.1v0.2c0.1,0.2,0.3,0.4,0.4,0.6L59.5,137L124,248.7c0.3,0.5,0.6,1.1,1,1.7
		c0.2-0.3,0.3-0.5,0.5-0.7l23.3-40.3c20-34.7,40-69.4,60.1-104.1c1-1.8,2-3.7,3.2-5.4v-0.2C211.7,99.6,211.4,99.6,211.1,99.6z"/>
	<path class="st1" d="M105.4,99.7h-0.2c-2,0-1.2,0,0,0H89.2c0,0.1,0,0.2,0,0.2c0,0.2,0.1,0.3,0.2,0.4l4.8,8.2l8.9,15.4
		c6.3,10.8,12.5,21.7,18.8,32.5c1,1.5,2.3,2.8,3.6,4l3.4-3.4l18.5-32l9.5-16.5l3.2-5.6c0.7-1,1.3-2.1,1.7-3.2l0.1-0.2h-0.7
		c-10.2,0-4.1,0-14.3,0c-0.5,0-0.9,0.2-1.1,0.7l-4.8,8.2c-4.8,8.4-9.7,16.8-14.5,25.1c-0.1,0.2-0.2,0.5-0.5,0.6l-0.4-0.6l-14.5-25.1
		l-4.8-8.3C106.2,100,105.8,99.7,105.4,99.7"/>
	<g>
		<defs>
			<path id="SVGID_1_" d="M128.9,157.2l-3.4,3.4c-1.4-1.2-2.6-2.5-3.6-4c-6.3-10.8-12.5-21.7-18.8-32.5l-8.9-15.4H50.4
				c-0.2,0-0.5,0-0.7,0.1v0.1c0.1,0.2,0.2,0.3,0.3,0.5L68.3,141l55.8,96.7c0.3,0.5,0.5,0.9,0.9,1.4c0.2-0.3,0.3-0.4,0.4-0.6
				l20.2-34.9c17.3-30.1,34.7-60.1,52-90.2c0.9-1.6,1.8-3.2,2.8-4.7v-0.1c-0.2-0.1-0.5-0.1-0.7-0.1h-42.7l-9.5,16.5L128.9,157.2z"/>
		</defs>
		<clipPath id="SVGID_2_">
			<use xlink:href="#SVGID_1_"  style="overflow:visible;"/>
		</clipPath>
		<g class="st2">
			<path class="st0" d="M153.3,126.9c13.9,0,27.8,0,41.7,0c0.8,0,1.2,0.3,1.1,1.1c0,0.6,0,1.3,0,1.9c-2.8,0-5.6,0-8.3,0h-32.5
				c-2.4,0-2,0.3-2.1-2C153.2,127.6,153.3,127.3,153.3,126.9z"/>
			<path class="st3" d="M213.6,220.6c-12.6,0-25.1,0-37.7,0c-0.5,0-1.3,0.3-1.5-0.3c-0.2-0.8-0.2-1.6,0-2.4c0.2-0.6,0.8-0.3,1.3-0.3
				c5.9,0,11.8,0,17.7,0h20.5c0.4,1,0.8,2.1-0.1,3.1h-0.1H213.6z"/>
			<path class="st0" d="M132.9,142.8l0.1,0.8c0.3,0.7,0.3,1.6,0,2.3c0,0.1,0,0.1,0,0.2c-11.8,0-23.6,0-35.4,0
				c-0.9,0-1.2-0.3-1.1-1.1c0-0.3,0-0.5,0-0.8c-0.2-1.1,0.3-1.4,1.4-1.4C109.6,142.8,121.2,142.8,132.9,142.8z"/>
			<path class="st0" d="M147.9,116.4c12.3,0,24.5,0,36.8,0c0.9,0,1.2,0.3,1.2,1.2c0,0.6,0,1.1,0,1.7c-0.5,0.3-1.1,0.4-1.6,0.3h-33.7
				c-0.6,0-1.1,0-1.7,0c-0.8,0.1-1.1-0.3-1-1.1C148,117.6,147.9,117,147.9,116.4z"/>
			<path class="st4" d="M118.9,225.7c0.1-3,0.1-3,3.1-3h34.9c0.1,3.1,0.1,3.1-2.9,3.1h-33.5C119.9,225.8,119.4,225.7,118.9,225.7z"
				/>
			<path class="st4" d="M109.1,135.4h-1.1l-40.5-0.1c-0.7,0.1-1.5,0.1-2.1-0.3c-1.1-1-0.5-1.9,0-2.9c1.4-0.4,2.9-0.5,4.4-0.4
				c8.6,0,17.2-0.2,25.8,0c4,0.1,8.1-0.3,12.1,0.2c0.5,0,1,0.1,1.4,0.3L109.1,135.4z"/>
			<path class="st5" d="M91.2,116.4c-0.1,3-0.1,3-5.8,3H41.6c-1.2-0.9-0.8-1.9-0.3-2.9l0.3-0.2h46.8
				C89.3,116.4,90.2,116.4,91.2,116.4z"/>
			<path class="st6" d="M203.1,222.7H228c2,0,2,0,2,2c0,0.3,0,0.7,0,1c-8.7,0-17.3,0-26,0c-0.7,0-1-0.2-1-0.9
				C203,224,203.1,223.4,203.1,222.7z"/>
			<path class="st6" d="M159.2,222.7c8.1,0,16.2,0,24.2,0c1.3,0,1.9,0.3,1.7,1.6c0,0.5,0,0.9,0,1.4c-3.2,0-6.5,0.1-9.7,0.1
				c-4.9,0-9.8,0-14.7,0c-1.2,0-1.7-0.3-1.5-1.6C159.2,223.7,159.2,223.2,159.2,222.7z"/>
			<path class="st0" d="M209.3,123.8c0,0.8-0.3,1-1.1,1c-7.9,0-15.8,0-23.7,0c-1.4,0-1.1-0.9-1.2-1.7c0-0.8,0-1.4,1.2-1.4
				c8.2,0.1,16.5,0,24.7,0.1L209.3,123.8z"/>
			<path class="st7" d="M145.5,116.3v3.1c-8.1,0-16.2-0.1-24.4,0c-1.5,0-1.3-0.7-1.4-1.7s0.2-1.4,1.4-1.4
				C129.3,116.4,137.4,116.4,145.5,116.3z"/>
			<path class="st8" d="M216.1,119.5c-1.2,0.2-1.8-0.3-1.6-1.6c0-0.5,0-1,0-1.5c0.9-0.8,2-0.3,2.9-0.3c7.2-0.1,14.4-0.1,21.6-0.1
				c0.4,0,0.9,0.1,1.2,0.4c0,1,0,2.1,0,3.1c-0.5,0.4-1.2,0.6-1.8,0.5c-6.8,0-13.7,0-20.5,0C217.3,120,216.7,119.8,216.1,119.5z"/>
			<path class="st0" d="M138.9,236.4c-8,0-16.1,0-24.1,0.1c-0.9,0-1.1-0.4-1.1-1.1c0-2,0-2,1.9-2H137c2.1,0,1.9-0.2,1.9,1.8
				c0,0.3,0,0.7,0,1C138.8,236.3,138.8,236.4,138.9,236.4z"/>
			<path class="st0" d="M131.9,239.1c-0.1,2.6-0.1,2.6-2.7,2.6c-7,0-14.1,0-21.1,0c-1.4,0-1.3-0.7-1.4-1.6s0.1-1.5,1.3-1.5
				c7.9,0.1,15.7,0,23.6,0L131.9,239.1z"/>
			<path class="st0" d="M138.9,174.9c0,3,0,3-3.1,3h-19.8c-1.7,0-1.7,0-1.7-1.6c0-0.5,0-0.9,0-1.4c3.6,0,7.2-0.1,10.8-0.1
				C129.6,174.9,134.2,174.9,138.9,174.9z"/>
			<path class="st0" d="M109.1,228h23c0.7,0,1.6-0.2,1.4,1c-0.1,0.9,0.6,2.3-1.3,2.1c-7.4,0-14.9,0-22.3,0c-0.7,0-0.9-0.2-0.8-0.8
				C109.1,229.6,109.1,228.8,109.1,228z"/>
			<path class="st0" d="M202.8,116.6c-0.1,2.8-0.1,2.8-3,2.8c-3.6,0-7.2-0.1-10.8,0c-1.4,0-1.1-0.8-1.1-1.6c0-0.8-0.2-1.6,1.1-1.6
				c4.6,0.1,9.1,0.1,13.7,0.1C202.7,116.5,202.8,116.5,202.8,116.6z"/>
			<path class="st4" d="M171.4,124.8h-14.5c-0.3-3.1-0.3-3.1,2.8-3.1c3.5,0,7,0,10.5,0c1.1,0,1.5,0.3,1.3,1.4
				C171.5,123.6,171.5,124.2,171.4,124.8z"/>
			<path class="st9" d="M117.5,116.4c0,3,0,3-3,3s-6.2,0-9.3,0c-1,0-1.3-0.3-1.2-1.2c0-0.6,0-1.2,0-1.8L117.5,116.4z"/>
			<path class="st6" d="M187.1,225.7c0.1-3,0.1-3,3.1-3c3,0,6.1,0,9.1,0c1.1,0,1.6,0.2,1.4,1.4c0,0.6,0,1.1,0,1.7L187.1,225.7z"/>
			<path class="st5" d="M84.2,146.1c-4.2,0-8.4,0-12.6,0c-1.1,0-1.7-0.2-1.5-1.1c0.1-0.3,0.1-0.6,0-0.9c-0.2-1,0.4-1.3,1.8-1.3
				c4.1,0.1,8.1,0,12.2,0L84.2,146.1z"/>
			<path class="st10" d="M85.4,228.1c0.1,3,0.1,3-2.9,3c-2.2,0-4.3,0-6.5,0c-0.8,0-1.2-0.2-1.1-1.1c0.1-0.7,0-1.4,0.1-2L85.4,228.1z
				"/>
			<path class="st8" d="M196.1,212.1c0.1,3.1,0.1,3.1-2.9,3.1c-1.7,0-3.3,0-5,0c-0.8,0-1.1-0.3-1-1v-2.1l0,0L196.1,212.1z"/>
			<path class="st0" d="M138.6,167.2c0-3,0-3,3.1-3c1.2,0,2.5,0.1,3.7,0c1-0.1,1.5,0.3,1.4,1.4c0,0.6,0,1.1,0,1.7
				C144.1,167.3,141.4,167.3,138.6,167.2z"/>
			<path class="st11" d="M134,241.6c0-3,0-3,3.1-3h4.9l0.3,0.3c0.6,0.8,0.6,1.9,0,2.8C139.5,241.7,136.7,241.7,134,241.6z"/>
			<path class="st8" d="M204.9,116.4c2.1,0,4.3,0,6.4-0.1c0.8,0,1.1,0.3,1,1c-0.1,0.7,0.3,1.4-0.3,2.1h-6.4c-0.5,0-0.8-0.2-0.8-0.8
				C204.9,117.9,204.9,117.2,204.9,116.4z"/>
			<path class="st4" d="M167.9,135.3c-2.1,0-4.2,0-6.3,0c-0.9,0-1.3-0.3-1.1-1.1c0-0.4,0-0.8,0-1.1c0-0.6,0.2-0.8,0.8-0.8
				c1.9,0,3.9,0,5.8,0c1.5,0,0.5,1.2,0.9,1.8L167.9,135.3z"/>
			<path class="st0" d="M173.8,121.7c2.1,0,4.2,0,6.3-0.1c1.2-0.1,1.2,0.6,1.1,1.4c0,0.8,0.2,1.7-1.2,1.7c-2-0.1-4.1,0-6.1,0
				C173.8,123.8,173.8,122.8,173.8,121.7z"/>
			<path class="st4" d="M115,201.4c9.9,0,19.7,0,29.6,0c0.5,0,1.2-0.3,1.4,0.3c0.2,0.8,0.2,1.7,0,2.5c0,0.2-0.3,0.2-0.6,0.2h-0.9
				c-19.7,0-39.3,0-59,0c-0.5,0-1.3,0.4-1.5-0.4c-0.2-0.8-0.2-1.6,0-2.4c0.1-0.5,0.8-0.3,1.3-0.3L115,201.4z"/>
			<path class="st5" d="M100.6,215.2c-6.7,0-13.3,0-20,0c-1,0-1.3-0.2-1.3-1.2c0.1-2.3-0.2-1.9,1.9-1.9c13.1,0,26.3,0,39.4,0
				c0.5,0,1.3-0.3,1.5,0.4c0.2,0.8,0.2,1.7,0,2.5c-0.1,0.4-0.8,0.2-1.2,0.2L100.6,215.2z"/>
			<path class="st0" d="M152.9,220.6c-5.9,0-11.7,0-17.6,0c-1.4,0-1.4-0.6-1.4-1.6s0.2-1.6,1.5-1.5c11.7,0.1,23.4,0,35.1,0
				c0.5,0,1.2-0.3,1.4,0.4c0.3,0.8,0.2,1.7-0.1,2.5c-0.2,0.4-0.8,0.2-1.2,0.2L152.9,220.6z"/>
			<path class="st5" d="M84,196.3c0.4,0,0.8-0.1,1.3-0.1h33.5c2,0,1.8-0.3,1.9,1.8c0,0.3,0,0.7,0,1c-0.5,0.2-1,0.3-1.5,0.2
				c-11.2,0-22.3,0-33.5,0c-1.3,0-1.8-0.2-1.6-1.6C84.1,197.2,84,196.7,84,196.3z"/>
			<path class="st0" d="M125.9,206.7c4.5,0,9,0.1,13.5,0c1.3,0,1.3,0.6,1.3,1.6s0,1.6-1.3,1.6c-9.1-0.1-18.1-0.1-27.2,0
				c-1.4,0-1.3-0.7-1.4-1.6s0.1-1.5,1.4-1.5C116.8,206.8,121.3,206.7,125.9,206.7z"/>
			<path class="st0" d="M172.5,206.7c0,1,0,2,0,3h-29.7c0-3,0-3,3-3H172.5z"/>
			<path class="st8" d="M157.9,212.1c3.9,0,7.9,0.1,11.8,0c1.4,0,1.3,0.7,1.3,1.6s0.1,1.6-1.3,1.6c-8-0.1-15.9-0.1-23.9,0
				c-1.4,0-1.3-0.7-1.3-1.6s-0.1-1.6,1.3-1.6C149.8,212.2,153.9,212.1,157.9,212.1z"/>
			<path class="st12" d="M92.3,220.5c-3.8,0-7.7,0-11.5,0c-1.2,0-1.5-0.4-1.4-1.5c0.1-0.9-0.2-1.7,1.3-1.7c7.8,0.1,15.6,0.1,23.3,0
				c1.5,0,1.3,0.7,1.3,1.6s-0.1,1.5-1.4,1.5C100,220.5,96.2,220.5,92.3,220.5z"/>
			<path class="st12" d="M92,241.7c-3.8,0-7.7-0.1-11.5,0c-1.4,0-1.1-0.8-1.1-1.6s-0.2-1.6,1.2-1.6c7.6,0.1,15.2,0.1,22.8,0
				c1.4,0,1.1,0.9,1.2,1.7s0,1.5-1.2,1.5C99.5,241.7,95.8,241.7,92,241.7z"/>
			<path class="st4" d="M108,190.8h0.5c0.2,1,0.2,2.1,0,3.1l0,0c-0.3,0.1-0.7,0.2-1,0.1c-7.5,0-15,0-22.6,0c-0.3,0-0.8,0.2-1.1-0.2
				v-2.9c0.4-0.5,0.9-0.2,1.3-0.2c7.4-0.1,14.9,0.1,22.3-0.1C107.7,190.6,107.9,190.7,108,190.8z"/>
			<path class="st13" d="M161.5,204.4v-2.6c0.1-0.6,0.6-0.5,1-0.5c6.6,0,13.3,0,19.9,0c0.9,0,1.2,0.3,1.2,1.2c0,0.6,0,1.2,0,1.8
				c-0.2,0.3-0.5,0.2-0.8,0.2h-20.5C161.9,204.6,161.7,204.6,161.5,204.4L161.5,204.4z"/>
			<path class="st0" d="M88.5,180.3c0.4-0.4,1-0.2,1.5-0.2c5.8,0,11.5,0,17.3,0c0.8-0.1,1.2,0.3,1,1.1s0.6,1.7-0.5,2.2
				c-0.5,0.2-1,0.3-1.5,0.3c-5.4,0-10.8,0-16.2,0c-0.5,0.1-1,0-1.4-0.3C88.3,182.4,88.7,181.3,88.5,180.3z"/>
			<path class="st5" d="M133.3,215.2c-2.6,0-5.1,0-7.7,0c-0.9,0-1.3-0.2-1.2-1.2c0.1-2.2-0.2-1.9,1.9-1.9c5,0,9.9,0,14.9,0
				c1.4,0,1.2,0.8,1.2,1.6c0,0.8,0.1,1.6-1.3,1.6C138.6,215.1,136,215.2,133.3,215.2z"/>
			<path class="st13" d="M83.9,233.4c2.6,0,5.2,0,7.8,0c0.9,0,1.3,0.2,1.2,1.2c-0.1,2.3,0.2,1.9-1.9,1.9c-4.9,0-9.9-0.1-14.8,0
				c-1.5,0-1.2-0.8-1.3-1.7s0.1-1.5,1.3-1.5C78.8,233.5,81.3,233.4,83.9,233.4z"/>
			<path class="st6" d="M201.8,204.4c-5.4,0.1-10.8,0.1-16.1,0c0-3,0-3,3.1-3H200c1.8,0,1.8,0,1.8,1.7
				C201.8,203.5,201.8,204,201.8,204.4z"/>
			<path class="st6" d="M203.8,204.4c0.1-3,0.1-3,3.1-3h12.8c0.2,1,0.3,2.1,0.1,3.1l0,0c-4.3,0.6-8.7,0.3-13,0.3
				C205.8,204.9,204.8,204.7,203.8,204.4z"/>
			<path class="st0" d="M101.2,206.7c2.1,0,4.2,0.1,6.3,0c1.3-0.1,1.2,0.7,1.1,1.5s0.4,1.7-1,1.6c-4.3-0.1-8.6,0-12.8,0
				c-0.9,0-1.1-0.4-1.1-1.1c0-2,0-2,1.9-1.9L101.2,206.7z"/>
			<path class="st5" d="M124.5,217.5c2.1,0,4.1,0,6.2,0c0.8,0,1.2,0.2,1.1,1.1c0,0.4,0,0.9,0,1.3c0,0.6-0.2,0.8-0.8,0.8h-13.1
				c-0.5,0-0.8-0.2-0.8-0.8c0-0.5,0-0.9,0-1.4c-0.1-0.8,0.3-0.9,1-0.9C120.2,217.5,122.3,217.5,124.5,217.5z"/>
			<path class="st4" d="M109.3,225.8c-2.1,0-4.1,0-6.2,0c-0.8,0-1.2-0.2-1.1-1.1c0-0.4,0-0.9,0-1.3c0-0.6,0.2-0.8,0.8-0.7H116
				c0.5,0,0.8,0.2,0.8,0.8c0,0.2,0,0.3,0,0.5c0,1.8,0,1.8-1.8,1.8L109.3,225.8z"/>
			<path class="st5" d="M88.5,188.4c-0.5-0.8,0.1-1.7,0.1-2.5c0-0.5,0.4-0.5,0.7-0.5c3.6,0,7.2,0,10.8,0c0.7,0,0.9,0.3,0.9,0.9
				s0,1.4,0,2c-0.2,0.3-0.4,0.2-0.7,0.2H89.2C89,188.6,88.7,188.7,88.5,188.4z"/>
			<path class="st8" d="M173,215.2c-0.1-3.1-0.1-3.1,2.9-3.1c2.5,0,5,0,7.6,0c1,0,1.5,0.2,1.4,1.3c0,0.6,0,1.2,0,1.8L173,215.2z"/>
			<path class="st14" d="M84.8,225.8c-1.4,0-2.9,0-4.4,0c-0.8,0-1.1-0.2-1.1-1.1c0-2-0.1-2,2-2c2.6,0,5.2,0.1,7.8,0
				c1.5-0.1,1.1,0.9,1.2,1.7s0.1,1.5-1.1,1.4C87.7,225.7,86.3,225.8,84.8,225.8z"/>
			<path class="st15" d="M148.4,201.4h10.6c0.4,0.9,0.1,1.8,0.2,2.7c0,0.5-0.4,0.4-0.8,0.4H149c-0.3,0-0.8,0-0.8-0.4
				C148.3,203.2,148,202.2,148.4,201.4z"/>
			<path class="st8" d="M93.1,228c1.4,0,2.7,0,4.1,0c0.8,0,1.2,0.2,1.1,1.1c0,0.4,0,0.8,0,1.1c0,0.6-0.2,0.9-0.8,0.9c-3,0-6,0-9,0
				c-0.5,0-0.8-0.2-0.8-0.8c0-0.2,0-0.4,0-0.6c0-1.7,0-1.7,1.6-1.7L93.1,228z"/>
			<path class="st0" d="M133,196.2c0,1,0,2,0,3c-3.1,0-6.1,0-9.2,0.1c-0.9,0-1.1-0.3-1-1.1c0-0.6,0-1.3,0-1.9L133,196.2z"/>
			<path class="st16" d="M96.1,225.8c-0.9,0-1.9,0-2.8,0c-0.7,0-0.9-0.2-0.9-0.9c0-2.7-0.3-2.1,2.1-2.2c1.4,0,2.9,0,4.3,0
				c0.8,0,1,0.2,1,1c-0.1,2.6,0.2,2-2,2.1C97.3,225.8,96.7,225.8,96.1,225.8z"/>
			<path class="st17" d="M87.6,209.8h-1.7c-2,0-2.3-0.4-2-2.5c0.1-0.5,0.4-0.6,0.8-0.6c1.9,0,3.8,0,5.8,0c0.7,0,0.9,0.3,0.9,0.9
				c0,0.2,0,0.4,0,0.6c0.2,1.2-0.2,1.7-1.5,1.6C89.1,209.8,88.4,209.8,87.6,209.8z"/>
			<path class="st5" d="M111.3,217.5h1.7c1.9,0,2.4,0.7,1.9,2.5c-0.1,0.5-0.5,0.6-0.9,0.6c-1.9,0-3.8,0-5.7,0c-0.7,0-1-0.2-0.9-0.9
				c0,0,0-0.1,0-0.1c0-2.5-0.2-2,2-2.1C110.1,217.4,110.7,217.5,111.3,217.5z"/>
			<path class="st0" d="M188.8,140.7c-9.8,0-19.7,0-29.5,0c-0.5,0-1.2,0.3-1.4-0.3c-0.2-0.8-0.2-1.7,0-2.5c0-0.1,0.4-0.2,0.6-0.2
				c0.3,0,0.6,0,0.9,0c19.6,0,39.2,0,58.7,0c0.5,0,1.3-0.3,1.5,0.3c0.2,0.8,0.2,1.6,0,2.4c-0.2,0.6-0.8,0.3-1.2,0.3c-7,0-14,0-21,0
				L188.8,140.7z"/>
			<path class="st4" d="M77.8,121.7c11.4,0,22.9,0.1,34.3,0c2.7,0,2.3,0.8,2.4,1.7s-0.2,1.5-2.5,1.5c-22.6-0.1-45.3,0-67.9,0
				c-0.8,0-2.2,0.3-2.5-0.3c-0.4-0.8-0.4-1.8,0.1-2.5c0.3-0.4,1.4-0.2,2.2-0.2L77.8,121.7z"/>
			<path class="st4" d="M135.5,124.8c-5.8,0-11.6,0-17.4,0c-1.2,0-1.4-0.4-1.4-1.5s-0.2-1.7,1.3-1.7c11.7,0.1,23.4,0.1,35.1,0
				c1.4,0,1.4,0.6,1.4,1.7s-0.2,1.5-1.4,1.5C147.3,124.7,141.4,124.8,135.5,124.8z"/>
			<path class="st9" d="M141.1,135.3c-0.5,0-1,0.1-1.5,0.1H113c-1.9,0-1.6,0.2-1.6-1.6c0-0.5,0-0.9,0-1.4c9.4,0,18.7,0,28.1,0
				c1.3,0,1.8,0.3,1.6,1.6C141,134.4,141.1,134.8,141.1,135.3z"/>
			<path class="st0" d="M117.8,130c-4,0-8,0-11.9,0c-1.3,0-1.3-0.6-1.2-1.5s-0.2-1.6,1.2-1.6c7.9,0.1,15.8,0.1,23.7,0
				c1.5,0,1.2,0.9,1.3,1.8s-0.2,1.4-1.3,1.4C125.7,130,121.8,130,117.8,130z"/>
			<path class="st0" d="M142,126.9c2.6,0,5.2,0.1,7.8,0c1.3,0,1.2,0.7,1.1,1.5c-0.1,0.8,0.4,1.7-1.1,1.6c-5.3-0.1-10.6-0.1-15.9,0
				c-1.2,0-1-0.7-1-1.4s-0.3-1.7,1.1-1.7C136.7,126.9,139.4,126.9,142,126.9z"/>
			<path class="st4" d="M158.1,135.4h-14.8c-0.1-3-0.1-3,2.9-3c3.5,0,7.1,0,10.6,0c1,0,1.5,0.2,1.4,1.3
				C158.1,134.2,158.1,134.8,158.1,135.4z"/>
			<path class="st5" d="M96.4,130c-1.5,0-3-0.1-4.5,0c-1.2,0.1-1.5-0.4-1.4-1.5c0-0.3,0-0.6,0-0.9c0-0.6,0.2-0.8,0.8-0.8
				c3.5,0,6.9,0,10.4,0c0.6,0,0.8,0.3,0.7,0.8c0,0.3,0,0.7,0,1c0.2,1-0.3,1.4-1.3,1.3C99.6,130,98,130,96.4,130z"/>
			<path class="st0" d="M144.5,137.7h11c0,3.1,0,3.1-3.1,3.1c-2.2,0-4.4,0-6.5,0c-1,0-1.5-0.3-1.4-1.4
				C144.5,138.8,144.6,138.3,144.5,137.7z"/>
			<path class="st5" d="M66.1,126.9c0.4,3.1,0.4,3.1-5.3,3.1c-3.1,0-6.2,0-9.2,0c-1.4,0-2.1-0.2-1.9-1c0.1-0.4,0.1-0.8,0-1.2
				c-0.1-0.7,0.4-1,1.8-0.9C56.3,126.9,61.2,126.9,66.1,126.9L66.1,126.9z"/>
			<path class="st4" d="M111.8,169.5v3.1l0,0c-1,0.3-1.9,0.3-2.9,0.2c-12.3-0.2-24.6,0-36.9-0.1c-0.6,0.1-1.3,0.1-1.9-0.2h0.1
				c0-1,0-2,0-3c3.1,0,6.1-0.1,9.2-0.1L111.8,169.5z"/>
			<path class="st0" d="M123.9,167.2c-3.8,0-7.5,0-11.3,0c-1.2,0-1.3-0.6-1.3-1.5s-0.2-1.7,1.2-1.7c7.6,0.1,15.1,0.1,22.7,0
				c1.4,0,1.3,0.7,1.3,1.6c0,0.9,0,1.5-1.2,1.5C131.5,167.2,127.7,167.2,123.9,167.2z"/>
			<path class="st5" d="M70.4,167.3l-0.3-0.4v-0.8c0-0.3,0.1-0.7,0.1-1c-0.1-0.7,0.3-1,1.3-1c10.7,0,21.3,0,32,0c1,0,1.4,0.2,1.3,1
				c0,0.2,0,0.3,0,0.5c0.3,1.3-0.3,1.7-2.2,1.6c-9.8-0.1-19.7,0-29.5,0c-0.8,0-1.5,0-2.3,0.1L70.4,167.3z"/>
			<path class="st0" d="M118.1,137.7l-0.1,3h-14.2c-1.7,0-1.7,0-1.7-1.6c0-0.5,0-0.9,0-1.4L118.1,137.7L118.1,137.7z"/>
			<path class="st5" d="M70,140v-2.3c3.2-0.2,6.3-0.1,9.5-0.1c3.7,0,7.3,0,11,0c1.1,0,1.6,0.2,1.5,1.1c-0.1,0.7-0.1,1.4-0.2,2
				c-6.6,0-13.2,0-19.8,0c-0.7,0-1.6,0.2-2-0.5L70,140z"/>
			<path class="st0" d="M142.4,137.7c0,3,0,3-3.1,3h-17.7c-0.7,0-1.4,0.1-1.3-1c0.3-0.7-0.5-1.6,0.2-2s1.4-0.1,2.1-0.1H141
				C141.5,137.6,142,137.7,142.4,137.7z"/>
			<path class="st0" d="M128.9,190.8h22.1c0.1,3.1,0.1,3.1-2.9,3.1c-5.9,0-11.8,0-17.7,0c-1.3,0-1.7-0.4-1.5-1.6
				C128.9,191.8,128.9,191.3,128.9,190.8z"/>
			<path class="st4" d="M126.3,190.8l0.3,0.3l-0.1,2.8c-1,0.3-2.1,0.3-3.1,0.2c-3.9,0-7.8-0.1-11.8,0.1c-0.7,0-1.1-0.3-1.1-0.9
				c0-0.8,0.1-1.6,0.3-2.3l0,0c0.2-0.1,0.5-0.2,0.7-0.1h14.2C126,190.7,126.1,190.7,126.3,190.8z"/>
			<path class="st3" d="M153.3,190.8c2.3,0,4.5,0,6.8,0c0.8,0,1.2,0.1,1.2,1.1c0,2,0,2-2,2h-6C153.3,192.9,153.3,191.8,153.3,190.8z
				"/>
			<path class="st5" d="M88.6,177.7V175c3.6-0.3,7.2-0.3,10.8,0c-0.2,1,0.2,2.1-0.3,3c-0.3,0.3-0.8,0.4-1.2,0.4c-2.6,0-5.1,0-7.7,0
				C89.6,178.4,88.9,178.4,88.6,177.7z"/>
			<path class="st5" d="M101.6,178c-0.5-1-0.1-2-0.3-3.1c0.2-0.3,0.6-0.2,0.8-0.2h9.2c0.3,0,0.5,0,0.7,0.1l0,0c0.2,1,0.2,2.1,0,3.1
				l0,0c-0.5,0.3-1.1,0.4-1.7,0.4c-2.5,0-5,0-7.5,0C102.5,178.4,102,178.3,101.6,178z"/>
			<path class="st0" d="M95.3,162c-7.8,0-15.7,0-23.5,0c-1.9,0-1.7-0.7-1.8-1.6s0-1.6,1.8-1.6c15.7,0.1,31.4,0.1,47,0
				c1.5,0,1.8,0.4,1.7,1.4s0.3,1.8-1.7,1.8C111,162,103.2,162,95.3,162z"/>
			<path class="st0" d="M70.1,156.6c0-1,0-2,0-3c5.1,0,10.3,0,15.4-0.1c0.9,0,1.3,0.3,1.2,0.9c0,0.4,0,0.9,0,1.3
				c0.1,0.6-0.3,0.9-1.2,0.9C80.3,156.6,75.2,156.6,70.1,156.6z"/>
			<path class="st0" d="M98.3,153.6c2.1,0,4.2,0,6.3,0c0.9,0,1.2,0.2,1.2,1.1c0,2,0,2-1.9,2c-1.4,0-2.9-0.1-4.3,0
				c-1,0.1-1.4-0.3-1.3-1.3C98.3,154.8,98.3,154.2,98.3,153.6L98.3,153.6z"/>
			<path class="st5" d="M74.3,151.3h-1.9c-2.3,0-2.2,0-2.3-1.7c-0.1-1.1,0.2-1.6,1.9-1.4c1.6,0.1,3.3,0.1,4.9,0
				c1.1,0,1.6,0.3,1.6,1.1c0,2,0.1,2-2.6,2H74.3z"/>
		</g>
	</g>
</g>
</svg>
