<?xml version="1.0" encoding="utf-8"?>
<!-- Generator: Adobe Illustrator 22.1.0, SVG Export Plug-In . SVG Version: 6.00 Build 0)  -->
<svg version="1.1" id="Layer_1" xmlns="http://www.w3.org/2000/svg" xmlns:xlink="http://www.w3.org/1999/xlink" x="0px" y="0px"
	 viewBox="0 0 250 350" style="enable-background:new 0 0 250 350;" xml:space="preserve">
<style type="text/css">
	.st0{fill:#40B782;}
	.st1{fill:#848484;}
	.st2{font-family:'ArialMT';}
	.st3{font-size:32.75px;}
</style>
<title>isshort</title>
<g id="isshort">
	<path class="st0" d="M54,221.2c-7.9,0-15.8-0.2-23.7,0.1c-4.4,0.1-5.7-1.6-5.7-5.8c0.1-27.3,0.1-54.6,0-81.9c0-3.6,1.4-5,4.9-4.9
		c9,0.1,18.1,0,28.1,0c-15.7,10.7-20,23.9-12.8,38c3.5,6.8,9.6,10.6,16,14.1c4.5,2.4,9.4,4.2,13.2,7.8s4.7,7.9,2.5,12.7
		c-2,4.5-5.8,5.6-10.4,5.5c-5.1-0.1-9.5-2.1-13.6-5c-2.1-1.5-5-4.8-6.6-0.4c-1.5,3.9-7.9,7.8-1.6,12.6c3.1,2.3,6.7,4,10,6L54,221.2z
		"/>
	<path class="st1" d="M111.3,184.8c-0.1-1-0.1-2,0-2.9v-19c-0.1-0.7-0.1-1.4-0.1-2.2c0.1-2.2,0.1-4.4,0.1-6.6v-13.4
		c0-2.4,0-4.9,0-7.3c0-2.3,0.6-4.8-3.2-4.8c-9.4,0.1-18.8,0-28.5,0c0.7,2.5,2.4,2.2,3.5,2.7c10.6,5.3,10.8,6,5.8,16.3
		c-1.5,3.1-2.6,4.6-5.8,1.6c-3.4-3.2-7.8-5.3-12.4-6c-4.6-0.8-9-0.1-11.3,4.8c-2.2,4.6-1.1,8.8,2.6,12c2.3,2,4.8,3.7,7.4,5.1
		c3.8,2.2,7.9,4,11.7,6.4c9.2,5.8,14.1,14.2,13.3,25.2c-0.7,10.9-5.4,19.2-16.2,23c-0.2,0.1-0.1,0.8-0.2,1.3
		c9.3,0,18.6-0.2,27.9,0.1c3.7,0.1,5.2-0.9,5.5-3.8v-5.5C111.1,202.9,111.2,193.8,111.3,184.8z"/>
	<text transform="matrix(1 0 0 1 10.785 188.0371)" class="st0 st2 st3">I</text>
	<path class="st1" d="M133.9,180.8c0.1,1.9-0.5,3.7-1.6,5.2c-0.7,1-1.8,1.7-3,2.1c-0.8,0.2-1.6,0.4-2.4,0.3c-1.5,0.1-3-0.4-4.3-1.3
		c-1-0.7-1.7-1.7-2.2-2.9c-0.6-1.3-0.9-2.7-1-4.1l4.2-0.3c0.1,1.3,0.5,2.6,1.4,3.7c0.4,0.5,1.1,0.8,1.8,0.8c1,0,1.8-0.6,2.3-1.4
		c0.3-0.6,0.5-1.3,0.4-1.9c-0.1-1.4-0.7-2.7-1.7-3.6l-3.9-3.7c-1.2-1.1-2.3-2.4-3.1-3.8c-0.7-1.3-1-2.7-1-4.1
		c-0.1-2.3,0.9-4.6,2.7-6c1.2-0.8,2.6-1.3,4.1-1.2c1.4,0,2.8,0.3,4,1.1c0.9,0.6,1.6,1.4,2.1,2.3c0.6,1,0.9,2.2,1,3.4l-4.2,0.8
		c0-1-0.4-2-1-2.8c-0.4-0.5-1.1-0.8-1.7-0.7c-0.8,0-1.5,0.4-1.8,1.1c-0.4,0.7-0.5,1.4-0.5,2.1c0.1,1.5,0.7,3,1.7,4.1
		c0.6,0.7,1.3,1.3,2,1.9c1,0.9,1.7,1.5,2,1.8c1,1,1.8,2,2.5,3.2c0.3,0.4,0.5,0.9,0.7,1.4C133.6,178.9,133.8,179.8,133.9,180.8z"/>
	<path class="st1" d="M141.9,175.7V188h-4.4v-29.1h4.4v12.4h5.3v-12.4h4.4V188h-4.4v-12.3H141.9z"/>
	<path class="st1" d="M162.4,158.5c3.9,0,7,3.1,7,7v15.9c0,3.9-3.1,7-7,7c-1.8,0-3.6-0.7-4.9-2c-1.3-1.3-2-3.1-2-4.9v-16
		C155.5,161.7,158.6,158.5,162.4,158.5L162.4,158.5z M164.8,165.4c0-1.4-1.1-2.5-2.4-2.5c0,0,0,0-0.1,0c-0.7,0-1.3,0.3-1.8,0.7
		c-0.5,0.5-0.8,1.1-0.7,1.8v16c0,0.7,0.3,1.3,0.7,1.8c0.5,0.5,1.1,0.7,1.8,0.7c1.4,0,2.5-1.1,2.5-2.5c0,0,0,0,0,0V165.4z"/>
	<path class="st1" d="M180.2,158.9c2.5,0,4.3,0.7,5.4,2c1.1,1.4,1.6,3.2,1.5,4.9v4.2c0,2-0.8,3.9-2.4,5.3l3.3,12.7h-4.7l-2.7-11
		h-0.4h-2.5v11h-4.4v-29.1H180.2z M182.9,165.9c0.2-1.2-0.7-2.4-1.9-2.5c-0.2,0-0.4,0-0.6,0h-2.6v9.3h2.6c0.7,0,1.3-0.3,1.8-0.7
		c0.5-0.5,0.7-1.1,0.7-1.8L182.9,165.9z"/>
	<path class="st1" d="M195,163.3h-4.7v-4.4h13.7v4.4h-4.6V188H195L195,163.3z"/>
	<path class="st1" d="M207.1,183.7h4.4v4.4h-4.4V183.7z"/>
	<path class="st1" d="M219.4,170.6h-3.3v-3.1h9.7v3.1h-3.3V188h-3.1L219.4,170.6z"/>
	<path class="st1" d="M231.4,181.5v6.4h-3.1v-20.5h3.1v7.3l3.8-7.3h3.3l-4.2,8.4l5,12.1h-3.6l-3.2-8.3L231.4,181.5z"/>
</g>
</svg>
