<svg id="Layer_1" data-name="Layer 1" xmlns="http://www.w3.org/2000/svg" viewBox="0 0 250 350"><defs><style>.cls-1{fill:#3ab4b9;}.cls-2{font-size:32.48px;fill:#f9f9f9;font-family:Montserrat-Black, Montserrat;}.cls-3{letter-spacing:-0.01em;}</style></defs><title>miku-site</title><path id="mikusite" class="cls-1" d="M183.19,100.08C167.89,85,149.34,77,128,76.39A82.79,82.79,0,0,0,67.48,218.26c15.49,15.13,34.14,23.19,55.68,23.66A82.51,82.51,0,0,0,208,161.12C208.43,137.35,200.17,116.83,183.19,100.08Zm-5.46,4.76a96.66,96.66,0,0,1-14,5,28.61,28.61,0,0,0-3.05.82c-.83.34-1,0-1.27-.67a77.31,77.31,0,0,0-9.62-18.71c-1.11-1.55-2.35-3-3.52-4.51A73,73,0,0,1,177.72,104.84Zm-47.48,18.34c0-.86.19-1.18,1.13-1.2a122,122,0,0,0,18.38-1.76c1.45-.26,3-.3,4.38-.68.81-.22.94.2,1.06.65.88,3.6,1.73,7.22,2.58,10.83.23,1-.48.79-1,.79H144c-4.21,0-8.41,0-12.62,0-.9,0-1.18-.26-1.16-1.17C130.29,128.16,130.29,125.67,130.24,123.18Zm0-23.61c0-4.64,0-9.28,0-13.92,0-1.14.31-1.2,1.22-.83a26.27,26.27,0,0,1,9.73,7.27,57.4,57.4,0,0,1,9,14.39c.74,1.62,1.38,3.27,2,4.92.39,1-.1,1.15-.75,1.26-2.3.39-4.59.78-6.9,1.06-4.27.52-8.56.79-12.85,1.08-1.16.08-1.52-.24-1.49-1.45C130.3,108.76,130.25,104.16,130.25,99.57ZM123,130.71c0,.95-.31,1.12-1.18,1.12-4.64,0-9.28,0-13.91,0s-9.1,0-13.66,0c-1.09,0-1.54,0-1.23-1.42.72-3.3,1.47-6.6,2.35-9.86.21-.79.29-1.11,1.39-.93,4.89.8,9.78,1.58,14.74,1.93,3.41.24,6.82.53,10.24.48.92,0,1.28.21,1.25,1.22C123,125.72,123,128.21,123,130.71Zm-3.44-46c.78-.31,1.66-.37,2.43-.7s1,0,1,.76c0,4.86,0,9.71,0,14.57s0,9.54,0,14.31c0,.86-.17,1.18-1.11,1.17a135.77,135.77,0,0,1-14.65-1c-2.65-.31-5.28-.73-7.92-1.08-.93-.12-1.35-.31-.87-1.48a74,74,0,0,1,7.76-14.92C109.75,91.33,113.82,87,119.61,84.7Zm-15,1.81c-1.62,2.17-3.2,3.95-4.54,5.92a78.7,78.7,0,0,0-8.74,17.32c-.31.86-.57,1.22-1.59.94A106.39,106.39,0,0,1,73,104.84,75.91,75.91,0,0,1,104.64,86.51ZM50,155.74c.16-2.86.44-5.7.87-8.53a73.78,73.78,0,0,1,4.72-16.84A77.7,77.7,0,0,1,66.22,112.2c.26-.34.67-.59.85-1,.4-.83.89-.8,1.62-.44a85,85,0,0,0,11.56,4.6q3.68,1.17,7.42,2.17c.81.21.89.47.69,1.24a119.23,119.23,0,0,0-2.7,12c-.1.69-.42,1-1.19,1-2.14-.06-4.29,0-6.92,0-2.16.18-4.82-.22-7.47.24a12.59,12.59,0,0,0-9.66,9.21,25.79,25.79,0,0,0-.26,5.38c0,3.05,0,6.11,0,9.16,0,.86-.26,1.08-1.09,1.07-2.7,0-5.41,0-8.11,0C50.18,156.85,49.93,156.72,50,155.74Zm16.58,50.78A76,76,0,0,1,53.1,180.91a66.62,66.62,0,0,1-2.77-14.22c-.19-2.6-.22-2.6,2.46-2.61,2.06,0,4.12,0,6.18,0,.88,0,1.23.24,1.2,1.17-.06,1.72,0,3.44,0,5.46.11,2.46-.26,5.23.78,7.94a12.45,12.45,0,0,0,11.2,7.86c4.08,0,8.16,0,12.23,0,.78,0,1.2.21,1.32,1a104.87,104.87,0,0,0,2.67,11.91c.24.87.14,1.15-.81,1.4a98.74,98.74,0,0,0-18.15,6.41C67.74,208,67.73,208,66.57,206.52Zm6.37,7a102.14,102.14,0,0,1,17.36-6c.77-.2.76.28.92.69A87.19,87.19,0,0,0,96,219a56.64,56.64,0,0,0,7.81,11.59,11.46,11.46,0,0,1,.8,1.17A76.25,76.25,0,0,1,72.94,213.47ZM123,218.4q0,.39,0,.77c0,4.77,0,9.54,0,14.31,0,.78,0,1.08-1,.84a21.78,21.78,0,0,1-10.25-5.83c-5.24-5-8.82-11.14-11.67-17.74-.57-1.32-1.09-2.65-1.69-4-.3-.65-.14-1,.52-1.1,2.47-.38,4.93-.82,7.41-1.1q5.24-.6,10.51-1c1.84-.13,3.69,0,5.53-.07.89,0,.66.6.66,1.06Q123,211.5,123,218.4Zm-1-22.18c-.72.07-1.46.08-2.18.09a126.54,126.54,0,0,0-15.65,1.26c-2.6.36-5.2.73-7.78,1.24-.63.13-.8-.15-.91-.54-1-3.66-1.87-7.37-2.64-11.1-.19-.93.59-.64,1-.64,4.68,0,9.36,0,14,0s9.27,0,13.91,0c.86,0,1.2.17,1.17,1.12-.07,2.49-.07,5,0,7.48C123.08,195.92,122.71,196.16,122.06,196.22ZM77.68,179.29c-1.76,0-3.52,0-5.28,0a5,5,0,0,1-5-5q0-15.09,0-30.19a5.06,5.06,0,0,1,5.41-5h52.68q26.34,0,52.68,0a5,5,0,0,1,5.18,5.26q0,14.84,0,29.67a5.07,5.07,0,0,1-5.43,5.32Zm52.54,8.35c0-.9.24-1.17,1.14-1.16,4.24,0,8.49,0,12.73,0s8.32,0,12.47,0c.88,0,1.34,0,1.08,1.25-.7,3.45-1.56,6.85-2.42,10.26-.15.6-.29.94-1.19.78-4-.68-7.94-1.34-12-1.7-3.61-.32-7.21-.72-10.84-.73-.83,0-1-.37-1-1.1C130.26,192.7,130.29,190.17,130.23,187.64Zm1,45.92c-.93.35-1,0-1-.72,0-4.73,0-9.45,0-14.18s0-9.28,0-13.92c0-.94.21-1.29,1.2-1.22,4,.28,8,.51,12,1,2.66.32,5.3.72,8,1.09.87.12,1.29.29.86,1.4-3.07,8-7,15.4-13.16,21.42A22.47,22.47,0,0,1,131.23,233.56ZM146,231.82c1.25-1.57,2.31-2.82,3.29-4.14a75.17,75.17,0,0,0,10.09-19.28c.26-.72.47-1,1.41-.78a105.83,105.83,0,0,1,17,5.85A76.42,76.42,0,0,1,146,231.82Zm54.59-66.49a84,84,0,0,1-2.85,15.13,77.1,77.1,0,0,1-12.56,24.7c-.18.24-.42.43-.61.67-1.68,2.11-1.66,2.08-4.06,1a104.12,104.12,0,0,0-17.35-6c-.94-.25-1.06-.54-.82-1.4a104,104,0,0,0,2.69-12c.11-.73.52-.87,1.16-.87,2.19,0,4.38,0,7,0,2.36-.15,5.22.39,8-.35a12.2,12.2,0,0,0,9.07-9.22,10.53,10.53,0,0,0,.28-2.79c0-2.92,0-5.85,0-8.77,0-1.06.34-1.32,1.34-1.3,2.53.06,5.07.08,7.6,0C200.51,164,200.66,164.45,200.57,165.33Zm-.82-8.48c-2.75,0-5.5,0-8.24,0-.82,0-1-.27-1-1,0-3.78-.08-7.57,0-11.35a12.37,12.37,0,0,0-12.72-12.68c-1.71.07-3.43,0-5.15,0-2.19,0-4.38,0-6.57,0-.57,0-1-.06-1.09-.76a98.88,98.88,0,0,0-2.71-12.13c-.26-.92,0-1.17.87-1.4A102.65,102.65,0,0,0,182,110.78c.66-.32,1-.23,1.52.39a74.17,74.17,0,0,1,15.54,32.2,64.37,64.37,0,0,1,1.56,12.53C200.64,156.68,200.47,156.86,199.75,156.85Z"/><text class="cls-2" transform="translate(79.15 168.57)">MI<tspan class="cls-3" x="42.36" y="0">K</tspan><tspan x="66.88" y="0">U</tspan></text></svg>