<?xml version="1.0" encoding="utf-8"?>
<!-- Generator: Adobe Illustrator 22.1.0, SVG Export Plug-In . SVG Version: 6.00 Build 0)  -->
<svg version="1.1" id="Layer_1" xmlns="http://www.w3.org/2000/svg" xmlns:xlink="http://www.w3.org/1999/xlink" x="0px" y="0px"
	 viewBox="0 0 250 350" style="enable-background:new 0 0 250 350;" xml:space="preserve">
<style type="text/css">
	.st0{fill:#3AB4B9;}
	.st1{fill:#59D1D1;}
	.st2{font-family:'Montserrat-Black';}
	.st3{font-size:32.48px;}
</style>
<title>miku-site</title>
<g>
	<path id="mikusite" class="st0" d="M182.9,115.9c-15.3-15.1-33.9-23.1-55.2-23.7c-45.7-1.4-83.9,34.5-85.3,80.2
		c-0.7,23.1,8.3,45.5,24.8,61.7c15.5,15.1,34.1,23.2,55.7,23.7c45.6,1.3,83.5-34.6,84.8-80.1c0-0.2,0-0.4,0-0.7
		C208.1,153.2,199.8,132.7,182.9,115.9z M177.4,120.7c-4.5,2-9.2,3.7-14,5c-1,0.2-2,0.5-3.1,0.8c-0.8,0.3-1,0-1.3-0.7
		c-2.3-6.6-5.6-12.9-9.6-18.7c-1.1-1.6-2.4-3-3.5-4.5C157.8,105.9,168.6,112.1,177.4,120.7L177.4,120.7z M129.9,139
		c0-0.9,0.2-1.2,1.1-1.2c6.2-0.1,12.3-0.7,18.4-1.8c1.4-0.3,3-0.3,4.4-0.7c0.8-0.2,0.9,0.2,1.1,0.6c0.9,3.6,1.7,7.2,2.6,10.8
		c0.2,1-0.5,0.8-1,0.8h-12.8c-4.2,0-8.4,0-12.6,0c-0.9,0-1.2-0.3-1.2-1.2C130,144,130,141.5,129.9,139L129.9,139z M129.9,115.4
		c0-4.6,0-9.3,0-13.9c0-1.1,0.3-1.2,1.2-0.8c3.8,1.6,7.1,4.1,9.7,7.3c3.7,4.3,6.7,9.2,9,14.4c0.7,1.6,1.4,3.3,2,4.9
		c0.4,1-0.1,1.2-0.8,1.3c-2.3,0.4-4.6,0.8-6.9,1.1c-4.3,0.5-8.6,0.8-12.9,1.1c-1.2,0.1-1.5-0.2-1.5-1.4
		C130,124.6,129.9,120,129.9,115.4z M122.7,146.6c0,0.9-0.3,1.1-1.2,1.1c-4.6,0-9.3,0-13.9,0s-9.1,0-13.7,0c-1.1,0-1.5,0-1.2-1.4
		c0.7-3.3,1.5-6.6,2.3-9.9c0.2-0.8,0.3-1.1,1.4-0.9c4.9,0.8,9.8,1.6,14.7,1.9c3.4,0.2,6.8,0.5,10.2,0.5c0.9,0,1.3,0.2,1.3,1.2
		C122.7,141.6,122.7,144.1,122.7,146.6z M119.2,100.6c0.8-0.3,1.7-0.4,2.4-0.7s1,0,1,0.8c0,4.9,0,9.7,0,14.6s0,9.5,0,14.3
		c0,0.9-0.2,1.2-1.1,1.2c-4.9-0.1-9.8-0.4-14.7-1c-2.7-0.3-5.3-0.7-7.9-1.1c-0.9-0.1-1.3-0.3-0.9-1.5c2-5.3,4.6-10.3,7.8-14.9
		C109.4,107.2,113.5,102.8,119.2,100.6L119.2,100.6z M104.2,102.4c-1.6,2.2-3.2,3.9-4.5,5.9c-3.6,5.4-6.6,11.2-8.7,17.3
		c-0.3,0.9-0.6,1.2-1.6,0.9c-5.7-1.5-11.3-3.4-16.7-5.9C81.6,112.1,92.4,105.8,104.2,102.4L104.2,102.4z M49.7,171.6
		c0.2-2.9,0.4-5.7,0.9-8.5c0.9-5.8,2.5-11.4,4.7-16.8c2.7-6.5,6.3-12.6,10.6-18.2c0.3-0.3,0.7-0.6,0.8-1c0.4-0.8,0.9-0.8,1.6-0.4
		c3.7,1.8,7.6,3.4,11.6,4.6c2.5,0.8,4.9,1.5,7.4,2.2c0.8,0.2,0.9,0.5,0.7,1.2c-1.1,4-2,8-2.7,12c-0.1,0.7-0.4,1-1.2,1
		c-2.1-0.1-4.3,0-6.9,0c-2.2,0.2-4.8-0.2-7.5,0.2c-4.7,1-8.5,4.5-9.7,9.2c-0.3,1.8-0.4,3.6-0.3,5.4c0,3.1,0,6.1,0,9.2
		c0,0.9-0.3,1.1-1.1,1.1c-2.7,0-5.4,0-8.1,0C49.8,172.7,49.6,172.6,49.7,171.6z M66.2,222.4c-6.1-7.6-10.7-16.3-13.5-25.6
		c-1.4-4.6-2.4-9.4-2.8-14.2c-0.2-2.6-0.2-2.6,2.5-2.6c2.1,0,4.1,0,6.2,0c0.9,0,1.2,0.2,1.2,1.2c-0.1,1.7,0,3.4,0,5.5
		c0.1,2.5-0.3,5.2,0.8,7.9c1.8,4.6,6.2,7.7,11.2,7.9c4.1,0,8.2,0,12.2,0c0.8,0,1.2,0.2,1.3,1c0.7,4,1.5,8,2.7,11.9
		c0.2,0.9,0.1,1.1-0.8,1.4c-6.2,1.5-12.3,3.7-18.2,6.4C67.4,223.8,67.4,223.8,66.2,222.4L66.2,222.4z M72.6,229.4
		c5.6-2.5,11.4-4.5,17.4-6c0.8-0.2,0.8,0.3,0.9,0.7c1.3,3.7,2.9,7.3,4.8,10.8c2.1,4.2,4.7,8.1,7.8,11.6c0.3,0.4,0.6,0.8,0.8,1.2
		C92.4,244.2,81.5,237.9,72.6,229.4L72.6,229.4z M122.7,234.2c0,0.3,0,0.5,0,0.8c0,4.8,0,9.5,0,14.3c0,0.8,0,1.1-1,0.8
		c-3.9-1-7.4-3-10.3-5.8c-5.2-5-8.8-11.1-11.7-17.7c-0.6-1.3-1.1-2.6-1.7-4c-0.3-0.6-0.1-1,0.5-1.1c2.5-0.4,4.9-0.8,7.4-1.1
		c3.5-0.4,7-0.7,10.5-1c1.8-0.1,3.7,0,5.5-0.1c0.9,0,0.7,0.6,0.7,1.1C122.7,225,122.7,229.6,122.7,234.2z M121.7,212.1
		c-0.7,0.1-1.5,0.1-2.2,0.1c-5.2,0.1-10.5,0.5-15.7,1.3c-2.6,0.4-5.2,0.7-7.8,1.2c-0.6,0.1-0.8-0.1-0.9-0.5c-1-3.7-1.9-7.4-2.6-11.1
		c-0.2-0.9,0.6-0.6,1-0.6c4.7,0,9.4,0,14,0s9.3,0,13.9,0c0.9,0,1.2,0.2,1.2,1.1c-0.1,2.5-0.1,5,0,7.5
		C122.7,211.8,122.4,212,121.7,212.1L121.7,212.1z M77.3,195.1c-1.8,0-3.5,0-5.3,0c-2.8,0-5-2.2-5-5c0-10.1,0-20.1,0-30.2
		c0-2.8,2.3-5,5.1-5c0.1,0,0.2,0,0.3,0h52.7c17.6,0,35.1,0,52.7,0c2.8-0.1,5.1,2.1,5.2,4.8c0,0.2,0,0.3,0,0.5c0,9.9,0,19.8,0,29.7
		c0.1,2.8-2,5.2-4.8,5.3c-0.2,0-0.4,0-0.6,0L77.3,195.1z M129.9,203.5c0-0.9,0.2-1.2,1.1-1.2c4.2,0,8.5,0,12.7,0s8.3,0,12.5,0
		c0.9,0,1.3,0,1.1,1.3c-0.7,3.4-1.6,6.9-2.4,10.3c-0.1,0.6-0.3,0.9-1.2,0.8c-4-0.7-7.9-1.3-12-1.7c-3.6-0.3-7.2-0.7-10.8-0.7
		c-0.8,0-1-0.4-1-1.1C129.9,208.5,130,206,129.9,203.5L129.9,203.5z M130.9,249.4c-0.9,0.4-1,0-1-0.7c0-4.7,0-9.4,0-14.2
		s0-9.3,0-13.9c0-0.9,0.2-1.3,1.2-1.2c4,0.3,8,0.5,12,1c2.7,0.3,5.3,0.7,8,1.1c0.9,0.1,1.3,0.3,0.9,1.4c-3.1,8-7,15.4-13.2,21.4
		C136.5,246.5,133.9,248.3,130.9,249.4L130.9,249.4z M145.7,247.7c1.3-1.6,2.3-2.8,3.3-4.1c4.3-5.9,7.7-12.4,10.1-19.3
		c0.3-0.7,0.5-1,1.4-0.8c5.8,1.5,11.5,3.4,17,5.9C168.5,237.9,157.6,244.2,145.7,247.7z M200.3,181.2c-0.5,5.1-1.4,10.2-2.9,15.1
		c-2.7,8.9-6.9,17.3-12.6,24.7c-0.2,0.2-0.4,0.4-0.6,0.7c-1.7,2.1-1.7,2.1-4.1,1c-5.6-2.5-11.4-4.5-17.4-6c-0.9-0.3-1.1-0.5-0.8-1.4
		c1.1-3.9,2-8,2.7-12c0.1-0.7,0.5-0.9,1.2-0.9c2.2,0,4.4,0,7,0c2.4-0.1,5.2,0.4,8-0.4c4.5-1.1,8.1-4.7,9.1-9.2
		c0.2-0.9,0.3-1.9,0.3-2.8c0-2.9,0-5.9,0-8.8c0-1.1,0.3-1.3,1.3-1.3c2.5,0.1,5.1,0.1,7.6,0C200.2,179.8,200.3,180.3,200.3,181.2
		L200.3,181.2z M199.4,172.7c-2.8,0-5.5,0-8.2,0c-0.8,0-1-0.3-1-1c0-3.8-0.1-7.6,0-11.4c0.2-6.8-5.2-12.5-12.1-12.7
		c-0.2,0-0.4,0-0.7,0c-1.7,0.1-3.4,0-5.1,0c-2.2,0-4.4,0-6.6,0c-0.6,0-1-0.1-1.1-0.8c-0.6-4.1-1.6-8.1-2.7-12.1
		c-0.3-0.9,0-1.2,0.9-1.4c6.5-1.6,12.8-3.9,18.8-6.8c0.7-0.3,1-0.2,1.5,0.4c7.7,9.3,13.1,20.4,15.5,32.2c0.9,4.1,1.5,8.3,1.6,12.5
		C200.3,172.5,200.1,172.7,199.4,172.7L199.4,172.7z"/>
	<text transform="matrix(1 0 0 1 78.8184 184.4182)" class="st1 st2 st3">MI</text>
	<text transform="matrix(1 0 0 1 121.1784 184.4182)" class="st1 st2 st3">K</text>
	<text transform="matrix(1 0 0 1 145.6984 184.4182)" class="st1 st2 st3">U</text>
</g>
</svg>
