<?xml version="1.0" encoding="utf-8"?>
<!-- Generator: Adobe Illustrator 22.1.0, SVG Export Plug-In . SVG Version: 6.00 Build 0)  -->
<svg version="1.1" id="Layer_1" xmlns="http://www.w3.org/2000/svg" xmlns:xlink="http://www.w3.org/1999/xlink" x="0px" y="0px"
	 viewBox="0 0 250 350" style="enable-background:new 0 0 250 350;" xml:space="preserve">
<style type="text/css">
	.st0{fill:#3AB4B9;}
	.st1{fill:#FEFEF0;}
	.st2{fill:#F1B8B2;}
	.st3{fill:#C1E6E3;}
	.st4{fill:#E33C77;}
	.st5{fill:#E43B77;}
	.st6{fill:#EDB7B5;}
	.st7{fill:#E6B8B5;}
	.st8{fill:#E4B9BD;}
	.st9{fill:#B2B8BD;}
	.st10{fill:#E2BDB8;}
	.st11{fill:#A9BCBB;}
	.st12{fill:#90B8BE;}
	.st13{fill:#977197;}
	.st14{fill:#718C9C;}
	.st15{fill:#907795;}
	.st16{fill:#986F8B;}
	.st17{fill:#8C75A2;}
	.st18{fill:#98EBEF;}
	.st19{fill:#8A7897;}
	.st20{fill:#48949F;}
	.st21{fill:#48949E;}
	.st22{fill:#3BB4B9;}
	.st23{fill:#3AB6B8;}
	.st24{fill:#3AB5B6;}
	.st25{fill:#3CB4B8;}
	.st26{fill:#3BB4B8;}
	.st27{fill:#3CB4B9;}
	.st28{fill:none;}
	.st29{fill:#39B5B7;}
	.st30{font-family:'BerlinSansFBDemi-Bold';}
	.st31{font-size:23.4px;}
</style>
<title>projectThumbs</title>
<g>
	<g id="mikubot">
		<path class="st0" d="M77.6,159.4c4.1,5.2,9.5,9.2,15.7,11.6c1.6,0.7,3.2,1.2,5,1.9c-2.6,3.1-5,6.1-7.4,9.1
			c-0.5,0.5-1.1,0.8-1.8,0.6c-14.1-0.9-26.4-5.7-35.6-17.1c-0.7-0.9-1.1-2.1-1-3.3c0.4-14.3,2.8-28.5,7-42.2
			c2.6-8.3,5.7-16.5,9.3-24.4c1.4-3,3.8-4.7,6.5-6.2c8.7-5.1,17.9-8.7,28.2-9.4c0.4,0,0.7,0,1.1,0c0.5,0.1,1.1,0.3,1.1,0.9
			s-0.6,0.6-1,0.8c-3,1-6.1,2-9.1,3.1c-6.8,2.6-13.1,6-19,10.2c-0.6,0.5-1.4,0.8-1.8,1.9c4.3-1.9,8.3-3.7,12.5-5.3
			c9-3.3,18.4-5.3,27.9-6c6.9-0.6,13.9-0.6,20.8,0.1c8.5,0.8,16.8,2.8,24.8,5.8c2.7,1,5.3,2.2,8,3.3c1.4,0.1,2.8,0.6,3.8,1.6
			c-1.1-0.9-2.4-1.4-3.3-2.6c-6.7-5-14.3-8.1-22.2-10.8c-0.6-0.1-1.2-0.3-1.7-0.6c-0.5-0.4-1.8,0.1-1.5-1.1c0.3-0.8,1.1-1.4,1.9-1.3
			c1.8,0.1,3.6,0.2,5.3,0.5c9.6,1.7,18.8,5.5,26.8,11.1c1,0.6,1.8,1.5,2.3,2.6c5.4,10.8,9.5,22.1,12.4,33.8
			c2.6,10.6,4.2,21.5,4.8,32.4c0.3,4.6-2.4,7.1-5.1,9.6c-7.4,6.8-16.2,10.5-26.1,12.1c-4.4,0.7-7.8,0.5-10.2-3.8
			c-1-1.9-3.8-3.4-3.6-5.1c0.2-1.4,3.5-1.6,5.3-2.4c6-2.6,11.3-6.4,15.6-11.3c0.3-0.4,0.5-0.8,0.6-1.2c-0.1-1.8,0.9-3.4,1.1-5.1
			c0.1-0.5,0.8-0.9,0.4-1.6c-0.8,0.2-1.1,0.9-1.4,1.5c-0.1,0.3-0.3,0.6-0.5,0.8c-2.8,3.6-6.4,6.5-10.5,8.6c-0.5,0.3-1.1,0.5-1.7,0.7
			c-0.6,0.2-1.2,0.1-1.7-0.3c-0.5-0.5-0.3-1.1,0-1.7c0.4-0.9,0.9-1.7,1.5-2.5c3.5-4.8,6.4-10.1,8.7-15.6c0.6-1.6,1-3.3,1.6-4.9
			c0.4-1.3,0.2-2.7-0.6-3.8c-0.9-2-2.5-3.6-3.3-5.5c-0.2,1,2.6,2.4-0.2,3.3c-3.1-1.5-5.9-3.3-8.6-5.5c-3.8-2.8-7.8-5.5-11.4-8.5
			c-1.5-1.4-3.3-2.4-5-3.8c-0.6,1.7-0.3,3.1-0.4,4.5c-0.7,4.2-1.3,8.4-1.8,12.7c-0.3,2.2-1.3,2.7-3.2,1.6c-0.8-0.5-1.5-1.1-2.1-1.7
			c-1.2-1.6-2.6-3.1-4.1-4.5c0.1,1,0.4,2,0.8,3c0.6,1.7,1.1,3.4,1.8,5.1c0.4,0.9,0.8,1.9,0,2.7s-1.7,0.3-2.6,0.1
			c-4.3-1.1-8.3-3-11.9-5.6c-0.3-0.1-0.4-0.5-0.8-0.5c0.2,0.2,0.3,0.3,0.4,0.5c0.4,0.6,1,1.3,0.3,2c-0.7,0.7-1.3,0.1-1.8-0.2
			c-5.4-3.1-10.2-6.9-14.3-11.5c-1.7-2.2-3.7-4-5.4-6.2c-0.9-1.2-1.5-1-2,0.3c-1,2.7-2.5,5.2-3.1,8.1c-2.1,4.1-2.9,8.6-4.6,12.8
			c-0.2,0.4-0.2,0.9-0.4,1.3c-0.3,0.8-0.5,1.9-1.6,1.9s-1.4-1.2-1.6-2.1c-0.2-0.6-0.4-1.2-0.6-1.8c0.2,1.8,0,3.7,0.1,5.5
			c-0.8,4.8,1.2,8.5,4.2,12c1.5,1.8,3.1,3.5,4.4,5.3c0.5,0.7,1.3,1.5,0.6,2.4s-1.5,0.2-2.3-0.2c-4.2-1.9-8.1-4.4-11.6-7.5
			c-1.1-1.7-2.7-2.9-4.3-4.7c0,3.5,1.4,6.1,2.8,8.8C77.7,158.8,77.7,159.1,77.6,159.4z"/>
		<path class="st1" d="M171.4,134.4c1.3,1.2,1.4,2.5,0.9,4.2c-2.4,8.2-6.8,15.4-11.5,22.3c-0.4,0.6-1.4,1.1-0.7,1.8s1.4,0,2.1-0.3
			c4.6-2,8-5.3,11.3-8.9c0.7,1.4,0,3.9-1.5,5.3c-0.3,0.3-0.6,0.4-1,0.5c-2.4,2.8-6,3.8-9.2,5.4c-7.7,3.7-16,5.4-24.3,6.8
			c-4.3,0.7-8.6,1-12.9,0.9c-9.2-0.2-18.3-1.8-27-4.7c-5-1.7-10-3.7-14.8-5.9c-1.6-0.8-3-2.1-5-2.3l-0.5-0.5
			c0.1-1.1-0.6-2.1-0.9-3.1s-1-2.3,0-3.1c1.2-0.9,1.9,0.6,2.8,1c0.1,0.1,0.2,0.2,0.3,0.3c4.2,3,8.2,6.1,13.4,7.9
			c-0.2-1-0.7-1.8-1.4-2.5c-2.1-2.4-4-5-6-7.5c-2.4-3-2.6-6.2-2.2-9.7c0.2-0.8,0.3-1.7,0.4-2.5c0.2-0.7,0.3-1.4,1.3-1.4
			c0.3,0.8,0.3,1.6,1.3,2.2c1.4-4.3,2.9-8.6,4.2-12.9c0.3-1.2,0.9-2.3,1.7-3.3c0.9-2.2,2-4.3,3.2-6.2c0.9-1.3,1.8-1.5,2.9-0.4
			c1.6,1.6,3.5,2.8,5,4.5c4.6,4.3,9.3,8.6,14.9,11.7c0.2,0.1,0.5,0.2,0.9,0.4c0-0.7-0.2-1.4-0.7-1.9c-0.4-0.9-0.1-1.2,0.8-0.8
			c3.9,2.7,8.2,4.6,12.8,5.8c0.5,0.1,1.1,0.5,1.5,0.1s0.1-1.1-0.1-1.7c-0.8-1.9-1.5-3.9-2-5.9c-0.3-0.7-0.6-1.5,0.3-2
			c0.8-0.5,1.2,0.4,1.6,0.9c0.7,0.7,1.4,1.4,2.1,2c1.3,0.9,2.4,3,3.9,2.4c1.4-0.5,0.5-2.7,0.8-4.1c0.8-3.5,0.7-7.1,1.6-10.5
			c0.9-3.9,0.9-3.9,4.3-1.9c0.7,0.4,1.4,0.8,2,1.3l17.6,12.5l2.1,1.6C169.1,132.2,170.5,133.1,171.4,134.4z"/>
		<path class="st2" d="M170.9,159.4c1.1-1.8,2.6-3.5,2.4-5.9l0.3-0.4c0.4-0.4,0.7-1.2,1.6-1c0.6,0.2,0.5,0.6,0.4,1.1
			c0,1.9-0.6,3.7-1.6,5.3C172.9,158.6,172.2,160,170.9,159.4z"/>
		<path class="st3" d="M169.2,93.9c1.7,0.7,3.1,1.9,4.1,3.4l-4.6-2.4C169,94.7,169.2,94.3,169.2,93.9z"/>
		<path class="st4" d="M178.1,94.8c0.6,1,1.1,2,1.7,3c0.9,1.7,0.7,3.4,0.2,5.2c-0.7,3.6-1.7,7.1-3.1,10.5c-2.2-2-3-5-2.3-7.8
			c0.6-0.8,0.3-1.9,0.8-2.8c-0.2-2.7,1.3-5.2,1-8c0.4-0.5,1.1-0.6,1.5-0.2C178,94.7,178.1,94.8,178.1,94.8z"/>
		<path class="st5" d="M73.1,100.2l0.1,2.6c0.8,1.1,0,2.6,0.8,3.7c0,1.6,0,3.2,0.2,4.9c0.3,1.7-1,2.2-2,2.9c-0.7,0.5-0.9-0.3-1-0.7
			c-0.5-1.1-0.7-2.4-0.7-3.6c-0.7-0.8-0.1-2-0.8-2.8l-0.2-2.6c-0.7-0.8,0-2-0.8-2.8c-0.3-2.9,2.3-4.5,3-6.9c0.1-0.3,0.4,0.3,0.6,0.6
			C73.3,97.1,72.2,98.8,73.1,100.2z"/>
		<path class="st6" d="M103,122.2c-1.9-1.1-3.7-2.5-5.3-4c-0.9-1-1.3-0.9-2.1,0.2c-1.3,1.9-2,4.3-3.7,5.9c0.4-3.4,2.2-6.3,3.6-9.4
			c0.5-1.1,1.1-0.6,1.5-0.1C98.9,117.4,101.3,119.5,103,122.2z"/>
		<path class="st7" d="M79.4,154.1c-1.1,0-2-1.7-2.8-0.9s0.4,2.1,0.6,3.3c0.1,0.8,0.8,1.6,0,2.5c-2-3.2-3.4-6.5-3-10.9
			C75.9,150.5,78.3,151.7,79.4,154.1z"/>
		<path class="st8" d="M147.7,118.1c-1-0.3-1.9-0.8-2.8-1.3c-1.9-1.4-2.8-0.9-3.1,1.3c0,0.2-0.3,0.4-0.4,0.5c0-1.3,0-2.5,0-3.8
			s0.8-1.7,1.5-0.9C144.5,115.5,146.5,116.3,147.7,118.1z"/>
		<path class="st9" d="M171.4,134.4c-1.2-0.9-2.8-1.2-3.9-2.3c1.3-0.4,0.5-1,0.3-1.6c-0.3-1-1.7-1.7-0.9-3.4
			C168.3,129.8,170.5,131.7,171.4,134.4z"/>
		<path class="st10" d="M84.8,138.4c-1.1,1.1-0.8,2.8-1.7,4c-0.2-2.6-0.1-5.2,0.5-7.7L84.8,138.4z"/>
		<path class="st11" d="M135,130.8c-1-0.2-1.5-1.1-2.3-1.6c-0.4-0.3-0.7-1.1-1.4-0.8s-0.1,1.1-0.4,1.6c-0.6-0.5-0.4-1.2-0.6-1.9
			s-1.1-1.2-0.4-1.8c0.9-0.6,1.4,0.5,1.9,1C133.1,128.4,134,129.6,135,130.8z"/>
		<path class="st12" d="M175.6,153.2c-0.5-2-1.3-0.1-1.9-0.1c0-0.5,0.3-1,0.7-1.3c0.5-0.4,1-1.6,1.7-1c0.6,0.6,0.6,1.5,0,2.1
			C175.9,153,175.7,153.1,175.6,153.2z"/>
		<path class="st13" d="M73.1,100.2c-1.6-1.3-0.6-3-0.8-4.6C74,97,72.9,98.7,73.1,100.2z"/>
		<path class="st14" d="M74,106.6c-1.5-1-0.6-2.4-0.8-3.7C74.8,103.8,73.9,105.3,74,106.6z"/>
		<path class="st15" d="M69.6,107.4c1.4,0.6,0.7,1.8,0.8,2.8C69,109.5,69.8,108.3,69.6,107.4z"/>
		<path class="st16" d="M68.8,102c1.4,0.6,0.7,1.8,0.8,2.8C68.1,104.1,68.9,102.9,68.8,102z"/>
		<path class="st17" d="M178.1,94.8h-1.7c0-0.6-0.4-1.4,0.4-1.5c0.7,0,1.3,0.6,1.3,1.3C178.1,94.7,178.1,94.8,178.1,94.8z"/>
		<path class="st18" d="M118.9,131.6c-0.5,0-0.8,0.3-0.8,0.8c-0.6-0.5-1.1-1.2-1.2-2C117.6,130.6,118.3,131,118.9,131.6z"/>
		<path class="st19" d="M175.4,102.9c-0.1,1,0.6,2.2-0.8,2.8C174.4,104.7,174.7,103.6,175.4,102.9z"/>
		<path class="st20" d="M145.9,139.8c0-2.3,0.3-4.6,0.9-6.8c0.6-2,1.7-3.5,4-3.7c2.1-0.2,4.1,0.9,4.9,2.8c2.9,6,2.1,12.1-0.4,17.9
			c-1.2,2.8-4.3,3-6.4,0.5C146.4,147.4,145.9,143.6,145.9,139.8z"/>
		<path class="st21" d="M96.9,139.5c-0.1-2.5,0.3-4.9,1.2-7.2c0.7-1.6,1.8-2.8,3.7-2.9c1.8-0.1,3.5,0.8,4.3,2.4
			c3.1,6,3,12.3,0.4,18.4c-1.2,2.9-4.5,3.1-6.6,0.5C97.2,147.4,96.9,143.5,96.9,139.5z"/>
	</g>
	<g id="mikubot2">
		<path class="st22" d="M181.2,226.9c-0.2,3.7,0.4,7.5-0.4,11.2c-1,4.3-3.7,6.6-8.1,6.8c-4.8,0.1-9.6,0-14.4,0.1
			c-1.8,0-2.4-0.7-2.5-2.4c-0.4-6.9-0.5-6.9,6.6-6.8c2.2,0,4.4,0,6.7-0.1c2.8-0.1,4.3-1.6,4.4-4.4c0.1-1.5,0.1-3-0.1-4.6
			c-0.3-2.4-1.4-4.1-4.2-4.2s-4.3,1.5-4.7,4.1c0,0.2,0,0.5,0,0.7c-0.2,1.6,0.7,3.8-0.8,4.6c-1.9,1-4.3,0.4-6.5,0.3
			c-0.6,0-1.1-0.5-1.1-1.1c-0.1-1.6,0-3.3-0.1-4.9c-0.1-2.2,1.4-2,2.8-2.6c1.9-0.9,1.3-3.2,1.1-4.7c-0.5-3.4,1.1-4,3.9-3.9
			c4.9,0.1,9.8,0.1,14.7,0c2.1,0,3,0.7,2.9,2.9C181.1,220.8,181.2,223.9,181.2,226.9z"/>
		<path class="st23" d="M75.2,215.4c3.7,0,7.5,0.1,11.2,0c2,0,3,0.6,2.9,2.8c-0.1,7.6,0,15.2,0,22.8c0,3.5-2.7,5.1-6,3.8
			c-1.4-0.6-1.8-4.1-0.4-5.4c0.9-0.7,1.4-1.8,1.4-3c0-4.3,0-8.6,0-13c0-1,0.2-2.3-1.4-2.2c-1.3,0.1-1.6,1.1-1.6,2.3
			c0.1,5.6,0.1,11.2,0.1,16.8c0,3.9-2,5.6-5.8,4.4c-2.9-1-1.3-3.5-1.5-5.4c2.2-5.7,2.3-12.1,0.3-17.9
			C73.6,219.5,73.9,217.2,75.2,215.4z"/>
		<path class="st24" d="M71.1,243.4c-0.6,1.9-2.1,1.6-3.4,1.2s-1-1.7-1-2.6c0-1.3-0.1-2.6,0-3.8c0.2-2.8-0.8-2.4-2.4-0.5
			c-0.9-4.1-0.5-7.3,2.3-10.2c1.1-1.1,2.9-3.1-0.9-3c-0.7,0-1.5-0.2-1.6-1c-0.2-1.5-0.7-3.9,0.4-4.2c2.8-0.5,1.8-7.1,6.6-3.9
			c0.7,1.2,0.2,3.2,2.4,3.3c0.6,0,0.6,0.9,0.7,1.4c1.3,5.2,1.4,10.6,0.5,15.8c-0.2,1-0.3,3.1-2.3,1.1l0,0c-1.7-0.1-1,1.1-1.1,1.9
			C71.2,240.5,71.6,242,71.1,243.4z"/>
		<path class="st25" d="M125,237.8c-0.7-3.3,0.4-4.3,3.7-3.6c6.2,1.2,12.4,2.1,18.7,2.8c4.3,0.5,2.9,3.6,2.8,5.8
			c0,2.9-2.3,2-3.9,1.8c-6-0.8-12-1.8-18-2.5C125.5,241.7,124.3,240.4,125,237.8z"/>
		<path class="st26" d="M149.6,221.1c0.4,2.6-0.3,3.5-3.2,3c-5.9-1.1-11.9-1.8-17.9-2.4c-4-0.4-3.1-3.2-2.9-5.4
			c0.2-2.7,2.4-1.4,3.8-1.3c5.6,0.6,11.3,1.4,16.9,2.1C148.8,217.4,150.3,218.4,149.6,221.1z"/>
		<path class="st27" d="M145.9,233.8c-5.9-0.9-12-1.9-18.1-2.8c-3.3-0.5-1.9-2.9-2.1-4.6c-0.2-2.1,1.4-2,2.9-1.9
			c6,0.8,12,1.7,18,2.4c3.6,0.4,3,2.9,2.9,5.2C149.5,234.8,147.4,233.4,145.9,233.8z"/>
		<path class="st22" d="M118.7,241.7c-0.1-3.6-0.1-7.2-0.1-10.9c-2.2-1.3-4.5-0.7-6.8-0.7c-5.2,0.1-10.4-0.7-15.5,0.6
			c0,3.7,0,7.5-0.1,11.2c-0.1,2,0.5,3,2.7,3c5.6-0.1,11.2-0.1,16.8,0C118.1,245,118.8,243.9,118.7,241.7z M111.7,235h-9.2
			C105.5,234.2,108.7,234.2,111.7,235L111.7,235z M102.3,240c3.3-0.9,6.7-0.8,10,0.1C109,240.8,105.6,240.8,102.3,240L102.3,240z"/>
		<path class="st28" d="M107.3,224.5c1.1,0,2.7,0.3,2.7-1.3c-0.1-1.4-1.7-0.5-2.7-0.9c-0.6,0.6-2.3-0.7-2.3,0.9
			C104.8,224.6,106.3,224.5,107.3,224.5z"/>
		<path class="st29" d="M117.4,229.4c1.1,0.1,2.1-0.4,2.7-1.3l0,0c-0.1-1.2,0.8-2.6-0.8-3.4c-1-0.5-2.7,0.4-3.1-0.9
			c-0.6-2,1.7-0.9,2.3-1.6c0.2-0.3,0.3-0.6,0.4-0.9c0.3-1.9,0-3-2.5-3c-2,0-4.7,1.4-5.9-1.1c-1.4-3-4.9-1.6-5.1-1.2
			c-1.3,3.6-4.1,2.1-6.4,2.4c-1.1,0.2-2.7-0.6-2.9,1.5c-0.2,1.5-0.3,2.9,1.9,2.8c0.5,0,0.9,0.3,1,0.8c0,0.1,0,0.2,0,0.4
			c-0.1,0.5-0.6,0.8-1.1,0.7c-3.6-0.2-3.4,1.8-2.7,4.3c0.5,0.5,1.2,0.8,1.9,0.7C103.8,229.5,110.6,229.5,117.4,229.4z M107.2,222.3
			c1.1,0.4,2.7-0.5,2.7,0.9c0.1,1.6-1.6,1.3-2.7,1.3s-2.5,0.1-2.4-1.2C105,221.6,106.6,222.9,107.2,222.3L107.2,222.3z"/>
		<text transform="matrix(1 0 0 1 132.8913 265.0732)" class="st22 st30 st31">Bot</text>
	</g>
</g>
</svg>
