<svg id="Layer_1" data-name="Layer 1" xmlns="http://www.w3.org/2000/svg" viewBox="0 0 250 350"><defs><style>.cls-1{fill:#3ab4b9;}</style></defs><title>pi-rfid</title><g id="rfid"><path class="cls-1" d="M22.09,156.45c1.61-21.38,10.27-38.69,29.51-49.37a44.46,44.46,0,0,1,23.14-5.75c2.13.07,3.71.84,3.75,3s-1.37,3.36-3.74,3.43c-22.6.64-39.71,16.47-44.82,37.6a92.72,92.72,0,0,0-1.7,13.2c-.21,2.17-.12,4.31-3,4.31-3.18,0-3.14-2.35-3.1-4.61C22.1,157.66,22.09,157.05,22.09,156.45Z"/><path class="cls-1" d="M35.46,158.51c1.15-15.32,6.86-28.14,20.15-36.78,5.89-3.83,12.5-5.4,19.39-6A3.49,3.49,0,0,1,79.07,119c.2,2.26-1.61,3.31-3.8,3.38-7.94.25-15.13,2.6-21.07,8-8.27,7.48-12.11,17-12.58,28.06-.07,1.63.32,3.51-1.72,4.36C37.34,163.79,35.29,161.85,35.46,158.51Z"/><path class="cls-1" d="M74.46,130.82c.84,0,1.69,0,2.53,0A2.68,2.68,0,0,1,79.49,133a2.49,2.49,0,0,1-1.22,2.78,5.88,5.88,0,0,1-4,1.32c-8.58-.66-17.66,8.67-18.73,18.19-.19,1.67-.4,3.34-.59,5s-1,2.6-2.84,2.55a2.59,2.59,0,0,1-2.82-2.67C49,147.14,58.38,131.67,74.46,130.82Z"/><path class="cls-1" d="M221.92,162.6c-5.19-8.54-11.61-16.21-16.92-24.62-3.9-6.18-9.32-8.18-16-8.53-7.22-.38-14.49-.38-21.64-1.26-7.48-.92-13.14,1-16.93,7.74-1.06,1.88-2.64,3.47-3.6,5.39-1.47,2.93-3.72,3.52-6.77,3.47-10.25-.16-20.5-.06-30.75-.06v0c-10.61,0-21.22-.1-31.83,0a15,15,0,0,0-14.87,14.7q-.14,25.52,0,51c.05,7.77,6.85,14.41,14.31,14.41q38.91,0,77.81.09c4.42,0,8.32-1,11.36-4.41,1.23-1.37,2.24-1.14,3.68-.08a53.32,53.32,0,0,0,8,4.93c9.59,4.69,19,4.57,27.84-1.85a53.8,53.8,0,0,0,20-27.08C229.55,184.74,228.49,173.39,221.92,162.6Zm-60.71,53.83a8.81,8.81,0,0,1-5.64,2q-39.27,0-78.53,0a8.23,8.23,0,0,1-8.24-8.29q-.16-25,0-49.94c0-5.16,3.52-8.69,8.56-8.71q39.63-.12,79.26,0c4.33,0,7.89,3.59,8.15,8.51.3,5.52.07,11.07.07,16.94-5.71-2.88-10.92-5.87-16.41-8.16a26.17,26.17,0,0,0-18.76-.4c-5.78,2-7.39,7.23-7.69,12.75-.28,5.2,3,9.87,8.33,11.94a140.35,140.35,0,0,1,15.17,6.54c6.54,3.47,10.56,9.8,16.12,14.39C162.7,214.81,162.35,215.55,161.21,216.42Zm54.34-12.77a50.69,50.69,0,0,1-12.36,14c-8.27,6.17-17.79,5.83-27.16-.45a74.39,74.39,0,0,1-15.28-13.15c-7.25-8.46-16.78-13-26.91-16.73-5.64-2.05-7.26-6.28-4.33-11.31,1.25-2.14,3.24-2.22,5.23-2.45,6.73-.79,12.72,1.11,18.56,4.44,6.43,3.68,12.85,7.47,20,9.58,4.23,1.24,7-.38,7.79-4.72.74-4.13,1.63-8.27,1.07-11.49.07-10,.09-10-8.6-12.5a3.66,3.66,0,0,1-3.12-3.33c-1.29-7.44-5.69-11-13.19-11-.84,0-1.69,0-2.53,0-2.18.13-2.26-1-1.32-2.41,3.11-4.71,6.33-8.54,13.19-7.82,8.37.88,16.8,1.35,25.2,2.16a9.54,9.54,0,0,1,6.88,4c7.12,9.1,14.42,18.12,19.51,28.51C224.06,180.94,222.5,192.59,215.56,203.66Z"/></g></svg>