<?xml version="1.0" encoding="utf-8"?>
<!-- Generator: Adobe Illustrator 22.1.0, SVG Export Plug-In . SVG Version: 6.00 Build 0)  -->
<svg version="1.1" id="Layer_1" xmlns="http://www.w3.org/2000/svg" xmlns:xlink="http://www.w3.org/1999/xlink" x="0px" y="0px"
	 viewBox="0 0 250 350" style="enable-background:new 0 0 250 350;" xml:space="preserve">
<style type="text/css">
	.st0{fill:#3AB4B9;}
</style>
<title>pi-rfid</title>
<g id="rfid">
	<path class="st0" d="M22.1,166.5c1.6-21.4,10.3-38.7,29.5-49.4c7-4,15-6,23.1-5.8c2.1,0.1,3.7,0.8,3.8,3s-1.4,3.4-3.7,3.4
		c-22.6,0.6-39.7,16.5-44.8,37.6c-0.9,4.4-1.5,8.8-1.7,13.2c-0.2,2.2-0.1,4.3-3,4.3c-3.2,0-3.1-2.4-3.1-4.6
		C22.1,167.7,22.1,167.1,22.1,166.5z"/>
	<path class="st0" d="M35.5,168.5c1.2-15.3,6.9-28.1,20.2-36.8c5.9-3.8,12.5-5.4,19.4-6c1.9-0.3,3.7,1,4,2.9c0,0.1,0,0.3,0,0.4
		c0.2,2.3-1.6,3.3-3.8,3.4c-7.9,0.3-15.1,2.6-21.1,8c-8.3,7.5-12.1,17-12.6,28.1c-0.1,1.6,0.3,3.5-1.7,4.4
		C37.3,173.8,35.3,171.9,35.5,168.5z"/>
	<path class="st0" d="M74.5,140.8c0.8,0,1.7,0,2.5,0c1.2,0.1,2.3,1,2.5,2.2c0.3,1.1-0.2,2.2-1.2,2.8c-1.1,0.9-2.5,1.4-4,1.3
		c-8.6-0.7-17.7,8.7-18.7,18.2c-0.2,1.7-0.4,3.3-0.6,5s-1,2.6-2.8,2.6c-1.4,0.1-2.7-0.9-2.8-2.3c0-0.1,0-0.2,0-0.3
		C49,157.2,58.4,141.7,74.5,140.8z"/>
	<path class="st0" d="M221.9,172.6c-5.2-8.5-11.6-16.2-16.9-24.6c-3.9-6.2-9.3-8.2-16-8.5c-7.2-0.4-14.5-0.4-21.6-1.3
		c-7.5-0.9-13.1,1-16.9,7.7c-1.1,1.9-2.6,3.5-3.6,5.4c-1.5,2.9-3.7,3.5-6.8,3.5c-10.3-0.2-20.5-0.1-30.7-0.1l0,0
		c-10.6,0-21.2-0.1-31.8,0c-8.1,0.1-14.7,6.6-14.9,14.7c-0.1,17-0.1,34,0,51c0,7.8,6.9,14.4,14.3,14.4c25.9,0,51.9,0,77.8,0.1
		c4.4,0,8.3-1,11.4-4.4c1.2-1.4,2.2-1.1,3.7-0.1c2.5,1.9,5.2,3.5,8,4.9c9.6,4.7,19,4.6,27.8-1.9c9.4-6.7,16.4-16.1,20-27.1
		C229.6,194.8,228.5,183.4,221.9,172.6z M161.2,226.5c-1.6,1.3-3.6,2-5.6,2c-26.2,0-52.4,0-78.5,0c-4.5,0-8.2-3.7-8.2-8.2
		c0,0,0,0,0-0.1c-0.1-16.7-0.1-33.3,0-49.9c0-5.2,3.5-8.7,8.6-8.7c26.4-0.1,52.8-0.1,79.3,0c4.3,0,7.9,3.6,8.1,8.5
		c0.3,5.5,0.1,11.1,0.1,16.9c-5.7-2.9-10.9-5.9-16.4-8.2c-6-2.4-12.7-2.6-18.8-0.4c-5.8,2-7.4,7.2-7.7,12.8c-0.3,5.2,3,9.9,8.3,11.9
		c5.2,1.9,10.2,4.1,15.2,6.5c6.5,3.5,10.6,9.8,16.1,14.4C162.7,224.8,162.4,225.6,161.2,226.5L161.2,226.5z M215.6,213.7
		c-3.2,5.4-7.4,10.1-12.4,14c-8.3,6.2-17.8,5.8-27.2-0.4c-5.7-3.7-10.8-8.1-15.3-13.1c-7.3-8.5-16.8-13-26.9-16.7
		c-5.6-2.1-7.3-6.3-4.3-11.3c1.3-2.1,3.2-2.2,5.2-2.4c6.7-0.8,12.7,1.1,18.6,4.4c6.4,3.7,12.9,7.5,20,9.6c4.2,1.2,7-0.4,7.8-4.7
		c0.7-4.1,1.6-8.3,1.1-11.5c0.1-10,0.1-10-8.6-12.5c-1.7-0.2-3-1.6-3.1-3.3c-1.3-7.4-5.7-11-13.2-11c-0.8,0-1.7,0-2.5,0
		c-2.2,0.1-2.3-1-1.3-2.4c3.1-4.7,6.3-8.5,13.2-7.8c8.4,0.9,16.8,1.4,25.2,2.2c2.8,0.3,5.3,1.7,6.9,4c7.1,9.1,14.4,18.1,19.5,28.5
		C224.1,191,222.5,202.6,215.6,213.7L215.6,213.7z"/>
</g>
</svg>
