<?xml version="1.0" encoding="utf-8"?>
<!-- Generator: Adobe Illustrator 22.1.0, SVG Export Plug-In . SVG Version: 6.00 Build 0)  -->
<svg version="1.1" id="Layer_1" xmlns="http://www.w3.org/2000/svg" xmlns:xlink="http://www.w3.org/1999/xlink" x="0px" y="0px"
	 viewBox="0 0 250 350" style="enable-background:new 0 0 250 350;" xml:space="preserve">
<style type="text/css">
	.st0{fill:#989494;}
	.st1{fill:#332C2B;}
	.st2{fill:#9D9A99;}
	.st3{fill:#FEFEFE;}
	.st4{fill:#FEEF00;}
	.st5{fill:#FDFDFD;}
	.st6{fill:#5FA676;}
	.st7{fill:#009A4C;}
	.st8{fill:#FCFCFC;}
	.st9{fill:#FDEF00;}
	.st10{fill:#FBFBFB;}
	.st11{fill:#A4A0A1;}
	.st12{fill:#2D2625;}
	.st13{fill:#352F2F;}
	.st14{fill:#2F2827;}
	.st15{fill:#373A3D;}
	.st16{fill:#353232;}
	.st17{fill:#383637;}
	.st18{fill:#362F2B;}
	.st19{fill:#544E4D;}
	.st20{fill:#504A49;}
	.st21{fill:#373F45;}
	.st22{fill:#322B2A;}
	.st23{fill:#484141;}
	.st24{fill:#5E5857;}
	.st25{fill:#AAA58B;}
	.st26{fill:#89813F;}
	.st27{fill:#A89E3B;}
	.st28{fill:#9F9C9B;}
	.st29{fill:#008ED6;}
	.st30{fill:#00A1E8;}
	.st31{fill:#332C2C;}
	.st32{fill:#5FA573;}
	.st33{fill:#030301;}
	.st34{fill:#040400;}
	.st35{fill:#D7CB00;}
	.st36{fill:#5DA16F;}
	.st37{fill:#079DDE;}
	.st38{fill:#CEC200;}
	.st39{fill:#C2B600;}
	.st40{fill:#C9BD00;}
	.st41{fill:#CBBF00;}
	.st42{fill:#C3B800;}
	.st43{fill:#CABE00;}
	.st44{fill:#B3A800;}
	.st45{fill:#C5B900;}
	.st46{fill:#4F6863;}
	.st47{fill:#418168;}
	.st48{fill:#849F36;}
	.st49{fill:#B7AC00;}
	.st50{fill:#3D422C;}
	.st51{fill:#6F832E;}
	.st52{fill:#638D47;}
	.st53{fill:#557F47;}
	.st54{fill:#498766;}
	.st55{fill:#6E903D;}
	.st56{fill:#010101;}
	.st57{fill:#020202;}
	.st58{fill:#828282;}
	.st59{fill:#787878;}
	.st60{fill:#6A6A6A;}
	.st61{fill:#505050;}
	.st62{fill:#5A5A5A;}
	.st63{fill:#929292;}
	.st64{fill:#8B8B8B;}
	.st65{fill:#D4D8D5;}
	.st66{fill:#C3C8C4;}
	.st67{fill:#342D2C;}
	.st68{fill:#352E2D;}
	.st69{fill:#CDD6D2;}
	.st70{fill:#989594;}
	.st71{fill:#888483;}
	.st72{fill:#A9A6A6;}
	.st73{fill:#A7A4A3;}
	.st74{fill:#9F9C9C;}
	.st75{fill:#959191;}
	.st76{fill:#999696;}
	.st77{fill:#1D8DB6;}
	.st78{fill:#AFB9B4;}
	.st79{fill:#0A9DDE;}
	.st80{fill:#4E757C;}
	.st81{fill:#1C5F7E;}
	.st82{fill:#1E5C79;}
	.st83{fill:#FAFAFA;}
	.st84{fill:#F8F8F8;}
	.st85{fill:#F6F6F6;}
	.st86{fill:#F0F0F0;}
	.st87{fill:#D3D6CE;}
	.st88{fill:#C6D0D0;}
	.st89{fill:#666565;}
	.st90{fill:#9AB7A7;}
	.st91{fill:#F9F9F9;}
	.st92{fill:#F7F7F7;}
	.st93{fill:#E8E8E8;}
	.st94{fill:#1C89B2;}
	.st95{fill:#019A4C;}
	.st96{fill:#91A9AE;}
	.st97{fill:#87AE99;}
</style>
<title>smkjatim</title>
<g id="smkjatim">
	<path class="st0" d="M121.8,92.9C121.8,92.9,121.8,92.9,121.8,92.9l6.5-0.1v0.1c-0.2,0.2-0.5,0.3-0.8,0.2c-1.7,0-3.3,0-5,0
		C122.2,93.2,122,93.1,121.8,92.9z"/>
	<path class="st1" d="M121.8,92.9h6.6c10.5,0.3,20.9,1.8,31.1,4.5c1.5,0.4,3,0.8,4.5,1.2c0.4,0.1,0.6,0.3,0.6,0.7
		c0,1.6,0.2,3.1,0.8,4.6c0.8,2.2,2,4.2,3.5,6c3,3.5,7,6.1,11.5,7.4c1.8,0.6,3.7,0.9,5.7,0.9c0.5,0,0.6,0.2,0.6,0.7
		c0,22.7,0,45.3,0,67.9c0,2.4-0.2,4.7-0.6,7.1c-0.2,1.8-0.6,3.5-1,5.2c-0.5,1.9-1,3.8-1.7,5.7c-1.4,3.8-3.2,7.5-5.3,11
		c-1.1,1.7-2.2,3.4-3.5,5c-0.2,0.3-0.3,0.5,0.1,0.8c2.1,1.6,4.2,3.2,6.3,4.7c1.4,1.1,2.8,2.2,4.3,3.1c1.1,0.8,1.4,2.3,0.8,3.5
		c-1.1,1.7-2.4,3.2-3.9,4.5c-1.2,1.2-2.5,2.4-3.9,3.6s-3,2.5-4.5,3.6c-2.2,1.6-4.5,3.2-6.9,4.6c-0.1,0.1-0.2,0.3-0.4,0.2
		s-0.1-0.3-0.1-0.4c0-1.3,0-2.5,0-3.9c-25.4,16.1-57.8,16-83.1-0.1c0,1.4,0,2.7,0,4c0,0.1,0.1,0.4-0.1,0.4s-0.3-0.1-0.4-0.2
		c-2.1-1.3-4.2-2.7-6.2-4.2c-1.8-1.3-3.5-2.7-5.2-4.1s-3.5-3.2-5.2-4.9c-0.8-0.8-1.5-1.7-2.2-2.6c-0.9-1.1-0.7-3.3,0.5-3.9
		c0.8-0.5,1.6-1,2.4-1.5c1.9-1.4,3.8-2.9,5.8-4.4c0.9-0.7,1.9-1.4,2.8-2.1c0.3-0.2,0.3-0.3,0.1-0.5c-1.2-1.4-2.3-3-3.2-4.5
		c-1.1-1.8-2.2-3.6-3.1-5.5c-0.6-1.2-1.2-2.5-1.7-3.8c-0.6-1.4-1.2-2.9-1.6-4.4c-0.4-1.3-0.8-2.7-1.1-4c-0.6-2.2-0.9-4.4-1.1-6.7
		c-0.2-0.3,0-0.6-0.2-0.9c-0.3-10.8-0.1-21.6-0.1-32.4c0-13.2,0-26.4,0-39.7c0-0.5,0.1-0.7,0.7-0.7c4.2-0.2,8.3-1.5,11.9-3.8
		c2.1-1.3,4-3,5.6-4.9c1.8-2.3,3.1-4.9,3.8-7.8c0.2-0.8,0.3-1.6,0.2-2.4c0-0.6,0.3-0.8,0.8-1c2.8-0.8,5.6-1.6,8.6-2.2
		c4.8-1.1,9.7-1.9,14.6-2.6C113.6,93.3,117.7,93,121.8,92.9z"/>
	<path class="st2" d="M63.5,191.2c0.4,0.2,0.2,0.6,0.2,0.9C63.3,191.9,63.5,191.5,63.5,191.2z"/>
	<path class="st3" d="M66.5,186.2c0-0.2,0-0.4,0-0.7c0-21.3,0-42.7,0-64c0-0.6,0.2-0.8,0.8-0.8c2.6-0.2,5.1-0.9,7.4-2.1
		c3-1.5,5.7-3.4,7.9-5.9c1.2-1.2,2.2-2.6,3-4.1c0.7-1.3,1.3-2.6,1.7-4c0.3-1,0.5-2.1,0.5-3.2c0-0.3,0.2-0.5,0.5-0.6
		c5.2-1.5,10.5-2.7,15.8-3.6c8.4-1.2,16.9-1.7,25.3-1.4c8.8,0.2,17.6,1.3,26.2,3.4c1.9,0.5,3.8,1.1,5.7,1.6c0.3,0.1,0.5,0.2,0.5,0.6
		c0.1,1.8,0.5,3.6,1.3,5.3c0.7,1.6,1.7,3.2,2.9,4.6c3.2,4.1,7.6,7.1,12.6,8.7c1.3,0.4,2.7,0.7,4.1,0.7c0.6,0,0.7,0.1,0.7,0.7
		c0,7.6,0,15.3,0,22.9c0,13.7,0,27.4,0,41.2c0,0.2,0,0.4,0,0.7c-0.1,0.1-0.3,0.2-0.5,0.2c-1.2,0.1-2.4,0.1-3.5,0
		c-0.3-0.1-0.4-0.3-0.4-0.6s0-0.5,0-0.8c0-19.7,0-39.5,0-59.2c0-0.2,0-0.4,0-0.7c0.1-0.5-0.2-0.7-0.6-0.7c-1.7-0.3-3.3-0.8-4.9-1.5
		c-2.5-1.1-4.9-2.5-7-4.3c-2-1.6-3.7-3.4-5.1-5.6c-1.1-1.5-1.9-3.1-2.5-4.9c-0.3-1-0.7-2.1-0.9-3.2c-0.1-0.3-0.3-0.5-0.6-0.6
		c-3.4-1-6.8-1.9-10.3-2.5c-3.3-0.6-6.5-1.1-9.8-1.4c-0.9-0.1-1.9-0.2-2.9-0.3c2.2,1.2,4.2,2.9,5.8,4.9c1.8,2.3,3.1,5,3.8,7.9
		c0,0.1,0,0.2,0,0.2c-0.3,0.3-0.6,0.2-0.8,0.1c-1.7-0.6-3.4-1.2-5.1-1.8c-0.7-0.3-0.7-0.3-1,0.4s-0.5,1.4-0.8,2.1s-0.1,0.7,0.5,0.9
		c2.4,0.9,4.9,1.7,7.4,2.6c0.2,0,0.4,0.1,0.5,0.3c0.1,0.6,0.1,1.3,0,1.9c-0.2,0.3-0.3,0.7-0.2,1.1c-0.1,1.4-0.4,2.8-1,4.1
		c-0.4,1-0.8,1.9-1.3,2.8c-0.6,1.1-1.3,2.1-2.1,3.1c-0.3,0.4-0.4,0.6,0,0.9c1,0.8,1.5,2,1.4,3.3c0,0.9,0,1.8-0.1,2.8
		c-0.3,1.6-1.5,2.9-3.1,3.1c-0.1,0-0.1,0-0.2,0.2c0.4,0.6,0.5,1.3,0.4,2c0,1.5,0,3,0,4.5c0,0.1,0,0.3,0,0.4s0,0.4-0.2,0.5
		s-0.3-0.2-0.3-0.4c-0.1-0.3-0.4-0.6-0.8-0.6c-0.3,0-0.5-0.1-0.7-0.3c-0.1-0.7-0.1-1.5-0.1-2.3c0-0.4,0-0.7-0.4-1s-0.3-0.9-0.4-1.4
		c-0.1-0.9,0.1-1.9,0-2.8c0-0.2-0.1-0.4-0.2-0.6c-0.2-0.7,0.1-1.4,0-2c0-0.3-0.1-0.6-0.3-0.9c-0.6-0.8-1.1-1.6-1.7-2.4
		c-0.4-0.6-0.5-0.6-1.3-0.2c-0.8,0.3-1.3,1.2-1.2,2.1c0.1,1.6,0,3.1,0,4.7c0,0.3,0.1,0.6-0.2,0.9c-0.1,0.1,0,0.1,0,0.2
		c0.2,0.2,0.2,0.5,0.1,0.8c0,7.5,0,14.9,0,22.4c0,0.2,0,0.4,0,0.6c0,0.2-0.2,0.3-0.3,0.2c0,0-0.1,0-0.1,0c-0.8-0.8-1.5-1.7-2.2-2.7
		c-0.2-1.7-0.2-3.5-0.2-5.3c-0.1-3,0-6-0.2-9c-0.2-2.3-0.1-4.5-0.2-6.8c0-0.2,0-0.4-0.1-0.5c-0.1-2.1,0-4.3,0-6.4
		c0.1-1.5-0.1-2.9,0.1-4.4c0-0.1,0-0.3-0.1-0.4c-0.2-0.7-0.4-1.5-0.5-2.2c0-0.6-0.1-1.2-0.3-1.8c-0.3-1.1-0.9-2.2-1.7-3
		c-0.2-0.2-0.3-0.5-0.3-0.8c0-2.2,0-4.4,0-6.6c0-0.2,0-0.4,0.1-0.6c0.3-0.2,0.5-0.1,0.7,0.1c1.3,0.8,2.6,1.7,3.9,2.5
		c0.8,0.5,1.6,1,2.4,1.6c0.2-0.4,0-0.7-0.2-1c-0.5-1.2-0.6-2.4-1.1-3.6c-0.3-0.8-0.5-1.7-0.8-2.6c-0.1-0.3-0.4-0.5-0.7-0.6
		c-1.2-0.3-2.4-0.8-3.6-1.1c-0.2,0-0.3-0.1-0.5,0c-0.1,1.1,0,2.3-0.1,3.4c0,0.3,0.1,0.7-0.4,0.6c-0.2-0.3-0.2-0.6-0.2-0.9
		c0-1.1,0.1-2.2-0.1-3.2c-0.5,0-0.9,0.2-1.3,0.3c-0.9,0.3-1.8,0.5-2.7,0.8c-0.3,0.1-0.6,0.3-0.7,0.7c-0.6,2.1-1.3,4.2-2,6.2
		c-0.1,0.2-0.2,0.5-0.2,0.8c0.8-0.3,1.5-0.8,2.1-1.3c1.3-0.9,2.8-1.8,4.1-2.7c0.5-0.3,0.8-0.3,0.8,0.3c0,2.3,0,4.7,0,7
		c0,0.3-0.1,0.6-0.3,0.8c-0.6,0.6-1,1.3-1.2,2.1c-0.3,0.9-0.5,1.8-0.5,2.8c-0.1,1.3-0.2,2.7-0.1,4c0,0.3,0,0.7,0,1
		c-0.1,0.2-0.1,0.4-0.1,0.7c0,0.5,0,0.9,0,1.4c0.1,3.6-0.3,7.2-0.3,10.9c0,1.9,0,3.8-0.1,5.6c-0.2,2.3,0,4.6-0.2,6.8
		c-0.1,1.3-0.2,2.6-0.2,3.9c-0.2,0.9-1,1.5-1.6,2.2c-0.2,0.3-0.5,0.7-0.9,0.8c-0.3,0-0.3-0.3-0.3-0.4c0-0.2,0-0.4,0-0.7
		c0-7.2,0-14.5,0-21.7c0-0.4,0-0.8,0.1-1.1c0.1-0.2-0.2-0.6-0.2-0.9c0-1.7,0-3.4,0-5c0.1-0.8-0.4-1.5-1.1-1.8
		c-1.1-0.5-1-0.5-1.7,0.4c-0.3,0.5-0.6,0.9-0.9,1.3c-0.7,0.8-1,1.8-0.8,2.9c0,0.5,0,1.1-0.1,1.6c-0.1,1.1,0,2.1,0,3.2
		c0,0.5,0,1-0.7,1c-0.2,0-0.2,0.2-0.2,0.3c-0.2,0.7-0.4,1.4-0.3,2.2c0,0.4-0.2,0.8-0.6,0.9c-0.2,0.1-0.4,0.4-0.7,0.3
		s-0.3-0.4-0.3-0.7c0-1.5,0-3.1,0-4.6c0-0.6,0.2-1.1,0.7-1.5c-1.7-0.2-3.1-1.5-3.4-3.2c0-1.1,0-2.1,0-3.2c-0.1-1.1,0.4-2.2,1.3-2.9
		c0.3-0.3,0.3-0.5,0-0.8c-1.3-1.6-2.4-3.4-3.2-5.4c-0.5-1.3-0.9-2.7-1.1-4.1c-0.2-1-0.3-2-0.3-3c0-0.2,0-0.5,0.1-0.7
		c0.3-0.4,0.9-0.5,1.4-0.6c2.1-0.7,4.2-1.5,6.4-2.2c0.5-0.1,0.6-0.3,0.4-0.8c-0.3-0.8-0.5-1.5-0.8-2.2s-0.3-0.7-1-0.4
		c-1.5,0.6-3.1,1.1-4.7,1.6c-0.2,0.1-0.5,0.2-0.8,0.2c-0.4-0.2-0.3-0.5-0.2-0.8c0.4-1.2,0.8-2.5,1.4-3.7c0.5-1,1.1-2,1.8-2.9
		c0.8-1.1,1.6-2.1,2.6-3c1.1-1,2.4-1.9,3.7-2.7c-1.3,0.2-2.7,0.3-4,0.4c-1.6,0.2-3.3,0.4-4.9,0.6c-3.7,0.6-7.4,1.3-11,2.3
		c-1.1,0.3-2.2,0.6-3.2,0.9c-0.3,0.1-0.5,0.3-0.5,0.6c-0.4,2.1-1.1,4.1-2.1,5.9c-0.9,1.7-2.1,3.2-3.3,4.6c-1,1.1-2.2,2.2-3.4,3.1
		c-1.9,1.5-3.9,2.8-6.1,3.8c-1.6,0.8-3.3,1.3-5.1,1.7c-1.3,0.3-1.1,0.1-1.1,1.3c0,19.9,0,39.7,0,59.6c0,0.4,0.1,0.8-0.2,1.1
		c-1.3,0.2-2.6,0.2-3.9,0.1C66.7,186.4,66.6,186.3,66.5,186.2z"/>
	<path class="st4" d="M149.4,221.6c-0.3,0-0.4,0.3-0.5,0.5s-0.1,0.4-0.3,0.6c-1.5,1.5-3,2.9-4.7,4.2c-0.5,0.3-0.9,0.8-1.4,1.1
		c-0.2,0.2-0.4,0.3-0.6,0.3c-0.6-0.1-1.1-0.4-1.6-0.7c0-0.3,0.2-0.3,0.4-0.4c2.3-1.4,4.4-3,6.2-4.9c0.2-0.3,0.5-0.6,0.9-0.9
		c0.2-0.1,0.4-0.3,0.5-0.6c0.2-0.2,0.1-0.5,0-0.7c-0.4-1-1-1.9-1.7-2.6c-1.1-1.2-1.7-2.8-1.6-4.4c0-0.2,0-0.4-0.1-0.6
		c0.1-0.6,0.1-1.1,0.1-1.7s0.1-1.1,0.3-1.7c0.2-0.5,0.4-0.9,0.6-1.4c0.4-0.7,0.7-1.4,1-2.1c0.2-0.4,0.7-0.8,0.3-1.4
		c-0.8-0.4-1.5-1-2.1-1.5c-0.1-0.1-0.2-0.1-0.3,0c-0.2,0.2-0.5,0.4-0.8,0.5c-2.1,0.9-4.4,1-6.5,0.3c-0.4-0.1-0.7-0.2-1-0.4
		c-0.5-0.5-0.8-1-1-1.6c-0.2-0.3-0.2-0.4-0.6-0.1c-1.2,1.2-3.1,1.2-4.3,0c-0.9-0.8-1.4-1.9-1.4-3.1c0-1.5,0-3,0-4.5
		c0.1-2.1-0.4-4.2-0.3-6.3c0-0.3-0.1-0.6,0.3-0.8c0.4,0.1,0.6,0.5,0.8,0.8c0.3,0.3,0.5,0.6,0.8,0.9c0.4,0.8,1,1.6,1.6,2.3
		c0.2,0.2,0.4,0.4,0.6,0.5c1.4,0,2.8,0,4.2,0c5.7,0,11.5,0,17.2,0c0.1,0,0.1,0,0.2-0.1c0.1-0.2,0.1-0.4,0.1-0.6s0-0.4,0.3-0.4
		c0.2,0.2,0.4,0.4,0.5,0.7c0.1,0.2,0.4,0.3,0.6,0.2c0.3-0.1,0.1-0.4,0.1-0.5c-0.8-1.5-0.5-3.1-0.4-4.7c0-0.5,0-0.9,0.1-1.4
		c0.1-0.3,0.1-0.7,0.1-1c0.2-1.1,0.3-2.2,0.3-3.3c0-0.1,0-0.3,0.2-0.4s0.2,0.1,0.3,0.3c0.7,1.1,1.4,2.1,2.3,3.1
		c0.6,0.7,1.1,1.4,1.5,2.2c0.1,0.3,0.2,0.6,0.4,0.8c0.4,1.5,0.4,3,0.3,4.6c-0.2,0.6,0,1.3-0.2,1.9c-0.2,1.2-0.4,2.4-0.7,3.5
		c-0.1,0.4-0.1,0.7,0,1.1c0.6-2,1-4,1.4-6c0-0.7,0.1-1.3,0.2-2c0.1-1,0.1-2-0.1-3c0-0.2-0.2-0.4-0.2-0.6c-0.6-1.8-1.6-3.5-2.9-4.9
		c-1.1-1.2-1.7-2.7-1.7-4.3c0-2.4,0-4.8,0-7.1c0-0.3,0-0.5-0.2-0.7c0-0.5,0.3-0.4,0.5-0.2c0.4,0.4,0.7,0.8,1,1.3
		c1.4,1.8,2.6,3.7,3.7,5.7c0.2,0.5,0.3,1.1,0.4,1.6c0.3,1.6,0.4,3.2,0.4,4.7c0,0.4,0,0.8-0.2,1.1c-0.1,0.2-0.1,0.5,0,0.7
		c0.1,0.4,0.3,0.9,0.3,1.3c0-0.7,0-1.4,0.2-2.1c0.3-2.2,0.3-4.5,0-6.7c-0.3-1.1-0.7-2.1-1.3-3c-0.8-1.3-1.8-2.6-3-3.6
		c-1.1-1.1-1.8-2.5-2.1-4c-0.3-1.4-0.6-2.8-0.7-4.3c-0.1-0.8-0.3-1.6-0.6-2.4c0-0.2-0.1-0.3,0.1-0.5s0.3,0,0.4,0.1
		c1.2,1.6,3,2.5,4.5,3.8c1.4,1.3,2.2,3.1,2.4,4.9c0.2,1.5,0.3,3,0.3,4.6c0.1,0.5,0.2,0.9,0.3,1.4c0.2-0.5,0.1-1.1-0.1-1.6
		c-0.2-1-0.2-2.1-0.4-3.2c-0.2-1.3-0.5-2.5-0.8-3.8c-0.7-2.8-2.9-4.3-5.2-5.9c-0.9-0.6-1.6-1.4-2.1-2.4c-0.6-1.5-1.2-3-1.6-4.6
		c-0.2-0.4-0.4-0.9-0.5-1.4c0-0.2-0.1-0.3,0.1-0.4s0.3,0,0.5,0.1c1.5,1.4,3.3,2.4,4.8,3.8c0.9,0.8,1.6,1.9,2,3
		c0.4,1.1,0.7,2.2,1,3.3c0.1,0.3,0.2,0.6,0.4,0.9c-0.6-2-1-3.9-1.6-5.8c-0.5-1.5-1.6-2.7-3-3.4c-1.5-0.8-2.9-1.8-4.2-2.9
		c-0.7-0.7-1.3-1.6-1.6-2.5c-0.3-1.3-0.8-2.5-1.4-3.7c-0.1-0.1-0.2-0.3,0-0.4s0.3,0,0.5,0.1c1.7,0.8,3.3,1.8,4.7,2.9
		c0.9,0.9,1.6,1.9,2.1,3c0.4,0.8,0.7,1.6,1,2.4c0.1,0.3,0.3,0.6,0.5,0.9c-0.4-1.1-0.8-2.1-1.3-3.1c-0.7-1.6-1.5-3.1-2.4-4.5
		c-0.4-0.6-1-1.2-1.7-1.5c-1.8-0.9-3.4-2.1-4.7-3.6c-0.7-1-1.3-2-1.9-3.1c-0.7-1.7-1.5-3.3-2.4-4.9c-0.1-0.1-0.3-0.3-0.1-0.5
		s0.4,0,0.5,0.1c1.6,1.1,3.4,1.9,4.9,3c2.2,1.4,3.9,3.5,4.9,5.9c0.5,1.2,0.8,2.5,1.4,3.6c0.7,1.4,1.4,2.7,2.1,4c0.5,1,1,2.1,1.4,3.2
		c0.3,0.8,0.5,1.7,0.9,2.5c0,0.4,0.2,0.7,0.3,1.2c-0.1-0.6-0.2-1.2-0.4-1.8c-0.4-1.4-0.9-2.7-1.4-4.1c-0.1-0.2-0.1-0.3-0.2-0.5
		c-0.4-2.1-0.6-4.2-0.8-6.3c0-0.2,0-0.4,0.3-0.4c0.8,0.9,1.5,1.8,2.3,2.7c1.2,1.4,1.9,3.2,1.9,5c0,1.6-0.2,3.3-0.3,4.9
		c-0.2,0.8-0.2,1.5-0.2,2.3c0.2,1,0.3,2.1,0.5,3.1c0.5,1.7,0.9,3.4,1.2,5.1c0,0,0,0.1,0.1,0.1c-0.1-0.2-0.2-0.5-0.1-0.7
		c0-1.5-0.2-3.1-0.8-4.5c-0.4-1.3-0.5-2.7-0.2-4c0.4-1.4,0.5-2.9,0.5-4.4c0-0.3-0.1-0.6,0.2-0.7s0.5,0.3,0.6,0.6
		c0.4,0.8,0.9,1.5,1.4,2.3c1.4,2,1.8,4.4,1.1,6.8c-0.3,1.1-0.8,2.3-1.1,3.4c-0.7,2-0.9,4-0.8,6.1c0.3,2,0.4,4,0.2,6
		c0.5-1.6,0.5-3.3,0.2-4.9c-0.1-0.8-0.2-1.6-0.2-2.5c0-0.2,0-0.5,0.1-0.7c0.2-0.2,0.2-0.5,0.2-0.8c0.3-1.3,0.8-2.5,1.4-3.7
		c0.5-1.1,0.8-2.2,1-3.4c0-0.1,0-0.2,0-0.4s0-0.3,0.2-0.3s0.2,0.1,0.3,0.2c0.2,0.5,0.4,1,0.6,1.6c1.4,2.8,1.8,6,1.3,9.1
		c-0.2,0.9-0.7,1.8-1.3,2.5c-1.4,1.9-2.5,4.1-3.3,6.4c-0.1,0.2-0.1,0.3-0.1,0.5c-0.1,1.7-0.1,3.3-0.3,4.9c-0.1,0.4-0.1,0.9-0.3,1.3
		c0.7-1.3,1-2.7,1-4.2c0-2.5,0.9-4.9,2.5-6.8c1.1-1.3,2-2.8,2.5-4.4c0.1-0.2,0.2-0.4,0.5-0.3c0.1,0.1,0.1,0.1,0.1,0.2
		c0.2,2.1,1,4.1,0.8,6.3c0,2.2-0.7,4.3-1.9,6.2c-0.6,0.8-1.4,1.5-2.1,2.1c-1,0.9-1.9,1.9-2.8,2.9c-0.8,0.9-1.3,2-1.5,3.2
		c0,0.5-0.3,1-0.3,1.5c-0.1,1.7-0.5,3.4-1,5.1c0.8-1.6,1.3-3.4,1.6-5.1c0.3-1.7,1-3.3,2.1-4.7c0.9-1,2-1.9,3-2.8
		c1.1-1,2-2.2,2.5-3.7c0.1-0.2,0.1-0.4,0.4-0.4s0.3,0.2,0.3,0.4c0,0.1,0.1,0.2,0.1,0.2c0.1,1.9,0.2,3.7,0.1,5.6
		c-0.1,0.3-0.1,0.6-0.1,0.9c-0.3,2.6-1.7,4.9-3.8,6.4c-0.9,0.7-1.9,1.2-2.9,1.8c-1.2,0.8-2.2,1.8-3.2,2.9c-0.8,1.1-1.5,2.3-1.9,3.6
		c-0.5,1.1-0.8,2.2-1.3,3.3c-0.1,0.2-0.1,0.4,0,0.5c0.6-0.5,1-1.2,1.3-1.9c0.6-1.5,1.3-3,2.1-4.4c0.7-1,1.6-1.9,2.7-2.5
		c1.2-0.7,2.4-1.3,3.5-2.1c0.7-0.6,1.4-1.3,2-2c0.1-0.2,0.3-0.4,0.5-0.4s0.2,0.4,0.2,0.6c-0.4,1.8-0.6,3.6-1.2,5.4
		c-0.3,1.3-1.1,2.5-2.1,3.4c-0.8,0.5-1.6,1-2.5,1.4c-1.3,0.6-2.6,1.4-3.8,2.2c-1.1,0.8-2.2,1.6-3.2,2.6c-0.1,0.2-0.3,0.4-0.3,0.6
		c-0.7,1.7-1.5,3.3-2.4,4.9c1.2-1,2.1-2.3,2.7-3.7c1.2-2.4,3.3-4.2,5.8-5c1.5-0.5,3-1.2,4.3-2.1c0.1-0.1,0.3-0.2,0.4-0.1
		s0.1,0.3,0.1,0.4c-0.1,0.5-0.3,1-0.5,1.4c-0.4,1.3-0.9,2.6-1.5,3.9c-0.6,0.9-1.4,1.7-2.3,2.3c-1.9,1-3.8,2-5.8,2.8
		c-1.8,0.9-3.5,2-5.1,3.3c-0.5,0.5-0.9,1.1-1.3,1.7c-0.6,0.7-1.1,1.5-1.6,2.2c-0.1,0.1-0.2,0.2-0.1,0.3s0.2,0.1,0.4,0
		c0.3-0.1,0.6-0.3,0.9-0.6c1.1-1.3,2.3-2.6,3.5-3.9c1-0.9,2.1-1.6,3.2-2.1c1.6-0.7,3.3-1.2,4.7-2c0.5-0.3,0.9-0.6,1.4-0.9
		c0.1-0.1,0.2-0.2,0.3-0.1s0.1,0.2,0.1,0.3c0,0.1-0.1,0.2-0.1,0.3c-0.8,1.3-1.4,2.7-1.9,4.1c-1.1,2.8-3.5,4.2-6.4,5
		c-1.2,0.3-2.4,0.5-3.7,0.6C151.9,220.9,150.6,221.1,149.4,221.6z"/>
	<path class="st5" d="M65.8,229.5c2.2-1.6,4.4-3.2,6.5-4.9c1.1-0.9,2.3-1.7,3.4-2.6c0.3-0.2,0.4-0.2,0.6,0c3.3,4,7.1,7.6,11.3,10.7
		c0.2,0.1,0.3,0.3,0.3,0.5c-0.3,2,0.8,3.4,2.7,4c1.5,0.5,3,1.4,4.1,2.5c1.4,1.3,2.6,0.9,3.8,0.1c0.3-0.3,0.8-0.3,1.1-0.1
		c3.2,1.4,6.6,2.6,10,3.3c2.6,0.6,5.3,1,8,1.1c2.1,0.2,4.2,0.9,6,2c0.5,0.2,0.9,0.5,1.3,0.9c0.3,0.3,0.5,0.3,0.9,0
		c1.7-1.6,4-2.6,6.4-2.8c6.1-0.3,12-1.7,17.6-4.1h0.1c0.9-0.5,1.7-0.8,2.8,0.1c1.1,0.8,2.6,0.5,3.4-0.5c1-1.1,2.3-1.9,3.8-2.3
		c1.1-0.3,2.1-1.1,2.7-2.1c0.3-0.6,0.3-1.3,0.2-1.9c-0.1-0.4,0.1-0.7,0.4-0.9c1.8-1.3,3.5-2.7,5.1-4.3c1.6-1.5,3.1-3.1,4.6-4.8
		c0.3-0.4,0.6-0.8,0.9-1.2c0.3-0.4,0.5-0.5,0.9-0.1c1.7,1.3,3.5,2.6,5.2,3.9c1.6,1.2,3.1,2.4,4.7,3.6c-1.1,0.4-2.1,1.1-2.7,2.1
		c-1.5,1.7-3,3.3-4.6,4.8s-3.3,3-5.1,4.3s-3.3,2.5-5,3.6c-8.6,5.5-18.2,9.3-28.3,11.1c-5.7,1-11.5,1.4-17.3,1.1
		c-6.8-0.4-13.4-1.6-19.9-3.7c-5.2-1.7-10.2-3.9-14.9-6.6c-2.4-1.4-4.8-2.9-7-4.6c-2.3-1.7-4.5-3.5-6.5-5.4
		c-1.8-1.7-3.6-3.5-5.1-5.4C67.2,230.2,66.5,229.8,65.8,229.5z"/>
	<path class="st6" d="M66.5,186.2h4.3c0.7-0.1,1.4,0,2.1,0.1h7.5c0.6,0,1.2,0.1,1.8,0.2c0.4,0.5,0.2,1.1,0.3,1.7
		c0,0.2-0.1,0.4-0.2,0.5c-0.5,0.6-0.7,1.4-0.4,2.1c0.1,0.4,0,0.7-0.2,1c-0.4,0.5-0.4,1.2-0.2,1.8c0.1,0.5,0.4,0.9,0.8,1.2
		c0.6,0.5,1.1,1.1,1.7,1.6c0.6,0.5,1.2,1,1.9,1.3c0.5,0.1,0.9,0.5,0.9,1.1c0,0.1,0,0.2-0.1,0.3c-0.1,0.4-0.1,0.9,0,1.3
		c0.1,0.4-0.1,0.7-0.6,0.7c-1.2,0.1-2.2,0.9-2.6,2.1c-0.3,1.2,0.2,2.5,1.3,3.2c0.4,0.2,0.8,0.4,1.3,0.4c0.3,0,0.6,0.2,0.7,0.4
		c0.6,0.8,1.4,1.4,2.3,1.8c0.2,0.1,0.4,0.2,0.6,0.3c0.3,0.2,0.7,0.3,1.1,0.3c0.3,0.1,0.4,0.2,0.3,0.5c-0.6,1.1-0.5,2.4,0.1,3.4
		c0.2,0.4,0.1,0.6-0.3,0.8c-0.9,0.4-1.6,1.2-1.6,2.3c-0.1,0.7-0.1,1.3,0,2c0.4,1.5,1.8,2.3,3.3,2c0.1,0,0.3-0.1,0.4-0.1
		c0.3-0.1,0.6-0.1,0.9,0.1c0.4,0.3,0.6,0.7,1.1,0.9c0.2,0,0.3,0.1,0.4,0.3c0.2,0.3,0.5,0.5,0.9,0.5c0.4,0.1,0.8,0.3,1.2,0.4
		c0.8,0.2,1.5,0.1,2.3-0.2c0.2-0.1,0.4-0.3,0.8-0.1c-0.1,0.8,0.3,1.6,0.9,2.2c0.3,0.3,0.3,0.5-0.1,0.7c-1.6,0.9-3.2,1.9-4.7,3
		c-0.9,0.6-1.7,1.3-2.5,2c-0.4,0.3-0.7,0.6-1.2,0.1c-0.2-0.3-0.6-0.4-0.9-0.6c-0.4-0.4-0.7-0.2-1,0.1c-0.2,0.2-0.3,0.4-0.5,0.6
		c-0.4,0.7-0.8,0.5-1.3,0.1c-2-1.5-4-3.1-5.8-4.8c-0.2-0.2-0.2-0.3,0-0.5s0.3-0.3,0.4-0.4c0.3-0.3,0.9-0.7,0.8-1.1s-0.6-0.6-0.9-1
		c-0.6-0.5-1.1-1.1-1.5-1.7c-0.2-0.2-0.3-0.2-0.5-0.1s-0.7,0.6-1.1,0.9c-0.2,0.2-0.5,0.3-0.8,0.1c-0.1,0-0.1-0.1-0.1-0.2
		c-0.6-0.7-1.2-1.5-1.8-2.2c-1.1-1.4-2.1-2.9-3.1-4.3c-0.2-0.3-0.4-0.6,0.2-0.9c0.4-0.2,0.7-0.5,1.2-0.7s0.1-0.4,0-0.6
		c-0.6-0.9-1.1-1.9-1.6-2.9c-0.3-0.7-0.4-0.7-1.1-0.4l-0.3,0.1c-1.2,0.6-1.2,0.6-1.7-0.5c-0.6-1.4-1.3-2.9-1.9-4.3
		c-0.5-1.1-0.8-2.2-1.1-3.4c-0.1-0.5,0-0.8,0.5-0.9c1.4-0.4,1.5-0.5,1.1-1.9c-0.3-1.1-0.4-2.3-0.8-3.5c-0.1-0.3-0.3-0.3-0.5-0.3
		c-0.5,0.1-1,0.2-1.5,0.3c-0.3,0.1-0.4,0-0.4-0.3C66.6,192.1,66.4,189.2,66.5,186.2z"/>
	<path class="st6" d="M149.4,221.6c0.1-0.3,0.3-0.3,0.5-0.4c1.8-0.4,3.6-0.7,5.4-0.9c2.4-0.3,4.6-1.3,6.3-2.9c0.5-0.6,1-1.3,1.3-2
		c0.8-1.5,1.3-3.2,2.2-4.7c0.1-0.1,0.1-0.3,0.1-0.4c-1.7,1.3-3.6,2.3-5.7,2.9c-2.3,0.9-4.3,2.4-5.8,4.4c-0.6,0.9-1.3,1.6-2.1,2.3
		c-0.2,0.1-0.4,0.2-0.6,0.3c-0.2,0.1-0.4,0-0.6-0.2c-0.1-0.2,0-0.4,0.2-0.5c1-1.1,1.7-2.4,2.6-3.5c0.7-0.7,1.4-1.3,2.3-1.9
		c2.1-1.3,4.2-2.5,6.5-3.4c1.4-0.5,2.7-1.3,3.8-2.4c0.6-0.6,1.1-1.4,1.4-2.2c0.5-1.2,0.9-2.4,1.2-3.6c0.1-0.3,0.4-0.6,0.4-1.1
		c-0.7,0.6-1.5,1.1-2.3,1.5c-1.3,0.4-2.5,0.9-3.8,1.5c-1.5,0.8-2.8,2-3.7,3.4c-0.6,0.9-0.9,1.9-1.5,2.8c-0.6,0.9-1.3,1.6-2.2,2.1
		c0.2-0.5,0.5-1.1,0.8-1.6c0.6-0.9,1.1-1.9,1.5-3c0.4-1.5,1.7-2.4,2.9-3.3c2.1-1.5,4.3-2.8,6.5-3.9c1.2-0.6,2.1-1.7,2.5-2.9
		c0.5-1.6,0.9-3.2,1.2-4.8c0.2-0.6,0.3-1.3,0.4-1.9c-0.5,0.5-1,1-1.4,1.5c-0.9,0.9-2,1.6-3.1,2.1c-1.4,0.6-2.7,1.5-3.8,2.6
		c-0.6,0.7-1.1,1.5-1.4,2.4c-0.6,1.2-1.1,2.5-1.7,3.8c-0.2,0.5-0.6,0.9-1.1,1.1c-0.2-0.2,0-0.3,0-0.5c0.6-1.8,1.3-3.6,2.1-5.4
		c1.1-2.3,3-4.2,5.2-5.4c1.5-0.8,2.8-1.9,4-3.1c0.5-0.6,0.9-1.3,1.2-2c0.3-0.7,0.5-1.5,0.6-2.3c0.2-0.3,0.6-0.2,0.9-0.2
		c1.5,0,3,0,4.6,0c0.8-0.1,1.5-0.1,2.3,0h4.1c0,0.2-0.1,0.5-0.1,0.7c0,2.5-0.4,4.9-0.5,7.4c0,0.3-0.3,0.6-0.3,0.9
		c0,0.2-0.2,0.1-0.3,0.1l-1.1-0.2c-0.8-0.1-1,0-1.1,0.8s-0.2,1.7-0.4,2.6c-0.1,0.4-0.3,0.9-0.4,1.3s0,0.5,0.4,0.6
		c0.5,0.1,0.9,0.3,1.3,0.5c0.2,0.1,0.5,0.2,0.3,0.4c-0.3,0.7-0.5,1.4-0.7,2.1c-0.5,1.2-0.9,2.4-1.4,3.6c-0.4,1-1,2.1-1.4,3.1
		c-0.1,0.3-0.3,0.2-0.5,0.1c-0.4-0.2-0.8-0.4-1.2-0.6c-0.4-0.2-0.6-0.3-0.8,0.2c-0.6,1.1-1.2,2.1-1.8,3.2c-0.2,0.3-0.2,0.5,0.2,0.7
		s0.6,0.4,1,0.6c0.5,0.2,0.5,0.5,0.3,0.9c-1.4,1.8-2.5,3.8-4.1,5.5c-0.3,0.3-0.6,0.6-0.8,1c-0.2,0.4-0.5,0.4-0.9,0.1
		s-0.7-0.6-1.1-0.8c-0.2-0.1-0.4-0.1-0.5,0c-0.7,0.9-1.6,1.8-2.4,2.6c-0.1,0.1-0.2,0.2,0,0.4c0.3,0.4,0.6,0.8,1,1.2
		c0.2,0.3,0.3,0.5,0,0.7c-1.9,1.8-4,3.5-6.1,5c-0.3,0.2-0.4,0.2-0.6-0.1c-0.2-0.2-0.3-0.5-0.5-0.7c-0.6-0.6-0.6-0.6-1.4-0.1
		s-1,0.6-1.8,0c-2.2-1.7-4.4-3.3-6.9-4.6c-0.4-0.2-0.4-0.3-0.1-0.6C149.5,223.7,150,222.8,149.4,221.6z"/>
	<path class="st5" d="M147.8,221.4c-0.8,0.8-1.6,1.7-2.5,2.4c-1.5,1.3-3.1,2.5-4.8,3.5c-0.1,0.1-0.2,0.1-0.2,0.2
		c-0.7-0.1-1.4-0.3-2-0.6c-2.2-0.8-4.5-1.3-6.8-1.6c-0.5-0.1-1-0.1-1.4,0.2c-0.2,0.1-0.3,0.1-0.5,0.1c-2.9-0.4-5.9-0.4-8.8,0
		c-0.1,0-0.1,0-0.2,0c-1.7-0.7-3.3,0-4.9,0.3c-1.8,0.4-3.6,0.9-5.3,1.6c-0.2,0.1-0.5,0.2-0.8,0.2c-1-0.4-1.9-1-2.8-1.7
		c-1.3-0.9-2.5-2-3.7-3.1c-0.4-0.4-0.8-0.7-0.9-1.3c0-0.1,0.1-0.3,0.2-0.3c1.6-0.9,3.4-1.6,5.1-2.2c4.4-1.6,8.9-2.6,13.5-3
		c3-0.2,5.9-0.2,8.9,0.1c2.9,0.3,5.7,0.7,8.5,1.4c3.1,0.7,6,1.8,8.8,3.2C147.5,221,147.8,221.1,147.8,221.4z"/>
	<path class="st5" d="M161.9,233.6c0.3,1.4-0.7,2.5-2.3,3.2c-1,0.2-1.9,0.6-2.8,1.2c-0.5,0.5-1,1-1.6,1.5c-1.1,0.8-2.6,0.7-3.5-0.4
		c-1.8-1.9-3.9-3.5-6.1-4.9c-3-2-6.3-3.5-9.7-4.5c-1.7-0.5-3.4-0.9-5.1-1c-0.9-0.1-1.2-0.3-1.4-1c-0.2-0.7,0.1-1.5,0.8-1.7
		c0.6-0.2,1.2-0.2,1.8,0c4,0.7,7.8,1.9,11.5,3.7c0.5,0.2,0.8,0.2,1.1-0.3c0.9-1.3,1.8-2.6,2.6-3.9c0.2-0.3,0.3-0.3,0.6-0.1
		c2.8,1.5,5.5,3.3,7.9,5.4c1.3,1,2.5,2.2,3.6,3.5c0.4,0.6,0.8,0.6,1.4,0.2C161.2,234.1,161.4,233.7,161.9,233.6z"/>
	<path class="st5" d="M96.6,240c-0.9,0-1.7-0.5-2.3-1.2c-0.8-0.9-1.9-1.5-3-1.8c-1.2-0.2-2.2-1-2.8-2.1c0-0.1-0.1-0.1-0.1-0.2
		c-0.1-0.4-0.3-0.9,0-1s0.4,0.4,0.8,0.5c0.1,0,0.2,0.2,0.3,0.3c0.4,0.2,0.8,0.4,1.2-0.1c1.1-1.2,2.3-2.3,3.5-3.4
		c1.8-1.5,3.7-2.9,5.7-4.1c0.8-0.5,1.7-1,2.5-1.5c0.3-0.2,0.4-0.1,0.6,0.1c0.7,1.1,1.4,2.1,2.1,3.1c0.2,0.3,0.4,0.6,0.7,0.9
		s0.5,0.3,0.8,0.1c3.7-1.8,7.5-3,11.5-3.7c0.8-0.1,1.7-0.4,2.4,0.3c0.4,0.5,0.5,1.1,0.2,1.7c-0.1,0.5-0.5,0.8-1,0.8
		c-3.4,0.3-6.7,1.1-9.8,2.6c-2.2,1-4.3,2.1-6.2,3.5c-1.9,1.3-3.6,2.7-5.1,4.3C98.1,239.6,97.4,240,96.6,240z"/>
	<path class="st6" d="M132.2,237.8c-0.6-0.6-1.5-0.9-2.4-0.8c-2.3,0.2-4.6,0.2-7,0.1c-1.1-0.1-2.2-0.1-3.3-0.1
		c-0.9,0-1.6,0.5-1.9,1.3c-0.1,0.3-0.2,0.4-0.5,0.3c-2.1-0.3-4.3-0.7-6.3-1.2c-0.4-0.1-0.6-0.3-0.5-0.7c0-0.9-0.6-1.7-1.5-1.9
		c-0.9-0.2-1.8-0.6-2.7-0.9c1.9-1.2,4-2.2,6.2-3c0.3,0,0.6,0,0.9,0.2c1.6,0.8,3.2,1.5,4.9,2.1c0.2,0.1,0.6,0.1,0.4,0.5
		c-0.5,0.4-1.1,0.2-1.7,0.3c-0.2,0.1-0.5,0-0.6,0.3s0.2,0.4,0.3,0.6c0.7,0.8,1.7,1.1,2.7,0.9c1.3-0.3,2.7-0.4,4-0.6
		c0.4-0.1,0.8-0.1,1.2-0.1c2.5,0.6,5.1,1.1,7.7,1.4c1,0.1,2-0.2,2.6-1c0.2-0.2,0.4-0.4,0.3-0.6s-0.4-0.3-0.7-0.3
		c-1.2-0.1-2.4-0.2-3.7-0.4c-0.2,0-0.4,0-0.6-0.2s0.2-0.4,0.4-0.4c2.2-0.7,4.3-1.6,6.3-2.6c0.2-0.1,0.5-0.2,0.7-0.1
		c0.4,0,0.7,0.1,1,0.3c1.9,0.7,3.7,1.6,5.4,2.7c-0.8,0.4-1.7,0.7-2.6,1c-0.8,0.3-1.6,0.7-1.7,1.6c0,0.2-0.2,0.3-0.4,0.3
		c-2.1,0.6-4.3,1.1-6.5,1.5c-0.2,0-0.3-0.1-0.5-0.1C132.2,238.1,132.1,237.9,132.2,237.8z"/>
	<path class="st7" d="M102.2,221.7c1.1,1.3,2.3,2.5,3.6,3.4c1.2,0.9,2.5,1.7,3.7,2.6c-0.5,0.3-1,0.5-1.6,0.6
		c-0.3,0.1-0.5-0.1-0.7-0.3c-1.7-1.3-3.4-2.7-5-4.2c-0.4-0.3-0.8-0.7-1-1.2c-0.1-0.3-0.2-0.6-0.7-0.3c-0.2,0-0.5,0.1-0.6,0.3
		c-0.8,0.3-1.6,0.4-2.5,0.3l-1.2-0.5c-0.4,0.1-0.6-0.3-0.9-0.5l-0.3-0.2c-1.2-0.6-2-1.7-2.3-2.9c-0.1-0.4,0.2-0.5,0.5-0.4
		s0.9,0.3,1.5,0.4c-0.2-0.4-0.4-0.9-0.6-1.3c-0.3-0.6-0.1-0.8,0.6-0.8s0.9-0.2,0.9-0.8s0-1.3,0-1.9c0-0.2,0-0.4,0.3-0.5
		s0.3,0.1,0.5,0.3c0.3,0.4,0.6,0.7,1,1c0.3,0.4,0.9,0.5,1.3,0.2c0.1-0.1,0.2-0.1,0.2-0.2c0.2-0.2,0.3-0.3,0.4-0.5
		c0.1-0.2,0.2-0.4,0.5-0.3s0.3,0.3,0.4,0.4c0.1,0.5,0.3,1,0.5,1.5c0.3-0.4,0.6-0.8,0.9-1.3c0.4-0.6,0.7-0.6,1.1,0
		c0.5,0.6,0.8,1.4,0.8,2.1c0,0.4,0,0.7,0,1c0,1.7,0,2.3-1.8,3.9C102,221.6,102.2,221.6,102.2,221.7z"/>
	<path class="st6" d="M114.5,230.2c1.5-0.6,3.2-0.9,4.8-1c1.1,0,2-0.8,2.1-1.9c0-0.4-0.1-0.9-0.3-1.2c2.7-0.4,5.5-0.4,8.2,0
		c-0.5,0.8-0.4,1.9,0.2,2.6c0.3,0.4,0.8,0.6,1.2,0.6c1.4,0.1,2.8,0.3,4.1,0.6c0.1,0,0.2,0.1,0.3,0.2c-0.1,0.4-0.5,0.5-0.9,0.6
		c-2.4,0.8-4.8,1.5-7.3,2.1c-0.8,0.2-1.7,0.3-2.6,0.4c-3.2-0.5-6.3-1.4-9.4-2.6C114.8,230.4,114.6,230.3,114.5,230.2z"/>
	<path class="st3" d="M82.3,247.7c-0.7-0.3-1.4-0.7-2-1.2c-2.6-1.8-5.1-3.7-7.6-5.7c-2.2-1.9-4.3-3.9-6.2-6
		c-0.8-0.8-1.5-1.7-1.9-2.8c-0.1-0.7,0.2-1.3,0.7-1.7c0.2-0.1,0.5-0.1,0.7,0c0.8,0.5,1.5,1.1,2,1.8c1.3,1.5,2.6,2.9,4.1,4.2
		c1.2,1.2,2.5,2.4,3.8,3.5c1.6,1.4,3.3,2.7,5,3.9l1.1,0.7c0.1,0.1,0.2,0.3,0.2,0.4C82.3,245.8,82.3,246.7,82.3,247.7z"/>
	<path class="st3" d="M167.6,245.9c-0.3-0.9,0.3-1.5,1.3-2.2c2.4-1.6,4.6-3.4,6.8-5.4c1.4-1.2,2.7-2.5,4-3.8c1-1,2-2.1,2.9-3.2
		c0.4-0.4,0.8-0.7,1.3-1c0.5-0.2,1.1,0,1.3,0.5c0,0.1,0.1,0.2,0.1,0.3c0.2,0.9,0,1.8-0.6,2.4c-1.3,1.5-2.6,2.9-4.1,4.3
		c-1.2,1.1-2.4,2.1-3.6,3.2c-2.1,1.8-4.4,3.5-6.7,5.1l-2.2,1.5c-0.3,0.2-0.4,0.1-0.4-0.2S167.6,246.5,167.6,245.9z"/>
	<path class="st4" d="M124.4,233c3.5-0.5,6.9-1.4,10.2-2.7c0.2-0.1,0.3-0.2,0.5-0.3c0.9,0.1,1.7,0.3,2.4,0.8c-2.1,1-4.2,1.9-6.4,2.7
		l-1,0.3c-0.1,0.3-0.4,0.3-0.6,0.4c-1.4,0.4-2.7,0.8-4.1,1.1c-0.3,0.1-0.6,0.1-0.8,0c-2,0.4-4,0.7-6,0.9c-0.9,0.1-1.4-0.5-2.1-1
		c-0.2-0.1-0.3-0.3-0.4-0.4c-0.3-0.4-0.1-0.7,0.4-0.8c0.7-0.1,1.4-0.1,2.1-0.3c0.6-0.2,1.2-0.3,1.8-0.3
		C121.6,233.1,123,233,124.4,233z"/>
	<path class="st4" d="M124.8,243c-1.7,0-3.5-0.1-5.3-0.3c-0.8,0-1.5-0.6-1.5-1.3c0-0.1,0-0.2,0-0.3c0-0.3,0.1-0.4,0.4-0.3
		c0.7,0,1.4,0.1,2,0.3c0.2,0.1,0.4,0.1,0.6,0.1c2.8,0.1,5.6,0.1,8.3-0.1c0.7-0.1,1.5-0.3,2.2-0.3c0.2,0,0.4-0.1,0.6,0
		c0.1,0.2,0.1,0.4,0,0.6c-0.3,0.8-1.2,1.4-2.1,1.3C128.2,242.8,126.6,243.1,124.8,243z"/>
	<path class="st4" d="M119.5,240.7c-4.1-0.3-8.1-1-12-2.3c-0.5-0.1-0.6-0.6-0.4-1.2s0.4-0.5,0.9-0.4c3.8,1.2,7.7,1.9,11.7,2.3
		c0.4,0,0.9,0,1,0.6S120.5,240.7,119.5,240.7z"/>
	<path class="st4" d="M130.7,240.7c-1.1,0-1.2-0.1-1.3-0.7s0.1-0.8,0.8-0.9c3.9-0.3,7.7-1,11.4-2.1c0.2-0.1,0.4-0.1,0.6-0.2
		c0.4-0.1,0.8,0.1,0.9,0.4c0,0,0,0,0,0.1c0.1,0.4,0.2,0.7-0.3,0.9c-2.6,0.9-5.2,1.6-7.9,2C133.3,240.5,131.9,240.6,130.7,240.7z"/>
	<path class="st4" d="M124.7,237.2c1.8,0.2,3.7,0.2,5.5,0c0.8-0.1,1.6,0.4,1.8,1.2c0.1,0.3-0.1,0.3-0.3,0.3
		c-0.6,0.1-1.2,0.1-1.8,0.1c-2.9-0.1-5.7,0.2-8.6,0c-1-0.1-2,0-3-0.1c-0.6-0.1-0.5-0.3-0.4-0.6c0.4-0.6,1.1-1,1.8-0.9
		C121.5,237.3,123.1,237.2,124.7,237.2z"/>
	<path class="st7" d="M124.4,233c-1.7,0.3-3.4,0.5-5.1,0.7c-0.2,0-0.5,0-0.7,0c-0.5-0.4-1-0.6-1.6-0.7c-1.6-0.6-3.1-1.4-4.7-2.1
		c0.7-0.3,1.5-0.6,2.2-0.7c0.9,0.3,1.9,0.7,2.8,1C119.7,231.9,122,232.5,124.4,233z"/>
	<path class="st4" d="M143,238.6c0.3,0,0.7,0,1-0.2c1.3-0.5,2.5-0.9,3.8-1.5c0.4-0.2,0.8-0.1,1.1,0.2c1,0.9,1,0.9-0.3,1.4
		c-1.7,0.7-3.5,1.3-5.2,1.8c-0.8,0.4-1.8,0.1-2.3-0.7c0,0,0-0.1,0-0.1c-0.1-0.1-0.2-0.3,0-0.4C141.7,238.8,142.3,238.6,143,238.6z"
		/>
	<path class="st4" d="M100.5,238.1c0.8-1.5,1.9-1.2,3.2-0.6c1.5,0.6,3.1,1.1,4.8,1.4c0.2,0.1,0.5,0,0.5,0.3c0,0.3-0.1,0.5-0.3,0.6
		c-0.6,0.6-1.5,0.7-2.2,0.4C104.4,239.5,102.4,238.9,100.5,238.1z"/>
	<path class="st8" d="M141.9,228.2c1-0.8,2-1.5,3-2.3c1.4-1.2,2.8-2.5,4-3.8c0.3,0.2,0.2,0.5,0.2,0.7c-0.1,0.7-0.6,1.2-1,1.7
		c-0.1,0.1-0.1,0.3-0.3,0.1c-0.5-0.3-0.7,0.1-0.8,0.3c-0.8,1.2-1.6,2.4-2.3,3.5c-0.5,0.7-0.4,0.7-1.3,0.4
		C142.8,228.7,142.4,228.5,141.9,228.2z"/>
	<path class="st9" d="M139.9,236.5c0.2-0.6,0.6-1.1,1.2-1.4c1-0.4,2-0.7,3-1.1c0.4-0.2,0.6,0.1,0.8,0.3s0.9,0.5,0.9,0.7
		c-0.1,0.4-0.6,0.4-1,0.5c-1.4,0.6-2.9,1.1-4.3,1.5C139.9,237.2,139.9,237.2,139.9,236.5z"/>
	<path class="st4" d="M104.2,235.1c0.9-1.1,2-1.1,3.2-0.5c0.7,0.4,1.6,0.3,2.2,0.9c0.4,0.4,0.5,0.9,0.3,1.4
		c-0.1,0.4-0.3,0.1-0.5,0.1c-1.1-0.3-2.2-0.7-3.3-1.2L104.2,235.1z"/>
	<path class="st10" d="M101.3,222.6c2,2.1,4.2,4,6.7,5.7c-0.5,0.4-1,0.6-1.6,0.8c-0.4,0.2-0.5-0.3-0.7-0.5c-0.8-1.2-1.6-2.4-2.4-3.6
		c-0.2-0.3-0.3-0.6-0.8-0.4c0,0-0.1,0-0.1,0C101.8,224.1,101.4,223.4,101.3,222.6z"/>
	<path class="st11" d="M132.2,237.8l0.2,0.4c0,0.1,0.1,0.2,0.1,0.3s0.1,0.2-0.1,0.2s-0.2,0-0.2-0.1
		C132.2,238.3,131.9,238,132.2,237.8z"/>
	<path class="st12" d="M129.3,186.5c-0.4,0.1-0.2,0.4-0.2,0.6c0.2,3.6,0.2,7.3,0.2,10.9c0,0.2,0,0.4,0,0.6c0.2,1.2,0.9,2.2,1.9,2.8
		c1.2,0.7,2.7,0.4,3.7-0.6c0.1-0.1,0.2-0.3,0.4-0.3s0.2,0.2,0.2,0.4c0.2,0.7,0.6,1.3,1.1,1.9c0,0.2,0.2,0.3,0,0.5
		c-0.3,0.4-0.7,0.8-1.1,1.2c-1.2,0.9-2.7,1.4-4.2,1.4c-1.1,0.1-2.3,0-3.4-0.1c-0.8-0.1-1.6-0.4-2.3-0.9c-0.3-0.2-0.6-0.2-0.8,0
		c-2.5,1.2-5.3,1.4-8,0.6c-0.7-0.2-1.4-0.5-1.9-1c-0.4-0.4-0.7-0.8-1-1.2c-0.1-0.2-0.2-0.3-0.2-0.5c0.3-0.3,0.5-0.7,0.6-1.1
		c0.1-0.3,0.3-0.6,0.4-0.9c0.3-0.4,0.5-0.4,0.9-0.1c0.3,0.3,0.6,0.6,1,0.7c1.5,0.5,2.5,0,3.5-1.5c0.5-0.8,0.7-1.7,0.7-2.6
		c0-3.6,0-7.3,0-11c0.1-0.4,0.1-0.8,0.1-1.2c0-1,0-1.9,0-2.9c0.1-3.1,0.3-6.3,0.4-9.4c0-1.7,0-3.3,0-5c0-0.3-0.1-0.7,0.3-0.8
		c0.2,0.2,0.2,0.5,0.2,0.8c0,0.9,0,1.9,0,2.8c0.1,2.1,0,4.1-0.1,6.2c0,0.1,0,0.2,0,0.4c0.1,3.7-0.2,7.3-0.1,11
		c0,0.5-0.1,0.9-0.2,1.3c-0.1,0.6,0.2,1.3,0.7,1.6c0.2,0.1,0.4,0,0.5-0.1c0.2-0.3,0.3-0.7,0.2-1c0-3.4-0.1-6.7,0-10.1
		c0.2-5.6-0.2-11.3,0.2-16.9s0-11.2,0.2-16.8c0.2-4.6,0-9.3,0.1-13.9c0-0.3,0.2-0.9-0.3-0.9s-0.2,0.6-0.2,0.9s0,0.7-0.2,1
		c-0.3,0.1-0.3-0.1-0.2-0.2c0.1-1.7-0.2-3.4,0.2-5.1c0.2-0.1,0.3,0,0.4,0.2c0.1,0.2,0.1,0.3,0.2,0.4c0.3,0.3,0.6,0.3,1,0.1
		c0.5-0.2,1.1-0.2,1.6,0c0.3,0.2,0.7,0.2,1,0.2c0.1,0,0.1,0.1,0.1,0.1c-0.2,0.6-0.4,0.7-1,0.5c-0.6-0.2-1.2-0.2-1.8,0
		c-0.3,0.1-0.6,0.1-0.9-0.1c-0.3-0.2-0.5-0.1-0.5,0.2c-0.1,0.7,0,0.9,0.8,1.1c1.3,0.3,2.7,0.2,3.9-0.4c0.3,0,0.3,0.2,0.2,0.4
		c-0.1,0.1-0.3,0.3-0.4,0.4c-0.8,0.3-0.7,0.9-0.6,1.5c0.5,2.3,0.2,4.7,0.2,7c0.1,5.7,0.1,11.5,0.2,17.2c0.1,4.1-0.2,8.2,0.1,12.2
		s0,8.2,0.2,12.2c0.2,2.8,0,5.6,0.1,8.4c0,0.2,0,0.4,0,0.6c0,0.4-0.2,0.8,0.3,1c0.2,0.1,0.9-0.6,0.9-1c0.1-0.6,0.1-1.3,0-1.9
		c-0.2-2,0-4-0.1-5.9c-0.3-3-0.2-6-0.3-9c-0.1-2,0-4,0-6c0-0.9,0-1.9,0-2.8c-0.1-0.3,0-0.5,0.2-0.8c0.4,0.1,0.4,0.5,0.4,0.7
		c-0.1,1.4-0.1,2.7,0,4.1c0.4,2.8,0.1,5.6,0.3,8.4c0.1,2,0,4.1,0,6.1c0,1.1,0.1,2.2,0.2,3.3C129.4,186.2,129.4,186.3,129.3,186.5z"
		/>
	<path class="st13" d="M113.2,144.3c0.1-0.1-0.1-0.5,0.3-0.4c0.6,0.1,0.6-0.3,0.6-0.7c-0.1-0.8,0.1-1.5-0.1-2.3c0-0.5,0-1,0.2-1.5
		c0.1-0.8,0.1-1.7,0-2.5c0-0.3,0.2-0.6,0.4-0.9c0.6-0.9,1.3-1.8,1.9-2.7c0.2-0.4,0.4-0.4,0.7-0.2c0.2,0.1,0.3,0.3,0.5,0.3
		c1.3,0.4,1.5,1.3,1.4,2.4c-0.1,1.6,0,3.3,0,4.9c0,0.2-0.2,0.5,0.2,0.6l0,0c-0.5,0.1-0.3,0.5-0.3,0.8c0,7.5,0,15,0,22.5
		c0,0.1-0.3,0.5,0.2,0.5s0.7,0.2,0.3,0.7c-0.2,0.3-0.4,0.6-0.4,1c0,7.1,0,14.1,0,21.2c0,0.1,0,0.2,0,0.3c0,0.3-0.1,0.6-0.3,0.8
		c-0.4,0.5-0.9,1-1.3,1.5c-0.2,0.3-0.6,0.5-1,0.5H96.2c-0.5,0.1-1,0-1.4-0.3c-0.1-0.1-0.1-0.2-0.1-0.3c0.3-0.5,0.4-1.1,0.2-1.6
		c-0.2-0.8-0.2-0.9,0.7-1c1.3-0.1,2.7-0.2,4-0.1c-0.1-0.1-0.4-0.1-0.4-0.3s0.3-0.3,0.5-0.4c0.8-0.4,1.6-0.7,2.4-1
		c0.3-0.2,0.7-0.1,0.9,0.2c0,0,0,0,0,0.1c0.3,0.4,0.5,0.8,1.1,0.6s0.6-0.7,0.7-1.1c0.1-0.9,0.5-1,1.3-0.6s0.9,0.5,0.9-0.5
		s0.2-1.3,1.4-1.4h0.1c1.1-0.1,1.1-0.1,1.1-1.1c0-0.6,0-1.1,0-1.7s0.2-0.7,0.7-0.7h1.7c0.4,0,0.6-0.2,0.6-0.6c0-0.8,0-1.6,0-2.4
		c0-0.4-0.2-0.6-0.6-0.6c-1.6,0.1-1.4-0.2-1.4-1.5c0-0.2,0-0.4-0.1-0.6c-0.6,0.3-1.1,0.7-1.6,1.1c-1.2,0.9-2.4,1.8-3.7,2.6
		c-1.9,1.3-3.9,2.4-5.9,3.5c-1.8,1-3.7,1.8-5.6,2.6c-0.2,0.2-0.5,0.2-0.8,0.1c-0.2-0.2,0-0.4,0.2-0.5c3.2-1.3,6.2-2.9,9.2-4.6
		c2.6-1.5,5.1-3.2,7.5-5c0.1,0,0.1-0.1,0.2-0.2c0.1-0.1,0.4-0.2,0.3-0.4s-0.3-0.1-0.5-0.1c-0.9,0-1-0.1-1-0.9c0-0.4,0-0.9,0-1.4
		c0-0.7,0-0.8-0.9-0.8c-0.3,0-0.6,0-0.9,0c-0.8,0-1.4-0.6-1.5-1.3c0,0,0,0,0,0c-0.1-0.7-0.1-1.4,0-2.1c0-0.8,0.7-1.5,1.5-1.5
		c0,0,0.1,0,0.1,0h0.1c1.6,0,1.6,0,1.6-1.5c0-0.2,0-0.4,0-0.6c0-0.7,0.5-1.2,1.1-1.2c0,0,0.1,0,0.1,0c1.3-0.1,1.1-0.1,1.4-1.2
		c0.2-0.7,0.2-1.5,0-2.3c-0.2-0.6-0.1-1.3,0.3-1.8c0.3-0.4,0.7-0.7,1.3-0.8c0.2,0,0.5-0.1,0.5-0.4c0,0,0-0.1,0-0.1
		c0-0.2,0-0.5,0-0.7c0-0.5-0.2-0.7-0.8-0.8c-0.7,0-1.3-0.5-1.3-1.2c0,0,0,0,0,0c0-0.1,0-0.2,0-0.2c0-3.4-0.3-6.7-0.1-10
		c0-0.9-0.1-1.4-1-1.8c-0.8-0.4-1.4-1.1-1.6-1.9c-0.1-0.3-0.1-0.6,0-0.8c0.1,0,0.1,0,0.2,0c0.1,0.8,0.6,1.5,1.2,2.1
		c0.7,0.6,1.5,0.9,2.4,1c-0.6,0.5-0.9,1.3-0.8,2.1c0,1.4,0,2.8,0,4.2c0,0.2-0.2,0.5,0.1,0.6s0.3-0.3,0.5-0.4c0.5,0,0.8-0.2,0.7-0.7
		C113,145.8,113,145,113.2,144.3z"/>
	<path class="st4" d="M106.5,113.1l5.9-2.1c0.3-0.1,0.4,0,0.4,0.3c0.4,1.1,0.8,2.1,1.3,3.1c0.2,0.4-0.2,0.3-0.4,0.4l-5.6,1.9
		l-2.4,0.8c-0.2,0.1-0.3,0.2-0.4,0.3c-2.6,0.9-5.1,1.8-7.7,2.7c-0.8,0.3-1.5,0.6-2.3,0.8s-0.9,0-1.1-0.6c-0.3-0.8-0.6-1.7-1-2.5
		c-0.2-0.5-0.1-0.7,0.5-0.9c1.8-0.7,3.8-1.3,5.6-1.9c2.1-0.7,4.2-1.4,6.3-2.2C105.9,113.1,106.2,113.1,106.5,113.1z"/>
	<path class="st4" d="M144.5,117.7l-6.3-2.1l-2-0.7c-0.3-0.1-0.4-0.2-0.3-0.5c0.4-1.1,0.8-2.1,1.2-3.2c0.1-0.3,0.3-0.2,0.5-0.1
		l6.3,2.2c0.1,0,0.3,0,0.4,0c4,1.3,7.9,2.7,11.9,4.1c0.5,0.2,0.6,0.5,0.4,0.9c-0.4,0.8-0.6,1.8-1,2.6c-0.3,0.6-0.4,0.7-1.1,0.5
		c-1.9-0.6-3.7-1.3-5.6-1.9c-1.3-0.5-2.7-0.9-4-1.4C144.8,118,144.6,117.9,144.5,117.7z"/>
	<path d="M119.2,188.3c-0.2-0.2-0.1-0.5-0.1-0.7c0-6.7,0-13.5,0-20.2c0-0.7-0.2-1.6,0.8-2c-0.2-0.2-0.5,0-0.5-0.3
		c0.8-0.9,1.5-1.8,2.2-2.7c0.4-0.1,0.4,0.2,0.4,0.4c0,0.3,0,0.6,0,0.8c0,0.5,0,1-0.1,1.5c-0.2,0.3-0.2,0.7-0.2,1
		c0,0.3,0.1,0.6-0.2,0.9s-0.1,0.4-0.1,0.6c0,1.4,0,2.7,0,4.1c-0.1,2.3,0.1,4.5-0.2,6.8c-0.3,2.4-0.1,4.9-0.2,7.3
		c0,0.3-0.1,0.5-0.2,0.8c0,0.1,0,0.2,0,0.2C120.4,187.3,119.8,187.9,119.2,188.3z"/>
	<path d="M129.3,186.5c-0.1-0.2-0.3-0.3-0.3-0.5c0-0.9-0.1-1.9-0.1-2.8c-0.1-4.1,0.1-8.3-0.2-12.4c-0.1-2.3-0.1-4.6-0.2-6.9
		c0-0.1-0.1-0.2-0.1-0.4c-0.2-0.3-0.4-0.6,0.1-0.7c0.5,0.5,0.9,1,1.3,1.5c0.2,0.3,0.6,0.4,0.6,0.8c0.5,0.8,0.7,1.8,0.6,2.7
		c0,6.4,0,12.8,0,19.2c0,0.3,0,0.5,0,0.8c0,0.2-0.1,0.4-0.4,0.3C130.3,187.5,129.6,187.1,129.3,186.5z"/>
	<path class="st14" d="M130.6,188.1c0.3,0,0.3-0.3,0.3-0.5c0-7.1,0-14.2,0-21.4c0-0.2-0.1-0.5-0.3-0.6c-0.2-0.2-0.3-0.4-0.1-0.6
		c0.1,0,0.3,0.3,0.4-0.1c0-0.1,0-0.3,0-0.4c0-7.5,0-15,0-22.5c0-0.3,0.3-0.7-0.3-0.8c-0.1,0-0.1,0,0,0c0.7-0.3,0.3-0.9,0.3-1.4
		c0.1-1.7,0-3.5,0-5.2c-0.1-0.4,0.1-0.7,0.5-0.9c0.5-0.2,0.9-0.5,1.4-0.8c0.3-0.2,0.4-0.2,0.6,0.1c0.8,1.1,1.6,2.3,2.3,3.4
		c0.2,0.3-0.2,0.4-0.1,0.6c0.3,0.6-0.1,1.3,0,1.9c-0.1,0.1-0.1,0.1-0.2,0c-0.1-0.1-0.1-0.3-0.2-0.4c-0.4-0.4-0.8-0.7-0.1-1.1
		c0.1-0.1,0.1-0.2,0-0.3c-0.3-0.9-0.7-1.8-1.3-2.6c-0.3-0.3-0.5-0.6-0.7-1c0.1,0.3,0.1,0.6,0.1,0.9c0,1.4,0,2.7,0,4
		c0,0.4,0,0.8,0.6,0.9c0.2,0,0.3,0.2,0.3,0.4c0,0,0,0,0,0c0,0.2-0.1,0.3-0.3,0.3c-0.6,0.1-0.6,0.4-0.6,0.9c0,2.7,0,5.3,0,7.9
		c0,0.4,0,0.8,0.6,0.9c0.2,0,0.4,0.2,0.4,0.4c0,0.2-0.2,0.4-0.4,0.5c0,0,0,0,0,0c-0.5,0.1-0.6,0.4-0.6,0.8c0,2.2,0,4.5,0,6.7
		c0,0.4,0.1,0.8,0.6,0.8c0.2,0,0.4,0.1,0.4,0.4s-0.2,0.4-0.4,0.4c-0.5,0-0.6,0.4-0.6,0.8c0,2.1,0,4.1,0,6.2c0,0.5,0.2,0.7,0.7,0.7
		s0.9-0.1,0.9,0.4s-0.5,0.4-0.9,0.4c-0.7,0.1-0.7,0.1-0.7,0.9c0,6.1,0,12.2,0,18.3c0,0.9,0.1,1.9,0,2.8c0,0.3,0.1,0.3,0.3,0.3h19.8
		c0.3,0,0.7,0,1,0c0.1,0,0.3,0.1,0.3,0.3l0,0c-0.2,0.1-0.4,0.1-0.6,0.1h-20.9c-0.2,0-0.4,0-0.6,0c-0.8-0.7-1.4-1.5-1.8-2.4
		C130.8,188.3,130.7,188.2,130.6,188.1z"/>
	<path class="st15" d="M106.5,113.1c-0.3,0-0.5,0.3-0.8,0.2c0.2-1.1,0.5-2.2,0.9-3.2c0.9-2.1,2.1-4.1,3.6-5.9
		c1.2-1.4,2.6-2.6,4.1-3.6c-0.5,0-1,0-1.4,0.1c-0.5,0-1,0.1-1.5,0.2c-4.9,0.5-9.7,1.4-14.4,2.6c-1.3,0.3-2.6,0.7-3.9,1.1
		c-0.4,0.1-0.8,0.4-0.8,0.9c-0.7,3.2-2.1,6.2-4.2,8.8c-3.5,4.5-8.3,7.9-13.7,9.7c-0.8,0.3-1.5,0.5-2.3,0.6c-0.8,0.2-0.8,0.2-0.8,1
		c0,0.1,0,0.2,0,0.4c0,19.6,0,39.2,0,58.8c0,1.2-0.1,1.1,1.2,1.2c3.8,0.2,7.6,0.1,11.4,0.1c0.1,0,0.1,0,0.2,0
		c0.2,0.2,0.1,0.5-0.1,0.7c0,0-0.1,0-0.1,0.1c-0.5-0.4-1.1-0.1-1.6-0.3c-3-0.2-6-0.1-9-0.1c-0.7,0-1.4-0.1-2.1-0.1
		c-0.1,0-0.3,0-0.3-0.1c0-0.3,0-0.5,0-0.8c0-20.1,0-40.2,0-60.3c0-0.6,0.2-0.8,0.7-0.9c3.5-0.7,6.8-2.1,9.7-4.1
		c3.1-2,5.7-4.7,7.7-7.8c1.1-1.7,1.9-3.5,2.5-5.4c0.2-0.6,0.4-1.2,0.4-1.8c0-0.5,0.3-0.7,0.8-0.8c6.4-1.9,12.9-3.2,19.5-3.9
		c1.3-0.2,2.7-0.3,4.2-0.4c-1,0.6-2,1.2-3,1.9c-1.3,1-2.5,2.2-3.6,3.6c-0.9,1.2-1.7,2.5-2.4,3.8c-0.3,0.6-0.4,1.3-0.7,2
		c-0.1,0.4-0.3,0.9-0.4,1.3C106.2,112.6,106,113,106.5,113.1z"/>
	<path class="st4" d="M135.5,119.5c0.1,0.1,0.3,0.2,0.4,0.3c1.5,2,3,4.1,4.5,6.1c0.3,0.3,0.7,0.7,0.6,1s-0.7,0.5-1,0.8
		c-0.6,0.4-1.3,0.8-1.9,1.3c-0.3,0.2-0.4,0.2-0.6-0.1c-1.4-2-2.9-3.9-4.4-5.9c-0.2-0.3-0.4-0.5-0.6-0.7c-0.5-0.4-0.4-0.6,0.1-0.9
		c0.8-0.5,1.6-1.1,2.4-1.6C135.3,119.6,135.4,119.5,135.5,119.5z"/>
	<path class="st4" d="M112.2,129.1c-0.2-0.1-0.3-0.2-0.5-0.3c-0.8-0.6-1.7-1.2-2.6-1.7c-0.3-0.2-0.3-0.3-0.1-0.5
		c0.8-1.1,1.7-2.2,2.5-3.3c0.9-1.2,1.8-2.4,2.7-3.6c0.2-0.2,0.3-0.2,0.5-0.1c0.9,0.6,1.8,1.2,2.7,1.8c0.3,0.2,0.3,0.4,0.1,0.7
		c-0.6,0.8-1.2,1.7-1.8,2.5s-1.4,1.8-2,2.8c-0.4,0.5-0.8,1.1-1.2,1.6C112.4,128.9,112.3,129,112.2,129.1z"/>
	<path class="st16" d="M144.5,117.7l0.5,0.2c-0.1,1.2-0.1,2.4-0.3,3.5c-0.4,2.2-1.2,4.3-2.2,6.2c-0.6,1.1-1.3,2.2-2.1,3.2
		c-0.2,0.1-0.2,0.4-0.1,0.6c0,0,0,0.1,0.1,0.1c0.9,0.8,1.4,2.1,1.3,3.3c0,0.8,0,1.6,0,2.4c0,1.6-1,3.1-2.6,3.6
		c-0.4,0.2-0.5,0.3-0.3,0.6c0.1,0.3,0.2,0.7,0.1,1c0,1.6,0,3.3,0,4.9c0,0.6-0.1,1.1-0.3,1.6c-0.1,0.3-0.2,0.7-0.2,1
		c0,0.8,0,1.6,0,2.4c0.1,0.7-0.4,1.3-1.1,1.3c-0.6,0.3-1,1-1,1.7c0.1,0.3,0.3,0.3,0.5,0.3c0.8,0,1.4,0.6,1.5,1.4
		c0.2,0.7,0.1,1.4-0.3,2c-0.1,0.1-0.1,0.3,0,0.4c0,0,0,0,0,0c0.3,0.4,0.5,0.9,0.4,1.4c0,0.5,0.2,0.7,0.7,0.7c0.2,0,0.4,0,0.6,0
		c0.9,0,1.3,0.4,1.3,1.3c0,0.5,0,1,0,1.5s0.2,0.5,0.6,0.5s0.8,0,1.2,0c0.8,0,1.4,0.6,1.4,1.3c0.1,0.8,0.1,1.6,0,2.4
		c0,0.7-0.6,1.2-1.3,1.2c0,0,0,0-0.1,0c-0.4,0-0.7,0-1.1,0c-0.7,0-0.8,0.1-0.8,0.8c0,0.5,0,0.9,0,1.4c0,0.8-0.1,0.9-0.9,0.9
		c-0.1,0-0.3,0-0.4,0.1c0.1,0.2,0.3,0.3,0.5,0.4c2.1,1.5,4.1,3,6.3,4.4c2.9,1.8,5.8,3.4,8.9,4.7c0.3,0.1,0.6,0.1,0.9,0.1
		c0,0.3,0,0.7-0.1,1c-0.5-0.3-1.1-0.6-1.7-0.8c-2.7-1.2-5.3-2.6-7.8-4.2c-2.2-1.3-4.2-2.8-6.3-4.3c-0.3-0.2-0.6-0.4-0.8-0.7
		c-0.1-0.1-0.2-0.2-0.3-0.1s-0.1,0.3-0.1,0.4c0.1,0.4,0.2,0.7,0.2,1.1c0,0.8-0.1,0.9-0.9,0.9c-1.3,0-1.2,0-1.2,1.2
		c0,0.6,0,1.2,0,1.8s0.2,0.7,0.7,0.7s1.1,0,1.7,0s0.7,0.2,0.7,0.7c0,0.7,0,1.4,0,2c0,0.5,0.1,0.8,0.7,0.8c0.1,0,0.2,0,0.3,0
		c1.2,0.2,1.4,0.4,1.4,1.6c0,0.1,0,0,0,0.1c0,0.9,0,0.9,0.8,0.4c0.2-0.1,0.4-0.2,0.6-0.3c0.6-0.1,0.8,0.1,0.9,0.6
		c0,0.2,0,0.5,0.1,0.7c0.2,0.6,0.7,0.8,1.2,0.3c0.3-0.3,0.4-0.8,1-0.7c0.4,0.1,0.8,0.2,1.2,0.4l1.6,0.6c0.5,0.2,0.5,0.2,0.3,0.7
		c0.6,0.2,1.3-0.1,2,0.2c0,0.1,0,0.2-0.1,0.3c-1,0.2-2.1,0.2-3.1,0c-0.5-0.1-0.5-0.3-0.1-0.6s0.3-0.3-0.1-0.5l-0.8-0.3
		c-0.8-0.4-0.8-0.4-1.5,0.2c-0.5,0.5-1.3,0.5-1.9,0c-0.2-0.2-0.3-0.5-0.4-0.7c0-0.1-0.1-0.3-0.1-0.4c0-0.4-0.3-0.4-0.6-0.2
		c-0.2,0.2-0.5,0.3-0.7,0.4c-0.6,0.2-0.8,0-0.9-0.5c0-0.3,0-0.7,0-1c0-0.4-0.2-0.7-0.7-0.8c-0.4-0.1-0.8-0.1-1.2-0.1
		c-0.3,0-0.7-0.2-0.7-0.5c0,0,0-0.1,0-0.1c-0.1-0.7-0.1-1.4-0.1-2.1c0-0.6-0.1-0.7-0.7-0.7h-1.4c-0.5,0-0.7-0.2-0.7-0.7
		c0-1.1,0-2.2,0-3.4c0-0.5,0.3-0.8,0.8-0.7c1,0,1-0.2,1-1c0-0.4,0-0.9,0-1.4c0-0.4,0.2-0.7,0.5-0.7c0.1,0,0.1,0,0.2,0h0.4
		c0.8,0,0.9-0.2,0.7-0.9c-0.1-0.5-0.2-1-0.1-1.5c0-0.4,0.2-0.7,0.7-0.7s1.1,0,1.6,0c0.7,0,0.9-0.2,0.9-0.9s0-1.4,0-2s-0.3-0.9-1-0.9
		c-0.4,0-0.8,0-1.2,0s-0.8-0.2-0.8-0.7s0-1.1,0-1.6c0-0.8-0.3-1-1.1-1c-1.6,0-1.6,0-1.6-1.5c0-0.6-0.4-0.9-0.9-1.2
		c-0.2-0.1-0.5-0.1-0.4-0.4s0.3-0.2,0.5-0.2c0.5-0.1,0.8-0.6,0.8-1.1c-0.1-1-0.4-1.4-1.1-1.6c-1.1-0.2-1.1-0.2-1.1-1.2
		c0-0.4,0-0.9,0-1.4c0-0.6,0.2-0.8,0.8-0.8c1.2,0,1.4-0.1,1.4-1.3c0-1,0-2,0-2.9s-0.1-1-1.1-1.2c-0.2,0-0.3-0.1-0.4-0.2
		c0-0.1,0-0.3,0.2-0.3c0.1,0,0.2,0.1,0.3,0.1c0.7-0.1,1.3,0.4,1.4,1c0-0.6,0-1.2,0-1.8c0-1.4,0-2.8,0-4.2c0.1-0.6-0.2-1.1-0.7-1.4
		c0.8-0.1,1.6-0.4,2.2-0.9c0.8-0.6,1.3-1.5,1.4-2.6c0-1,0-2,0-3.1c-0.1-1.1-0.7-2.2-1.6-2.8c-0.2-0.2-0.2-0.2,0-0.4
		c1.2-1.5,2.2-3.1,3-4.8c0.8-1.7,1.3-3.6,1.6-5.4c0.2-0.3,0-0.7,0.2-1L144.5,117.7z"/>
	<path class="st17" d="M144.2,113.5l-0.3-0.2c-0.1-0.7-0.3-1.5-0.5-2.2c-0.3-0.6-0.5-1.2-0.7-1.7c-1-2.3-2.5-4.4-4.3-6.2
		c-1.4-1.3-2.9-2.4-4.6-3.3l1.6,0.1l1.5,0.1c4,0.4,7.9,1,11.9,1.8c3.1,0.6,6.1,1.4,9.1,2.3c0.2,0.1,0.4,0.1,0.5,0.4
		c0.1,0.5,0.2,1,0.3,1.5c0.3,1.4,0.8,2.7,1.4,4c0.7,1.3,1.5,2.5,2.3,3.7c1.5,1.9,3.2,3.7,5.1,5.1c3.2,2.6,7.1,4.4,11.2,5.2
		c0.6,0.1,0.7,0.3,0.7,0.8c0,20.1,0,40.3,0,60.4c0,0.3-0.1,0.5,0.1,0.8c-0.7,0.2-1.5,0.2-2.2,0.2c-1.8,0.1-3.6,0-5.4,0.1
		c0-0.3,0-0.7,0.1-1c0.2,0.5,0.6,0.6,1.2,0.6c1.8,0,3.5-0.2,5.3-0.1c0.5,0,0.7-0.2,0.7-0.6c0-0.2,0-0.4,0-0.6c0-19.6,0-39.2,0-58.8
		c0-0.1,0-0.3,0-0.4c0.1-0.6-0.2-0.8-0.8-0.9c-4.6-1-8.9-3.2-12.4-6.4c-2.3-2-4.2-4.3-5.7-6.9c-1-1.8-1.7-3.7-2.1-5.8
		c0-0.5-0.4-0.9-0.9-1c-3.8-1.1-7.6-2-11.4-2.7c-3.2-0.5-6.4-1-9.6-1.3c-0.1,0-0.2,0-0.3,0c2.5,1.6,4.6,3.7,6.1,6.3
		c1.1,1.8,2,3.8,2.4,5.8C144.3,112.9,144.4,113.2,144.2,113.5z"/>
	<path class="st12" d="M124.4,122.9c0.2-0.3,0.3-0.6,0.3-1c0-2.2,0-4.4,0-6.7v-0.6l-7.2,4.7l0.1-0.4c0.8-1.2,1.8-2.4,2.7-3.6
		c1.2-1.6,2.4-3.1,3.6-4.7c0.2-0.3,0.5-0.6,0.8-0.9c0.3,0,0.2,0.3,0.2,0.4c0,1.3,0,2.6,0,3.9c0.1,0.1,0.3,0,0.4,0.1
		c0.1,0.2,0.2,0.4,0.2,0.6c-0.3,0.1-0.2,0.4-0.2,0.5c0,2.3,0,4.5,0,6.8c0,0.3,0.1,0.6,0.3,0.8c0.6,0.5,1.1,1.3,1.3,2.1
		c0.1,0.3,0.4,0.4,0.3,0.8c-0.1,0.1-0.2,0.1-0.3,0.1c-0.2-0.1-0.3-0.4-0.3-0.6c-0.2-0.7-0.6-1.3-1.1-1.8c-0.2-0.3-0.6-0.4-0.9-0.2
		c0,0,0,0,0,0C124.4,123.1,124.3,123,124.4,122.9z"/>
	<path class="st1" d="M125.6,109.4c-0.3-0.1-0.5-0.1-0.2-0.4c0.9-1,1.7-2.1,2.5-3.2c0.1-0.3,0.4-0.4,0.7-0.4l8.4,0.2
		c0.1,0,0.1,0,0.2,0.1c0,0.3-0.3,0.2-0.4,0.3c-0.8,0.3-1.6,0.6-2.4,0.8c-2.7,0.8-5.4,1.7-8,2.5C126,109.3,125.8,109.4,125.6,109.4z"
		/>
	<path class="st18" d="M125.1,109c-0.2,0.2-0.3,0-0.4-0.1c-0.8-1.2-1.7-2.4-2.7-3.5c-0.2-0.3-0.1-0.5,0-0.7c0.6-1.2,1-2.5,1.5-3.8
		c0.5-1.2,1-2.4,1.3-3.7c0.3,0,0.2,0.2,0.3,0.3c0.3,3.3,0.1,6.6,0.1,9.8C125.2,108,125.2,108.5,125.1,109z"/>
	<path class="st1" d="M125.2,109.6c1.3,0.4,2.6,0.9,3.9,1.2c0.7,0.1,1.2,0.7,1.3,1.3c0.4,1.7,1,3.3,1.5,5c0.1,0.7,0.4,1.5,0.7,2.1
		c-0.3,0.1-0.4,0-0.5-0.2c-1.3-1.8-2.8-3.5-4.1-5.3c-1-1.3-2-2.6-2.9-3.9C125.1,109.8,125.1,109.7,125.2,109.6z"/>
	<path class="st4" d="M124.6,109.7c0,0.5-0.5,0.8-0.8,1.2c-1.3,1.6-2.5,3.3-3.7,4.9c-0.7,1-1.6,2-2.3,2.9c0,0.1-0.1,0.2-0.2,0.1
		c0.2-1,0.5-1.9,0.9-2.9c0.2-0.7,0.3-1.3,0.6-2c0.3-0.8,0.5-1.7,0.8-2.6c0.1-0.2,0.1-0.4,0.3-0.4
		C121.6,110.6,123.1,110.2,124.6,109.7z"/>
	<path class="st1" d="M124.6,109.2c0.1,0.2-0.1,0.3-0.2,0.3c-1.4,0.4-2.8,0.8-4.2,1.3c-0.5,0.2-0.7-0.2-1-0.4
		c-2-1.4-3.9-2.9-5.9-4.3c0-0.2,0.2-0.2,0.3-0.2c1.3,0.3,2.5,0.7,3.8,1.1c2.1,0.6,4.1,1.3,6.2,1.9
		C123.9,108.9,124.2,109,124.6,109.2z"/>
	<path class="st4" d="M125.2,109.8c0.7,0.8,1.4,1.6,2,2.5c1,1.3,2,2.7,3.1,4.1c0.6,0.8,1.2,1.6,1.8,2.4c0.1,0.1,0.1,0.2,0,0.2
		l-3.2-2l-3.6-2.3c-0.2-0.2-0.1-0.4-0.2-0.6C125,112.7,125.1,111.3,125.2,109.8z"/>
	<path class="st4" d="M124.6,109.2c-0.7,0-1.3-0.2-1.9-0.5c-3-0.9-6-1.9-9.1-2.8c-0.1-0.1-0.3,0-0.4-0.2c0.7-0.2,1.4,0,2.1-0.1h1.4
		c0.8-0.1,1.6-0.1,2.4-0.1c0.3,0,0.5,0,0.8,0c1.1-0.4,2.3,0.1,2.8,1.2C123.2,107.6,123.9,108.4,124.6,109.2z"/>
	<path class="st4" d="M125.6,109.4c0-0.2,0.1-0.2,0.2-0.2l10.5-3.2c0.1,0,0.2-0.1,0.4,0c-0.8,0.7-1.7,1.4-2.6,2
		c-1.2,0.9-2.4,1.7-3.6,2.6c-0.2,0.2-0.5,0.3-0.8,0.2C128.3,110.3,127,109.9,125.6,109.4z"/>
	<path class="st4" d="M125.1,109c0-0.2-0.1-0.4-0.1-0.6c0-3.4,0-6.7,0-10.1c0-0.2-0.1-0.4,0.1-0.7c0.7,1.7,1.3,3.4,2,5.1
		c0.3,0.7,0.6,1.4,0.8,2.1c0.1,0.3,0,0.7-0.2,0.9L125.1,109z"/>
	<path class="st19" d="M121.8,163.7c-0.1-0.3-0.1-0.6-0.1-0.9c0-0.1,0-0.3-0.2-0.4c0-1.4,0.1-2.8,0.2-4.2c0.2-5.7,0.2-11.4,0.4-17
		c0.1-2.7,0.2-5.3,0.3-8c0-0.1,0-0.2,0.1-0.4l0.1,0.3c0.3,0.2,0.2,0.5,0.2,0.8c0,3.2-0.1,6.5-0.2,9.7c0,1.8,0.1,3.6-0.1,5.3
		c-0.3,3-0.2,6-0.3,9c-0.1,1.6,0,3.3,0,4.9C122.1,163.1,122.2,163.5,121.8,163.7z"/>
	<path class="st20" d="M128.6,162.8c-0.3,0.2-0.1,0.5-0.1,0.7v3.6c-0.4-0.2-0.3-0.6-0.3-0.9c0.1-1.6,0.1-3.1,0-4.7
		c-0.4-2.9-0.1-5.9-0.3-8.8c-0.1-0.9-0.1-1.9,0-2.8c0.1-2.5-0.2-5-0.1-7.5c0-0.3,0-0.7,0.1-1c0-0.2,0.1-0.4,0.3-0.5
		c0.2,1.6,0,3.1,0.1,4.7c0.3,5.4,0.3,10.9,0.4,16.3C128.5,162.2,128.5,162.5,128.6,162.8z"/>
	<path class="st21" d="M105.2,117.7c0.1-0.1,0.3-0.1,0.5-0.1c-0.1,1.5,0.1,2.9,0.4,4.3c0.3,1.5,0.7,2.9,1.4,4.3
		c0.7,1.6,1.7,3.1,2.9,4.5c0.3,0.3,0.4,0.6-0.1,1c-0.8,0.6-1.3,1.5-1.3,2.5c0,1.2,0,2.3,0,3.5h-0.2c-0.4,0.1-0.4-0.2-0.4-0.4
		c-0.2-1.5,0-2.9,0.4-4.4c0.2-0.5,0.5-1,0.9-1.4c0.2-0.2,0.3-0.5,0.1-0.7c0,0-0.1-0.1-0.1-0.1c-0.8-1-1.5-2.1-2.1-3.2
		c-0.6-1.2-1.2-2.5-1.5-3.8c-0.5-1.5-0.7-3-0.7-4.6c0-0.2,0-0.4-0.1-0.6C105,118.3,105,118,105.2,117.7z"/>
	<path class="st22" d="M127.9,140.9l-0.1,0.4c-0.3-0.2-0.2-0.6-0.2-0.9c-0.1-2.7-0.2-5.5-0.1-8.2c0-0.6-0.4-1.1-0.2-1.6
		c-0.1-0.2,0.6-0.2,0.1-0.5c-0.2-0.2-0.2-0.5-0.2-0.7c0-0.3-0.1-0.5-0.3-0.7h-0.2c0.3-0.8,0.3-1.7,0-2.4c-0.1-0.2-0.1-0.5,0.1-0.6
		h0.3c0.1,0.2,0.2,0.5,0.2,0.7c0.1,1.1,0.3,2.2,0.5,3.3c0.1,0.2,0.1,0.4,0.1,0.6c0,1.4-0.1,2.8,0,4.2c0,1.8,0,3.6,0,5.4
		C127.9,140.3,127.9,140.6,127.9,140.9z"/>
	<path class="st23" d="M136.6,147.1c-0.1,0.1-0.1,0.1-0.1,0.3c-0.4-0.1-0.3-0.4-0.3-0.6c0-0.6,0-1.1,0-1.7c0-0.3,0-0.6-0.4-0.7
		c-0.3-0.1-0.4-0.4-0.4-0.6c0-1.4,0-2.8-0.1-4.1c0-0.2,0-0.4,0.2-0.5h0.1c0.4,0.1,0.2,0.4,0.2,0.6c0,1.3,0.1,2.5,0.1,3.8
		c0,0.3,0,0.5,0.4,0.5s0.3,0.3,0.3,0.4C136.6,145.2,136.6,146.2,136.6,147.1z"/>
	<path class="st24" d="M124.4,122.9l0.1,0.1c0.1,0.1,0.1,0.2,0,0.3c-1,1.4-1.5,3.1-1.3,4.8c0,0.1,0,0.2-0.1,0.2
		c-0.3,0-0.3-0.2-0.3-0.4s0-0.3-0.2-0.3c0-1.7,0.6-3.3,1.6-4.7C124.2,123,124.3,123,124.4,122.9z"/>
	<path class="st5" d="M113.2,144.3c0,0.7,0,1.3,0,2c0,0.9,0,0.9-0.9,0.9c0.4-0.1,0.5-0.3,0.5-0.7C112.8,145.7,112.9,145,113.2,144.3
		z"/>
	<path class="st5" d="M127.9,134.5c-0.2-1.6-0.1-3.2-0.1-4.8c0.2,0.1,0.3,0.2,0.2,0.4C127.9,131.6,127.8,133.1,127.9,134.5z"/>
	<path class="st25" d="M125.2,109.8c0,1.4,0,2.9,0,4.3c-0.1,0-0.3,0.1-0.4-0.1c0.4-0.1,0.2-0.3,0.2-0.5c0-1.1,0-2.2,0-3.3
		c0-0.2-0.2-0.4,0.2-0.5L125.2,109.8z"/>
	<path class="st26" d="M115.3,105.6c-0.7,0.1-1.3,0.1-2,0.1l0.3,0.2c-0.1,0-0.2,0-0.3,0.1l-0.5-0.3v-0.1H115.3z"/>
	<path class="st27" d="M119.8,105.5c-1.1,0.1-2.1,0.2-3.2,0.1C117.7,105.4,118.8,105.4,119.8,105.5z"/>
	<path class="st28" d="M144.4,119.8c0,0.3,0.2,0.7-0.2,1C144.2,120.4,144,120,144.4,119.8z"/>
	<path class="st29" d="M144.2,113.5c-0.1-1.1-0.5-2.3-0.9-3.3c-0.4-0.9-0.8-1.7-1.2-2.5c-0.9-1.7-2.1-3.3-3.6-4.6
		c-1-1-2.2-1.9-3.4-2.7c0.9,0.1,1.8,0.1,2.7,0.3c3.6,0.4,7.2,0.9,10.8,1.7c3,0.6,5.9,1.4,8.8,2.2c0.4,0.1,0.7,0.4,0.7,0.8
		c0.3,1.7,0.9,3.4,1.7,5c0.8,1.6,1.8,3.2,3,4.6c1,1.3,2.2,2.4,3.5,3.5c2.6,2.3,5.6,4,8.9,5.2c1.1,0.5,2.3,0.8,3.5,1
		c0.4,0.1,0.6,0.2,0.6,0.7c0,20.1,0,40.2,0,60.3c0,0.5-0.1,0.6-0.6,0.6c-1.9,0-3.9,0-5.8,0.1c-0.6,0-1-0.1-0.9-0.8
		c0-2.1-0.1-4.2-0.3-6.2c-0.3,0.5-0.5,1-0.7,1.5c-0.8,1.4-1.9,2.6-3.1,3.6c-0.7,0.6-1.3,1.2-2,1.8c-0.4,0.2-0.8,0.2-1.1-0.2
		c0.7-1,1.6-2,2.6-2.8c1.1-0.9,2-1.9,2.8-3c0.2-0.4,0.4-0.8,0.5-1.2c1-2.5,1.1-5.3,0.4-7.9c-0.2-0.9-0.3-1.8-0.4-2.7
		c0-0.1-0.1-0.2-0.1-0.2s-0.1,0.3-0.2,0.4c-0.3,1.1-0.8,2.2-1.5,3.1c-1.2,1.7-2.6,3.2-3.2,5.3c-0.2,1.3-0.4,2.5-0.4,3.8
		c-0.2,1.4-0.6,2.7-1.2,4c-0.2-0.2-0.3-0.6-0.1-0.9c0.2-0.7,0.3-1.4,0.3-2.2c0.1-1,0.1-2.1,0.2-3.1c0.2-1.8,0.8-3.5,1.8-5
		c0.9-1.6,2-3,2.8-4.6c0.1-0.2,0.1-0.4,0.2-0.6c0.3-1.8,0.2-3.7-0.1-5.5c-0.3-1.2-0.7-2.4-1.2-3.5c-0.2-0.6-0.4-1.2-0.7-1.8
		c0,0.8-0.2,1.6-0.4,2.4c-0.4,1.4-1,2.7-1.6,4c-0.1,0.4-0.3,0.9-0.4,1.3c-0.2,0.2,0,0.6-0.3,0.8c0,1.4,0.1,2.9,0.3,4.3
		c0.1,1,0.1,2-0.1,3.1c-0.1,0.4-0.3,0.9-0.5,1.2c0.1-1.4,0.1-2.7,0-4.1c-0.2-1.4-0.3-2.8-0.3-4.2c0-1.5,0.3-2.9,0.9-4.3
		c0.8-2.3,1.7-4.5,1.2-7c-0.2-1.1-0.7-2.2-1.4-3.1c-0.5-0.7-1-1.4-1.3-2.1c-0.1-0.2-0.3-0.5-0.5-0.7c0.2,1.4,0.1,2.9-0.2,4.3
		c-0.2,0.9-0.3,1.7-0.4,2.6c0,1.2,0.3,2.4,0.8,3.6c0.4,1.4,0.5,2.9,0.4,4.4c-0.4-0.8-0.6-1.6-0.6-2.4c-0.4-1.5-0.8-3-1.1-4.5
		c-0.3-1.1-0.4-2.2-0.3-3.3c0.2-1.2,0.3-2.4,0.4-3.6c0.2-1.3,0.1-2.7-0.1-4c-0.3-1.2-1-2.3-1.9-3.2c-0.7-0.8-1.4-1.7-2-2.6
		c-0.1-0.1-0.2-0.2-0.3-0.4c0,0.3,0,0.5,0.1,0.8c0.1,1.1,0.2,2.2,0.3,3.2c0.1,1.6,0.5,3.1,1,4.5c0.5,1,0.8,2.1,1.1,3.2
		c0,0.2,0.2,0.4-0.1,0.5c-0.1-0.2-0.2-0.3-0.3-0.5c-0.6-1.8-1.3-3.6-2.2-5.2c-0.7-1.4-1.5-2.9-2.2-4.3c-0.3-0.6-0.5-1.2-0.6-1.8
		c-0.4-1.7-1.3-3.3-2.4-4.6c-1.4-1.5-3-2.8-4.9-3.7c-1.1-0.6-2.3-1.2-3.4-2c0.8,1.4,1.5,2.8,2.1,4.2c0.8,1.9,1.8,3.6,3.2,5.1
		c0.8,0.8,1.7,1.5,2.8,2c1.6,0.8,2.9,2,3.7,3.6c0.9,1.6,1.7,3.3,2.5,5c0.3,0.5,0.4,1.1,0.7,1.7c-0.5-0.1-0.9-0.5-1-1
		c-0.4-0.8-0.6-1.6-1-2.4c-0.8-1.9-2.2-3.5-4-4.5c-1.1-0.6-2.2-1.1-3.2-1.8c0.1,0.5,0.4,1,0.7,1.5c0.3,0.7,0.6,1.5,0.8,2.3
		c0.6,2.2,2.3,3.5,4.3,4.7c1.3,0.7,2.5,1.6,3.6,2.5c0.5,0.5,0.8,1.2,0.9,1.9c0.6,1.5,1,3,1.3,4.6c0.2,0.5,0.3,1.1,0.4,1.7
		c-0.2-0.1-0.4-0.3-0.5-0.5c-0.2-0.7-0.4-1.4-0.6-2.1c-0.4-1.7-1.2-3.3-2.3-4.6c-0.7-0.7-1.4-1.3-2.3-1.9c-1.1-0.8-2.1-1.6-3.2-2.5
		c0.2,0.9,0.5,1.7,0.9,2.5c0.2,0.7,0.4,1.5,0.7,2.2c0.3,1.2,0.9,2.3,1.8,3.2c0.7,0.6,1.5,1.2,2.3,1.7c1.3,1,2.5,2.1,3.5,3.4
		c0,0.1,0.1,0.1,0.1,0.2c0.3,1.3,0.7,2.7,0.9,4c0.2,1.4,0.4,2.8,0.5,4.2c0.2,0.6,0.2,1.1,0.1,1.7c0,0.1-0.1,0.2-0.2,0.1
		c-0.3-0.8-0.4-1.6-0.4-2.4c0.1-1.5-0.1-2.9-0.4-4.3c-0.3-1.9-1.4-3.5-2.9-4.7c-1.1-0.8-2.2-1.6-3.2-2.5c-0.3-0.4-0.7-0.7-1.1-1
		c0.5,1.7,0.8,3.4,1,5.1c0.1,1,0.4,2,0.7,3c0.4,1.2,1.1,2.2,2,3.1c1.1,1.2,2.1,2.4,3,3.8c1.5,2.4,1.3,5,1.2,7.6
		c0,0.7-0.2,1.4-0.2,2.1s-0.3,1.3-0.4,1.9c-0.4-0.7-0.5-1.5-0.4-2.3c0.3-1.4,0.3-2.8,0-4.1c-0.1-0.6-0.2-1.2-0.2-1.8
		c-0.2-1.1-0.6-2.1-1.3-3.1c-0.4-0.7-0.9-1.3-1.3-1.9c-0.7-1.1-1.5-2.1-2.3-3.2c0-0.1-0.1-0.3-0.3-0.1s0,0.2,0,0.2
		c0.2,0.2,0.1,0.5,0.2,0.7c0.1,1.9,0,3.9,0,5.8c0,0.8,0,1.5,0.1,2.3c0.2,1.4,0.8,2.6,1.8,3.6c0.9,0.9,1.6,2,2.1,3.1
		c0.3,0.5,0.4,1,0.6,1.6c-0.5,0.3-0.8,0-1.1-0.3c-0.5-1-1.2-1.9-1.9-2.8c-0.7-0.9-1.4-1.8-2-2.8c0.1,1.2,0,2.4-0.3,3.6
		c-0.1,0.4-0.3,0.4-0.6,0.2c-2.5-1.1-4.9-2.3-7.2-3.7c-2.1-1.2-4.2-2.6-6.1-4c-1-0.7-2-1.4-2.9-2.2c-0.1-0.1-0.2-0.2-0.3-0.3
		c0.5,0,0.9,0,1.2,0s0.6-0.1,0.5-0.5c0-0.7,0-1.4,0-2.1c0-0.4,0.1-0.5,0.5-0.4c0.5,0,1,0,1.6,0c0.8,0,1.2-0.4,1.2-1.1s0-1.6,0-2.4
		c0-0.6-0.5-1.2-1.1-1.2c0,0-0.1,0-0.1,0c-0.5,0-1,0-1.5,0s-0.4-0.1-0.4-0.4c0-0.6,0-1.3,0-2s-0.3-0.9-1-0.9c-0.5,0-1.1,0.1-1.5-0.1
		s-0.1-0.9-0.1-1.3s-0.6-0.7-0.6-1.1s0.6-0.5,0.6-1c-0.1-0.8,0.2-1.6-0.6-2.2c-0.2-0.2-0.5-0.3-0.7-0.3c-0.8,0-1.1-0.5-0.7-1.2
		c0.1-0.2,0.2-0.3,0.2-0.5c0.1-0.5,0.3-0.6,0.8-0.6s0.9-0.4,0.9-1s0-1.6,0-2.4c0-0.5,0.1-1,0.3-1.4c0.1-0.3,0.2-0.7,0.1-1
		c0-1.7,0-3.5,0-5.2c0.1-0.6-0.1-1.1-0.5-1.5c0.8-0.2,1.6-0.6,2.2-1.2c0.5-0.5,0.9-1.1,1-1.9c0.1-1.4,0.1-2.9,0-4.3
		c-0.1-0.9-0.6-1.7-1.4-2.2c-0.3-0.2-0.2-0.3,0-0.5c1-1.2,1.9-2.6,2.6-4c0.7-1.5,1.3-3,1.6-4.6c0.3-1.3,0.4-2.6,0.5-3.9
		c0-0.2-0.1-0.5,0.3-0.6l9.9,3.4c0.3,0.1,0.4,0.1,0.5-0.2c0.2-0.8,0.6-1.5,0.8-2.2c0-0.1,0-0.2,0.1-0.2c0.4-0.9,0.4-0.9-0.6-1.3
		l-11-3.8L144.2,113.5z"/>
	<path class="st5" d="M103.5,216.6c-0.1-0.8-0.4-1.6-1-2.3c-0.4-0.4-0.4-0.1-0.6,0.1c-0.3,0.6-0.7,1.2-1.2,1.8
		c-0.2-0.7-0.3-1.3-0.5-1.9c0-0.2-0.1-0.3-0.3-0.4s-0.3,0.2-0.3,0.3c-0.1,0.3-0.4,0.5-0.7,0.8s-1,0.3-1.4-0.1
		c-0.6-0.4-1-0.9-1.4-1.6l-0.2,0.1c0,0.5,0,1,0,1.5c0,0.4,0,0.9-0.1,1.3c-0.1,0.5-0.5,0.6-0.9,0.6c-0.2,0-0.4-0.2-0.6,0.1
		c-0.1,0.2,0,0.5,0.1,0.6c0.3,0.4,0.3,1,0.8,1.4l-0.1,0.1l-1.1-0.3l-1.1-0.3c0.3,1.3,1.1,2.5,2.2,3.3c-0.1,0.2-0.2,0.1-0.3,0
		l-0.6-0.6c-0.3-0.3-0.6-0.6-1.2-0.2s-2.6-0.2-3.2-0.9c-1-1.2-0.8-3.9,0.1-5c0.3-0.4,0.7-0.6,1.2-0.7c0.3-0.1,0.3-0.2,0.2-0.4
		c-0.7-1.2-0.8-2.7-0.1-3.9c-0.5,0-1-0.1-1.4-0.4c0.2-0.1,0.4-0.2,0.6-0.1c0.5,0.1,1,0,1.4-0.4c1-1,2.6-1.4,4-0.9
		c0.6,0.2,1.1,0.5,1.6,1c0.1,0.1,0.2,0.2,0.2,0.4c0.2,0.3,0.3,0.6,0.5,0.8s0.5-0.3,0.8-0.4c0.2-0.1,0.5-0.1,0.7-0.1
		c-0.9,0-1.7-0.3-2.3-0.8c-0.3-0.2-0.6-0.4-0.6-0.9c-0.3,0.1-0.5,0.3-0.8,0.1c0.4-0.8,1-1.5,1.6-2c0.1,0,0.1,0,0.2,0.1
		c0,0.8,0.6,1.1,1.2,1.4c2,1.1,4.4,0.7,6-0.9c0.2-0.3,0.6-0.3,0.9-0.1c0,0,0,0,0,0c0.3,0.2,0.6,0.4,0.9,0.6c1.9,1.3,5.6,1.2,7.2-0.2
		c0.3-0.2,0.7-0.2,1,0c1.2,0.6,2.5,1,3.9,1.1c1.3,0.1,2.6,0,3.9-0.4c0.6-0.1,1.1-0.3,1.7-0.5c0.5-0.1,1-0.1,1.4,0.1
		c1.1,0.4,2.3,0.6,3.5,0.8c1.9,0.2,3.9-0.1,5.6-1.1c0.4-0.3,1-0.3,1.4,0.1c1.6,1.1,3.7,1.3,5.5,0.7c0.9-0.2,1.7-0.6,2.4-1.2
		c0.2-0.3,0.6-0.3,0.8-0.1c0.1,0.1,0.1,0.1,0.2,0.2c0.2,0.3,0.6,0.5,0.6,0.9c-0.1,0.5,0,1-0.5,1.4c-0.6-0.1-1.2,0-1.8,0.4
		c-2.1,1-4.6,1.1-6.7,0.2c-0.4-0.2-0.7-0.4-1-0.6c-0.2-0.2-0.6-0.2-0.9-0.1c-1.3,0.6-2.8,1-4.2,1.2c-1.7,0.1-3.5-0.2-5.1-0.9
		c-0.5-0.2-1.1-0.2-1.6,0c-1.4,0.5-2.8,0.9-4.3,0.9c-1.6,0-3.1-0.4-4.5-1.1c-0.4-0.3-0.9-0.3-1.4,0c-2.5,1.6-5.7,1.6-8.2-0.1
		c-0.2-0.2-0.5-0.2-0.7,0c-0.9,0.6-1.9,1-2.9,1.2c0.5,0.3,0.9,0.7,1.3,1.1c0.1,0.1,0.4,0.1,0.5,0c0,0,0,0,0,0
		c0.3-0.2,0.5-0.4,0.8-0.6c0.5-0.5,0.5-0.5,1.1-0.1c0.5,0.4,1.1,0.7,1.7,1c2,0.9,4.4,0.7,6.3-0.5c0.3-0.3,0.8-0.3,1.2-0.1
		c2.6,1.4,5.7,1.5,8.5,0.5c0.9-0.3,1.9-0.3,2.8,0c2.3,0.8,4.9,0.9,7.2,0.2c0.5-0.2,1-0.4,1.5-0.7c0.4-0.3,0.9-0.3,1.2,0.1
		c1.9,1.6,5.7,1.3,7.5-0.1c0.2-0.2,0.5-0.4,0.8-0.5c0.3-0.1,0.6-0.1,0.6,0.3c0,0.6,0,1.2-0.1,1.7c-2.5,1.9-6.6,2.1-8.9,0.6
		c-0.4-0.3-1-0.3-1.5,0c-2.6,1.2-5.6,1.4-8.3,0.4c-0.1,0-0.3-0.1-0.4-0.2c-0.6-0.3-1.3-0.3-1.9,0c-1.8,0.8-3.8,1-5.7,0.7
		c-1-0.2-2-0.5-2.9-1c-0.4-0.2-0.9-0.2-1.3,0c-1.3,0.8-2.8,1.2-4.3,1.2c-1.3-0.1-2.5-0.4-3.6-1.1c-1-0.5-1.7-0.1-2.1,0.9
		c-0.3,0.8-0.5,1.7-0.4,2.6C103.7,216.6,103.6,216.6,103.5,216.6C103.5,216.6,103.5,216.6,103.5,216.6z"/>
	<path class="st30" d="M103.7,216.5c0-0.2,0-0.4-0.1-0.5c-0.1-0.6-0.4-1.1,0.3-1.5c0.1,0,0.1-0.1,0.1-0.2c-0.1-0.8,0.4-1.2,1.1-1.6
		c0.3-0.2,0.4-0.3,0.8,0c2.4,1.7,5.6,1.8,8.1,0.2c0.5-0.3,1.2-0.3,1.7,0c2.8,1.4,6.2,1.4,9,0c0.2-0.1,0.5-0.1,0.8,0
		c2.9,1.4,6.3,1.4,9.2,0c0.6-0.3,1.3-0.3,1.8,0.1c2.4,1.4,5.5,1.3,7.9-0.2c0.2-0.2,0.5-0.3,0.8-0.3c0.1,0.5,0.2,0.9,0.1,1.4
		c0.1,1.3,0.6,2.4,1.5,3.4c0.8,1,1.5,2.1,2,3.2c0.1,0.3-0.2,0.3-0.3,0.5c-0.3,0.1-0.6,0.1-0.9-0.1c-4.3-2.1-8.8-3.5-13.6-4.2
		c-2.4-0.4-4.7-0.6-7.1-0.7c-2.8-0.1-5.6,0-8.4,0.4c-3.6,0.5-7.1,1.3-10.6,2.5c-1.3,0.4-2.5,0.9-3.7,1.4c-0.2,0.1-0.5,0.2-0.8,0.1
		c-0.2-0.5,0.2-0.9,0.2-1.3c0-0.2,0.1-0.4,0.1-0.6c0-0.4,0-0.8,0-1.2C103.7,217.1,103.7,216.8,103.7,216.5z"/>
	<path d="M152.4,188H150c0-0.4,0.5-0.3,0.5-0.6l-3-1.2c-0.2-0.1-0.4-0.1-0.6,0.1c0,0,0,0.1,0,0.1c-0.2,0.5-0.8,0.8-1.3,0.8
		c-0.4-0.1-0.5-0.4-0.5-0.8c0-0.2-0.1-0.4-0.1-0.6c0-0.7-0.3-0.8-1-0.5c-0.3,0.2-0.6,0.3-0.9,0.5s-0.5,0.1-0.5-0.2s0-0.8,0-1.2
		s-0.3-0.8-0.7-0.9c-0.3-0.1-0.5-0.1-0.8-0.1c-1-0.1-1-0.1-1-1c0-0.6,0-1.3,0-1.9c0-0.4-0.1-0.5-0.6-0.5c-0.7,0-1.4,0-2.1,0
		c-0.4,0-0.5-0.1-0.5-0.5c0-1,0-2,0-2.9c0-0.4,0.1-0.5,0.5-0.5h0.5c1.1,0,1.4-0.5,1-1.4c0-0.1-0.1-0.1-0.1-0.2
		c0-0.3-0.2-0.7,0.1-0.8s0.5,0.2,0.7,0.4c1.2,0.9,2.3,1.8,3.5,2.6c2.8,1.9,5.8,3.7,8.8,5.2c1.2,0.6,2.3,1.1,3.5,1.6
		c0.3,0.1,0.4,0.2,0.5,0.5c0,1.2-0.2,2.4-0.2,3.6c0,0.9,0.2,1.9,0.6,2.7c0.1,0.1,0.3,0.5,0,0.6s-0.8,0.2-1.1-0.1
		c-0.2-0.3-0.4-0.7-0.5-1c-0.1-0.1-0.2-0.2-0.3-0.3c-0.1-1.1-0.1-1.1-1.3-1.1C153.1,188.2,152.7,188.2,152.4,188z"/>
	<path class="st30" d="M145.9,207.5c-0.3-0.4-0.7-0.6-0.9-0.9s-0.3-0.1-0.6,0c-1.5,1.2-3.5,1.8-5.4,1.6c-1.1-0.1-2.1-0.5-3-1.2
		c-0.2-0.1-0.3-0.2-0.5-0.1c-3.2,1.9-6.6,1.6-10,0.4c-0.4-0.1-0.8-0.1-1.1,0c-2.6,1.1-5.5,1.2-8.2,0.3c-0.6-0.2-1.2-0.7-1.7-0.7
		s-1,0.6-1.6,0.8c-2.5,1-5.2,0.5-7.3-1.2c-0.2-0.2-0.3-0.3-0.6,0c-1.9,2-4.9,2.3-7.1,0.6c-0.4-0.3-0.6-0.6-0.4-1.1
		c-0.1-0.1,0.1-0.3,0.1-0.4c0.3-0.7,0.3-0.8,1.1-0.5c2,0.7,4.2,0.5,6-0.7c0.3-0.2,0.8-0.2,1.1,0c1,0.6,2.1,0.9,3.2,1.1
		c1.7,0.2,3.3-0.2,4.8-1c0.2-0.1,0.5-0.3,0.8-0.2c1.2,0.9,2.7,1.3,4.2,1.4c1.8,0.2,3.7-0.1,5.4-0.9c0.5-0.3,1.1-0.3,1.5,0
		c1,0.5,2.1,0.8,3.2,0.8c1.7,0.2,3.4,0,5-0.6c0.5-0.2,0.9-0.6,1.4-0.8c0.2,0,0.4,0,0.6,0.1c2.4,1.4,5.4,1.4,7.9,0.1
		c0.7-0.3,1.2-0.4,1.7,0.1c0.3,0.4,0.9,0.4,1.3,0.7C146.8,206.2,146.4,206.9,145.9,207.5z"/>
	<path class="st30" d="M145.1,210.6c-0.2-0.3-0.3-0.4-0.7-0.1c-1.6,1.2-3.5,1.8-5.5,1.5c-1.1-0.1-2.2-0.5-3-1.2
		c-0.1-0.2-0.3-0.2-0.5-0.1c0,0,0,0,0,0c-3.2,1.8-6.5,1.6-9.9,0.4c-0.4-0.1-0.8-0.1-1.2,0c-2.6,1.1-5.5,1.2-8.2,0.3
		c-0.4-0.1-0.8-0.3-1.2-0.5c-0.3-0.3-0.8-0.3-1.1,0c-1.9,1.5-5.5,1.4-7.7-0.3c-0.6-0.4-0.9-0.7-1.4,0c0,0-0.1,0.1-0.1,0.1
		c-0.7,0.6-0.7,0.6-1.4,0c-0.4-0.4-0.9-0.7-1.4-1c1.1-0.1,2.1-0.5,2.9-1.1c0.6-0.5,0.9-0.3,1.4,0c2.5,1.6,5.7,1.4,8.1-0.3
		c0.2-0.2,0.5-0.2,0.7,0c1.6,0.8,3.3,1.3,5.1,1.3c1.5-0.1,3-0.4,4.4-1.1c0.3-0.2,0.7-0.2,1,0c1.2,0.5,2.4,0.8,3.7,1
		c2,0.2,4-0.2,5.8-1.1c0.3-0.2,0.6-0.2,0.9,0c2.4,1.6,5.6,1.7,8.1,0.2c0.5-0.3,0.9-0.6,1.4,0C145.4,209.4,145.3,210,145.1,210.6z"/>
	<path class="st31" d="M103.4,220.3c1.2-0.3,2.3-0.9,3.5-1.3c3.3-1.2,6.7-2.1,10.2-2.7c2.1-0.3,4.3-0.6,6.4-0.6c3-0.1,6,0.1,9,0.5
		c4.3,0.5,8.5,1.6,12.5,3.2c1,0.4,2,0.9,3,1.4c0.2,0.1,0.4,0.1,0.6,0.1c-0.1,0.3-0.3,0.4-0.5,0.5c-1.8-1-3.6-1.8-5.5-2.4
		c-6.9-2.3-14.2-3.2-21.4-2.6c-6,0.5-11.8,2-17.3,4.4c-0.5,0.2-0.9,0.5-1.4,0.7c-0.2,0-0.2-0.2-0.1-0.2
		C102.6,220.9,102.9,220.5,103.4,220.3z"/>
	<path class="st5" d="M146.9,205.4c-0.6-0.1-1.2-0.4-1.6-0.8c-0.4-0.4-0.7-0.3-1-0.1c-2.3,1.3-5,1.5-7.4,0.5
		c-0.5-0.2-0.9-0.4-1.3-0.7c0.3-0.4,0.6-0.8,1-1.1c0.2,0,0.3,0,0.4,0.1c1.7,0.7,3.6,0.8,5.3,0.2c0.6-0.2,1.2-0.4,1.8-0.7l0.6-0.4
		c0.2-0.2,0.4,0,0.5,0.1c0.6,0.6,1.3,1.1,2.1,1.5c0.7,0.4,0,0.8-0.1,1.2C147.1,205.3,147,205.4,146.9,205.4z"/>
	<path class="st32" d="M150.6,212.9h0.2c0.5,0.1,1.2-0.3,1.5,0.1s0,0.9,0,1.4c0,1.2-0.8,2.1-1.4,3c-0.4,0.7-0.9,1.3-1.4,1.9
		c-0.8-1.3,0-2.5,0.3-3.6c0.2-0.9,0.4-1.7,0.7-2.6C150.5,213,150.5,212.9,150.6,212.9z"/>
	<path class="st33" d="M164.6,185.9c0.4,0.2,0.7,0.2,1.1,0.2c-0.5,0.7-0.9,1.4-1.3,2.1c-0.1,0.2-0.1,0.3-0.2,0.5
		c-0.2,0.7-0.4,1.4-0.5,2c-0.3,0.2-0.7,0.2-1,0c0.1-1.6,0.6-3.2,1.5-4.5C164.3,186.1,164.5,186,164.6,185.9z"/>
	<path class="st34" d="M161,190.2c0.1-1.6,0.1-3.2-0.3-4.8c0.3-0.2,0.5-0.2,1,0.1c0.3,1.4,0.4,2.8,0.1,4.2c0,0.3-0.1,0.6-0.1,0.9
		C161.1,191,160.9,190.9,161,190.2z"/>
	<path class="st35" d="M161,190.2c-0.1,0.7,0.4,0.5,0.8,0.5c-0.4,1-0.2,2.1-0.7,3.1c-0.1,0.2,0,0.4-0.1,0.6
		c-0.1,0.9-0.5,1.6-0.6,2.5c0,0.1,0,0.2-0.1,0.2s-0.3-0.1-0.2-0.2c0-0.5,0-1.1,0.2-1.6c0.2-0.6,0.3-1.3,0.4-1.9
		C160.7,192.3,160.8,191.3,161,190.2z"/>
	<path class="st36" d="M162.7,190.8c0.3-0.1,0.7-0.1,1,0c-0.3,1.6-0.7,3.1-1.3,4.6c-0.1,0.3-0.3,0.6-0.5,0.8
		c-0.1,0.1-0.1,0.2-0.3,0.1c0-0.1,0-0.2,0-0.2c0.5-1.4,0.9-2.8,1-4.3C162.6,191.4,162.7,191.1,162.7,190.8z"/>
	<path class="st37" d="M144,202.9c-2.2,1.4-4.9,1.7-7.3,0.6c-0.1-0.1-0.2-0.1-0.2-0.2c0.1-0.2-0.2-0.3,0-0.5
		c2.3,1.1,4.9,1.1,7.2,0.1C143.8,202.8,143.9,202.8,144,202.9z"/>
	<path class="st16" d="M132.7,190.9h22.1c-0.2,0.2-0.5,0.1-0.8,0.1h-20.8C133,190.9,132.8,191,132.7,190.9z"/>
	<path class="st38" d="M157.5,202.6c0-1,0.2-1.9,0.5-2.9c0.2-0.7,0.2-1.4,0.2-2.1c0.1-1,0-1.9-0.2-2.9
		C158.8,195.8,158.5,200.3,157.5,202.6z"/>
	<path class="st39" d="M154.4,209.2c0-0.7,0.1-1.4,0.3-2c0.1-0.5,0.1-0.9,0.1-1.4c0.1-1.2,0-2.3-0.4-3.4c0.3,0.2,0.5,0.6,0.6,1
		c0.1,1.6,0,3.3-0.1,4.9C154.7,208.6,154.5,209,154.4,209.2L154.4,209.2z"/>
	<path class="st38" d="M149.6,205.6c-0.4-1.6-0.9-3.2,0.1-5C149.5,202.2,149.5,203.9,149.6,205.6z"/>
	<path class="st40" d="M157.5,202.6c0,0.4,0,0.9-0.2,1.3c-0.2,0.4-0.2,0.9,0,1.2c0.3,0.6-0.2,1,0,1.5c-0.2-0.1-0.2-0.1-0.2-0.2
		c-0.1-1.3,0-2.5,0.2-3.7C157.3,202.6,157.4,202.6,157.5,202.6L157.5,202.6z"/>
	<path class="st41" d="M159.1,200.1v-4.9c0.3,1.6,0.3,3.3,0.2,4.9L159.1,200.1z"/>
	<path class="st42" d="M153.3,197.8c-0.7-1.5-0.7-3.2,0-4.7C153,194.7,152.5,196.3,153.3,197.8z"/>
	<path class="st43" d="M150.6,212.9l-0.2,0.1c0.1-1.3,0-2.6-0.2-3.9C150.7,210.4,150.8,211.6,150.6,212.9z"/>
	<path class="st44" d="M148.5,204.1c0-0.8,0-1.6,0-2.4c0-0.1,0-0.3,0.3-0.3s0.2,0.1,0.1,0.2c-0.1,0.8-0.2,1.6-0.1,2.4
		c0,0-0.1,0.1-0.1,0.1L148.5,204.1z"/>
	<path class="st16" d="M154.9,189.4l0.1,0.3c-0.3,0.4,0,0.8-0.2,1.2c-0.1-0.1-0.2-0.1-0.3-0.1c-0.2-0.8-0.2-1.6,0-2.4
		c0.3-0.2,0.4,0,0.4,0.2S154.8,189.1,154.9,189.4z"/>
	<path class="st45" d="M153.3,212.3c0-0.9,0.6-1.7,0.8-2.6c0-0.1,0-0.4,0.3-0.5l0,0C154.3,210.3,154,211.4,153.3,212.3L153.3,212.3z
		"/>
	<path class="st46" d="M147.2,204c-0.8-0.2-1.5-0.7-2-1.3c-0.2-0.2-0.3-0.4-0.6-0.3c0-0.3,0.3-0.3,0.4-0.1
		C145.6,203,146.5,203.3,147.2,204z"/>
	<path class="st47" d="M159.7,152.2c0.3-0.1,0.1-0.4,0.1-0.5c0.3,0.7,0.4,1.4,0.4,2.1C159.9,153.4,159.7,152.8,159.7,152.2z"/>
	<path class="st48" d="M163.1,172.8c0.3-0.3,0.1-0.7,0.1-1.1s0-0.5,0-0.7c0.3,0.1,0.2,0.4,0.2,0.6c0,0.4,0,0.8,0,1.2
		c0,0.1,0.1,0.3-0.1,0.4S163.1,172.9,163.1,172.8z"/>
	<path class="st49" d="M156,204.7v3.4h-0.1L156,204.7L156,204.7z"/>
	<path class="st50" d="M161.8,185.6c-0.4,0-0.6-0.4-1-0.1c-0.4-0.1-0.3-0.4-0.4-0.6c0.3,0.2,0.7,0.3,1.1,0.3
		C161.6,185.3,161.8,185.4,161.8,185.6z"/>
	<path class="st51" d="M153.3,212.3c0,0.3-0.1,0.7,0.5,0.6c0,0.4-0.4,0.4-0.6,0.9C153.1,213.2,153.2,212.8,153.3,212.3L153.3,212.3z
		"/>
	<path class="st49" d="M155.4,210c-0.2-0.6,0.4-0.9,0.4-1.4C156,209.2,155.8,209.7,155.4,210z"/>
	<path class="st52" d="M157.5,140.8c-0.4-0.2-0.2-0.6-0.4-1c0.4,0.1,0.5,0.3,0.5,0.6C157.4,140.5,157.6,140.6,157.5,140.8z"/>
	<path class="st44" d="M149.1,206.3c-0.2-0.4-0.3-0.9-0.2-1.4C149.1,205.4,149.2,205.9,149.1,206.3z"/>
	<path class="st53" d="M170.2,168.6c-0.1-0.3,0-0.6,0.2-0.9c0.1,0.2,0.2,0.4,0.1,0.7C170.3,168.2,170.3,168.5,170.2,168.6z"/>
	<path class="st54" d="M164.3,166.1c0-0.3-0.2-0.6,0.3-0.8C164.5,165.6,164.7,166,164.3,166.1z"/>
	<path class="st55" d="M157,168.8c-0.4-0.1-0.2-0.4-0.2-0.7C157.1,168.3,157,168.6,157,168.8z"/>
	<path class="st56" d="M126,254.6c0,0.2,0.2,0.6-0.1,0.6c-0.4,0.1-0.8,0.1-1.2,0c-0.1,0-0.1-0.2-0.1-0.3c-0.1-1.9-0.2-3.9-0.3-5.8
		c0-0.3,0.1-0.4,0.3-0.4h0.1c1.4-0.1,1.4-0.1,1.9,1.1c0.3,1.1,1,2,1.3,3.1c0,0.1,0.1,0.1,0.2,0.2c0.2-0.7,0.4-1.4,0.6-2.1
		c0.3-0.8,0.5-1.5,0.7-2.3c0-0.2,0.1-0.3,0.4-0.3c1.6-0.2,1.6-0.2,1.6,1.2s0.1,3.1,0.2,4.7c0.1,0.7-0.5,0.5-0.8,0.6
		s-0.4-0.2-0.5-0.5c0-0.9,0-1.8-0.1-2.6c-0.2-0.3-0.1-0.6-0.1-0.9s-0.1-0.2-0.2-0.1c-0.4,1.3-0.8,2.6-1.1,3.9
		c-0.1,0.3-0.3,0.3-0.5,0.3s-0.5,0.1-0.7-0.2c-0.3-0.6-0.6-1.3-0.8-1.9c-0.3-0.6-0.6-1.2-0.7-1.9c0-0.2-0.2-0.2-0.2-0.2v2.3
		C126.1,253.7,125.8,254.2,126,254.6z"/>
	<path d="M142,249c0,1.2,0,2.3,0,3.4c0,0.4,0,0.6-0.6,0.8s-0.6-0.1-0.7-0.4c-0.8-1.1-1.6-2.2-2.4-3.3c-0.4-0.6-0.8-1.2-1.2-1.8v-0.1
		c1.2-0.4,1.2-0.4,1.9,0.6c0.4,0.7,0.9,1.4,1.3,2.1c0.1,0.2,0.3,0.3,0.4,0.4c0-1.2,0-2.4,0-3.6c0-0.4,0.1-0.6,0.6-0.7
		s0.5,0.2,0.6,0.4l2,3c0-1.3,0-2.5,0-3.7c0-0.4,0.8-0.9,1.1-0.8c0.2,0.1,0.1,0.2,0.1,0.3c0,2,0,4.1,0.1,6.1c0,0.5-0.4,0.4-0.7,0.5
		s-0.4-0.1-0.5-0.3C143.4,251,142.7,250,142,249z"/>
	<path class="st56" d="M86.2,241.6c-0.3,0.7-0.9,1.3-1.3,2c-0.1,0.2-0.3,0.1-0.4,0c-0.8-0.4-0.9-0.7-0.3-1.4
		c0.8-0.9,1.5-1.9,2.1-2.9c0.3-0.5,0.7-0.9,1-1.4c0.1-0.2,0.2-0.2,0.4-0.1c0.6,0.4,1.2,0.8,1.8,1.2c0.9,0.5,1.2,1.5,0.9,2.4
		c-0.5,1.1-1.7,1.6-2.8,1.2c0,0.8,0,1.6,0,2.4c0,0.3,0.1,0.6-0.5,0.3c-0.7-0.2-1.1-1-0.9-1.7c0.1-0.5,0.1-1,0.1-1.5
		C86.4,242,86.7,241.7,86.2,241.6z"/>
	<path d="M157.1,242.9c-0.2,0.3,0,0.4,0.4,0.5c0.8,0.2,1.4,0.8,1.5,1.6c0.1,0.8-0.4,1.5-1.1,1.9c-0.3,0.2-0.7,0.4-1.1,0.6
		c-0.9,0.4-0.9,0.4-1.3-0.3c-0.8-1.3-1.6-2.7-2.3-4c-0.5-0.9-0.5-0.9,0.5-1.4c0.7-0.5,1.5-0.7,2.4-0.4
		C156.8,241.5,157.2,242.2,157.1,242.9z"/>
	<path d="M95.5,246.9c-0.2,1-1.2,1.6-2.2,1.4c-0.1,0-0.2-0.1-0.3-0.1c-0.8-0.3-1.5-0.6-2.2-1c0.6-1.2,1.2-2.4,1.9-3.6
		c0.3-0.7,0.6-1.3,1-1.9c0.1-0.1,0.2-0.3,0.4-0.2c0.7,0.3,1.3,0.6,1.9,1c0.7,0.6,0.9,1.6,0.3,2.3c-0.2,0.2-0.4,0.4-0.7,0.5
		c-0.5,0.2,0,0.4-0.1,0.6C95.6,246.2,95.6,246.6,95.5,246.9z"/>
	<path class="st56" d="M153.1,249.1l-0.3,0.1c-1,0.5-1,0.5-1.8-0.3c-0.1-0.2-0.4-0.3-0.6-0.2c0,0,0,0,0,0c-0.3,0.1-0.6,0.3-0.9,0.3
		c-0.9,0.2-1.3,0.6-1.1,1.6s-0.8,0.5-1.1,0.9l-0.1-0.1c0-0.4,0-0.9,0-1.3c0-1.7-0.1-3.5-0.3-5.2c0-0.5,0.3-0.6,0.7-0.7
		c0.3-0.2,0.6-0.1,0.8,0.1C150,246,151.6,247.5,153.1,249.1z"/>
	<path d="M173.5,235.8c-0.1,0.1-0.2,0.2-0.3,0.3c-0.4,0.4-0.8,0.7-1.3,0.3c-0.2-0.1-0.3-0.2-0.5-0.3c-0.5-0.1-2.1,1.4-1.9,1.8
		c0.1,0.2,0.1,0.4,0.2,0.6c0.1,0.5-0.2,1-0.7,1.1c-0.2,0-0.4-0.2-0.4-0.4c-0.2-0.5-0.4-0.9-0.5-1.4c-0.5-1.3-1-2.5-1.6-3.8
		c-0.3-0.4-0.2-1,0.2-1.3c0,0,0.1-0.1,0.2-0.1c0.1-0.1,0.3-0.1,0.5-0.1l6,2.9C173.4,235.6,173.5,235.7,173.5,235.8z"/>
	<path d="M133.9,254.6L133.9,254.6c-1.3,0.4-1.3,0.3-1.1-0.9c0.4-1.8,0.8-3.6,1.1-5.4c0.1-0.5,0.5-0.4,0.8-0.5
		c0.3-0.1,0.6,0,0.7,0.3c0.8,1.3,1.7,2.6,2.5,4c0.4,0.5,0.7,1.1,0.9,1.7l-0.3,0.1c-1,0.2-1.1,0.2-1.5-0.7c-0.1-0.2-0.3-0.4-0.5-0.3
		c-0.6,0.1-1.3,0.2-1.9,0.3s-0.3,0.5-0.4,0.8S134.1,254.4,133.9,254.6z"/>
	<path d="M107.7,251.4c0.1-1.3,0.7-2.6,0.8-3.9c0-0.3,0.3-0.5,0.6-0.5c0.1,0,0.2,0,0.2,0.1c0.4,0.1,0.8,0.1,0.6,0.7
		c-0.4,1-0.5,2.2-0.8,3.2c-0.2,0.4-0.4,1,0.2,1.4c0.3,0.3,0.7,0.3,1,0c0.1-0.1,0.2-0.2,0.2-0.4c0.3-0.9,0.5-1.7,0.7-2.6
		c0.1-0.6,0.4-1.1,0.4-1.6c0-0.2,0.2-0.2,0.4-0.1l1,0.3c-0.1,0.3-0.2,0.6-0.3,0.9c-0.2,1.3-0.6,2.6-1,3.8c-0.4,1.1-1.7,1.7-2.8,1.2
		c-0.2-0.1-0.4-0.2-0.6-0.3c-0.4-0.2-0.6-0.6-0.7-1C107.5,252.1,107.5,251.7,107.7,251.4z"/>
	<path d="M94.9,249.1l2.5-2.6l2.3-2.3c0.1-0.2,0.4-0.2,0.6-0.1c0.2,0.1,0.7,0.1,0.7,0.5c0,2.1-0.1,4.3-0.1,6.4c0,0.1,0,0.2-0.1,0.3
		s-1.2-0.5-1.2-0.8c0.2-0.9-0.3-1.4-1.2-1.6l-0.2-0.1c-1.1-0.4-1.1-0.4-1.8,0.4c-0.1,0.2-0.4,0.2-0.6,0.1L94.9,249.1z"/>
	<path d="M83.7,234.8c0.3,0.1,0.4,0.4,0.7,0.6c0.5,0.3,1,0.8,1.5,1.1s0.3,0.7,0,1s-0.6,0-0.8-0.1c-0.2-0.1-0.4-0.3-0.5-0.4
		c-0.9-0.7-1-0.7-1.6,0.3c-0.2,0.3-0.1,0.4,0.1,0.6l1.2,0.9c0.2,0.1,0.3,0.3,0.2,0.5c0,0.1-0.1,0.1-0.2,0.2
		c-0.2,0.2-0.4,0.7-0.8,0.3s-0.8-0.6-1.2-1c-0.2-0.2-0.3-0.1-0.5,0.1c-0.8,1-0.8,1,0.3,1.8c0.1,0.1,0.2,0.1,0.2,0.2
		c0.5,0.4,0.4,0.9-0.1,1.2c-0.1,0.1-0.3,0-0.3-0.1c-0.8-0.6-1.6-1.3-2.5-1.9c-0.2-0.1-0.2-0.3-0.1-0.4c1.1-1.3,2.2-2.5,3.3-3.8
		c0.2-0.3,0.4-0.6,0.7-0.9C83.4,234.9,83.4,234.8,83.7,234.8z"/>
	<path d="M162.4,241c0,0.2-0.2,0.2-0.3,0.2c-0.5,0.3-1,0.6-1.5,1c-0.1,0.1-0.2,0.1-0.1,0.3c0.3,0.4,0.5,0.7,0.8,1s0.4,0,0.5-0.1
		c0.4-0.2,0.8-0.5,1.2-0.8c0.3-0.2,0.4-0.2,0.6,0.1c0.1,0.2,0.2,0.3,0.3,0.4c0.2,0.1,0.1,0.2-0.1,0.3c-0.9,0.5-1.7,1.1-2.6,1.7
		c-0.2,0.1-0.3,0.1-0.5-0.1c-0.7-1-1.4-2.1-2.2-3.1c-0.4-0.6-0.9-1.2-1.3-1.7c-0.2-0.2-0.3-0.3,0.1-0.5c0.9-0.5,1.6-1.1,2.5-1.6
		c0.6-0.4,0.5,0.4,0.9,0.5c0.2,0.1,0.1,0.3-0.1,0.4c-0.3,0.2-0.6,0.4-0.9,0.6c-0.7,0.4-0.8,0.8-0.2,1.4c0.1,0.2,0.4,0.3,0.6,0.1
		c0,0,0,0,0,0c0.4-0.3,0.8-0.5,1.2-0.7c0.2-0.1,0.3-0.4,0.5-0.2C162,240.4,162.2,240.7,162.4,241z"/>
	<path class="st56" d="M107.2,247.7c-0.1,0.2,0.2,0.6-0.2,0.6s-1,0.1-0.9-0.6c0-0.4-0.3-0.5-0.6-0.6c-0.3-0.1-0.6,0.1-0.8,0.3
		c-0.2,0.3-0.1,0.7,0.1,0.9c0.5,0.4,1.2,0.6,1.5,1.3c0.2,0.3,0.3,0.6,0.2,1c-0.1,1.2-1.2,2.1-2.4,2c-0.4,0-0.7-0.1-1-0.3
		c-0.7-0.5-1.1-1.4-0.8-2.3c0.1-0.1,0.1-0.2,0.2-0.1c0.4,0.2,1.1,0,0.9,0.8c-0.1,0.4,0.2,0.6,0.6,0.7c0.4,0.1,0.8,0,1-0.4
		c0.2-0.3,0.2-0.8-0.2-1.1c-0.3-0.3-0.7-0.5-1-0.8c-0.6-0.5-0.7-1.4-0.3-2.1c0.3-0.7,0.9-1.1,1.6-1.1c0.8-0.1,1.5,0.3,1.9,0.9
		C107.2,247.1,107.2,247.4,107.2,247.7z"/>
	<path class="st56" d="M164.8,234.5c0.4,1.4,0.8,2.8,1.1,4.1c0.3,0.7,0.7,1.3,1.3,1.8c0.2,0.2,0.4,0.4,0.1,0.5s-0.6,1-1.1,0.2
		c-1-1.6-2.9-2.2-4.5-3.1h-0.1c-1.1-0.6-1.1-0.4-0.1-1.2c0.4-0.3,0.6,0,0.9,0.1c0.6,0.3,1.2,0.7,1.8,1c0.1,0.1,0.2,0.2,0.3,0.1
		s0-0.2-0.1-0.3c-0.3-0.7-0.5-1.5-0.7-2.2c-0.1-0.2,0-0.3,0.2-0.4S164.4,234.8,164.8,234.5z"/>
	<path class="st56" d="M77.3,238c-0.6-0.1-1.1-0.4-1.4-0.9c-0.3-0.6-0.3-1.4,0.1-1.9c0.1-0.2,0.3-0.3,0.4-0.1s0.9,0.5,0.6,1.1
		c-0.1,0.1,0.1,0.3,0.3,0.4c0.2,0.1,0.5,0.1,0.7-0.1c0.6-0.6,1.2-1.1,1.7-1.8c0.5-0.5,1-1,1.5-1.5c0.2-0.3,0.4-0.2,0.6,0
		c0.1,0.1,0.2,0.2,0.4,0.3c0.3,0.1,0.3,0.4,0,0.6c-1,1.1-2.1,2.2-3.1,3.3C78.5,237.8,77.9,238.1,77.3,238z"/>
	<path class="st56" d="M115.4,251.2c0.5-0.8,1.3-1.4,1.8-2.2s1.2-0.5,1.9-0.4c-0.8,0.9-1.6,1.8-2.4,2.7c-0.2,0.2-0.2,0.4-0.1,0.5
		c0.6,0.9,0.9,2,1.4,3c0,0.1,0.1,0.2,0.1,0.3c-0.4,0-0.8-0.1-1.2-0.1c-0.1,0-0.3-0.1-0.3-0.2c-0.3-1-1-2-1.3-3
		C115.3,251.5,115.2,251.4,115.4,251.2z"/>
	<path class="st57" d="M115.4,251.2v0.5c-0.2-0.2-0.3-0.3-0.4,0.1c-0.1,0.8-0.2,1.6-0.3,2.4c0,0.4-0.2,0.4-0.5,0.4
		c-0.2,0-0.4-0.1-0.6-0.1c-0.3,0-0.4-0.2-0.3-0.4c0.3-1.1,0.4-2.2,0.5-3.4c0.2-0.2,0-0.5,0.2-0.8l0.2-1.4c0-0.3,0-0.6,0.4-0.5
		s1-0.2,0.9,0.6c-0.1,0.6-0.2,1.2-0.2,1.9C115.3,250.7,115.1,251,115.4,251.2z"/>
	<path class="st56" d="M119.6,252.2c0.1-1.3,0.2-2.3,0.2-3.2c0-0.4,0.1-0.4,0.5-0.4c1,0.1,1.1,0.1,0.9,1c-0.2,1.2-0.3,2.5-0.3,3.7
		c-0.1,0.5-0.1,1-0.1,1.5c0,0.5-0.4,0.4-0.7,0.4s-0.7,0.1-0.6-0.4C119.6,253.8,119.6,252.8,119.6,252.2z"/>
	<path class="st58" d="M130,250.9c-0.1-0.2,0.1-0.3,0.3-0.5c0.1,0.5,0.1,1,0.1,1.5C129.9,251.7,130.3,251.2,130,250.9z"/>
	<path class="st59" d="M126,254.6c-0.4-0.4-0.2-0.8-0.2-1.3C126.3,253.7,126,254.1,126,254.6z"/>
	<path class="st60" d="M107.7,251.4v1.1c-0.3-0.2-0.4-0.6-0.2-1C107.6,251.5,107.6,251.4,107.7,251.4z"/>
	<path class="st61" d="M95.5,246.9v-1C95.8,246.2,95.9,246.5,95.5,246.9z"/>
	<path class="st62" d="M86.2,241.6c0-0.1,0.1-0.2,0.2-0.2c0,0,0,0,0,0c0.2,0,0.2,0.1,0.2,0.3s0.1,0.5-0.3,0.6
		C86.2,242,86.5,241.7,86.2,241.6z"/>
	<path class="st63" d="M114,249.9c0,0.3,0.2,0.6-0.2,0.8C113.8,250.4,113.7,250,114,249.9z"/>
	<path class="st64" d="M133.9,254.6c0-0.2-0.1-0.5,0.3-0.6C134.1,254.2,134.3,254.5,133.9,254.6z"/>
	<path class="st5" d="M83.9,186.8l0.2-0.8c0.1-0.3,0-0.5-0.2-0.7c-1-1-1.7-2.2-2.3-3.5c-0.3-0.4-0.5-0.9-0.6-1.4c-0.2-1,0.2-2,1-2.5
		c0.2-0.1,0.3-0.3,0.2-0.5c0-1.4,1.1-2.4,2.5-2.4c0,0,0,0,0.1,0c0.4,0,0.6-0.3,0.4-0.6c0-0.1-0.1-0.1-0.2-0.2
		c-1.4-1.1-2-2.8-2.8-4.3c-0.4-0.9-0.1-1.9,0.6-2.5c0.3-0.2,0.4-0.5,0.4-0.8c-0.1-1,1.1-2,2.1-1.9c0.3,0.1,0.6-0.1,0.7-0.4
		c0.1-0.3,0.4-0.6,0.7-0.8c0.2-0.1,0.4-0.2,0.6-0.3c1.4-0.6,3-0.3,4,0.8c0.2,0.2,0.3,0.5,0.3,0.8c0,0.4,0,0.7-0.2,1.1
		c-0.1,0.2-0.2,0.3,0,0.5c0.2,0.1,0.4,0.1,0.5,0c0.1-0.1,0.3-0.2,0.4-0.2c0.9,0.1,1.5,1,1.4,1.9c0,0.1,0,0.1,0,0.2
		c-0.1,0.3-0.2,0.5,0.2,0.8c0.3,0.2,0.5,0.5,0.5,0.9c0,0.8-0.3,1.5-0.8,2.1c-0.1,0.1-0.3,0.3-0.5,0.1c-0.1-0.2-0.3-0.3-0.5-0.2
		c0,0,0,0,0,0c-0.4,0.1-0.8,0.3-1.2,0.4c-0.6,0.2-0.8,0.1-0.9-0.5c0-0.1,0-0.1,0-0.2s0.1-0.5-0.1-0.6s-0.3,0.2-0.5,0.3
		s-0.4,0.1-0.5-0.1c-0.1-0.3-0.1-0.6,0.1-0.8c0.2-0.6,0.2-1.2,0.1-1.8c-0.4,0.3-0.7,0.8-1,1.2c-0.2,0.2-0.4,0.5-0.6,0.8
		c-0.4,0.5-0.7,0.5-1.1,0c-0.2-0.2-0.3-0.4-0.4-0.5s-0.3-0.3-0.5-0.5c-0.3,0.6-0.6,1.3-1.4,1.3c-0.4,0-0.8-0.3-0.9-0.7
		c0,1.4,0.6,2.8,1.7,3.7c0.3,0.2,0.5,0.4,0.8,0.1c1.2-0.9,2.9-1,4.2-0.3c0.4,0.3,1,0.3,1.4-0.1c0.1-0.2,0.4-0.2,0.6-0.2
		c0.1,0.4-0.2,0.5-0.5,0.7s-0.5,0.4-0.2,0.8c0.1,0.2,0.2,0.5,0.2,0.8c-0.1,0.5,0.2,0.8,0.7,0.9c0.8,0.2,1.3,0.9,1.5,1.6
		c0.1,0.3,0,0.7-0.2,1c-0.1,0.1-0.2,0.3,0,0.4c0.8,0.6,1,1.7,0.5,2.6c-0.2,0.4-0.4,0.7-0.7,1c-0.1,0.1-0.3,0.1-0.4-0.1
		c0,0,0,0,0-0.1c-0.1-0.1-0.1-0.2-0.3-0.2c-0.6,0.2-1.2,0.4-1.8,0.6s-0.8,0-0.9-0.6c0,0,0-0.1,0-0.1c0-0.3,0.1-0.6-0.2-0.8
		s-0.4,0.3-0.6,0.4s-0.2,0.2-0.3,0.1c-0.1-0.1-0.2-0.3-0.1-0.4c0.1-0.7,0.1-1.4,0.1-2.1c0-0.1,0.1-0.3-0.1-0.4
		c-0.6,0.6-1.2,1.4-1.7,2.2c-0.5,0.7-0.6,0.7-1.2,0.1c-0.4-0.5-0.8-0.9-1.2-1.4c0,0.5-0.3,1-0.7,1.4c-0.5,0.5-1.3,0.3-1.8-0.5
		c-0.4,1.1,0.9,3.5,1.9,4.1c0.3,0.2,0.4,0,0.7-0.1c0.8-0.4,1.7-0.6,2.6-0.5c0.9,0,1.8,0.5,2.2,1.3c0.1,0.2,0.1,0.3,0.2,0.5
		c0,0.1,0,0.1,0,0.2c0.1,0.1-0.1,0.4,0.3,0.4c1.4-0.4,2.7,0.2,2.9,1.4c0,0.2,0,0.3,0,0.5c-0.1,0.3,0,0.5,0.4,0.6
		c0.6,0.1,1,0.6,1,1.2v0.3c0.4,0.9,0.2,1.8-0.4,2.6c-0.1,0-0.2,0-0.3-0.1c-0.2-0.7-0.3-0.7-0.9-0.2c-0.4,0.3-0.7,0.7-1.1,0.9
		s-0.6,0.2-0.8-0.2c-0.1-0.3-0.3-0.6-0.4-0.8c-0.2-0.3-0.3-0.3-0.5,0c0,0.1-0.1,0.1-0.1,0.2c-0.1,0.2-0.1,0.5-0.4,0.5
		s-0.3-0.4-0.3-0.6c-0.3-0.9-0.6-1.8-0.9-2.7c-0.3,1.1-0.7,2.1-0.9,3.1c-0.1,0.5-0.4,0.6-0.9,0.3s-1.1-0.7-1.8-1.1
		c0,0.8,0.1,1.6-0.8,2c-0.6,0.2-1-0.2-1.4-0.6c0.3,1.2,1,2.2,2,2.9c0.4,0.2,0.7,0.5,1,0.8v0.1c-0.7-0.2-1.3-0.7-1.8-1.2
		c-0.8-0.6-1.3-1.4-2.1-1.9c-0.6-0.7-0.9-1.7-0.7-2.7c0,0,0,0,0-0.1c0.8-0.4,0.4-1.1,0.3-1.6c-0.1-0.7,0.2-1.5,0.8-2
		c0.1-0.1,0.2-0.3,0.3-0.3C83.1,187.6,83.5,187.2,83.9,186.8z"/>
	<path class="st5" d="M89.3,209.2c-1-0.3-1.9-1-2.6-1.9c-0.1-0.1-0.1-0.4-0.4-0.3c-0.9,0.1-1.9-0.3-2.4-1.1c-1-1.3-0.8-3.3,0.5-4.3
		c0.3-0.2,0.6-0.4,1-0.5c0.1,0,0.2-0.1,0.2-0.1c0.9,0.1,0.9-0.4,0.8-1c-0.1-0.2-0.1-0.5,0-0.7c0.2-0.6,0-1.2-0.6-1.5c0,0,0,0-0.1,0
		l0,0c0.2-0.1,0.3-0.1,0.5,0c1.5,0.4,3.1,0.3,4.4-0.4c0.1-0.1,0.2-0.1,0.4-0.1c0.2,0.2,0.5,0.1,0.7-0.1c0,0,0,0,0-0.1
		c0.2-0.3,0.5-0.4,0.8-0.3c0.5,0.3,0.7,0.8,0.9,1.2s0.4,0.4,0.9,0.4c1.4-0.5,2.9-0.1,3.9,1c0.5,0.6,0.8,1.4,0.8,2.1
		c0,0.2,0,0.5-0.3,0.5c-0.2,0-0.4-0.3-0.4,0.1s-0.2,0.5-0.3,0.7s-0.3,0.3-0.6,0.2c-0.6,0-1,0.5-1.5,0.8c-0.6,0.3-1.1,0.6-1.6,1
		c-0.2,0.2-0.6,0.2-0.8,0c-0.1,0-0.1-0.1-0.1-0.2c-0.7-1-1.5-2-2.3-3.1c-0.2,0.3-0.2,0.6-0.3,0.8c-0.1,0.2-0.2,0.4-0.2,0.6
		c0,0.7-0.1,1.4-0.3,2.1c-0.1,0.6-0.4,0.8-1,0.7s-1.1-0.2-1.6-0.4s-0.6,0.1-0.5,0.4c0.2,1.1,0.7,2.1,1.5,2.8
		C89.1,208.8,89.3,208.9,89.3,209.2z"/>
	<path class="st7" d="M89.3,209.2c-1.2-0.8-2-2.2-2.1-3.7c0-0.4,0.2-0.4,0.4-0.3c0.6,0.1,1.3,0.3,1.9,0.4s0.8,0,0.8-0.5
		c0.1-0.7,0.2-1.4,0.3-2.1c0.2-0.2,0.1-0.5,0.2-0.7s0.1-0.5,0.2-0.8c0-0.1-0.1-0.3,0.1-0.3s0.2,0.1,0.3,0.2c0.7,1.1,1.6,2.1,2.3,3.2
		c0.2,0.3,0.3,0.2,0.5,0c0.9-0.6,1.9-1.2,2.8-1.8c0.2-0.1,0.3-0.2,0.5,0c0.8,0.9,0.8,1.7,0,3.1c-0.4,0.8-1,1.5-1.6,2.1l0,0
		c-1.6-0.5-3.4,0.1-4.4,1.4c-0.2,0.2-0.4,0.1-0.6,0.1l-1.1-0.1L89.3,209.2z"/>
	<path class="st57" d="M83.9,186.8c0,0.1,0,0.2,0,0.2c0.1,0.5,0,0.9-0.7,0.8c-0.3,0-0.5,0.3-0.8,0.4c-0.1-0.6-0.2-1.2-0.1-1.7
		c0.4-0.1,0.8-0.2,1.3-0.1C83.8,186.4,83.8,186.7,83.9,186.8z"/>
	<path class="st65" d="M97.5,222.8c0.8,0,1.7-0.1,2.5-0.3C99.3,223,98.4,223.1,97.5,222.8z"/>
	<path class="st66" d="M95.4,221.8l0.9,0.5C95.9,222.4,95.5,222.2,95.4,221.8z"/>
	<path class="st22" d="M133.8,221.2l-1.2,2.1c-0.1,0.2-0.3,0.2-0.5,0.1s-0.4-0.1-0.4-0.4c-0.1-0.9-0.2-1.7-0.3-2.6
		c-0.2,0.1-0.3,0.4-0.3,0.6c-0.1,0.6-0.2,1.2-0.3,1.7c0,0.4-0.3,0.3-0.5,0.3s-0.4-0.2-0.3-0.4c0.1-1.2,0.6-2.4,0.6-3.6
		c0-0.2,0.1-0.3,0.3-0.3s0.8-0.1,0.9,0.4c0,0.2,0.1,0.4,0.1,0.6c0.2,0.2,0,0.5,0.2,0.8c0.1,0.4,0.1,0.8,0.2,1.2
		c0,0.1-0.1,0.3,0.1,0.3c0.1,0,0.2-0.1,0.2-0.2c0.4-0.7,0.8-1.4,1.2-2.1c0.2-0.5,0.6-0.3,1-0.3s0.4,0.3,0.3,0.6
		c-0.1,1.1-0.3,2.3-0.6,3.4c-0.1,0.3-0.2,0.3-0.5,0.3s-0.4-0.1-0.3-0.4c0.1-0.6,0.2-1.2,0.3-1.8c0.1-0.1,0.1-0.2,0.1-0.4
		C133.9,221.2,133.9,221.2,133.8,221.2z"/>
	<path class="st1" d="M113.8,219.9c0.8-0.3,0.7-0.3,1.1,0.4s0.4,1.2,1,1.7c0-0.8,0.1-1.6,0.3-2.4c0.1-0.2,0.1-0.3,0.3-0.4
		s0.3,0.1,0.4,0.3c0.4,0.6,0.6,1.4,1.3,2c0-0.7,0-1.4,0-2.1c0-0.5,0.4-0.5,0.7-0.5s0.2,0.3,0.2,0.5c0,1.2-0.1,2.4-0.4,3.6
		c-0.1,0.2-0.1,0.3-0.3,0.4s-0.3,0-0.5-0.2c-0.5-0.6-0.5-1.4-1.2-2.1c0,0.4,0,0.6,0,0.9c0,0.5-0.1,1-0.2,1.5
		c-0.1,0.2-0.1,0.3-0.3,0.3s-0.3,0-0.4-0.2c-0.3-0.6-0.7-1.2-1-1.8S114.2,220.6,113.8,219.9z"/>
	<path class="st1" d="M142.1,223.1c-0.1,0.5-0.5,0.9-1,0.9c-0.4,0-0.3,0.2-0.3,0.4c0.1,0.5,0.3,0.9,0.4,1.5c-1.6-0.2-1-1.5-1.5-2.3
		c-0.2,0.4-0.4,0.8-0.5,1.3c0,0.3-0.2,0.4-0.4,0.2s-0.6,0-0.5-0.5c0.5-1.2,0.9-2.4,1.4-3.5c0-0.1,0-0.2,0.2-0.2
		c0.9,0.1,1.7,0.6,2.3,1.3C142.3,222.5,142.3,222.8,142.1,223.1z"/>
	<path class="st67" d="M111.5,222.2c0-0.4,0.1-0.9,0.1-1.3c0-0.3,0-0.4,0.4-0.5c0.3-0.1,0.5,0,0.7,0.3c0.8,1.1,1.7,2.3,2.5,3.4
		c-0.5,0.3-0.9,0.3-1.3-0.2s-0.6-0.1-1-0.1c-0.6,0.1-1,0.3-1,0.9c0,0.5-0.5,0.4-0.7,0.4s-0.2-0.3-0.2-0.4c0-0.4,0.1-0.9,0.1-1.3
		C111.5,222.9,111.2,222.5,111.5,222.2z"/>
	<path class="st1" d="M123.8,222.9c-0.6,0.2-1.1,0.1-1.3-0.5c-0.1-0.2-0.2-0.3-0.4-0.2c-0.3,0-0.6,0-0.8,0c-0.3-0.1-0.5,0.1-0.6,0.4
		c0,0,0,0.1,0,0.1c0,0.2,0,0.4-0.4,0.5c-0.6,0.1-0.7,0-0.5-0.5c0.4-1.2,0.9-2.3,1.2-3.6c0.1-0.3,0.3-0.3,0.5-0.3s0.4,0.1,0.5,0.3
		C122.6,220.3,123.2,221.6,123.8,222.9z"/>
	<path class="st1" d="M135.3,222.7c0.1-0.9,0.3-1.7,0.6-2.5c0.1-0.6,0.5-0.1,0.7-0.1s0.3,0.2,0.1,0.4l0,0c-0.2,0.8-0.3,1.7-0.6,2.5
		c-0.1,0.4,0.1,0.6,0.4,0.7s0.4-0.2,0.6-0.4c0.3-0.5,0.4-1.1,0.5-1.7c0.1-0.4,0.3-0.6,0.4-1s0.3-0.1,0.4-0.1s0.4,0,0.3,0.3
		c-0.3,1-0.5,2.1-0.8,3.1c-0.2,0.5-0.7,0.8-1.3,0.7c-0.6-0.1-1.2-0.2-1.4-0.8C135.2,223.3,135.2,223,135.3,222.7z"/>
	<path class="st68" d="M126.4,221.1c0-0.3,0-0.6,0-1s0.2-0.9-0.6-0.8c-0.3,0-0.2-0.3-0.2-0.4s0-0.3,0.3-0.3l2,0.1
		c0.2,0,0.4,0.1,0.3,0.3s-0.1,0.4-0.3,0.4c-0.6-0.1-0.6,0.3-0.6,0.7c0,0.8-0.1,1.7,0,2.5c0,0.4-0.2,0.4-0.5,0.4s-0.5,0-0.5-0.4
		S126.3,221.5,126.4,221.1L126.4,221.1z"/>
	<path class="st1" d="M110.7,225c-0.3,0.6-1,0.8-1.6,0.5c-0.2-0.1-0.3-0.2-0.4-0.3c-0.1-0.1-0.4-0.3-0.2-0.4s0.5-0.4,0.8-0.2
		s0.3,0.2,0.5,0.1s0.2-0.4,0.1-0.6c-0.3-0.8-0.5-1.5-0.8-2.2c-0.2-0.5-0.2-0.7,0.4-0.9c0.2,0,0.3,0,0.4,0.2c0.3,0.9,0.6,1.8,0.9,2.7
		C110.9,224.3,111,224.7,110.7,225z"/>
	<path class="st22" d="M129,223c-0.6,0.1-0.8-0.1-0.7-0.7c0.1-1.1,0.2-2.1,0.2-3.2c0-0.4,0.2-0.5,0.6-0.5s0.4,0.2,0.4,0.5
		c-0.1,1-0.1,2-0.2,3C129.1,222.5,129.3,222.9,129,223z"/>
	<path class="st69" d="M103.4,220.3l-1.1,1.1l0,0h0.1l-0.1,0.2c-0.2-0.2-0.5,0-0.8,0.1c1.1-0.9,2-1.8,2.2-3.1c0.1-0.7,0-1.4,0-2.1
		h0.1c0.4,0.1,0.2,0.4,0.2,0.6c-0.2,0.4-0.2,0.9,0,1.3C103.7,219.1,103.6,219.7,103.4,220.3z"/>
	<path class="st70" d="M110.7,225v-1C111.1,224.4,111.1,224.7,110.7,225z"/>
	<path class="st71" d="M135.3,222.7v1C134.9,223.4,134.9,223,135.3,222.7z"/>
	<path class="st72" d="M111.5,222.2c0,0.4,0.2,0.7-0.2,1C111.3,222.9,111,222.5,111.5,222.2z"/>
	<path class="st73" d="M142.1,223.1v-0.9C142.5,222.5,142.5,222.8,142.1,223.1z"/>
	<path class="st74" d="M133.8,221.2c0-0.2,0.1-0.3,0.3-0.4c0,0,0.1,0.1,0.1,0.1c0,0.2,0.1,0.5-0.2,0.6
		C133.8,221.5,134,221.3,133.8,221.2z"/>
	<path class="st75" d="M132,220.6c-0.4-0.2-0.2-0.5-0.2-0.8C132.2,220,132,220.4,132,220.6z"/>
	<path class="st76" d="M129,223c0.1-0.3-0.1-0.6,0.3-0.7C129.3,222.6,129.6,222.9,129,223z"/>
	<path class="st7" d="M124.5,235.2c1.9-0.4,3.8-0.9,5.6-1.4c0.3,0.3,0.8,0.2,1.2,0.3c1,0.1,2,0.3,3,0.3c0.2,0,0.5,0.1,0.7,0.2
		c0.2,0,0.3,0.2,0.3,0.4c0,0.1,0,0.1-0.1,0.2c-0.7,1.2-2,1.8-3.3,1.5c-2.3-0.3-4.6-0.7-6.8-1.2C124.9,235.4,124.7,235.3,124.5,235.2
		z"/>
	<path class="st4" d="M98.7,202c0.4-0.3,0.3-0.8,0.2-1.2c-0.7-2.3-2.7-2.8-4.7-2.1c-0.3,0.1-0.4,0.1-0.6-0.2c-0.3-0.6-0.4-1.3-1-1.6
		c-0.1-0.1-0.1-0.3,0-0.4c0.7-1,1.3-2.1,1.8-3.2c0.4-0.8,0.5-1.7,0.4-2.5c0.3,0.2,0.6,0.2,0.9,0.2c7,0,13.9,0,20.9,0
		c0.7,0,0.9-0.4,1.2-0.8c0.6-0.5,1-1.2,1.4-1.9c0.6-0.6,1.1-1.2,1.6-1.8c0.2,0.1,0.1,0.3,0.1,0.5c0,3.6,0,7.2,0,10.8
		c0,1.4-0.7,2.7-1.8,3.5c-1.1,0.8-2.7,0.6-3.6-0.4c-0.3-0.4-0.5-0.5-0.7,0.1c-0.1,0.3-0.3,0.5-0.4,0.8c-0.1,0.5-0.4,1-0.8,1.2
		c-0.8,0.6-1.9,0.9-2.9,0.9c-1.6,0.1-3.1-0.2-4.6-0.8c-0.3-0.1-0.5-0.2-0.7-0.4c-0.2-0.1-0.4,0.1-0.5,0.1c-1.6,1.1-3.7,1.5-5.6,0.9
		l-0.6-0.1c-0.4-0.2-0.6-0.5-0.2-0.8C98.5,202.4,98.5,202.1,98.7,202z"/>
	<path class="st5" d="M128.9,198.4c0.3,1.2,1,2.3,2,3.1c1.2,0.8,2.8,0.7,3.9-0.3c0.3-0.3,0.5-0.3,0.6,0.1c0.1,0.3,0.2,0.6,0.4,0.9
		c0.4,0.7,0.3,1.2-0.6,1.9c-1,0.7-2.1,1.2-3.4,1.3c-2,0.1-4,0.3-5.8-0.7c-0.6-0.4-1.4-0.4-2.1,0c-2.6,1.2-5.7,1.2-8.3,0
		c-0.4-0.2-0.8-0.5-1.2-0.9c-0.4-0.6-0.4-1.3,0.1-1.9c0,0,0.1-0.1,0.1-0.1c0.2-0.2,0.1-0.7,0.4-0.7s0.4,0.4,0.7,0.5
		c1.2,0.8,2.9,0.7,3.9-0.4c0.7-0.6,1.1-1.4,1.3-2.3c0.1-0.4,0.2-0.4,0.5-0.2c0.1,0.1,0.2,0.2,0.4,0.2c0.9,0.6,0.9,0.6,1.8-0.1
		c0.2-0.1,0.3-0.2,0.5,0s0.3,0.2,0.4,0.4c0.7,0.6,0.7,0.6,1.3,0s0.7-0.7,1.4,0.1c0.3,0.3,0.4,0.3,0.7,0
		C128.2,199,128.5,198.7,128.9,198.4z"/>
	<path class="st5" d="M127.2,130.7c0.2,0.4,0.4,0.9,0.3,1.4c0.1,3.1,0.1,6.2,0.2,9.3c0,1.4,0,2.8,0,4.2c0.1,4.1,0.1,8.2,0.3,12.3
		c0.1,3,0.2,6,0.3,9c0,0.1,0,0.2,0.1,0.3c0.1,4.2,0,8.5,0.3,12.7c0.2,3.4,0.1,6.8,0.3,10.3c-0.3,0.5-0.7,0.9-1.1,1.3
		c-0.2-0.1-0.5-0.3-0.6-0.5c0-0.2,0-0.4,0-0.6c-0.1-6.5,0-12.9-0.2-19.4c-0.4-12.3-0.3-24.6-0.5-36.8c0-0.8-0.2-1.6-0.2-2.5
		c0-0.5,0.1-0.8,0.7-0.8C127.1,130.8,127.2,130.7,127.2,130.7z"/>
	<path class="st5" d="M121.8,163.7c0.1-0.2,0.1-0.4,0.1-0.7c0.1-3,0.1-5.9,0.2-8.9c0.3-6.8,0.4-13.5,0.5-20.3c0-0.2,0-0.5,0-0.7
		c0-0.6,0-1.3,0.1-1.9c0-0.2,0-0.5,0.3-0.4s0.7,0,0.6,0.4c0,0.1,0,0.2,0,0.3c-0.1,9.8,0,19.6-0.3,29.4s-0.2,19.5-0.3,29.2
		c0,0.5-0.4,0.8-0.6,1.1c-0.1,0.1-0.2,0.1-0.3,0c-0.3-0.4-0.7-0.6-0.9-1s-0.1-0.8,0-1.2c0.1-0.2,0.1-0.3,0.1-0.5
		c0.1-6,0.2-12,0.3-17.9c0-0.1,0-0.1,0-0.2c0.1-0.2,0.1-0.5,0.1-0.7c0-1.3,0-2.7,0-4c0-0.2,0-0.5,0.1-0.7L121.8,163.7z"/>
	<path class="st8" d="M125.2,161.1c0-9.8,0-19.5,0-29.3c0-0.2,0-0.3,0-0.5s0.2-0.3,0.4-0.3s0.2,0.1,0.3,0.3s0,0.1,0,0.2
		c0.3,6.6,0.3,13.3,0.3,19.9c0.1,6.4,0,12.7,0.2,19c0.2,6.5,0.2,13.1,0.3,19.6c0,0.6-0.3,1.1-0.7,1.6c-0.1,0.2-0.3,0.1-0.4,0
		c-0.3-0.3-0.5-0.8-0.6-1.3C125.2,180.6,125.2,170.8,125.2,161.1z"/>
	<path class="st5" d="M124.7,161.1c0,9.7,0,19.4,0,29.2c0,0.2,0,0.3,0,0.5c0,0.4-0.1,0.9-0.5,0.9s-0.7-0.4-0.7-0.9
		c0-0.2,0-0.4,0-0.6c0.1-8.8,0-17.5,0.2-26.3c0.3-10.7,0.2-21.4,0.4-32.1c0-0.2,0-0.3,0-0.5s0-0.3,0.3-0.3s0.3,0.1,0.3,0.3
		s0,0.3,0,0.5C124.7,141.6,124.7,151.4,124.7,161.1z"/>
	<path class="st5" d="M98.7,202c0,0.3-0.1,0.6-0.3,0.8c-0.2,0.2-0.1,0.4,0,0.6c0.8,0.3,1.6,0.5,2.4,0.6c1.5,0.1,3-0.4,4.1-1.4
		c0.1-0.1,0.2-0.4,0.5-0.2s0.3,0.3,0.5,0.3c2,1.1,4.3,1.5,6.5,0.9c0.4-0.1,0.8-0.5,1.3-0.4l0.9,1.1c-0.7,0.2-1.3,0.7-1.9,0.9
		c-2.2,0.9-4.6,0.6-6.7-0.6c-0.4-0.3-0.9-0.3-1.3,0c-1.8,1.2-4.1,1.3-6.1,0.5c-0.5-0.2-0.7-0.1-0.7,0.4c0,0.2-0.1,0.4-0.3,0.5h-0.1
		c0-0.5,0.4-0.9,0.4-1.4c0-0.6-0.1-1.1-0.4-1.6c0.3,0,0.6-0.4,0.6-0.9c0-0.2,0-0.4,0.2-0.4S98.7,201.8,98.7,202z"/>
	<path class="st5" d="M123,128.5c-0.2-0.9-0.2-1.8,0.1-2.7c0.1-0.7,0.4-1.3,0.8-1.9c0.2-0.3,0.5-0.5,0.6-0.8
		c0.2-0.4,0.4-0.5,0.8-0.1c0.7,0.7,1.2,1.7,1.5,2.7c-0.1,0.6,0.3,1.1,0.3,1.6s0.1,1-0.4,1.4c-0.4,0.4-0.7,0.2-0.9-0.1
		s-0.4-0.3-0.6,0s-0.3,0.4-0.5,0c-0.1-0.2-0.2-0.4-0.4-0.1C123.9,129.1,123.5,128.9,123,128.5z"/>
	<path class="st5" d="M128.9,195.7c0,0.6,0,1.2,0,1.8c0,0.2,0,0.4-0.3,0.5c-0.1,0-0.1,0.1-0.2,0.2c-0.9,0.7-0.9,0.7-1.7-0.1
		c-0.2-0.2-0.3-0.2-0.5,0s-0.6,0.4-0.8,0.7s-0.5,0.2-0.7-0.1l0,0c-0.8-0.8-0.8-0.9-1.6-0.1c-0.3,0.2-0.4,0.3-0.7,0.1
		c-1-0.3-1.6-1.4-1.3-2.4c0.1-0.4,0.1-0.5,0.5-0.3c1.9,0.7,4,0.8,5.9,0.3C127.9,196.1,128.4,195.9,128.9,195.7z"/>
	<path class="st8" d="M128.9,193.5c0,0.1,0,0.3,0,0.4c0,1.3,0,1.4-1.3,1.7c-2,0.5-4.2,0.4-6.1-0.3c-0.6-0.2-0.4-0.7-0.5-1.1
		c0-0.7,0-0.7,0.8-0.5c2.2,0.8,4.7,0.7,6.9-0.2C128.8,193.6,128.8,193.5,128.9,193.5z"/>
	<path class="st8" d="M127.8,192.3c0.5-0.3,0.6-0.8,1.1-1.1c0,0.2,0,0.4,0,0.6c0,1.3,0,1.3-1.3,1.7c-2,0.5-4.2,0.4-6.1-0.3
		c-0.6-0.2-0.5-0.6-0.5-1s-0.2-0.8,0.1-0.9s0.5,0.4,0.7,0.6s0.4,0.4,0.6,0c0.1-0.1,0.2-0.2,0.3-0.3c0.3-0.4,0.4-0.2,0.6,0.1
		s0.3,0.4,0.4,0.5c0.3,0.5,0.5,0.3,0.7-0.1l0.2-0.4c0.2-0.3,0.3-0.3,0.5,0c0.8,0.9,0.8,0.9,1.5-0.1c0.2-0.3,0.3-0.4,0.6,0
		C127.4,191.9,127.6,192.1,127.8,192.3z"/>
	<path class="st8" d="M126.9,128.7c0.3,0,0.5,0.1,0.5,0.4s0,0.7,0,1c-0.1,0.1-0.2,0.3-0.3,0.3c-1.3,0.3-2.7,0.3-4,0.1
		c-0.2-0.1-0.5-0.2-0.5-0.4c0-0.4-0.2-0.9,0.2-1.3s0.4,0,0.5,0.1s0.4,0.3,0.7,0.2s0.6-0.6,0.9,0c0.1,0,0.2,0,0.2,0
		c0.3-0.5,0.6-0.2,0.9,0S126.7,129.2,126.9,128.7z"/>
	<path class="st77" d="M113.8,203.2c-2.5,1.3-5.5,1.1-7.8-0.5c1.1,0.5,2.3,0.7,3.5,0.9c1.4,0.1,2.7-0.2,4-0.7
		C113.9,202.8,113.8,203,113.8,203.2z"/>
	<path class="st19" d="M121.8,165.1c0.1,1.7,0,3.4,0,5.1c0,0.1-0.1,0.2-0.2,0.3v-3.6c0-0.4,0-0.9,0-1.3
		C121.5,165.4,121.4,165.2,121.8,165.1z"/>
	<path class="st29" d="M86.8,163.5c-0.3,0.3-0.7,0.6-0.7,1.1c0,0.3-0.2,0.2-0.4,0.2c-1.1-0.2-2.1,0.6-2.3,1.7c0,0.1,0,0.2,0,0.3
		c0,0.3,0,0.5-0.4,0.6c-0.7,0.6-1,1.7-0.5,2.6c0.3,0.6,0.6,1.1,0.9,1.7c0.5,0.9,1.2,1.7,2,2.4c0.5,0.3,0.1,0.6,0,0.9
		s-0.3,0.1-0.5,0.1c-0.8-0.1-1.6,0.3-2.1,1c-0.1,0.1-0.1,0.3-0.2,0.4c-0.3,0.4,0,1-0.2,1.3s-0.8,0.4-1,0.9c-0.4,1.1-0.2,2.3,0.5,3.2
		c0.5,0.9,1,1.7,1.5,2.6c0.2,0.3,0.5,0.6,0.8,0.8c0.5,0.4,0.3,0.5-0.1,0.7c-0.5,0.1-1.1,0.2-1.7,0.1l-10.8-0.1
		c-0.4,0-0.6-0.1-0.6-0.5c0-0.1,0-0.2,0-0.2c0-20,0-40,0-60c0-0.6,0.2-0.8,0.8-0.9c2.7-0.6,5.4-1.6,7.8-3c2.3-1.3,4.4-3,6.3-4.9
		c2.7-2.7,4.7-5.9,5.8-9.6c0.2-0.6,0.3-1.2,0.4-1.9c0-0.3,0.2-0.5,0.5-0.6c5.6-1.7,11.3-2.9,17.1-3.6c1.7-0.2,3.4-0.4,5.2-0.5
		c-0.7,0.5-1.4,1-2.1,1.5c-1.3,1.1-2.5,2.3-3.5,3.7c-0.7,1-1.3,2-1.9,3c-0.3,0.6-0.5,1.1-0.7,1.8c-0.4,0.8-0.6,1.6-0.8,2.5
		c0,0.2-0.1,0.3-0.3,0.5l-8.5,2.9c-1.2,0.4-2.3,0.8-3.5,1.2c-0.5,0.1-0.5,0.4-0.3,0.7c0.4,0.8,0.7,1.6,1,2.5c0.2,0.7,0.3,0.7,1,0.5
		l9.9-3.4c0.3,1.4,0.2,2.9,0.5,4.3c0.4,1.9,1.1,3.7,1.9,5.3c0.7,1.3,1.5,2.5,2.5,3.7c0.2,0.2,0.1,0.2-0.1,0.3
		c-1.1,0.9-1.7,2.3-1.6,3.8c0,0.7,0,1.4,0,2c0,0.2-0.1,0.4,0.2,0.5c0.1,1.4,1.1,2.7,2.5,3c0.4,0.2,0.5,0.3,0.3,0.7
		c-0.1,0.2-0.1,0.5-0.1,0.8c0,1.9-0.1,3.8,0,5.6c0.1,1.5,0.1,3,0.1,4.5c0,0.9,0.4,1.3,1.3,1.2c0.4,0,0.6,0.1,0.7,0.5
		c0.1,0.5,0.1,1,0.1,1.5c0,0.3-0.2,0.3-0.4,0.3c-1.1,0.1-1.6,0.6-1.7,1.6c0,0.6-0.2,1.3,0.5,1.7c0.1,0,0.1,0.2,0.1,0.3
		c0,0-0.1,0.1-0.1,0.1c-0.7,0.4-0.6,1.1-0.5,1.7s-0.1,0.7-0.6,0.6c-0.3,0-0.6,0-0.8,0c-0.8,0-1.1,0.3-1.1,1.1c0,0.6,0,1.2,0,1.8
		c0,0.3-0.1,0.5-0.5,0.5s-0.8,0-1.2,0c-0.8-0.1-1.5,0.4-1.6,1.2c0,0.1,0,0.2,0,0.3c0,0.6,0,1.3,0,1.9c0,0.8,0.5,1.3,1.4,1.3
		c0.5,0,1,0,1.4,0s0.5,0.1,0.4,0.4c0,0.7,0,1.4,0,2.1c0,0.4,0.1,0.6,0.6,0.6c0.2,0,0.3,0,0.5,0c0.2,0,0.5-0.1,0.7,0.1
		s-0.2,0.5-0.4,0.6c-3.1,2.4-6.4,4.5-9.8,6.4c-2.3,1.3-4.8,2.5-7.2,3.5h-0.1c-0.2-0.4,0.2-0.5,0.4-0.6c0.5-0.6,0.7-1.4,0.8-2.1
		c0-1-0.2-1.2-1.1-1.5c0.5-0.4,0.7-1.1,0.4-1.7c-0.3-0.7-1-1.2-1.8-1.2c-0.5,0-0.5-0.2-0.5-0.6c0.1-0.5,0-1-0.4-1.4
		c-0.2-0.1-0.1-0.2,0.1-0.4c0.4-0.2,0.8-0.5,1-0.9c0.2-0.5,0.5-0.9,0.8-1.3h0.1c0,0,0,0,0,0.1c1-0.4,1.7-2.7,0.7-3.1l-0.6-0.3
		c0.6-0.6,0.6-1.5,0-2.1c-0.2-0.2-0.5-0.3-0.8-0.4c-0.1,0-0.2,0-0.3,0c-0.3,0-0.6,0.1-0.6-0.3s0-0.6,0.4-0.8
		c0.4-0.1,0.7-0.2,1.1-0.4c1.2-0.6,2.3-1.5,3.1-2.6c0.5-0.7,0.4-1.6-0.1-2.2c-0.2-0.2-0.1-0.4,0-0.6c0.4-0.6,0.2-1.5-0.5-1.9
		c-0.1-0.1-0.2-0.1-0.3-0.1c-0.4-0.1-0.7-0.2-0.7-0.7c0.1-1,0.1-1,0.8-1.2l0.3-0.1c0.8-0.2,1.6-0.7,2.2-1.3c0.1-0.2,0.3-0.5,0.5-0.6
		c0.5-0.3,0.8-0.8,1-1.3c0.2-0.4,0.1-0.9-0.3-1.2c0,0,0,0-0.1,0c-0.3-0.2-0.3-0.3-0.1-0.6c0.4-0.5,0.3-1.3-0.3-1.6
		c-0.1-0.1-0.2-0.1-0.4-0.2c-0.3-0.1-0.8-0.1-0.7-0.6s0.5-0.4,0.8-0.5h0.1c1.1-0.1,2.1-0.5,2.9-1.2c0.4-0.2,0.7-0.5,1-0.8
		c0.4-0.4,0.5-1.1,0.1-1.5c-0.1-0.2-0.1-0.4,0-0.5c0.6-0.7,0.5-1.3-0.2-1.8c-0.5-0.3-0.7-0.6-0.4-1.1c0,0,0-0.1,0-0.1
		c0.2-0.7,0.2-0.7,0.9-0.5c0.9,0.2,2.1-0.5,2-1.4c-0.1-1.4,0.7-2.6,1.3-3.8c0.2-0.4,0.3-0.9,0.3-1.4c0-0.8-0.5-1.1-1.3-0.8
		c-0.5,0.2-0.9,0.4-1.3,0.8c-0.6,0.5-1.1,1.1-1.6,1.6c-0.3,0.3-0.7,0.5-1.2,0.5c-1.5,0.1-2.1,1-1.7,2.4c0.1,0.4,0,0.6-0.4,0.7
		c-0.4,0.1-0.7,0.3-1,0.6c-0.2,0.2-0.4,0.2-0.7,0.1c-0.8-0.3-1.7,0.1-2,0.9c0,0,0,0.1,0,0.1c-0.1,0.2-0.3,0.4-0.5,0.5
		c-0.6,0.3-1,0.9-1,1.6c0,0.2,0,0.5,0.1,0.7c0.1,0.7,0.3,1.4,0.5,2c0.3,0.3,0.2,0.5-0.1,0.7c-0.5,0.2-0.9,0.6-1.2,1.1
		c-0.1,0.3-0.3,0.3-0.6,0.3c-1.2,0-1.7,0.4-2,1.4c-0.1,0.2-0.2,0.4-0.4,0.6c-0.8,0.5-1,1.6-0.5,2.3c0.1,0.3,0.2,0.5,0.3,0.8
		c0.1,0.6,0.4,1.1,0.7,1.5c0.1,0.1,0.2,0.3,0.1,0.4c-0.5,0.3-1,0.8-1.3,1.3c-0.1,0.2-0.4,0.2-0.6,0.2c-1-0.2-2,0.5-2.2,1.5
		c0,0,0,0,0,0c0,0.3-0.2,0.5-0.5,0.7c-0.6,0.4-1,1.2-0.8,1.9c0.2,0.7,0.6,1.3,0.7,2c0,0.3,0.2,0.7,0.4,0.9
		C86.8,162.9,87,163.2,86.8,163.5z"/>
	<path class="st5" d="M101,188.3c-0.3-0.4-0.8-0.4-1-0.8c0.8-0.4,1.6-0.7,2.4-1c0.1,0,0.3,0,0.4,0.2c0.1,0.2,0.2,0.3,0.3,0.4
		c0.4,0.3,0.7,0.7,1.3,0.4c0.5-0.2,0.8-0.6,0.8-1.1c0.1-1.1,0.1-1.1,1.1-0.5l0.2,0.1c0.8,0.4,1,0.5,1-0.5c0-1.6,0-1.7,1.9-1.8
		c0.6,0,0.8-0.1,0.8-0.7c0-0.8,0-1.6,0-2.3c0-0.4,0.1-0.5,0.5-0.5c0.7,0,1.4,0,2.2,0c0.3,0,0.4-0.1,0.4-0.4c0-1.2,0-2.3,0-3.5
		c0-0.4-0.1-0.5-0.5-0.4h-0.1c-0.5-0.1-1.1,0.2-1.4-0.1s-0.1-0.9-0.1-1.3c0-0.1,0-0.2,0-0.2c0-0.4,0.2-1-0.1-1.3s-0.8-0.1-1.3-0.1
		s-0.4-0.1-0.4-0.4c0-0.7,0-1.4,0-2.1c0-0.5-0.2-0.6-0.6-0.6s-1.1,0-1.6,0c-0.8,0-1-0.2-1-0.9s0-1.6,0-2.3s0.3-0.9,1-0.9
		s1.2,0,1.8,0c0.3,0,0.4-0.1,0.4-0.4c0-0.7,0-1.4,0-2.1c0-0.6,0.2-0.8,0.8-0.8s1.2,0.2,1.6-0.1s0.1-1,0.1-1.4c0-0.8,0.6-1,1.2-1.3
		c-0.9-0.1-1.2-0.5-1.2-1.3c0-0.2,0-0.4,0-0.7c0-0.6,0.4-1.1,1-1.2c0.1,0,0.2,0,0.3,0c0.6,0,0.8-0.1,0.8-0.7c0-0.6,0-1.2,0-1.8
		c0-0.3-0.1-0.4-0.4-0.4h-0.4c-1,0.1-1.4-0.3-1.4-1.2c0-1.1,0-2.3,0-3.4c0-0.8,0.4-1.2,1.3-1.2c0.4,0,0.5-0.2,0.5-0.5
		c0-0.8,0-1.6,0-2.4c0-0.1-0.1-0.4,0.2-0.4c0.6,0,0.5-0.4,0.5-0.7c0-1.5,0.1-3,0.1-4.4c0-0.5,0.1-1,0.8-1c-0.1-0.4-0.8,0-0.8-0.6
		s0.2-0.6,0.7-0.8c-0.4-0.1-0.6-0.2-0.3-0.6c0.7-0.8,1.2-1.7,1.8-2.6c0.1-0.1,0.2-0.2,0.6-0.3c-0.3,0.3-0.4,0.7-0.3,1.1
		c0,1.6,0,3.2,0,4.8c0,0.4-0.1,0.6-0.5,0.5c-0.2,0-0.5-0.1-0.5,0.2s0.3,0.3,0.5,0.3c0.5-0.1,0.6,0.2,0.6,0.6c0,2.9,0,5.8,0,8.8
		c0,0.5-0.1,0.7-0.6,0.6c-0.3,0-0.6-0.1-0.6,0.3s0.3,0.3,0.6,0.2c0.5-0.1,0.6,0.1,0.6,0.6c0,2.5,0,4.9,0,7.4c0,0.5-0.1,0.7-0.7,0.6
		c-0.1,0-0.3,0-0.4,0c-0.2,0-0.2,0.1-0.2,0.3c0,0.1,0,0.2,0.1,0.2c0,0,0,0,0,0h0.1c1,0.1,1,0.1,1,1.1c0,2.1,0,4.2,0,6.3
		c0,0.4-0.1,0.6-0.6,0.5s-0.7,0-1,0s-0.3,0.1-0.3,0.3s0.1,0.2,0.3,0.2c0.3,0,0.7,0,1,0c0.5,0,0.6,0.1,0.6,0.6c0,4.7,0,9.4,0,14.1
		c0,2.4,0,4.7,0,7.1c0,0.2-0.2,0.5,0.2,0.6c0.2,0.1,0,0.2-0.1,0.2c-0.2,0-0.3,0-0.5,0c-6.8,0-13.6,0-20.4,0c-0.5,0-0.7-0.1-0.7-0.6
		s-0.2-1.3,0.1-1.6s1.1-0.1,1.7-0.2C98.4,188.3,99.6,188.3,101,188.3z"/>
	<path d="M94.8,190.5c-0.2-0.7-0.9-1.2-1.6-1.1c0.4-0.8,0.1-1.7-0.6-2.1c-0.6-0.5-1.5-0.6-2.2-0.2c-0.2-0.1-0.1-0.4-0.3-0.6
		c0,0,0-0.1,0-0.1c-0.1-0.3,0.1-0.4,0.3-0.5c0.7-0.4,1.4-0.9,1.9-1.4l0.1-0.1c0.2-0.2,0.4-0.2,0.6-0.2c1.8-0.7,3.5-1.5,5.2-2.3
		c1.3-0.7,2.6-1.4,3.9-2.1c1.8-1,3.4-2.1,5.1-3.3c1.2-0.8,2.2-1.7,3.5-2.5c0.1,0.6,0.1,1.1,0,1.7c0,0.4,0.1,0.6,0.6,0.6
		c1.5,0,1.5,0,1.5,1.4c0,0.7,0,1.4,0,2c0,0.4-0.1,0.5-0.5,0.5c-0.6,0-1.2,0-1.8,0s-0.8,0.2-0.7,0.7c0,0.7,0,1.4,0,2.1
		c0,0.4-0.1,0.6-0.6,0.6c-0.5,0-1,0.1-1.5,0.2c-0.3,0-0.6,0.3-0.5,0.6c0,0,0,0,0,0.1c0,0.4,0,0.9,0,1.3s-0.2,0.4-0.5,0.3
		c-0.3-0.2-0.7-0.4-1-0.6c-0.5-0.1-0.8-0.1-0.7,0.5c0,0.2,0,0.5-0.1,0.7c-0.2,0.4-0.3,0.8-0.8,0.8c-0.5,0-0.9-0.3-1.1-0.8
		c-0.2-0.4-0.4-0.4-0.8-0.2c-0.9,0.4-1.9,0.8-2.9,1.2c0.1,0.2,0.5,0.2,0.6,0.5c-0.9,0-1.9,0-2.8,0c-0.6,0-1.2,0.1-1.8,0.1
		c-0.4,0-0.5,0.3-0.3,0.5c0.3,0.5,0.1,1.1,0.2,1.7C95.2,190.6,95,190.6,94.8,190.5z"/>
	<path class="st8" d="M117.4,133.5l1.1,0.6c0.2,0.1,0.3,0.2,0.3,0.4c0,0.2,0,0.4,0,0.6c0,17.5,0,34.9,0,52.4
		c0.1,0.8-0.2,1.5-0.8,2.1c-0.2,0.2-0.4,0.4-0.6,0.7L117.4,133.5z"/>
	<path class="st78" d="M93,184l-0.5,0.4c-0.2-0.3,0-0.4,0.2-0.6c0.3-0.3,0.5-0.8,0.5-1.3c0.2-0.2,0.3,0,0.3,0.1s-0.1,0.4,0.3,0.4
		c-0.1,0.2-0.3,0.4-0.4,0.6L93,184z"/>
	<path class="st5" d="M154.5,188.3c0.1,0.8,0.1,1.6,0,2.4h-21.7c0.4-0.2,0.4-0.6,0.4-0.9c0-7,0-14,0-21.1c0-0.6,0.1-0.8,0.8-0.7
		c0.2,0,0.4,0,0.6,0c0.2,0,0.3,0,0.3-0.2s0-0.3-0.3-0.3h-0.2c-1.2,0-1.2,0-1.2-1.2c0-2,0-4.1,0-6.1c0-0.5,0.1-0.7,0.6-0.6
		c0.2,0,0.5,0.2,0.5-0.2s-0.4-0.3-0.6-0.3c-0.5,0.1-0.6-0.1-0.6-0.6c0-2.5,0-5,0-7.5c0-0.4,0.1-0.7,0.6-0.6c0.2,0,0.5,0.1,0.5-0.2
		s-0.3-0.3-0.5-0.3c-0.5,0.1-0.6-0.1-0.6-0.6c0-2.9,0-5.9,0-8.8c0-0.4,0.1-0.6,0.6-0.6c0.2,0,0.4,0.1,0.4-0.2s-0.3-0.3-0.4-0.3
		c-0.5,0.1-0.6-0.1-0.6-0.6c0-1.7,0-3.4,0-5.1c0-0.2,0-0.3-0.1-0.5c-0.1-0.1-0.4,0.1-0.2-0.2s0.3,0,0.3,0.1c0.7,1,1.4,2,2,3
		c0.2,0.3-0.3,0.1-0.4,0.3c0.2,0.2,0.6,0.3,0.6,0.7c0.1,0.6-0.5,0.4-0.8,0.6c0.6,0.1,0.8,0.5,0.8,1c0,1.6,0.1,3.1,0.1,4.7
		c0,0.3,0.1,0.4,0.4,0.4s0.4,0.1,0.4,0.4c0,0.9,0,1.9,0.1,2.8c1.6,0.3,1.6,0.3,1.6,1.9c0,1,0,1.9,0,2.9s-0.4,1.2-1.3,1.1
		c-0.8-0.1-0.8-0.1-0.8,0.7c0,0.6,0,1.1,0,1.7c0,0.3,0,0.4,0.4,0.4s0.9-0.1,1.3,0.4c0.4,0.6,0.6,1.3,0.4,2c-0.1,0.5-0.6,0.8-1.5,0.7
		c1.2,0.4,1.7,1,1.5,2.1c-0.1,0.6,0.1,0.9,0.8,0.8c0.3,0,0.6,0,0.9,0c0.7,0,1,0.2,1,0.9s0,1.3,0,2c0,0.3,0.1,0.4,0.4,0.4
		c0.5,0,1.1,0,1.6,0c0.7,0,1,0.3,1,0.9s0,1.6,0,2.4c0,0.6-0.3,0.8-0.9,0.8s-1.3,0-1.9,0c-0.4,0-0.5,0.1-0.5,0.5c0,0.7,0.1,1.3,0.2,2
		c0.1,0.4-0.1,0.6-0.6,0.6c-1.3,0-1.3,0-1.3,1.3c0,0.5,0,1,0,1.5c0,0.3-0.1,0.3-0.4,0.4c-0.5,0-1.1-0.2-1.4,0.1s-0.1,0.9-0.1,1.4
		c0,0.8,0,1.6,0,2.4c0,0.4,0.1,0.4,0.5,0.4c0.7,0,1.4,0,2,0c0.4,0,0.5,0.1,0.5,0.4c0,0.8,0,1.7,0,2.5c0,0.4,0.1,0.5,0.6,0.5
		c0.6,0,1.1,0,1.7,0.2c0.3,0.1,0.4,0.2,0.4,0.5c0,0.5,0,1,0,1.5s0.2,0.5,0.5,0.3s0.8-0.4,1.2-0.6s0.6-0.2,0.6,0.3
		c0,0.4,0.1,0.7,0.3,1c0.2,0.5,0.7,0.8,1.3,0.6c0.2-0.1,0.4-0.3,0.6-0.5c0.2-0.4,0.8-0.6,1.2-0.4c0,0,0.1,0.1,0.1,0.1
		c0.6,0.3,1.2,0.5,1.8,0.8c-0.3,0.3-0.7,0.3-1,0.8h3.4C153.1,188.1,153.8,188.1,154.5,188.3z"/>
	<path class="st8" d="M132.5,190.3c-0.8-0.8-1.3-1.8-1.4-2.9c0.1-17.5,0.1-35,0-52.5c0.2-0.7,0.7-1.2,1.4-1.4c0.1,0,0.2,0.1,0.2,0.2
		s0,0.4,0,0.6c0,18.5,0,36.9,0,55.4C132.6,189.8,132.7,190,132.5,190.3z"/>
	<path class="st14" d="M154.5,188.3h-2.1V188c0.6,0,1.2,0,1.9,0s0.7,0.1,0.6,0.6c0,0.3,0,0.5,0,0.8c-0.2-0.2-0.1-0.4-0.1-0.7
		S154.8,188.3,154.5,188.3z"/>
	<path class="st79" d="M97.4,208.7c0.8,0.5,1.7,0.9,2.6,0.9c-0.7,0.1-1.4,0.5-2,0.9c0-0.6-0.5-0.9-0.7-1.4c0-0.1-0.1-0.2-0.2-0.2
		C97,208.7,97.2,208.7,97.4,208.7z"/>
	<path class="st80" d="M97.4,208.7c-0.4,0.1,0.2,0.3,0,0.4c-0.5-0.4-0.9-0.7-1.4-1.1l0,0c0.4,0.1,0.5-0.4,0.8-0.5
		C96.8,208.1,96.9,208.5,97.4,208.7z"/>
	<path class="st81" d="M138.2,216.2c1.4,0.3,2.8,0.3,4.2,0C141,216.7,139.5,216.7,138.2,216.2z"/>
	<path class="st82" d="M111.1,216.5c-1.3,0.2-2.6,0.1-3.8-0.4C108.5,216.4,109.8,216.5,111.1,216.5z"/>
	<path class="st5" d="M103.9,218.5c-0.3-0.4-0.3-0.9,0-1.3V218.5z"/>
	<path class="st10" d="M89.2,240.5c-0.1,0.6-0.6,1.1-1.2,1c0,0-0.1,0-0.1,0c-0.3-0.1-0.6-0.2-0.9-0.4c-0.2-0.1-0.2-0.3-0.1-0.4
		l1-1.3c0.1-0.1,0.2-0.1,0.3-0.1C88.6,239.5,89,240,89.2,240.5z"/>
	<path class="st83" d="M157.7,245.3c0,0.3-0.7,1-1,1c-0.4-0.4-0.7-0.8-0.8-1.4c0.2-0.4,0.6-0.4,1-0.5
		C157.3,244.4,157.7,244.8,157.7,245.3C157.7,245.3,157.7,245.3,157.7,245.3z"/>
	<path class="st84" d="M156,242.9c0,0.4-0.3,0.8-0.7,0.9c-0.4,0.1-0.3-0.3-0.4-0.5c0-0.1-0.1-0.1-0.1-0.2c-0.1-0.2-0.5-0.3-0.2-0.6
		c0.3-0.2,0.7-0.3,1-0.2C156,242.5,155.9,242.8,156,242.9z"/>
	<path class="st83" d="M94.3,246.2c0,0.4-0.3,0.8-0.7,0.8c0,0-0.1,0-0.1,0c-0.4,0-0.8-0.1-1-0.5c0.2-0.5,0.4-1,0.8-1.3
		C93.8,245.4,94.2,245.7,94.3,246.2z"/>
	<path class="st85" d="M95.3,243.7c0,0.3-0.2,0.6-0.5,0.7c-0.4,0.2-0.7,0-1-0.1s-0.1-0.2,0-0.3c0.1-0.3,0.4-0.6,0.5-0.9
		c0-0.1,0.2-0.1,0.3,0S95.3,243.3,95.3,243.7z"/>
	<path class="st84" d="M148.4,246.2c0.5,0.5,1,1,1.5,1.5c-0.4,0.2-0.7,0.3-1.1,0.5s-0.4,0.1-0.4-0.2
		C148.4,247.3,148.4,246.8,148.4,246.2z"/>
	<path class="st85" d="M170,235.4c-0.4,0.1-0.6,0.5-0.9,0.7s-0.5,0.1-0.6-0.1c-0.1-0.4-0.3-0.9-0.5-1.3c0-0.1,0-0.2,0-0.2
		c0.1-0.1,0.2,0,0.3,0L170,235.4z"/>
	<path class="st84" d="M134.7,251.1l0.2-1.2c0.6,0.3,0.6,1,1,1.4c0.1,0.1,0.2,0.3-0.1,0.3c-0.5,0-0.9,0.4-1.4,0.1
		C134.6,251.6,134.5,251.3,134.7,251.1z"/>
	<path class="st60" d="M134.7,251.1c0,0.2,0.1,0.5-0.2,0.6C134.4,251.5,134.3,251.2,134.7,251.1z"/>
	<path class="st86" d="M99.7,246c0,0.6,0,1.2,0,1.8c0,0.4-0.2,0.4-0.4,0.3s-0.7-0.3-1.1-0.4L99.7,246z"/>
	<path class="st5" d="M95.8,155.4h-0.2c-0.3,0.1-0.7,0.1-0.8,0.2c-0.1,0.4-0.1,0.8-0.2,1.1c-0.1,0.2,0.2,0.1,0.4,0.2
		c0.8,0.1,1.3,0.8,1.4,1.6c0.1,0.4-0.1,0.9-0.5,1.1c0.8,0.4,1,1.4,0.6,2.2c-0.1,0.1-0.1,0.2-0.2,0.3c-0.9,1.3-2.2,2.3-3.6,2.9
		c-0.2,0.1-0.4,0.1-0.6,0.2c-0.5,0-0.5,0.3-0.5,0.6s0.3,0.1,0.5,0.2s0.3,0,0.4,0.1c-0.2,0.3-0.5,0.4-0.8,0.4c-0.4,0-0.6-0.3-0.4-0.6
		c0.2-0.3,0.3-0.7,0.3-1.1c0.4,0.1,0.7,0.1,1.1-0.1c0.8-0.4,1.6-0.9,2.3-1.5c0.2-0.1,0.4-0.4,0.3-0.6s-0.4,0-0.6,0s-0.6,0.1-0.9,0.2
		c-0.6,0.1-0.7,0-0.7-0.5c0-0.3,0.1-0.6-0.1-0.8c0,0-0.1,0-0.1,0c-0.3,0.1-0.5,0.5-0.8,0.3s-0.1-0.5,0-0.8c0-0.3,0.1-0.6,0.2-0.9
		c0.2-0.3,0.2-0.7,0.1-1.1h-0.1h-0.1c-0.6,0.5-1.1,1.1-1.5,1.7c-0.5,0.6-0.7,0.5-1.2,0c-0.3-0.4-0.5-0.8-0.8-1.2
		c-0.3,0.6-0.5,1.2-1.3,1.2c-0.5,0-0.8-0.3-0.9-0.9c-0.2,0.4-0.2,0.8-0.1,1.2c0,0.2,0.1,0.4,0,0.6c0,0-0.1,0-0.2,0
		c-0.2-0.5-0.4-1-0.6-1.5c-0.2-0.6-0.2-1.2,0-1.8c0.1-0.5,0.4-0.8,0.9-0.9c0.3-0.1,0.2-0.3,0.3-0.5c0.1-1.1,1-1.9,2.1-1.8
		c0.1,0,0.3,0,0.4,0.1c0.1,0,0.3,0.1,0.3,0c0.3-0.7,1-1,1.4-1.6c0.9-0.1,1.9,0,2.8,0.4c0.3,0.1,0.6,0.3,0.8,0.6
		c0.3,0.5,0.8,0.7,1.3,0.6C95.8,155.3,95.9,155.3,95.8,155.4z"/>
	<path class="st7" d="M91.4,197.3c-1,0.5-2,0.8-3.2,0.9c-0.8,0-1.6-0.1-2.3-0.4c-1.1-0.6-2.1-1.6-2.8-2.7c-0.2-0.4-0.3-0.9-0.3-1.4
		c0.5,0.3,0.9,1,1.6,0.7c0.9-0.4,0.6-1.3,0.6-2.1c0.7,0.4,1.4,0.8,2,1.3c0.5,0.3,0.6,0.1,0.7-0.3c0.2-0.7,0.4-1.5,0.6-2.2
		c0.1-0.4,0.3-0.7,0.5-1.1c0.5,1.1,0.9,2.2,1.2,3.4c0.1,0,0.1,0,0.1-0.1c0.1-0.4,0.2-1,0.7-1s0.5,0.6,0.7,0.9c0.3,0.7,0.3,0.8,1,0.3
		s1.1-0.9,1.7-1.3c0.1,0.3,0.2,0.6,0.2,0.9c0,0.5-0.2,1-0.5,1.4c-0.4,0.9-1.1,1.7-1.8,2.4C91.8,197.2,91.6,197.3,91.4,197.3z"/>
	<path class="st7" d="M93,182.5c0.4,0.5,0,0.9-0.2,1.3c-0.2,0.2-0.4,0.4-0.4,0.6l0,0c-0.5,0.5-1,0.9-1.6,1.2
		c-0.3,0.1-0.5,0.4-0.9,0.3c-0.7-1.3-2.5-1.4-3.8-1.1c-0.3,0.1-0.6,0.2-0.9,0.4c-0.4,0.4-0.7,0.2-1-0.1c-1.2-1.1-2.2-3.3-1.7-4.5
		c0.3,0.1,0.3,0.3,0.3,0.4c0.1,0.4,0.5,0.6,0.9,0.6c0.4,0,0.7-0.2,0.9-0.5c0.2-0.4,0.4-0.8,0.5-1.2c0.6,0.5,1.1,1.1,1.6,1.8
		c0.3,0.3,0.4,0.1,0.5-0.1c0.4-0.6,0.8-1.1,1.2-1.7c0.3-0.4,0.5-0.8,1-1c0,1.1,0,2.3-0.1,3.4l0.6-0.6c0.1-0.1,0.2-0.2,0.4-0.2
		c0.2,0,0.3,0.2,0.3,0.4c0,0.4,0.1,0.7,0.1,1.1s0.2,0.4,0.5,0.3C91.7,182.9,92.3,182.7,93,182.5z"/>
	<path class="st7" d="M93.1,172c-0.2,0.5-0.5,0.9-0.9,1.2c-0.1,0-0.2,0.1-0.2,0.1c-0.5,0.6-1.5,0.7-2.1,0.2
		c-1.3-0.7-2.8-0.5-3.9,0.5c-0.3,0.4-0.7,0-0.8-0.1c-1-0.9-1.7-2.1-1.9-3.4c0-0.1,0-0.2,0-0.3c0-0.1,0.1-0.3,0.1-0.5
		c0.2,0.3,0.3,0.5,0.5,0.7c0.4,0.5,1.1,0.2,1.5-0.4c0.2-0.3-0.1-0.8,0.4-0.9s0.3,0.6,0.6,0.7s0.4,0.5,0.6,0.7
		c0.4,0.5,0.5,0.1,0.7-0.1c0.5-0.8,1.2-1.6,1.8-2.3c0.4,1.1-0.2,2.1-0.1,3.2c0.4-0.1,0.3-0.4,0.5-0.6s0.2-0.2,0.4-0.1
		c0.1,0,0.2,0.2,0.2,0.3c0,0.3,0.1,0.6,0.1,0.9c0,0.4,0.1,0.4,0.5,0.3c0.6-0.3,1.3-0.5,2-0.6C93.3,171.6,93.2,171.8,93.1,172z"/>
	<path class="st7" d="M86.2,161.7c-0.1-0.6-0.1-1.3,0-1.9c0-0.1,0-0.3,0.2-0.3s0.1,0.2,0.2,0.3c0.1,0.4,0.3,0.8,0.8,0.8
		c0.4,0,0.8-0.3,0.9-0.7c0.1-0.2,0.1-0.5,0.4-0.6c0.4,0.5,0.7,1,1,1.6c0.3,0.5,0.5,0.2,0.6,0c0.4-0.4,0.8-0.9,1.2-1.3
		c0.2-0.2,0.4-0.4,0.6-0.6c0.5,0.4,0.2,0.8,0.1,1.2l-0.2,1.7l0.5-0.4c0.2-0.1,0.2-0.4,0.5-0.3s0.2,0.4,0.2,0.6s0,0.6,0,1.1
		c0.6-0.1,1.2-0.3,1.8-0.4c0.2,0,0.4-0.1,0.5,0s0,0.4-0.1,0.5c-0.3,0.5-0.7,0.8-1.2,1.1c-0.6,0.5-1.3,0.8-2.1,1.1
		c-0.3,0.1-0.5,0.1-0.6-0.3c-0.1-0.8-0.7-1.1-1.4-1.4c-0.9-0.4-1.9-0.4-2.8,0c-0.2,0.1-0.4,0-0.5-0.1c0,0,0,0,0,0
		C86.5,162.7,86.3,162.2,86.2,161.7z"/>
	<path class="st87" d="M91.4,197.3c1.3-1.1,2.3-2.5,2.9-4.2l0.1,0.1c-0.3,1.1-0.8,2.2-1.6,3.1c-0.1,0.2-0.3,0.3-0.3,0.5
		c-0.3,0.1-0.5,0.2-0.6,0.5C91.8,197.5,91.6,197.8,91.4,197.3z"/>
	<path class="st78" d="M89.9,185.8c0.8-0.3,1.6-0.8,2.2-1.4c0.1-0.1,0.2-0.2,0.3-0.1c-0.5,0.6-1.1,1.1-1.8,1.4
		c-0.2,0.1-0.6,0.1-0.6,0.5C89.9,186.2,90,186,89.9,185.8z"/>
	<path class="st88" d="M86.2,161.7c0.2,0.4,0.4,0.7,0.6,1.1c0.1,0.3,0.3,0.4,0.6,0.5c-0.1,0.2-0.3,0.3-0.5,0.3
		c-0.2-0.7-0.8-1.1-0.8-1.9H86.2z"/>
	<path class="st89" d="M90.1,186.4c0.4,0.1,0.2,0.4,0.3,0.6C89.9,187,90.2,186.6,90.1,186.4z"/>
	<path class="st90" d="M90.9,202.3c0,0.2,0.2,0.5-0.2,0.7C90.6,202.8,90.5,202.5,90.9,202.3z"/>
	<path class="st91" d="M141.4,222.7c0,0.4-0.4,0.6-0.8,0.5c-0.2,0-0.6,0-0.7-0.3c0.1-0.4,0.3-0.8,0.6-1.1
		C141,221.9,141.4,222.3,141.4,222.7z"/>
	<path class="st92" d="M112.3,221.6c0.3,0.4,0.6,0.7,0.8,1c0.1,0.1,0.1,0.2,0,0.3c-0.2,0.1-0.5,0.1-0.7,0.2c-0.1,0-0.2-0.1-0.2-0.2
		C112.2,222.4,112.2,222,112.3,221.6z"/>
	<path class="st93" d="M121.4,220.1c0.4,0.2,0.4,0.7,0.6,1c0.1,0.1,0,0.2-0.2,0.2c-0.3,0-0.5,0-0.8,0c-0.1,0-0.1-0.2,0-0.3
		C121.4,220.8,121.2,220.4,121.4,220.1z"/>
	<path class="st94" d="M105.5,202.4c-0.5,0.2-0.8,0.6-1.3,0.9c-1.7,1.1-3.9,1.1-5.7,0c0.5,0,0.9,0.1,1.4,0.3
		c1.8,0.3,3.6-0.1,5.1-1.2C105.2,202.3,105.3,202.1,105.5,202.4z"/>
	<path class="st5" d="M94.6,145c-0.3,0-0.3-0.2-0.4-0.4c-0.2-0.8-0.4-1.7-0.5-2.5c-0.1-0.8,0.5-1.6,1.3-1.8c0.3-0.1,0.2-0.3,0.3-0.4
		c0.3-0.9,1.3-1.4,2.2-1c0,0,0,0,0,0c0.2,0.1,0.3,0.1,0.4-0.1c0.3-0.4,0.8-0.7,1.3-0.8c0.3,0,0.3-0.1,0.2-0.4
		c-0.5-0.8-0.3-1.8,0.5-2.3c0.3-0.2,0.6-0.3,1-0.3c0.7,0,1.4-0.4,1.8-1c0.6-0.7,1.4-1.3,2.2-1.8c0.4-0.3,0.9-0.3,1.4-0.1
		c0.4,0.3,0.4,0.7,0.4,1.1c-0.1,0.8-0.4,1.7-0.9,2.4c-0.4,0.6-0.6,1.3-0.7,2.1c0.2,1-0.5,2-1.5,2.2c-0.1,0-0.2,0-0.3,0
		c-0.4,0-0.8,0-1.2-0.2c-0.1,0.4,0,0.8-0.3,1.1c-0.2,0.2,0,0.3,0.2,0.3c0.5,0.2,0.9,0.6,1,1.1c0.2,0.5-0.2,0.9-0.6,1.2
		c0.5,0.4,0.6,1.2,0.2,1.7c0,0,0,0,0,0c-0.4,0.4-0.8,0.8-1.3,1c0.1-0.5-0.2-0.7-0.7-0.6c-0.1,0-0.2,0-0.3,0c-0.9,0-0.9-0.1-0.7-0.8
		c0.1-0.3,0.1-0.4-0.3-0.3c-0.6,0.1-0.6,0.1-0.5-0.4s0.5-1,0.5-1.6c-0.4,0.2-0.8,0.4-1.1,0.7c-1,0.8-1.2,0.8-1.6-0.4
		c-0.1-0.2-0.2-0.5-0.3-0.7c-0.1,0.5-0.5,0.8-1,0.8c-0.5,0-0.9-0.3-0.9-0.8C94.2,143.2,94.5,143.5,94.6,145z"/>
	<path class="st5" d="M90,152.1c-0.2-0.7-0.8-1.3-0.7-2c0-0.7,0.4-1.3,1-1.5c0.2-0.1,0.2-0.2,0.2-0.3c0.1-1,0.9-1.8,1.9-1.7
		c0.1,0,0.2,0,0.3,0.1c0.1,0,0.3,0.1,0.3-0.1c0.2-0.7,0.8-0.9,1.3-1.2c1.3-0.5,2.8,0.1,3.5,1.3c0.2,0.3,0.5,0.6,0.8,0.8
		c-0.1,0-0.3,0-0.4,0c-0.3,0-0.5,0.1-0.6,0.4s0.3,0.2,0.4,0.3c0.8,0.1,1.3,0.9,1.1,1.6c-0.1,0.3-0.2,0.6-0.4,0.8
		c0.9,0.5,1,1.1,0.4,2c-0.2,0.5-0.6,0.9-1.1,1.1c0.2-0.6,0.1-0.6-0.4-0.5c-0.3,0.1-0.6,0.1-0.9,0.2s-0.6,0-0.6-0.4
		c0-0.1,0-0.2,0-0.4s0-0.4-0.4-0.3s-0.6,0.1-0.5-0.4c0-0.3,0.1-0.6,0.1-0.9c0.2-0.3,0.2-0.6,0.1-0.9c-0.4,0.3-0.7,0.7-1,1.1
		c-1,1.2-1.2,0.9-1.6-0.1c-0.1-0.2-0.2-0.4-0.4-0.5c-1.1,1.2-1.3,1.2-2.1,0.4C90,151.3,90.3,151.8,90,152.1z"/>
	<path class="st95" d="M90,152.1c-0.1-0.5-0.1-0.9,0.1-1.4c0-0.1,0-0.2,0.2-0.2c0.1,0,0.2,0.1,0.2,0.1c0.1,0.5,0.4,0.8,0.9,0.7
		c0.5-0.1,0.8-0.5,0.8-1c0-0.1,0-0.2,0.2-0.3c0.4,0.4,0.7,0.9,0.9,1.4c0.1,0.3,0.2,0.4,0.5,0.1c0.6-0.7,1.2-1.4,1.9-2
		c0.2,1-0.4,1.8-0.3,2.6c0.1,0,0.3,0,0.3-0.1c0.1-0.1,0.2-0.3,0.4-0.3s0.2,0.3,0.2,0.5c0,1,0,1,1.1,0.8c0.1,0,0.2-0.1,0.4-0.1
		c0.3,0,0.6-0.3,0.7,0c0.1,0.3-0.1,0.6-0.3,0.7l-0.2,0.4c-0.7,0.6-1.5,1-2.3,1.2c-0.7,0.3-1-0.1-1.5-0.6c-0.7-0.7-1.7-1.1-2.7-0.9
		c-0.2,0-0.5,0.2-0.7-0.1C90.4,153.2,90.1,152.7,90,152.1z"/>
	<path class="st95" d="M98.7,147.5c-0.4,0-0.7,0-0.9-0.6c-0.5-1.2-1.8-1.9-3.1-1.6h-0.3c0.1-0.1,0.3-0.2,0.2-0.4
		c-0.5-0.7-0.4-2.5,0.1-2.9c0,0.5,0.2,0.9,0.7,0.9s0.9-0.4,1-0.9c0.4,0.3,0.4,0.8,0.6,1.3s0.3,0.6,0.8,0.2c0.5-0.5,1.2-1,1.8-1.3
		c-0.1,0.4-0.2,0.8-0.3,1.2c-0.2,0.3-0.3,0.7-0.4,1.1c0.2,0.1,0.2-0.1,0.3-0.1s0.4-0.4,0.6-0.1s0.1,0.4-0.1,0.6
		c-0.3,0.5-0.2,0.6,0.4,0.6h1.5c0.1,0.4-0.3,0.5-0.3,0.7C100.6,147,99.7,147.4,98.7,147.5z"/>
	<path class="st96" d="M95.7,155.3c0.8-0.3,1.5-0.9,2.3-1.2c-0.6,0.6-1.4,1.1-2.2,1.3L95.7,155.3z"/>
	<path class="st68" d="M113,186.6h1.9c0.2,0,0.5-0.1,0.4,0.3s-0.3,0.2-0.4,0.2c-1,0-2.1,0-3.1,0c-0.4,0-0.6,0.1-0.6,0.5
		s0.3,1.1-0.1,1.4s-1,0.1-1.4,0.1h-2.3c-0.2,0-0.4,0.1-0.4-0.3s0.2-0.3,0.4-0.3c0.9,0,1.9,0,2.8,0c0.4,0,0.5-0.1,0.5-0.5
		s-0.3-1.2,0.1-1.5s1-0.1,1.6-0.1L113,186.6z"/>
	<path class="st68" d="M140.8,189.2c-0.6,0-1.2,0-1.8,0c-0.3,0-0.5-0.1-0.4-0.4c0-0.3,0-0.5,0-0.8c0-0.8,0-0.8-0.9-0.8h-2.8
		c-0.2,0-0.4,0-0.4-0.2s0.2-0.3,0.4-0.3h3.9c0.3,0,0.4,0.1,0.4,0.4c0,0,0,0.1,0,0.1c0,0.5-0.2,1.1,0.1,1.4s1,0.1,1.6,0.1
		s1.2,0,1.8,0c0.2,0,0.4,0,0.4,0.3s-0.2,0.2-0.4,0.2L140.8,189.2L140.8,189.2z"/>
	<path class="st97" d="M92.2,160.1c-0.1-0.4,0.2-0.8-0.1-1.2c0.1-0.2,0.3-0.4,0.3-0.1S92.7,159.7,92.2,160.1z"/>
</g>
</svg>
