<svg id="Layer_1" data-name="Layer 1" xmlns="http://www.w3.org/2000/svg" viewBox="0 0 250 350"><defs><style>.cls-1{fill:#989494;}.cls-2{fill:#332c2b;}.cls-3{fill:#9d9a99;}.cls-4{fill:#fefefe;}.cls-5{fill:#feef00;}.cls-6{fill:#fdfdfd;}.cls-7{fill:#5fa676;}.cls-8{fill:#009a4c;}.cls-9{fill:#fcfcfc;}.cls-10{fill:#fdef00;}.cls-11{fill:#fbfbfb;}.cls-12{fill:#a4a0a1;}.cls-13{fill:#2d2625;}.cls-14{fill:#352f2f;}.cls-15{fill:#2f2827;}.cls-16{fill:#373a3d;}.cls-17{fill:#353232;}.cls-18{fill:#383637;}.cls-19{fill:#362f2b;}.cls-20{fill:#544e4d;}.cls-21{fill:#504a49;}.cls-22{fill:#373f45;}.cls-23{fill:#322b2a;}.cls-24{fill:#484141;}.cls-25{fill:#5e5857;}.cls-26{fill:#aaa58b;}.cls-27{fill:#89813f;}.cls-28{fill:#a89e3b;}.cls-29{fill:#9f9c9b;}.cls-30{fill:#008ed6;}.cls-31{fill:#00a1e8;}.cls-32{fill:#332c2c;}.cls-33{fill:#5fa573;}.cls-34{fill:#030301;}.cls-35{fill:#040400;}.cls-36{fill:#d7cb00;}.cls-37{fill:#5da16f;}.cls-38{fill:#079dde;}.cls-39{fill:#cec200;}.cls-40{fill:#c2b600;}.cls-41{fill:#c9bd00;}.cls-42{fill:#cbbf00;}.cls-43{fill:#c3b800;}.cls-44{fill:#cabe00;}.cls-45{fill:#b3a800;}.cls-46{fill:#c5b900;}.cls-47{fill:#4f6863;}.cls-48{fill:#418168;}.cls-49{fill:#849f36;}.cls-50{fill:#b7ac00;}.cls-51{fill:#3d422c;}.cls-52{fill:#6f832e;}.cls-53{fill:#638d47;}.cls-54{fill:#557f47;}.cls-55{fill:#498766;}.cls-56{fill:#6e903d;}.cls-57{fill:#010101;}.cls-58{fill:#020202;}.cls-59{fill:#828282;}.cls-60{fill:#787878;}.cls-61{fill:#6a6a6a;}.cls-62{fill:#505050;}.cls-63{fill:#5a5a5a;}.cls-64{fill:#929292;}.cls-65{fill:#8b8b8b;}.cls-66{fill:#d4d8d5;}.cls-67{fill:#c3c8c4;}.cls-68{fill:#342d2c;}.cls-69{fill:#352e2d;}.cls-70{fill:#cdd6d2;}.cls-71{fill:#989594;}.cls-72{fill:#888483;}.cls-73{fill:#a9a6a6;}.cls-74{fill:#a7a4a3;}.cls-75{fill:#9f9c9c;}.cls-76{fill:#959191;}.cls-77{fill:#999696;}.cls-78{fill:#1d8db6;}.cls-79{fill:#afb9b4;}.cls-80{fill:#0a9dde;}.cls-81{fill:#4e757c;}.cls-82{fill:#1c5f7e;}.cls-83{fill:#1e5c79;}.cls-84{fill:#fafafa;}.cls-85{fill:#f8f8f8;}.cls-86{fill:#f6f6f6;}.cls-87{fill:#f0f0f0;}.cls-88{fill:#d3d6ce;}.cls-89{fill:#c6d0d0;}.cls-90{fill:#666565;}.cls-91{fill:#9ab7a7;}.cls-92{fill:#f9f9f9;}.cls-93{fill:#f7f7f7;}.cls-94{fill:#e8e8e8;}.cls-95{fill:#1c89b2;}.cls-96{fill:#019a4c;}.cls-97{fill:#91a9ae;}.cls-98{fill:#87ae99;}</style></defs><title>smkjatim</title><g id="smkjatim"><path class="cls-1" d="M121.74,92.91a.38.38,0,0,0,0-.1h6.52l0,.1a1,1,0,0,1-.78.22q-2.5,0-5,0A1,1,0,0,1,121.74,92.91Z"/><path class="cls-2" d="M121.74,92.91h6.55a137.68,137.68,0,0,1,31.09,4.53c1.52.4,3,.84,4.54,1.24.42.11.63.28.61.74a12.14,12.14,0,0,0,.8,4.6,19.33,19.33,0,0,0,3.51,6,24,24,0,0,0,11.5,7.4,21.19,21.19,0,0,0,5.67.92c.53,0,.63.18.63.65q0,34,0,67.93a60.53,60.53,0,0,1-.56,7.06,41.84,41.84,0,0,1-1,5.24c-.48,1.92-1,3.83-1.69,5.7a60.67,60.67,0,0,1-5.31,11,43.25,43.25,0,0,1-3.52,5c-.22.25-.28.47.09.75,2.11,1.56,4.17,3.17,6.28,4.71a50.4,50.4,0,0,0,4.28,3.12A2.71,2.71,0,0,1,186,233a20.88,20.88,0,0,1-3.85,4.47c-1.23,1.24-2.52,2.42-3.85,3.56s-3,2.46-4.51,3.62c-2.21,1.64-4.47,3.21-6.85,4.64-.12.07-.22.25-.38.17s-.09-.29-.1-.44c0-1.26,0-2.53,0-3.89a77.56,77.56,0,0,1-83.14-.11c0,1.42,0,2.72,0,4,0,.14.1.35-.13.42s-.25-.12-.37-.2q-3.18-2-6.18-4.17c-1.79-1.32-3.52-2.7-5.21-4.13s-3.49-3.19-5.16-4.86a27.1,27.1,0,0,1-2.23-2.6c-.88-1.14-.67-3.27.47-3.94A26.23,26.23,0,0,0,66.9,228c1.94-1.44,3.84-2.92,5.76-4.38.93-.7,1.86-1.4,2.81-2.06.27-.19.28-.33.11-.54a41,41,0,0,1-3.24-4.54A60.57,60.57,0,0,1,69.2,211c-.6-1.24-1.15-2.49-1.67-3.75-.61-1.45-1.15-2.92-1.61-4.42-.41-1.33-.75-2.68-1.08-4a37.55,37.55,0,0,1-1.12-6.7c-.22-.26,0-.62-.22-.89-.32-10.8-.1-21.59-.12-32.39,0-13.23,0-26.45,0-39.68,0-.52.1-.71.72-.73A23.69,23.69,0,0,0,76,114.61a24.77,24.77,0,0,0,5.6-4.91,20,20,0,0,0,3.78-7.77,8,8,0,0,0,.22-2.37c0-.6.27-.81.78-1C89.19,97.8,92,97,94.94,96.37a144.73,144.73,0,0,1,14.6-2.55A121.32,121.32,0,0,1,121.74,92.91Z"/><path class="cls-3" d="M63.5,191.17c.4.23.21.58.22.89C63.33,191.84,63.5,191.49,63.5,191.17Z"/><path class="cls-4" d="M66.5,186.16c0-.22,0-.45,0-.67q0-32,0-64c0-.63.17-.78.84-.82a19,19,0,0,0,7.38-2.1,27.08,27.08,0,0,0,7.94-5.87,19.59,19.59,0,0,0,3-4.05,22.72,22.72,0,0,0,1.74-4,12.07,12.07,0,0,0,.51-3.16.58.58,0,0,1,.5-.59,119.74,119.74,0,0,1,15.83-3.58,141.21,141.21,0,0,1,25.32-1.43,123.22,123.22,0,0,1,26.21,3.42c1.92.47,3.81,1.05,5.72,1.57.34.09.48.2.5.57a14.68,14.68,0,0,0,1.29,5.28,20.5,20.5,0,0,0,2.85,4.56A26.25,26.25,0,0,0,178.74,120a13.28,13.28,0,0,0,4.06.72c.57,0,.72.14.72.68q0,11.46,0,22.91,0,20.58,0,41.17c0,.22,0,.45,0,.67a.79.79,0,0,1-.53.19,34.68,34.68,0,0,1-3.53,0c-.3-.09-.36-.32-.38-.58s0-.53,0-.8q0-29.59,0-59.18a5.58,5.58,0,0,1,0-.67c.06-.47-.18-.66-.64-.74a22.43,22.43,0,0,1-4.87-1.51,29.24,29.24,0,0,1-7-4.29,24.94,24.94,0,0,1-5.15-5.55,20.46,20.46,0,0,1-2.52-4.88c-.34-1-.67-2.1-.91-3.17a.7.7,0,0,0-.58-.57c-3.38-1-6.79-1.86-10.25-2.52-3.25-.62-6.52-1.13-9.82-1.43-.95-.09-1.89-.22-2.85-.26a19.31,19.31,0,0,1,5.75,4.89A20.44,20.44,0,0,1,144,113a.46.46,0,0,1,0,.24c-.25.32-.55.16-.82.06-1.69-.63-3.43-1.16-5.13-1.77-.72-.26-.71-.26-1,.42s-.51,1.43-.8,2.13-.15.66.48.88c2.45.87,4.94,1.66,7.39,2.55a.73.73,0,0,1,.47.31,5.92,5.92,0,0,1,0,1.92,1.55,1.55,0,0,0-.2,1.06,13.09,13.09,0,0,1-1,4.08,26.32,26.32,0,0,1-1.25,2.81,17.57,17.57,0,0,1-2.1,3.08c-.29.35-.37.56,0,.88a3.87,3.87,0,0,1,1.42,3.27,17.17,17.17,0,0,1-.08,2.75,3.85,3.85,0,0,1-3.12,3.15c-.06,0-.13,0-.19.16a2.79,2.79,0,0,1,.4,2c0,1.49,0,3,0,4.47,0,.14,0,.29,0,.43s0,.43-.19.48-.26-.21-.33-.36a.82.82,0,0,0-.77-.56.81.81,0,0,1-.67-.32,11.47,11.47,0,0,1-.09-2.25c0-.38,0-.7-.42-1s-.32-.9-.35-1.37c-.06-.93.11-1.86,0-2.79a1.15,1.15,0,0,0-.17-.63c-.24-.68.13-1.36,0-2a2.17,2.17,0,0,0-.27-.85c-.57-.8-1.11-1.61-1.67-2.41-.45-.65-.54-.59-1.3-.23a1.91,1.91,0,0,0-1.18,2.12c.08,1.57,0,3.14,0,4.71,0,.3.08.62-.16.88-.08.09,0,.12,0,.18a1,1,0,0,1,.15.76q0,11.18,0,22.35a1.67,1.67,0,0,1,0,.55.3.3,0,0,1-.45.21,21.39,21.39,0,0,1-2.19-2.66,36.78,36.78,0,0,1-.17-5.25c-.1-3,0-6-.2-9-.18-2.28-.06-4.54-.18-6.81a2,2,0,0,0-.09-.54c-.09-2.14,0-4.28,0-6.42.05-1.46-.09-2.92.08-4.37a.57.57,0,0,0-.13-.4,9.12,9.12,0,0,1-.46-2.24,10.79,10.79,0,0,0-.25-1.85,6.76,6.76,0,0,0-1.73-3,1,1,0,0,1-.25-.8q0-3.28,0-6.55a1,1,0,0,1,.14-.59c.26-.22.48-.08.7.06,1.3.84,2.62,1.65,3.9,2.52.79.54,1.63,1,2.38,1.57.18-.38,0-.73-.17-1-.47-1.19-.64-2.45-1.11-3.63-.33-.84-.47-1.73-.82-2.57a1,1,0,0,0-.68-.61c-1.2-.34-2.37-.78-3.58-1.1-.16,0-.33-.14-.48,0-.11,1.14,0,2.28-.05,3.42,0,.27.1.66-.44.63-.24-.26-.18-.57-.19-.87,0-1.08.07-2.15-.06-3.22a3.61,3.61,0,0,0-1.3.35c-.89.25-1.77.53-2.66.8a.88.88,0,0,0-.67.66q-.89,3.14-2,6.24a1.94,1.94,0,0,0-.15.77,11.56,11.56,0,0,0,2.14-1.28c1.34-.93,2.76-1.76,4.13-2.66.53-.35.75-.26.76.34q0,3.52,0,7a1.15,1.15,0,0,1-.35.83,4.44,4.44,0,0,0-1.21,2.05,8.36,8.36,0,0,0-.52,2.79,29.26,29.26,0,0,0-.12,4,6.37,6.37,0,0,1,0,1,1.82,1.82,0,0,0-.08.66c0,.47,0,.94,0,1.41.07,3.62-.32,7.23-.31,10.85,0,1.87,0,3.75-.09,5.62-.17,2.28,0,4.57-.17,6.84-.12,1.32-.15,2.63-.21,3.94-.21.94-1,1.51-1.58,2.24-.24.32-.46.7-.93.8-.31,0-.3-.25-.32-.44a5.36,5.36,0,0,1,0-.67q0-10.84,0-21.69a2.76,2.76,0,0,1,.14-1.13c.08-.2-.15-.59-.15-.91,0-1.67,0-3.35,0-5a1.64,1.64,0,0,0-1.1-1.78c-1.06-.48-1-.53-1.65.39a11.66,11.66,0,0,1-.95,1.32,3.33,3.33,0,0,0-.79,2.85,8.06,8.06,0,0,1-.13,1.64c-.06,1.06,0,2.12,0,3.18,0,.5,0,1-.71,1-.15,0-.18.16-.22.28a6.21,6.21,0,0,0-.35,2.19.83.83,0,0,1-.61.88c-.21.11-.36.41-.66.29s-.27-.44-.27-.69q0-2.29,0-4.57a1.87,1.87,0,0,1,.66-1.51,3.92,3.92,0,0,1-3.4-3.18c0-1.06,0-2.12,0-3.18a3.48,3.48,0,0,1,1.34-2.92c.35-.3.3-.48,0-.81a19.42,19.42,0,0,1-3.16-5.37,28.81,28.81,0,0,1-1.13-4.06,25.49,25.49,0,0,1-.34-3,1.56,1.56,0,0,1,.08-.73c.33-.44.89-.49,1.37-.64,2.13-.7,4.23-1.5,6.37-2.16.46-.14.6-.32.42-.8-.29-.75-.53-1.51-.85-2.24s-.32-.65-1-.4c-1.54.57-3.1,1.07-4.65,1.6a1.62,1.62,0,0,1-.75.16c-.41-.17-.35-.48-.24-.78.45-1.23.83-2.47,1.39-3.67a19.52,19.52,0,0,1,1.77-2.91,17.34,17.34,0,0,1,2.61-3,18.58,18.58,0,0,1,3.72-2.67c-1.33.17-2.65.28-4,.42-1.64.18-3.26.4-4.89.64a100.35,100.35,0,0,0-11,2.31c-1.08.29-2.17.59-3.24.92a.68.68,0,0,0-.53.6,21,21,0,0,1-2.14,5.93,24.72,24.72,0,0,1-3.34,4.64,34.29,34.29,0,0,1-3.36,3.14,28.61,28.61,0,0,1-6.09,3.81,23.13,23.13,0,0,1-5.06,1.72c-1.26.29-1.1.06-1.1,1.3q0,29.8,0,59.6c0,.37.13.78-.23,1.1a19.14,19.14,0,0,1-3.95.06A.44.44,0,0,1,66.5,186.16Z"/><path class="cls-5" d="M149.38,221.57c-.33,0-.38.3-.49.52s-.14.41-.3.57a44.38,44.38,0,0,1-4.69,4.19c-.48.34-.89.77-1.39,1.09a1.13,1.13,0,0,1-.63.28,5.81,5.81,0,0,1-1.62-.67c0-.25.21-.34.39-.45a32.59,32.59,0,0,0,6.23-4.93,4.76,4.76,0,0,1,.87-.9,1.44,1.44,0,0,0,.53-.56c.18-.24.07-.46,0-.7a9.77,9.77,0,0,0-1.7-2.65,6.29,6.29,0,0,1-1.64-4.45,3.34,3.34,0,0,0-.1-.6c.06-.58.09-1.15.15-1.73s.13-1.13.26-1.69a10.84,10.84,0,0,0,.57-1.4,20,20,0,0,0,1-2.08c.19-.44.66-.83.28-1.37a14.82,14.82,0,0,1-2.13-1.54c-.08-.09-.19-.05-.29,0a2.72,2.72,0,0,1-.82.47,8.91,8.91,0,0,1-6.49.26,2.87,2.87,0,0,1-1-.45,4,4,0,0,1-1-1.62c-.17-.33-.24-.41-.57-.12a3.09,3.09,0,0,1-4.3,0,4,4,0,0,1-1.38-3.06c0-1.51,0-3,0-4.53.1-2.1-.44-4.17-.26-6.27,0-.29-.1-.63.28-.81.45.09.58.5.83.78a10.62,10.62,0,0,1,.75.9,12.45,12.45,0,0,0,1.59,2.25,1.33,1.33,0,0,0,.65.47c1.41,0,2.82,0,4.23,0,5.73,0,11.46,0,17.19,0a.5.5,0,0,0,.18-.09c.15-.2.08-.43.12-.65s0-.43.32-.43a2.75,2.75,0,0,1,.54.68.51.51,0,0,0,.62.21c.29-.12.15-.36.06-.53-.77-1.51-.52-3.11-.45-4.69a8.9,8.9,0,0,1,.12-1.4,2.75,2.75,0,0,0,.08-1,18.55,18.55,0,0,0,.29-3.33c0-.14,0-.32.18-.36s.24.14.31.26a29.87,29.87,0,0,0,2.25,3.06,13.29,13.29,0,0,1,1.48,2.22,2.42,2.42,0,0,0,.38.8,13.21,13.21,0,0,1,.26,4.58c-.18.64,0,1.31-.22,1.94a32.87,32.87,0,0,1-.72,3.53,2,2,0,0,0,0,1.08c.57-2,1-4,1.42-6a12.83,12.83,0,0,1,.17-2,8.42,8.42,0,0,0-.15-3c0-.21-.17-.37-.24-.56a11.85,11.85,0,0,0-2.9-4.85,6,6,0,0,1-1.69-4.31c0-2.38,0-4.76,0-7.15a1.08,1.08,0,0,0-.16-.73c0-.52.26-.39.49-.16a10.42,10.42,0,0,1,1,1.29,31.84,31.84,0,0,1,3.66,5.7,6.26,6.26,0,0,1,.37,1.61,21.54,21.54,0,0,1,.35,4.74,3,3,0,0,1-.18,1.14.8.8,0,0,0,0,.66,7.82,7.82,0,0,1,.33,1.3,6.23,6.23,0,0,1,.23-2.1,28.35,28.35,0,0,0,0-6.71,9.37,9.37,0,0,0-1.31-3,16.21,16.21,0,0,0-3-3.63,7.82,7.82,0,0,1-2.12-4,27.25,27.25,0,0,1-.7-4.28,18.3,18.3,0,0,0-.57-2.45c0-.16-.1-.34.05-.46s.34,0,.43.15c1.22,1.56,3,2.49,4.48,3.81a7.91,7.91,0,0,1,2.41,4.95,30.88,30.88,0,0,1,.31,4.56,7.89,7.89,0,0,0,.34,1.36,2.29,2.29,0,0,0-.09-1.63c-.21-1-.16-2.12-.36-3.16-.24-1.25-.47-2.5-.78-3.75-.69-2.81-2.93-4.32-5.19-5.85a6,6,0,0,1-2.09-2.37,36.77,36.77,0,0,1-1.6-4.58,12.59,12.59,0,0,1-.52-1.38c0-.16-.1-.34.07-.45s.34,0,.46.12c1.52,1.37,3.33,2.42,4.84,3.81a8.15,8.15,0,0,1,2,3,24.43,24.43,0,0,1,1,3.3,3.52,3.52,0,0,0,.35.92c-.62-2-1-3.93-1.6-5.8a6.29,6.29,0,0,0-3-3.4,26.18,26.18,0,0,1-4.2-2.88,6.29,6.29,0,0,1-1.63-2.54,17.89,17.89,0,0,0-1.44-3.66c-.09-.14-.18-.32,0-.45s.34,0,.47.07a25.3,25.3,0,0,1,4.74,2.89,11.05,11.05,0,0,1,2.11,3,19,19,0,0,1,1,2.45,5.21,5.21,0,0,0,.53.86,25.18,25.18,0,0,0-1.31-3.07,38.13,38.13,0,0,0-2.45-4.51,4.9,4.9,0,0,0-1.74-1.54,14.09,14.09,0,0,1-4.68-3.64,19.52,19.52,0,0,1-1.86-3.08,48.41,48.41,0,0,0-2.42-4.87c-.09-.15-.29-.32-.09-.49s.37,0,.52.11c1.59,1.08,3.35,1.89,4.95,3a12.63,12.63,0,0,1,4.91,5.87c.48,1.2.79,2.46,1.36,3.63.66,1.35,1.39,2.67,2.06,4,.53,1,1,2.13,1.41,3.21.34.82.5,1.69.9,2.48,0,.38.22.73.29,1.23a9.78,9.78,0,0,0-.41-1.79c-.39-1.4-.95-2.74-1.41-4.12a4.05,4.05,0,0,1-.18-.52,55.6,55.6,0,0,1-.77-6.29c0-.17,0-.37.31-.39.8.86,1.46,1.82,2.25,2.68a7.12,7.12,0,0,1,1.86,5c0,1.64-.18,3.26-.32,4.88a7.72,7.72,0,0,0-.18,2.3c.22,1,.26,2.07.53,3.08a39.84,39.84,0,0,1,1.2,5.13s0,.12.1.14a1,1,0,0,1-.14-.72,11.41,11.41,0,0,0-.78-4.5,7.21,7.21,0,0,1-.21-4,16.13,16.13,0,0,0,.48-4.43c0-.26-.07-.64.21-.71s.46.31.6.55a24.42,24.42,0,0,0,1.45,2.25,8,8,0,0,1,1.12,6.75c-.27,1.15-.76,2.26-1.14,3.38a14.22,14.22,0,0,0-.75,6.09,22.9,22.9,0,0,1,.24,6,10.47,10.47,0,0,0,.2-4.88,15.36,15.36,0,0,1-.22-2.48,2.24,2.24,0,0,1,.08-.73,1.24,1.24,0,0,0,.2-.83,15.87,15.87,0,0,1,1.36-3.69,16.82,16.82,0,0,0,1-3.42c0-.12,0-.24,0-.37s0-.27.17-.31.24.12.32.23a9.59,9.59,0,0,1,.58,1.55,15.61,15.61,0,0,1,1.32,9.15,6.52,6.52,0,0,1-1.26,2.53,23.89,23.89,0,0,0-3.3,6.35,1.86,1.86,0,0,0-.1.48q-.08,2.48-.25,4.95a9,9,0,0,1-.26,1.31,8.46,8.46,0,0,0,1-4.21A10.27,10.27,0,0,1,167.5,173a13,13,0,0,0,2.52-4.45c.11-.19.22-.37.5-.28a.36.36,0,0,1,.12.21c.23,2.1,1,4.14.84,6.29a11.69,11.69,0,0,1-1.93,6.19,13,13,0,0,1-2.15,2.12,25,25,0,0,0-2.75,2.93,6.16,6.16,0,0,0-1.47,3.17c0,.53-.27,1-.32,1.53a23.62,23.62,0,0,1-1,5.1,19.9,19.9,0,0,0,1.64-5.15A9.75,9.75,0,0,1,165.6,186a38.31,38.31,0,0,1,3-2.79,8.55,8.55,0,0,0,2.51-3.66c.05-.17.09-.4.35-.38s.26.24.33.41a.7.7,0,0,1,.06.24,49.83,49.83,0,0,1,.12,5.61,2.87,2.87,0,0,0-.08.94,8.76,8.76,0,0,1-3.83,6.35c-.91.66-1.89,1.23-2.85,1.83a15.24,15.24,0,0,0-3.16,2.88,11.66,11.66,0,0,0-1.88,3.6c-.46,1.08-.79,2.2-1.25,3.28a.64.64,0,0,0,0,.54,4.89,4.89,0,0,0,1.27-1.94,36.31,36.31,0,0,1,2.11-4.39A8,8,0,0,1,165,196c1.16-.72,2.44-1.26,3.54-2.06a11,11,0,0,0,2-2c.14-.17.28-.45.54-.36s.21.38.16.6c-.39,1.79-.64,3.62-1.17,5.38a6.38,6.38,0,0,1-2.15,3.36,15.74,15.74,0,0,1-2.51,1.41,33.73,33.73,0,0,0-3.77,2.17,21.14,21.14,0,0,0-3.18,2.62,1.51,1.51,0,0,0-.31.6,30.79,30.79,0,0,1-2.43,4.88,10.33,10.33,0,0,0,2.67-3.71,10,10,0,0,1,5.78-5,14.76,14.76,0,0,0,4.31-2.1c.11-.09.25-.22.4-.13s.13.29.08.45c-.15.49-.33,1-.5,1.45a20.23,20.23,0,0,1-1.53,3.88,7.12,7.12,0,0,1-2.29,2.3,59.54,59.54,0,0,1-5.77,2.83,24.59,24.59,0,0,0-5.08,3.29,11.36,11.36,0,0,0-1.29,1.68c-.58.71-1.06,1.49-1.62,2.22-.08.1-.18.21-.08.33s.24.08.37,0a1.78,1.78,0,0,0,.87-.61,51.69,51.69,0,0,1,3.5-3.87,12.85,12.85,0,0,1,3.24-2.14c1.56-.71,3.25-1.16,4.74-2a11.54,11.54,0,0,0,1.37-.93c.1-.07.21-.18.34-.09s.08.22.06.34a.81.81,0,0,1-.11.29,25.4,25.4,0,0,0-1.91,4.08c-1.15,2.8-3.47,4.22-6.36,5a24.5,24.5,0,0,1-3.66.55A15.88,15.88,0,0,0,149.38,221.57Z"/><path class="cls-6" d="M65.76,229.49c2.2-1.64,4.4-3.22,6.53-4.87,1.12-.86,2.27-1.69,3.38-2.56.27-.21.42-.19.6,0a61.69,61.69,0,0,0,11.25,10.66c.18.13.32.26.28.51-.31,2,.79,3.35,2.66,4a11.06,11.06,0,0,1,4.13,2.5c1.39,1.27,2.63.92,3.82.09a.94.94,0,0,1,1.09-.06,51.2,51.2,0,0,0,10,3.31,40.83,40.83,0,0,0,8,1.08,13.38,13.38,0,0,1,6,2,4.4,4.4,0,0,1,1.27.91c.29.32.52.27.86,0a10.38,10.38,0,0,1,6.38-2.82,52,52,0,0,0,17.57-4.13l.06,0c.94-.47,1.74-.79,2.78.06a2.53,2.53,0,0,0,3.42-.51,7.94,7.94,0,0,1,3.75-2.3,4.27,4.27,0,0,0,2.68-2.09,3.15,3.15,0,0,0,.19-1.93.86.86,0,0,1,.44-.91,59.9,59.9,0,0,0,5.09-4.26c1.63-1.5,3.1-3.14,4.61-4.75a10.35,10.35,0,0,0,.89-1.17c.27-.39.52-.47.95-.14,1.71,1.32,3.46,2.59,5.18,3.9,1.55,1.18,3.09,2.38,4.69,3.61a5.26,5.26,0,0,0-2.74,2.09c-1.48,1.66-3,3.27-4.65,4.8s-3.33,3-5.1,4.34-3.31,2.46-5,3.57a78.39,78.39,0,0,1-28.29,11.12,73.74,73.74,0,0,1-17.3,1.09,78.3,78.3,0,0,1-19.87-3.72,79.54,79.54,0,0,1-14.95-6.64,72,72,0,0,1-7-4.6,66.3,66.3,0,0,1-6.52-5.44,53.67,53.67,0,0,1-5.14-5.45A4.68,4.68,0,0,0,65.76,229.49Z"/><path class="cls-7" d="M66.5,186.16h4.26a9.27,9.27,0,0,1,2.13.07h7.47a8,8,0,0,1,1.85.22c.43.51.16,1.12.26,1.68a.69.69,0,0,1-.19.51,2.23,2.23,0,0,0-.41,2.14,1,1,0,0,1-.23,1,1.83,1.83,0,0,0-.15,1.81,2.18,2.18,0,0,0,.84,1.2c.63.46,1.07,1.11,1.67,1.61a8.34,8.34,0,0,0,1.93,1.31,1,1,0,0,1,.81,1.4,2.83,2.83,0,0,0,0,1.28c.09.44-.06.71-.58.74a2.85,2.85,0,0,0-2.55,2.13,3,3,0,0,0,1.26,3.23,2.24,2.24,0,0,0,1.29.36.81.81,0,0,1,.72.42,5.11,5.11,0,0,0,2.34,1.77,3.46,3.46,0,0,1,.63.29,3,3,0,0,0,1.11.31c.35.05.43.19.26.5a3.53,3.53,0,0,0,.09,3.44c.2.39.13.63-.32.82a2.48,2.48,0,0,0-1.61,2.25,6.33,6.33,0,0,0,0,2,2.71,2.71,0,0,0,3.72,1.82.76.76,0,0,1,.88.14c.36.29.61.7,1.09.85a.52.52,0,0,1,.36.26,1,1,0,0,0,.93.52c.41.15.83.25,1.23.42a3.4,3.4,0,0,0,2.25-.24c.23-.12.45-.33.75-.15a2.73,2.73,0,0,0,.9,2.2c.27.33.34.47-.1.73a49.4,49.4,0,0,0-4.7,3c-.86.64-1.69,1.31-2.52,2-.4.33-.74.61-1.23.09-.23-.25-.64-.36-.88-.61-.4-.42-.68-.19-1,.09a2.62,2.62,0,0,0-.46.57c-.38.72-.77.5-1.28.14a64,64,0,0,1-5.81-4.78c-.2-.18-.22-.33,0-.52s.26-.27.39-.4c.32-.34.86-.69.82-1.08s-.59-.65-.93-1A12.3,12.3,0,0,1,82.25,221c-.17-.22-.3-.24-.51-.06s-.74.56-1.08.86a.54.54,0,0,1-.9-.06c-.59-.74-1.19-1.48-1.75-2.24-1.06-1.44-2.1-2.89-3.14-4.34-.24-.34-.45-.65.19-.88.43-.16.74-.53,1.17-.74s.14-.44,0-.64a30.31,30.31,0,0,1-1.6-2.88c-.33-.7-.42-.73-1.12-.37l-.29.13c-1.15.58-1.2.6-1.66-.51-.61-1.44-1.3-2.85-1.86-4.31a24.55,24.55,0,0,1-1.11-3.4c-.1-.47,0-.75.53-.91,1.42-.43,1.5-.47,1.09-1.86-.34-1.15-.45-2.33-.75-3.48-.09-.34-.29-.3-.53-.26-.49.09-1,.18-1.46.29-.29.07-.41,0-.45-.28A43.26,43.26,0,0,1,66.5,186.16Z"/><path class="cls-7" d="M149.38,221.57c.06-.27.3-.3.54-.36a39.78,39.78,0,0,1,5.43-.85,11.25,11.25,0,0,0,6.34-2.87,6.74,6.74,0,0,0,1.29-2c.77-1.54,1.31-3.19,2.21-4.68a3.13,3.13,0,0,0,.15-.42,16.73,16.73,0,0,1-5.68,2.92,13.86,13.86,0,0,0-5.84,4.41,14.76,14.76,0,0,1-2.12,2.34,1.54,1.54,0,0,1-.57.27.49.49,0,0,1-.58-.16c-.13-.2,0-.36.16-.49,1-1.14,1.72-2.39,2.65-3.54a10.82,10.82,0,0,1,2.27-1.86,40.56,40.56,0,0,1,6.48-3.38,12.42,12.42,0,0,0,3.8-2.35,6.77,6.77,0,0,0,1.43-2.18,30.63,30.63,0,0,0,1.22-3.62c.09-.34.41-.62.35-1.07a12.71,12.71,0,0,1-2.34,1.46,38.47,38.47,0,0,0-3.75,1.5,10.3,10.3,0,0,0-3.72,3.42c-.57.9-.94,1.89-1.51,2.78a7.09,7.09,0,0,1-2.17,2.14,17.08,17.08,0,0,1,.79-1.57,12.28,12.28,0,0,0,1.48-3c.43-1.51,1.69-2.35,2.85-3.28a45.17,45.17,0,0,1,6.54-3.86,5.41,5.41,0,0,0,2.53-2.92,25.8,25.8,0,0,0,1.17-4.82,12.74,12.74,0,0,0,.37-1.95,13.5,13.5,0,0,0-1.4,1.54,12.77,12.77,0,0,1-3.11,2.14,12.39,12.39,0,0,0-3.8,2.65,11.87,11.87,0,0,0-1.45,2.39c-.59,1.24-1.07,2.53-1.7,3.76a1.7,1.7,0,0,1-1.12,1.09c-.17-.17,0-.31,0-.46.65-1.8,1.3-3.61,2.07-5.37a12.48,12.48,0,0,1,5.24-5.44,15.32,15.32,0,0,0,4-3.12,6.83,6.83,0,0,0,1.2-2,8.88,8.88,0,0,0,.62-2.28c.24-.25.56-.19.85-.19,1.52,0,3,0,4.55,0a10.32,10.32,0,0,1,2.26,0l4.13,0a6.59,6.59,0,0,0-.08.72c0,2.48-.44,4.93-.54,7.4,0,.32-.28.58-.27.92,0,.17-.19.1-.31.08l-1.15-.18c-.81-.14-1,0-1.1.75s-.24,1.74-.4,2.6c-.08.43-.25.85-.37,1.27s0,.49.36.57a9.83,9.83,0,0,1,1.34.46c.2.08.48.19.32.43a10.7,10.7,0,0,0-.69,2.12c-.48,1.2-.88,2.44-1.39,3.63-.45,1-1,2.05-1.43,3.09-.13.29-.31.22-.51.13a11.41,11.41,0,0,1-1.18-.62c-.38-.24-.57-.28-.82.19-.56,1.08-1.21,2.12-1.83,3.18-.17.29-.17.52.2.7s.63.43,1,.58c.53.23.53.53.25.92-1.36,1.83-2.53,3.78-4.06,5.5a7.17,7.17,0,0,0-.8,1c-.23.38-.54.44-.92.13s-.74-.55-1.12-.83c-.18-.14-.36-.15-.5,0a23.77,23.77,0,0,1-2.43,2.57c-.14.13-.18.17,0,.36a12.81,12.81,0,0,0,1,1.16c.24.25.29.47,0,.72a64.43,64.43,0,0,1-6.14,5c-.28.19-.42.23-.6-.07a3.83,3.83,0,0,0-.54-.67c-.6-.63-.58-.65-1.37-.14s-1,.64-1.76,0a50.4,50.4,0,0,0-6.85-4.65c-.39-.22-.37-.31-.08-.65C149.46,223.7,150,222.74,149.38,221.57Z"/><path class="cls-6" d="M147.83,221.4c-.84.82-1.65,1.67-2.52,2.45a31.8,31.8,0,0,1-4.81,3.5,2.21,2.21,0,0,0-.24.19,8.64,8.64,0,0,1-2-.61,36.45,36.45,0,0,0-6.83-1.63,2.09,2.09,0,0,0-1.44.18.74.74,0,0,1-.5.05,34.7,34.7,0,0,0-8.76,0,.42.42,0,0,1-.19,0c-1.7-.72-3.32,0-4.93.33a32.93,32.93,0,0,0-5.28,1.61,1.76,1.76,0,0,1-.8.2,9.94,9.94,0,0,1-2.77-1.67,27.56,27.56,0,0,1-3.67-3.1c-.36-.4-.82-.73-.95-1.28a.58.58,0,0,1,.2-.34,30.23,30.23,0,0,1,5.14-2.2,53.2,53.2,0,0,1,13.53-3,50.65,50.65,0,0,1,8.9.06,56.26,56.26,0,0,1,8.52,1.41,39.28,39.28,0,0,1,8.83,3.24C147.49,221,147.8,221.07,147.83,221.4Z"/><path class="cls-6" d="M161.87,233.61c.29,1.39-.74,2.54-2.3,3.17a8.81,8.81,0,0,0-2.78,1.21c-.54.48-1,1-1.59,1.48a2.54,2.54,0,0,1-3.51-.37,34.24,34.24,0,0,0-6.06-4.92,37.23,37.23,0,0,0-9.69-4.53,23.15,23.15,0,0,0-5.14-1c-.86-.05-1.22-.3-1.37-1a1.41,1.41,0,0,1,.78-1.74,2.65,2.65,0,0,1,1.84,0,44.77,44.77,0,0,1,11.46,3.66c.53.24.8.22,1.12-.28.85-1.3,1.77-2.56,2.63-3.85.19-.29.29-.28.59-.12a46.27,46.27,0,0,1,7.92,5.36,25.29,25.29,0,0,1,3.63,3.52c.44.56.79.56,1.41.16C161.18,234.12,161.42,233.73,161.87,233.61Z"/><path class="cls-6" d="M96.63,240a3.06,3.06,0,0,1-2.3-1.18,6.49,6.49,0,0,0-3-1.83,4.09,4.09,0,0,1-2.83-2.08.87.87,0,0,1-.09-.22c-.07-.36-.28-.86,0-1s.43.4.79.46c.13,0,.21.21.34.27.42.22.76.37,1.21-.12a39,39,0,0,1,3.49-3.37,45.31,45.31,0,0,1,5.65-4.12c.82-.5,1.68-1,2.5-1.46.32-.2.45-.15.64.15.68,1.05,1.39,2.08,2.09,3.12.22.32.44.64.69.94s.5.26.83.1a44.49,44.49,0,0,1,11.52-3.72c.81-.14,1.67-.37,2.37.34a1.49,1.49,0,0,1,.24,1.66,1,1,0,0,1-1,.75,27.78,27.78,0,0,0-9.77,2.6,38.55,38.55,0,0,0-6.21,3.48,34,34,0,0,0-5.14,4.3A3.22,3.22,0,0,1,96.63,240Z"/><path class="cls-7" d="M132.18,237.76a2.87,2.87,0,0,0-2.39-.78,49.35,49.35,0,0,1-6.95.1c-1.08-.06-2.17-.14-3.25-.1a2,2,0,0,0-1.94,1.29c-.1.25-.19.36-.5.31-2.13-.32-4.25-.68-6.34-1.18-.41-.1-.59-.26-.52-.67a1.87,1.87,0,0,0-1.51-1.92,17.9,17.9,0,0,1-2.68-.95,31.25,31.25,0,0,1,6.17-3,1.26,1.26,0,0,1,.9.24c1.59.8,3.24,1.46,4.9,2.11.23.09.6.12.43.53-.51.36-1.14.17-1.7.31-.22.06-.53,0-.61.25s.15.45.34.62a3,3,0,0,0,2.73.94c1.34-.25,2.7-.37,4-.63a5.08,5.08,0,0,1,1.22-.14,63.66,63.66,0,0,0,7.65,1.36,2.84,2.84,0,0,0,2.58-1c.16-.18.39-.39.26-.65s-.42-.28-.68-.29c-1.23-.07-2.45-.24-3.68-.38-.21,0-.44,0-.58-.22s.23-.36.44-.43a53.84,53.84,0,0,0,6.31-2.59,1.29,1.29,0,0,1,.69-.13,2,2,0,0,1,1,.31,36.91,36.91,0,0,1,5.45,2.69,21.62,21.62,0,0,1-2.57,1c-.83.3-1.57.68-1.7,1.63,0,.24-.22.27-.41.33a51.71,51.71,0,0,1-6.46,1.51c-.19,0-.33-.09-.5-.06A.34.34,0,0,1,132.18,237.76Z"/><path class="cls-8" d="M102.21,221.7a20.22,20.22,0,0,0,3.6,3.45c1.17.94,2.47,1.71,3.7,2.56a3.46,3.46,0,0,1-1.57.6c-.33.09-.53-.14-.73-.3a53.92,53.92,0,0,1-5-4.19,3.52,3.52,0,0,1-1-1.21c-.12-.28-.22-.58-.65-.32a.93.93,0,0,0-.64.26,4.76,4.76,0,0,1-2.47.25l-1.2-.48c-.44.05-.61-.32-.9-.5l-.26-.24a4.41,4.41,0,0,1-2.29-2.95c-.08-.38.16-.48.5-.38s.94.31,1.49.42a13.84,13.84,0,0,0-.57-1.28c-.28-.55-.1-.8.55-.81s.88-.17.92-.83,0-1.27,0-1.9c0-.2,0-.44.26-.51s.35.12.46.27a7.06,7.06,0,0,0,1,1,.93.93,0,0,0,1.51,0,2.81,2.81,0,0,0,.45-.52c.12-.18.24-.36.51-.31s.34.25.4.44a8.69,8.69,0,0,0,.48,1.5,11.29,11.29,0,0,0,.86-1.3c.37-.59.69-.61,1.11,0a3.92,3.92,0,0,1,.85,2.15c0,.35,0,.69,0,1,0,1.71,0,2.27-1.78,3.91C102,221.58,102.14,221.58,102.21,221.7Z"/><path class="cls-7" d="M114.49,230.15a17.49,17.49,0,0,1,4.79-1,2,2,0,0,0,1.73-3.13,30.61,30.61,0,0,1,8.16,0,2.18,2.18,0,0,0,.19,2.59,1.55,1.55,0,0,0,1.23.56,22,22,0,0,1,4.15.65,1.26,1.26,0,0,1,.32.19c-.11.41-.52.46-.85.58a54.89,54.89,0,0,1-7.27,2.05,18.88,18.88,0,0,1-2.55.43,45.67,45.67,0,0,1-9.37-2.61A1,1,0,0,1,114.49,230.15Z"/><path class="cls-4" d="M82.26,247.64a11.13,11.13,0,0,1-2-1.2,87.48,87.48,0,0,1-7.56-5.69,63.88,63.88,0,0,1-6.24-6,6.87,6.87,0,0,1-1.86-2.8,1.71,1.71,0,0,1,.74-1.69.8.8,0,0,1,.73,0,6.51,6.51,0,0,1,2,1.82,53.17,53.17,0,0,0,4.06,4.2c1.23,1.18,2.47,2.35,3.77,3.47a52.15,52.15,0,0,0,5,3.87l1.1.71a.45.45,0,0,1,.21.42C82.26,245.74,82.26,246.66,82.26,247.64Z"/><path class="cls-4" d="M167.54,245.92c-.31-.95.32-1.54,1.28-2.18a58.86,58.86,0,0,0,6.76-5.38c1.38-1.24,2.73-2.5,4-3.8,1-1,2-2.14,2.91-3.23a5.16,5.16,0,0,1,1.25-1,1,1,0,0,1,1.4.75,2.55,2.55,0,0,1-.65,2.43,52.28,52.28,0,0,1-4.07,4.25c-1.17,1.1-2.39,2.14-3.61,3.19a79.94,79.94,0,0,1-6.7,5.08l-2.23,1.51c-.28.19-.37.12-.37-.19S167.54,246.53,167.54,245.92Z"/><path class="cls-5" d="M124.36,232.95a52.11,52.11,0,0,0,10.19-2.67,4.59,4.59,0,0,0,.51-.26,6.27,6.27,0,0,1,2.44.75,59.34,59.34,0,0,1-6.45,2.69l-1,.33c-.13.26-.4.3-.64.36-1.36.39-2.73.77-4.13,1.07a1.74,1.74,0,0,1-.83,0c-2,.37-4,.69-6,.9-.88.09-1.45-.52-2.06-1a1.94,1.94,0,0,1-.42-.45c-.28-.4-.13-.66.37-.75.7-.12,1.43-.05,2.12-.25a4.4,4.4,0,0,1,1.76-.33A26.69,26.69,0,0,1,124.36,232.95Z"/><path class="cls-5" d="M124.76,243c-1.72,0-3.51-.14-5.31-.26a1.44,1.44,0,0,1-1.52-1.61c0-.27.09-.38.38-.32a6.11,6.11,0,0,1,2,.32,1.25,1.25,0,0,0,.57.1,82,82,0,0,0,8.33-.07c.74-.07,1.47-.3,2.23-.33.19,0,.42-.15.55,0a.65.65,0,0,1,0,.65,2.07,2.07,0,0,1-2.08,1.3C128.23,242.82,126.55,243.07,124.76,243Z"/><path class="cls-5" d="M119.46,240.67a49.19,49.19,0,0,1-12-2.31c-.49-.15-.62-.57-.43-1.17s.42-.49.89-.35a58.19,58.19,0,0,0,11.65,2.29c.44,0,.94,0,1,.63S120.47,240.7,119.46,240.67Z"/><path class="cls-5" d="M130.65,240.69c-1.05,0-1.21-.07-1.27-.71s.08-.8.76-.85A57.88,57.88,0,0,0,141.52,237c.19-.05.36-.13.55-.18a.69.69,0,0,1,.9.48c.12.35.24.72-.34.94a41.33,41.33,0,0,1-7.93,2C133.28,240.44,131.86,240.59,130.65,240.69Z"/><path class="cls-5" d="M124.66,237.23a30.44,30.44,0,0,0,5.52,0,1.65,1.65,0,0,1,1.82,1.23c.08.25-.08.28-.27.3a15.05,15.05,0,0,1-1.75.15c-2.86-.06-5.72.24-8.58,0-1-.08-2,0-3-.1-.55-.08-.52-.28-.39-.64a1.84,1.84,0,0,1,1.81-.92C121.45,237.24,123.06,237.23,124.66,237.23Z"/><path class="cls-8" d="M124.36,232.95c-1.7.31-3.42.52-5.14.71-.24,0-.47,0-.71,0a3.61,3.61,0,0,0-1.57-.73c-1.6-.6-3.11-1.38-4.66-2.07a10.13,10.13,0,0,1,2.22-.74c.95.33,1.89.67,2.84,1A54.39,54.39,0,0,0,124.36,232.95Z"/><path class="cls-5" d="M143,238.54a2.76,2.76,0,0,0,1-.16c1.26-.48,2.53-.92,3.76-1.46a.9.9,0,0,1,1.09.18c1,.86,1,.85-.26,1.37-1.7.69-3.46,1.25-5.21,1.83a1.69,1.69,0,0,1-2.31-.82c-.09-.14-.23-.32,0-.39A5.39,5.39,0,0,1,143,238.54Z"/><path class="cls-5" d="M100.48,238.06c.83-1.46,1.91-1.24,3.19-.57a23.67,23.67,0,0,0,4.78,1.44c.19.05.5,0,.51.27a.81.81,0,0,1-.33.64,2.06,2.06,0,0,1-2.24.39C104.41,239.47,102.36,238.92,100.48,238.06Z"/><path class="cls-9" d="M141.88,228.21c1-.76,2-1.48,3-2.29a40.21,40.21,0,0,0,4-3.84c.27.19.23.47.2.72-.08.7-.63,1.16-1,1.7-.05.07-.14.25-.31.14-.47-.3-.67.08-.84.33-.8,1.17-1.57,2.35-2.34,3.54-.46.71-.45.72-1.27.35A7.7,7.7,0,0,1,141.88,228.21Z"/><path class="cls-10" d="M139.88,236.53a2,2,0,0,1,1.2-1.39c1-.37,2-.71,3-1.11.41-.17.56.14.79.26s.93.49.9.68c-.05.35-.62.4-1,.52a43.46,43.46,0,0,1-4.34,1.53C139.9,237.15,139.87,237.14,139.88,236.53Z"/><path class="cls-5" d="M104.22,235.13c.93-1.14,2-1.12,3.22-.47.68.36,1.55.33,2.16.9a1.35,1.35,0,0,1,.34,1.35c-.06.36-.35.13-.51.09a22.2,22.2,0,0,1-3.25-1.16Z"/><path class="cls-11" d="M101.28,222.61a42.19,42.19,0,0,0,6.66,5.71,5,5,0,0,1-1.55.81c-.37.17-.53-.31-.67-.51-.83-1.17-1.6-2.38-2.39-3.58-.19-.29-.34-.62-.81-.41a.23.23,0,0,1-.12,0A3.37,3.37,0,0,1,101.28,222.61Z"/><path class="cls-12" d="M132.18,237.76l.17.39c0,.08.09.17.14.25s.07.19-.07.21-.21,0-.21-.08C132.23,238.27,131.9,238,132.18,237.76Z"/><path class="cls-13" d="M129.3,186.44c-.45.06-.24.39-.23.58.22,3.64.2,7.27.2,10.91a4.49,4.49,0,0,0,0,.61,4.07,4.07,0,0,0,1.87,2.83,2.94,2.94,0,0,0,3.66-.6c.11-.12.16-.33.37-.28s.16.22.21.35a6.45,6.45,0,0,0,1.06,1.91c0,.18.17.34,0,.52a12.33,12.33,0,0,1-1.11,1.19,7.06,7.06,0,0,1-4.17,1.35,15.21,15.21,0,0,1-3.44-.13,6.69,6.69,0,0,1-2.35-.85.77.77,0,0,0-.85,0,11.59,11.59,0,0,1-8,.64,4.83,4.83,0,0,1-1.93-1,5.17,5.17,0,0,1-1-1.24c-.06-.18-.23-.33-.16-.54a2.72,2.72,0,0,0,.61-1.07,2.94,2.94,0,0,1,.45-.88c.3-.41.51-.44.88-.08a2.6,2.6,0,0,0,1,.71c1.51.48,2.53,0,3.49-1.5a4.62,4.62,0,0,0,.66-2.64c0-3.65,0-7.3,0-11a4.71,4.71,0,0,0,.13-1.21c0-1,0-1.92,0-2.87.06-3.15.3-6.3.37-9.45,0-1.67,0-3.34,0-5,0-.3-.11-.67.34-.82.22.22.17.49.17.75,0,.93,0,1.87,0,2.8a60.34,60.34,0,0,1-.1,6.18,2.8,2.8,0,0,0,0,.37c.08,3.67-.22,7.34-.13,11a4.29,4.29,0,0,1-.18,1.33,1.37,1.37,0,0,0,.74,1.55c.24.12.37,0,.49-.15a1.38,1.38,0,0,0,.22-1c0-3.37-.09-6.74,0-10.1.19-5.63-.15-11.28.17-16.89s0-11.18.22-16.76c.19-4.63,0-9.27.1-13.9,0-.32.21-.9-.28-.91s-.16.58-.2.91,0,.66-.16,1c-.29.11-.25-.05-.2-.22.08-1.71-.21-3.42.16-5.12.23-.14.3,0,.36.18s.06.32.2.43c.33.3.57.29,1,.1a2.33,2.33,0,0,1,1.64,0,1.9,1.9,0,0,0,1,.22.23.23,0,0,1,.14.11c-.17.55-.44.67-1,.46a3.29,3.29,0,0,0-1.82,0,1.09,1.09,0,0,1-.86-.07c-.33-.21-.46-.07-.52.24-.12.7,0,.93.77,1.07a6.37,6.37,0,0,0,3.92-.36c.27,0,.32.17.19.37a1.27,1.27,0,0,1-.42.36c-.83.26-.74.92-.63,1.48.47,2.33.19,4.68.22,7,.09,5.73.09,11.47.18,17.2.07,4.08-.16,8.17.14,12.24s0,8.16.24,12.22c.15,2.8,0,5.59.1,8.39a5,5,0,0,0,0,.55c0,.36-.16.82.34,1,.21.08.85-.65.9-1a8.62,8.62,0,0,0,0-1.9c-.21-2,0-4-.14-5.93-.28-3-.16-6-.33-9-.11-2,0-4,0-6,0-.93,0-1.86,0-2.79a1,1,0,0,1,.16-.76c.45.1.35.46.35.73a36.2,36.2,0,0,0,0,4.09c.37,2.78.13,5.57.32,8.35.14,2,0,4.08,0,6.11,0,1.1.12,2.2.2,3.29C129.34,186.21,129.38,186.33,129.3,186.44Z"/><path class="cls-14" d="M113.14,144.27c.09-.15-.09-.47.28-.44.59.05.62-.3.59-.7-.07-.77.07-1.54-.08-2.33a4.83,4.83,0,0,1,.17-1.54,14.78,14.78,0,0,0,0-2.53,1.57,1.57,0,0,1,.37-.88c.61-.9,1.29-1.76,1.88-2.67.23-.36.4-.42.74-.17a1.89,1.89,0,0,0,.54.33c1.28.39,1.47,1.26,1.4,2.39-.1,1.63,0,3.26,0,4.9,0,.21-.16.51.23.61,0,0,0,0,0,0-.54.13-.27.54-.27.81q0,11.26,0,22.53c0,.15-.25.49.22.49s.68.21.3.67a1.51,1.51,0,0,0-.36,1q0,10.59,0,21.17a2.08,2.08,0,0,0,0,.3,1.18,1.18,0,0,1-.34.84c-.42.52-.87,1-1.29,1.54a1.32,1.32,0,0,1-1,.49H96.2a1.89,1.89,0,0,1-1.41-.31.33.33,0,0,1-.08-.3,1.63,1.63,0,0,0,.18-1.62c-.19-.75-.15-.85.66-1a27.56,27.56,0,0,1,4-.08c-.1-.06-.41-.06-.42-.32s.29-.32.49-.41c.79-.38,1.64-.66,2.43-1a.65.65,0,0,1,.93.24c.25.35.53.81,1.06.64s.6-.66.67-1.11c.12-.85.47-1,1.29-.61s.93.47.94-.54.22-1.3,1.39-1.41h.13c1.09-.12,1.09-.12,1.09-1.15,0-.57,0-1.14,0-1.71s.23-.67.72-.67H112c.42,0,.59-.17.59-.55,0-.82,0-1.63,0-2.45,0-.41-.2-.6-.63-.58-1.61.08-1.44-.17-1.45-1.46a1.46,1.46,0,0,0-.06-.61,9.07,9.07,0,0,0-1.55,1.07,37.23,37.23,0,0,1-3.65,2.56,67.68,67.68,0,0,1-5.88,3.5q-2.73,1.44-5.58,2.64a1,1,0,0,1-.8.14c-.15-.24,0-.38.18-.53a70.55,70.55,0,0,0,9.17-4.63,87.35,87.35,0,0,0,7.46-5,1.21,1.21,0,0,0,.19-.17c.12-.13.36-.24.27-.44s-.31-.1-.48-.11c-.89,0-1-.11-1-.93,0-.45,0-.9,0-1.35,0-.74,0-.78-.86-.78-.3,0-.61,0-.91,0a1.41,1.41,0,0,1-1.47-1.35,12.35,12.35,0,0,1,0-2.14,1.49,1.49,0,0,1,1.62-1.49h.07c1.55,0,1.55,0,1.55-1.48,0-.2,0-.41,0-.61a1.18,1.18,0,0,1,1.26-1.21c1.25-.07,1.12-.1,1.4-1.24a3.78,3.78,0,0,0,0-2.25,1.86,1.86,0,0,1,.28-1.76,1.54,1.54,0,0,1,1.26-.75.44.44,0,0,0,.5-.5c0-.24,0-.49,0-.73,0-.48-.2-.74-.78-.77a1.23,1.23,0,0,1-1.28-1.22,2.34,2.34,0,0,1,0-.24c0-3.35-.26-6.69-.1-10,0-.88-.06-1.42-1-1.8a2.91,2.91,0,0,1-1.63-1.9,1,1,0,0,1,0-.83.14.14,0,0,1,.19,0,3.66,3.66,0,0,0,1.17,2.08,4.29,4.29,0,0,0,2.43,1,2.1,2.1,0,0,0-.79,2.06c0,1.39,0,2.77,0,4.16,0,.2-.18.49.11.59s.28-.27.48-.35c.54,0,.75-.19.73-.73A8.94,8.94,0,0,1,113.14,144.27Z"/><path class="cls-5" d="M106.47,113.06l5.86-2.06c.28-.1.36,0,.45.25.4,1.05.83,2.09,1.26,3.14.15.37-.2.35-.39.41l-5.58,1.91-2.42.84c-.15.08-.26.2-.42.27-2.55.91-5.12,1.79-7.69,2.66-.75.26-1.48.59-2.26.77s-.87,0-1.09-.55c-.32-.84-.61-1.7-1-2.52-.23-.51-.13-.68.49-.91,1.85-.69,3.75-1.27,5.62-1.93,2.09-.74,4.19-1.44,6.29-2.18A4,4,0,0,1,106.47,113.06Z"/><path class="cls-5" d="M144.45,117.7l-6.26-2.1-2-.68c-.26-.09-.4-.19-.28-.49.4-1.05.77-2.12,1.16-3.18.11-.3.29-.19.51-.12l6.31,2.15a.82.82,0,0,1,.4,0c4,1.34,7.95,2.74,11.93,4.09.49.17.57.48.37.87-.42.83-.56,1.75-1,2.59-.28.59-.42.71-1.07.49-1.86-.63-3.72-1.26-5.57-1.91-1.32-.46-2.67-.87-4-1.38A1.15,1.15,0,0,1,144.45,117.7Z"/><path d="M119.16,188.25c-.24-.2-.13-.46-.13-.69q0-10.1,0-20.21c0-.74-.21-1.55.76-2-.18-.2-.53,0-.51-.29a30.11,30.11,0,0,0,2.23-2.69c.38-.12.37.16.41.36a8.14,8.14,0,0,1,0,.84,5,5,0,0,1-.09,1.46,1.64,1.64,0,0,0-.19,1c0,.29.09.62-.19.86s-.1.43-.1.65c0,1.36,0,2.73,0,4.09-.11,2.26.09,4.54-.17,6.77-.29,2.44-.06,4.86-.2,7.28a2.68,2.68,0,0,1-.23.75.22.22,0,0,1,0,.23A4.55,4.55,0,0,1,119.16,188.25Z"/><path d="M129.3,186.44c-.1-.17-.25-.3-.25-.54,0-.94-.09-1.87-.1-2.81-.06-4.14.05-8.28-.21-12.41-.15-2.29-.09-4.58-.2-6.86a1.57,1.57,0,0,0-.1-.35c-.21-.28-.35-.55.12-.73a9,9,0,0,1,1.33,1.51c.22.25.55.44.63.8a3.89,3.89,0,0,1,.56,2.74q0,9.61,0,19.22a3.93,3.93,0,0,1,0,.79c0,.2-.09.43-.41.3C130.24,187.53,129.6,187.1,129.3,186.44Z"/><path class="cls-15" d="M130.63,188.13c.33,0,.25-.28.25-.47q0-10.68,0-21.35a.86.86,0,0,0-.29-.65c-.18-.18-.28-.36-.09-.59.12,0,.3.29.35-.05a2.93,2.93,0,0,0,0-.43q0-11.26,0-22.51c0-.25.3-.68-.28-.78-.07,0-.08,0,0,0,.71-.34.28-.94.3-1.39.06-1.73,0-3.47,0-5.2a.75.75,0,0,1,.51-.86,7.35,7.35,0,0,0,1.35-.81c.28-.19.41-.16.61.11q1.22,1.67,2.32,3.41c.16.25-.17.35-.07.58.27.62-.09,1.27,0,1.9a.16.16,0,0,1-.21,0c-.11-.13-.11-.33-.23-.44-.37-.35-.76-.66-.05-1.05.09-.05.07-.19,0-.29a10.36,10.36,0,0,0-1.29-2.6,5.52,5.52,0,0,1-.67-1,2.21,2.21,0,0,1,.12.89c0,1.35,0,2.7,0,4,0,.44,0,.82.62.89a.35.35,0,0,1,.32.4.35.35,0,0,1-.32.34c-.59.07-.62.45-.62.89q0,4,0,7.9c0,.45,0,.81.64.88a.44.44,0,0,1,.42.41.43.43,0,0,1-.42.46c-.54.06-.64.37-.63.82q0,3.34,0,6.68c0,.43.05.77.63.8.23,0,.43.12.44.37s-.2.41-.45.43c-.52,0-.62.35-.62.77,0,2.06,0,4.12,0,6.19,0,.46.17.67.68.67s.9-.09.89.45-.53.38-.87.41c-.66.06-.7.08-.7.89q0,9.13,0,18.25c0,.94.05,1.88,0,2.82,0,.26.08.33.32.33h19.81a6.33,6.33,0,0,1,1,0c.15,0,.33.07.32.28h0a1.2,1.2,0,0,1-.58.05H133.25a1.44,1.44,0,0,1-.58,0,7.07,7.07,0,0,1-1.82-2.45C130.81,188.29,130.7,188.21,130.63,188.13Z"/><path class="cls-16" d="M106.47,113.06c-.27,0-.46.27-.75.22a12.38,12.38,0,0,1,.92-3.23,21.17,21.17,0,0,1,3.57-5.87,19.29,19.29,0,0,1,4.14-3.59,7.42,7.42,0,0,0-1.45.09c-.5,0-1,.11-1.49.17A104.86,104.86,0,0,0,97,103.48c-1.3.33-2.59.68-3.88,1.06a1,1,0,0,0-.84.88,20.75,20.75,0,0,1-4.17,8.81,29.31,29.31,0,0,1-13.7,9.69,21,21,0,0,1-2.32.62c-.79.17-.82.21-.82,1,0,.12,0,.24,0,.37q0,29.4,0,58.79c0,1.24-.08,1.12,1.23,1.18,3.8.17,7.6.1,11.4.1a.75.75,0,0,1,.19,0,.52.52,0,0,1-.18.8c-.48-.38-1.08-.14-1.61-.27-3-.2-6-.08-9-.14-.71,0-1.42-.06-2.14-.09a.35.35,0,0,1-.33-.15c0-.26,0-.53,0-.79q0-30.17,0-60.34c0-.57.19-.76.74-.86A25.77,25.77,0,0,0,81.23,120a26.78,26.78,0,0,0,7.69-7.78,24.36,24.36,0,0,0,2.5-5.41,7.43,7.43,0,0,0,.44-1.82c0-.54.35-.66.78-.79a109,109,0,0,1,19.52-3.91c1.34-.15,2.68-.26,4.19-.4a27.31,27.31,0,0,0-3,1.88,19.31,19.31,0,0,0-3.56,3.57,26.06,26.06,0,0,0-2.37,3.85c-.32.63-.45,1.34-.74,2a9.68,9.68,0,0,1-.43,1.32C106.22,112.62,106,113,106.47,113.06Z"/><path class="cls-5" d="M135.51,119.44a1.17,1.17,0,0,1,.37.3c1.49,2,3,4.08,4.49,6.11.25.34.74.7.63,1s-.67.51-1,.76c-.62.43-1.25.85-1.86,1.29-.27.2-.39.2-.6-.09-1.44-2-2.9-3.94-4.37-5.91a4.9,4.9,0,0,0-.56-.72c-.46-.42-.37-.63.14-.93.83-.5,1.6-1.08,2.41-1.62A4.14,4.14,0,0,1,135.51,119.44Z"/><path class="cls-5" d="M112.18,129.09c-.18-.1-.35-.18-.51-.28-.85-.57-1.69-1.17-2.56-1.72-.27-.17-.31-.28-.13-.52q1.26-1.65,2.51-3.32c.9-1.21,1.81-2.41,2.69-3.64.17-.24.33-.16.47-.06.91.6,1.82,1.21,2.72,1.81.28.18.34.38.14.65-.61.82-1.16,1.67-1.81,2.46s-1.36,1.83-2,2.75c-.39.52-.77,1.05-1.16,1.57A2.28,2.28,0,0,1,112.18,129.09Z"/><path class="cls-17" d="M144.45,117.7l.52.19c-.12,1.18-.11,2.37-.33,3.53a21.14,21.14,0,0,1-2.21,6.24,20,20,0,0,1-2.1,3.16.4.4,0,0,0,0,.64,3.88,3.88,0,0,1,1.27,3.34c0,.79,0,1.59,0,2.39a3.69,3.69,0,0,1-2.57,3.62c-.38.16-.51.27-.31.65a2.12,2.12,0,0,1,.14,1q0,2.45,0,4.9a3.5,3.5,0,0,1-.33,1.61,2.23,2.23,0,0,0-.19,1c0,.8,0,1.59,0,2.39a1.22,1.22,0,0,1-1.08,1.33,1.88,1.88,0,0,0-1,1.74c.09.26.3.25.52.28a1.55,1.55,0,0,1,1.5,1.43,2.45,2.45,0,0,1-.34,2,.31.31,0,0,0,0,.45,1.8,1.8,0,0,1,.37,1.45c0,.5.18.73.72.68a4.67,4.67,0,0,1,.59,0c.92,0,1.28.38,1.31,1.26,0,.51,0,1,0,1.53s.17.52.55.51.83,0,1.24,0a1.38,1.38,0,0,1,1.44,1.31,16.4,16.4,0,0,1,0,2.45,1.26,1.26,0,0,1-1.36,1.22c-.37,0-.74,0-1.11,0-.71,0-.76.06-.77.75,0,.47,0,.94,0,1.41,0,.79-.1.86-.94.91-.14,0-.3,0-.43.09.08.23.32.32.5.45,2.09,1.47,4.1,3,6.28,4.37a73.34,73.34,0,0,0,8.89,4.74,1.76,1.76,0,0,0,.88.1,2.64,2.64,0,0,1-.09,1,7.73,7.73,0,0,0-1.67-.81,76.23,76.23,0,0,1-7.8-4.19c-2.18-1.31-4.24-2.77-6.29-4.25a8.4,8.4,0,0,1-.84-.68c-.09-.09-.21-.19-.34-.14s-.14.25-.1.38a3.78,3.78,0,0,1,.24,1.13c0,.75-.12.87-.9.87-1.25,0-1.2,0-1.2,1.16,0,.59,0,1.19,0,1.78s.2.69.73.67,1.13,0,1.69,0,.71.21.71.67c0,.67,0,1.35,0,2,0,.5.12.8.72.75a1.42,1.42,0,0,1,.32,0c1.24.18,1.44.4,1.45,1.59,0,.08,0,0,0,.06,0,.86,0,.86.83.44a2.24,2.24,0,0,1,.65-.26c.57-.09.81.08.86.62a3.9,3.9,0,0,0,.08.73c.18.65.67.77,1.21.32.3-.26.39-.78,1-.72a4.37,4.37,0,0,1,1.22.42l1.55.64c.47.2.48.23.33.73.64.17,1.34-.15,2,.22a.25.25,0,0,1-.06.28,8.59,8.59,0,0,1-3.09,0c-.47-.06-.51-.28-.12-.58s.26-.33-.05-.46l-.77-.33c-.84-.37-.84-.37-1.54.24a1.31,1.31,0,0,1-2.23-.71,2.21,2.21,0,0,1-.07-.42c0-.41-.27-.41-.58-.24a4.49,4.49,0,0,1-.74.39c-.56.17-.83,0-.88-.53a8.67,8.67,0,0,1,0-1c0-.44-.22-.67-.66-.77a6.2,6.2,0,0,0-1.23-.12.63.63,0,0,1-.71-.63,17.27,17.27,0,0,1-.14-2.07c0-.64-.07-.7-.74-.72h-1.37c-.47,0-.74-.2-.74-.66,0-1.12,0-2.24,0-3.37,0-.51.32-.75.84-.73,1,0,1-.16,1-1,0-.45,0-.9,0-1.35a.64.64,0,0,1,.74-.72h.39c.77,0,.91-.18.69-.85a4.68,4.68,0,0,1-.12-1.52c0-.45.23-.67.72-.68s1.09,0,1.63,0c.71,0,.88-.2.9-.85s0-1.35,0-2-.25-.89-1-.92c-.41,0-.82,0-1.24,0s-.75-.24-.75-.72,0-1.06,0-1.59c0-.75-.28-1-1.08-1-1.61,0-1.61,0-1.56-1.51,0-.6-.42-.9-.88-1.18-.17-.1-.47-.15-.43-.39s.31-.17.49-.23a1,1,0,0,0,.78-1.11c-.1-1-.37-1.43-1.06-1.55-1.05-.18-1.09-.22-1.09-1.21,0-.45,0-.9,0-1.35,0-.62.19-.76.83-.75,1.2,0,1.37-.13,1.38-1.27,0-1,0-2,0-2.94s-.12-1-1.06-1.23a.5.5,0,0,1-.37-.22c0-.15,0-.3.2-.3a1.3,1.3,0,0,0,.32.06,1.22,1.22,0,0,1,1.37,1q0-.92,0-1.83,0-2.08,0-4.16a1.46,1.46,0,0,0-.68-1.39,5.49,5.49,0,0,0,2.22-.87,3.39,3.39,0,0,0,1.4-2.57c0-1,0-2,0-3.06a3.64,3.64,0,0,0-1.6-2.81c-.22-.17-.23-.2,0-.43a20.38,20.38,0,0,0,3-4.81,17.86,17.86,0,0,0,1.56-5.44c.24-.3,0-.7.23-1Z"/><path class="cls-18" d="M144.17,113.45l-.29-.16a11.64,11.64,0,0,0-.54-2.15c-.25-.57-.46-1.15-.71-1.72a19.92,19.92,0,0,0-4.32-6.2,22.68,22.68,0,0,0-4.58-3.29l1.56.12,1.49.14A119.35,119.35,0,0,1,148.64,102c3.06.64,6.07,1.41,9.05,2.32.24.07.44.11.46.41a10,10,0,0,0,.34,1.46,17.48,17.48,0,0,0,1.44,4,27,27,0,0,0,2.34,3.66,25.62,25.62,0,0,0,5.11,5.14,25.92,25.92,0,0,0,11.17,5.22c.55.1.74.28.74.85q0,30.2,0,60.39c0,.25-.11.53.1.76a7.24,7.24,0,0,1-2.22.2c-1.81.06-3.63,0-5.44.06a2.61,2.61,0,0,1,.09-1c.22.52.65.58,1.19.6,1.76,0,3.51-.17,5.27-.13.47,0,.69-.17.66-.62,0-.18,0-.37,0-.55q0-29.4,0-58.8a3.49,3.49,0,0,1,0-.43c.07-.55-.21-.8-.78-.92a27.46,27.46,0,0,1-12.43-6.37,26,26,0,0,1-5.73-6.93,18.22,18.22,0,0,1-2.12-5.75,1.11,1.11,0,0,0-.91-1,102.82,102.82,0,0,0-11.43-2.7c-3.18-.54-6.38-1-9.61-1.28a1.24,1.24,0,0,1-.26,0,19.32,19.32,0,0,1,6.13,6.28,19.12,19.12,0,0,1,2.45,5.84C144.31,112.91,144.43,113.2,144.17,113.45Z"/><path class="cls-13" d="M124.35,122.93a1.49,1.49,0,0,0,.31-1c0-2.22,0-4.44,0-6.66v-.64l-7.23,4.67.14-.4c.82-1.23,1.81-2.36,2.68-3.56,1.16-1.59,2.4-3.13,3.59-4.7.24-.32.5-.61.75-.92.34,0,.15.29.16.43,0,1.29,0,2.58,0,3.87.11.13.31,0,.42.12a.81.81,0,0,1,.15.59c-.27.12-.15.36-.15.54,0,2.26,0,4.52,0,6.78a1,1,0,0,0,.34.78,4.12,4.12,0,0,1,1.29,2.09c.05.28.4.45.29.77a.25.25,0,0,1-.26.05c-.24-.12-.25-.36-.32-.57a5.78,5.78,0,0,0-1.09-1.84.65.65,0,0,0-.94-.18C124.38,123.09,124.31,123,124.35,122.93Z"/><path class="cls-2" d="M125.58,109.43c-.26-.06-.5-.07-.2-.43.86-1,1.67-2.12,2.47-3.2a.76.76,0,0,1,.69-.42l8.38.19a.56.56,0,0,1,.16.06c0,.25-.32.2-.43.34a16.41,16.41,0,0,1-2.44.81c-2.67.84-5.35,1.65-8,2.51A2.63,2.63,0,0,0,125.58,109.43Z"/><path class="cls-19" d="M125.06,109c-.19.22-.29,0-.38-.09A40.41,40.41,0,0,0,122,105.4c-.21-.25-.05-.48,0-.68.56-1.23,1-2.52,1.46-3.77a28.67,28.67,0,0,0,1.31-3.7c.26,0,.24.19.28.34.27,3.28.06,6.56.13,9.85A4.9,4.9,0,0,1,125.06,109Z"/><path class="cls-2" d="M125.17,109.61c1.3.41,2.58.89,3.91,1.19a1.55,1.55,0,0,1,1.27,1.32c.41,1.68,1,3.3,1.49,5a6.93,6.93,0,0,0,.72,2.12c-.25.11-.36,0-.47-.18-1.32-1.79-2.75-3.51-4.05-5.31-.95-1.31-2-2.55-2.92-3.88C125.09,109.76,125.06,109.67,125.17,109.61Z"/><path class="cls-5" d="M124.58,109.7c0,.54-.47.84-.75,1.2-1.26,1.62-2.51,3.25-3.73,4.9-.74,1-1.56,2-2.35,2.95,0,.06-.08.15-.19.13a14.64,14.64,0,0,1,.87-2.87c.22-.65.33-1.32.58-2,.32-.83.51-1.7.75-2.55.05-.19.06-.36.34-.44C121.6,110.62,123.08,110.15,124.58,109.7Z"/><path class="cls-2" d="M124.55,109.14c.13.23-.05.28-.22.33-1.39.42-2.78.82-4.16,1.28-.51.17-.72-.18-1-.38-2-1.44-3.95-2.9-5.92-4.35,0-.18.15-.21.29-.23a33,33,0,0,1,3.78,1.09c2.06.62,4.11,1.29,6.18,1.89C123.88,108.87,124.2,109,124.55,109.14Z"/><path class="cls-5" d="M125.16,109.81a26.33,26.33,0,0,1,2,2.53c1,1.35,2,2.74,3.13,4.06.63.77,1.2,1.59,1.8,2.4.06.08.12.18,0,.24l-3.17-2-3.58-2.31c-.24-.16-.1-.42-.2-.62A26.83,26.83,0,0,1,125.16,109.81Z"/><path class="cls-5" d="M124.55,109.14a4.73,4.73,0,0,1-1.94-.46c-3-.91-6-1.86-9.06-2.8-.13-.06-.31,0-.44-.18.71-.22,1.44,0,2.13-.13l1.37,0a22.52,22.52,0,0,1,2.44-.06,2.37,2.37,0,0,0,.76,0,2.34,2.34,0,0,1,2.82,1.19A18.63,18.63,0,0,0,124.55,109.14Z"/><path class="cls-5" d="M125.58,109.43c0-.17.11-.2.23-.24L136.29,106c.12,0,.24-.09.37,0a27.69,27.69,0,0,1-2.58,2c-1.17.91-2.4,1.73-3.59,2.62a.81.81,0,0,1-.82.17C128.32,110.28,126.95,109.86,125.58,109.43Z"/><path class="cls-5" d="M125.06,109c0-.2-.06-.4-.06-.6q0-5.05,0-10.11c0-.22-.06-.45.1-.65.67,1.7,1.29,3.41,2,5.11a20.05,20.05,0,0,1,.77,2.1,1,1,0,0,1-.2.91Z"/><path class="cls-20" d="M121.77,163.64a2.74,2.74,0,0,1-.05-.87c0-.15,0-.33-.21-.36,0-1.4.12-2.8.17-4.19.18-5.67.18-11.35.39-17,.1-2.66.17-5.33.26-8a2.32,2.32,0,0,1,.07-.36l.14.26c.25.23.21.52.22.8,0,3.24-.12,6.48-.17,9.72,0,1.77.07,3.55-.11,5.31-.3,3-.15,6-.34,9-.1,1.63,0,3.26,0,4.89C122.09,163.1,122.19,163.46,121.77,163.64Z"/><path class="cls-21" d="M128.55,162.76c-.25.21-.08.49-.12.73l0,3.6c-.4-.19-.31-.55-.31-.86a42.5,42.5,0,0,0,0-4.71c-.36-2.92-.08-5.86-.33-8.78a24.75,24.75,0,0,1,0-2.81c.07-2.51-.22-5-.14-7.52a5.39,5.39,0,0,1,.06-1,.82.82,0,0,1,.3-.5c.17,1.56,0,3.13.14,4.69.34,5.44.29,10.9.43,16.34C128.48,162.23,128.52,162.5,128.55,162.76Z"/><path class="cls-22" d="M105.19,117.68c.13-.13.31-.1.47-.13a16.48,16.48,0,0,0,.38,4.34,19.59,19.59,0,0,0,1.37,4.33,15.6,15.6,0,0,0,2.86,4.46c.31.33.41.61-.08,1a3.12,3.12,0,0,0-1.32,2.49c0,1.16,0,2.33,0,3.49h-.15c-.38.08-.39-.21-.39-.4a11.26,11.26,0,0,1,.37-4.35,3.7,3.7,0,0,1,.94-1.37.5.5,0,0,0,0-.79,27.2,27.2,0,0,1-2.14-3.2,20.82,20.82,0,0,1-1.54-3.81,13.87,13.87,0,0,1-.71-4.57,1.37,1.37,0,0,0-.14-.59A.86.86,0,0,1,105.19,117.68Z"/><path class="cls-23" d="M127.9,140.93l-.14.39c-.27-.24-.21-.57-.22-.86-.1-2.73-.19-5.46-.12-8.2,0-.56-.38-1.06-.19-1.62-.08-.19.62-.18.13-.47-.23-.21-.16-.49-.18-.74a1.15,1.15,0,0,0-.31-.71l-.17,0a3.14,3.14,0,0,0,0-2.44.55.55,0,0,1,.1-.62h.26a1.43,1.43,0,0,1,.15.71,33.38,33.38,0,0,0,.52,3.34,1.13,1.13,0,0,1,.08.65c0,1.4-.09,2.79,0,4.19q0,2.72,0,5.43C127.91,140.28,127.91,140.6,127.9,140.93Z"/><path class="cls-24" d="M136.63,147.08c-.11.05-.12.15-.14.25-.39-.08-.31-.4-.32-.64,0-.57,0-1.14,0-1.71,0-.3,0-.57-.39-.7a.61.61,0,0,1-.38-.65c0-1.38,0-2.76-.12-4.14a.54.54,0,0,1,.19-.5h.13c.35.08.22.36.23.56,0,1.26.07,2.51.09,3.77,0,.27,0,.54.41.51s.27.25.27.44C136.62,145.21,136.62,146.14,136.63,147.08Z"/><path class="cls-25" d="M124.35,122.93l.13.13a.29.29,0,0,1,0,.34,7.33,7.33,0,0,0-1.33,4.84.27.27,0,0,1-.09.22c-.25,0-.25-.22-.26-.39s0-.32-.22-.35a8.23,8.23,0,0,1,1.57-4.72C124.17,123,124.28,123,124.35,122.93Z"/><path class="cls-6" d="M113.14,144.27c0,.67,0,1.34,0,2,0,.87,0,.87-.91.91.41-.09.53-.32.54-.73A5.17,5.17,0,0,1,113.14,144.27Z"/><path class="cls-6" d="M127.87,134.52c-.15-1.61-.12-3.22-.11-4.84a.36.36,0,0,1,.24.4A37.81,37.81,0,0,0,127.87,134.52Z"/><path class="cls-26" d="M125.16,109.81q0,2.14,0,4.28c-.13,0-.3.12-.37-.09.38-.05.23-.34.23-.53,0-1.12,0-2.23,0-3.35,0-.17-.17-.41.15-.51Z"/><path class="cls-27" d="M115.24,105.56a13.08,13.08,0,0,1-2,.13l.32.19c-.11,0-.23,0-.29.14l-.51-.33v-.13Z"/><path class="cls-28" d="M119.82,105.44a17.39,17.39,0,0,1-3.2.1A16.06,16.06,0,0,1,119.82,105.44Z"/><path class="cls-29" d="M144.43,119.75c0,.34.2.74-.23,1C144.22,120.41,144,120,144.43,119.75Z"/><path class="cls-30" d="M144.17,113.45a11.32,11.32,0,0,0-.94-3.31,25.56,25.56,0,0,0-1.2-2.53,18.62,18.62,0,0,0-3.55-4.62,21.47,21.47,0,0,0-3.42-2.68c.91.08,1.81.14,2.72.25,3.61.42,7.2.95,10.76,1.68,3,.62,5.91,1.39,8.83,2.24a.81.81,0,0,1,.67.77,17.86,17.86,0,0,0,1.66,5,23.54,23.54,0,0,0,3,4.57,26.22,26.22,0,0,0,3.47,3.47,28.84,28.84,0,0,0,8.86,5.22,17.88,17.88,0,0,0,3.49,1c.44.07.64.23.64.71q0,30.13,0,60.27c0,.46-.1.65-.63.65-1.93,0-3.87,0-5.8.11-.65,0-1-.11-.86-.77a41.71,41.71,0,0,0-.32-6.22,9.72,9.72,0,0,0-.67,1.47,12.12,12.12,0,0,1-3.12,3.58c-.7.59-1.33,1.23-2,1.84-.42.18-.82.23-1.12-.19a15.35,15.35,0,0,1,2.56-2.8,15.22,15.22,0,0,0,2.84-3,6.27,6.27,0,0,0,.5-1.17,13,13,0,0,0,.43-7.85,17.12,17.12,0,0,1-.4-2.72c0-.06-.09-.19-.15-.17s-.13.27-.21.4a8.47,8.47,0,0,1-1.47,3.15c-1.19,1.69-2.63,3.22-3.17,5.28a26.1,26.1,0,0,0-.41,3.8,13.76,13.76,0,0,1-1.19,4,.75.75,0,0,1-.1-.93,7,7,0,0,0,.29-2.16c.1-1,.12-2.08.16-3.12a11.3,11.3,0,0,1,1.77-5c.86-1.56,2-3,2.78-4.56a2,2,0,0,0,.16-.65,16.27,16.27,0,0,0-.14-5.49,17.39,17.39,0,0,0-1.23-3.51,8.15,8.15,0,0,0-.71-1.82,11,11,0,0,1-.4,2.39,32.35,32.35,0,0,1-1.61,4,10.83,10.83,0,0,0-.35,1.3c-.22.24,0,.59-.25.83a21.26,21.26,0,0,0,.33,4.3,13,13,0,0,1-.1,3.05,3,3,0,0,1-.54,1.21,31.69,31.69,0,0,0,0-4.1c-.18-1.4-.27-2.79-.32-4.19a12.33,12.33,0,0,1,.87-4.31c.76-2.29,1.74-4.54,1.24-7a8.18,8.18,0,0,0-1.37-3.12,10.46,10.46,0,0,1-1.32-2.12,5.18,5.18,0,0,0-.49-.7,12.93,12.93,0,0,1-.22,4.27,15.36,15.36,0,0,0-.41,2.63,10.75,10.75,0,0,0,.75,3.55,13,13,0,0,1,.4,4.35,7.17,7.17,0,0,1-.64-2.4,40.66,40.66,0,0,1-1.09-4.48,9.89,9.89,0,0,1-.28-3.32,33.73,33.73,0,0,0,.39-3.57,14.23,14.23,0,0,0-.08-4A7,7,0,0,0,159.6,143a18.57,18.57,0,0,1-2-2.6.89.89,0,0,1-.27-.36,1.32,1.32,0,0,0,.12.75c.15,1.07.16,2.16.32,3.22a18,18,0,0,0,1,4.54,17.08,17.08,0,0,1,1.05,3.19c0,.19.23.43-.15.51a1.46,1.46,0,0,1-.29-.52,32.74,32.74,0,0,0-2.16-5.24c-.71-1.45-1.5-2.87-2.2-4.32a10.74,10.74,0,0,1-.62-1.84,11.71,11.71,0,0,0-2.43-4.65,17,17,0,0,0-4.89-3.72c-1.14-.61-2.27-1.24-3.36-2a32.4,32.4,0,0,1,2.14,4.24,17.43,17.43,0,0,0,3.18,5.06,9.76,9.76,0,0,0,2.77,2,8.07,8.07,0,0,1,3.67,3.61q1.3,2.46,2.48,5c.25.52.38,1.1.72,1.7a1.51,1.51,0,0,1-1-1c-.36-.8-.65-1.64-1-2.45a9.15,9.15,0,0,0-4-4.53c-1.06-.6-2.17-1.11-3.23-1.79a5,5,0,0,0,.7,1.5,15.91,15.91,0,0,1,.77,2.27c.65,2.24,2.34,3.54,4.29,4.7a22.7,22.7,0,0,1,3.6,2.51,4.31,4.31,0,0,1,.94,1.86,24.45,24.45,0,0,1,1.3,4.6,13.07,13.07,0,0,1,.38,1.66.81.81,0,0,1-.47-.54c-.17-.69-.38-1.36-.55-2.05a10.1,10.1,0,0,0-2.31-4.61,14.57,14.57,0,0,0-2.26-1.85c-1.08-.77-2.12-1.59-3.21-2.5a17.33,17.33,0,0,0,.88,2.54c.24.74.44,1.5.71,2.23a8.6,8.6,0,0,0,1.76,3.22,14.26,14.26,0,0,0,2.31,1.7,17.94,17.94,0,0,1,3.46,3.4.57.57,0,0,1,.07.23c.32,1.34.66,2.68.93,4a38.86,38.86,0,0,1,.5,4.23,3.81,3.81,0,0,1,.08,1.7c0,.11-.08.18-.21.11a7.09,7.09,0,0,1-.41-2.36,18,18,0,0,0-.35-4.33,7.64,7.64,0,0,0-2.85-4.67,30.52,30.52,0,0,1-3.17-2.52,4.91,4.91,0,0,0-1.06-1,30.17,30.17,0,0,1,1,5.14A17.17,17.17,0,0,0,157,166a8.76,8.76,0,0,0,2,3.07,21.36,21.36,0,0,1,3,3.84c1.49,2.4,1.29,5,1.2,7.57,0,.69-.16,1.38-.16,2.07s-.34,1.25-.38,1.91a4.28,4.28,0,0,1-.45-2.32,11,11,0,0,0,0-4.12,16.14,16.14,0,0,1-.22-1.82,7.63,7.63,0,0,0-1.27-3.05c-.38-.68-.92-1.28-1.34-1.95-.71-1.11-1.54-2.14-2.33-3.2,0-.07-.11-.25-.26-.13s0,.16,0,.24c.16.21.06.49.23.69.1,1.93,0,3.87,0,5.8,0,.77,0,1.54.11,2.32a6,6,0,0,0,1.81,3.55,11.51,11.51,0,0,1,2.11,3.09,6.24,6.24,0,0,1,.56,1.58c-.52.32-.84,0-1.15-.33a15.65,15.65,0,0,0-1.95-2.79,24.5,24.5,0,0,1-2-2.83,13.36,13.36,0,0,1-.26,3.64c-.06.35-.26.38-.57.24a73.68,73.68,0,0,1-7.21-3.68q-3.18-1.86-6.15-4c-1-.71-2-1.44-2.94-2.16a2.06,2.06,0,0,1-.26-.34c.49,0,.87,0,1.24,0s.56-.13.54-.53c0-.69,0-1.39,0-2.08,0-.35.12-.46.49-.45.52,0,1,0,1.56,0,.76,0,1.17-.38,1.19-1.08s0-1.59,0-2.39a1.16,1.16,0,0,0-1.27-1.19c-.5,0-1,0-1.5,0s-.45-.12-.44-.43c0-.65,0-1.31,0-2s-.31-.91-1-.93c-.5,0-1.12.12-1.46-.1s-.13-.88-.12-1.33-.57-.72-.61-1.07.65-.53.6-1c-.08-.75.18-1.56-.57-2.17a1.14,1.14,0,0,0-.74-.31c-.81,0-1.07-.5-.67-1.21a1.56,1.56,0,0,0,.22-.5c.07-.46.27-.65.81-.63s.91-.36.94-1,0-1.63,0-2.45a2.48,2.48,0,0,1,.3-1.41,2,2,0,0,0,.15-1c0-1.74,0-3.47,0-5.21a1.78,1.78,0,0,0-.5-1.51,5,5,0,0,0,2.23-1.18,3.06,3.06,0,0,0,1-1.85,27.32,27.32,0,0,0,0-4.28,3.24,3.24,0,0,0-1.36-2.2c-.27-.22-.22-.29,0-.5a17.94,17.94,0,0,0,2.56-4,22.49,22.49,0,0,0,1.65-4.63,23.24,23.24,0,0,0,.47-3.86c0-.21-.14-.52.27-.58l9.89,3.4c.28.1.44.1.52-.21.2-.76.62-1.46.76-2.24a1,1,0,0,1,.06-.24c.39-.9.39-.9-.62-1.25l-11-3.77Z"/><path class="cls-6" d="M103.52,216.55a3.94,3.94,0,0,0-1-2.27c-.4-.43-.45-.08-.57.12a12.56,12.56,0,0,1-1.17,1.77c-.19-.68-.35-1.3-.52-1.91,0-.16-.1-.33-.3-.37s-.28.17-.33.31c-.13.34-.44.54-.67.79s-1,.27-1.44-.13a4.66,4.66,0,0,1-1.36-1.55l-.16.06c0,.49,0,1,0,1.47a6.68,6.68,0,0,1-.09,1.34c-.11.52-.47.64-.95.57-.21,0-.44-.17-.57.08a.57.57,0,0,0,.12.62c.35.42.34,1,.82,1.36l-.12.1-1.1-.29L93,218.31a5.13,5.13,0,0,0,2.21,3.25c-.1.22-.22.13-.34,0l-.64-.59c-.34-.33-.55-.65-1.18-.23s-2.59-.18-3.17-.85c-1-1.17-.79-3.88.09-5a2.12,2.12,0,0,1,1.17-.71c.29-.07.33-.18.18-.43a3.91,3.91,0,0,1-.06-3.95,2.65,2.65,0,0,1-1.4-.4.6.6,0,0,1,.61-.08,1.38,1.38,0,0,0,1.38-.42,3.87,3.87,0,0,1,4-.92,3.53,3.53,0,0,1,1.56,1,2.57,2.57,0,0,1,.24.36c.17.26.28.63.51.76s.51-.27.8-.37a2,2,0,0,1,.69-.14,3.64,3.64,0,0,1-2.35-.82c-.3-.22-.62-.43-.62-.85-.29.08-.49.31-.75.12A8.06,8.06,0,0,1,97.53,206a.22.22,0,0,1,.17.1c0,.78.64,1.08,1.23,1.36a5,5,0,0,0,6-.94.61.61,0,0,1,.9-.08c.31.22.62.44.95.65,1.91,1.25,5.62,1.22,7.18-.16a.82.82,0,0,1,1,0,10.63,10.63,0,0,0,3.89,1.13,11.05,11.05,0,0,0,3.92-.37,12.8,12.8,0,0,0,1.67-.51,1.87,1.87,0,0,1,1.39.1,15.42,15.42,0,0,0,3.48.77,9.77,9.77,0,0,0,5.65-1.05,1.14,1.14,0,0,1,1.36.06,6.28,6.28,0,0,0,5.52.69,6,6,0,0,0,2.4-1.2.59.59,0,0,1,1,.1c.21.3.61.48.64.89-.13.47,0,1-.51,1.35a2.36,2.36,0,0,0-1.76.4,8.2,8.2,0,0,1-6.74.2,5,5,0,0,1-1-.6.77.77,0,0,0-.85-.06,12.36,12.36,0,0,1-4.22,1.19,11,11,0,0,1-5.07-.87,2,2,0,0,0-1.55,0,13.13,13.13,0,0,1-4.3.93,9.93,9.93,0,0,1-4.5-1.09,1.3,1.3,0,0,0-1.36,0,7.41,7.41,0,0,1-8.19-.13.55.55,0,0,0-.71,0,6.71,6.71,0,0,1-2.92,1.18,7.13,7.13,0,0,1,1.35,1.09.36.36,0,0,0,.52,0,4.24,4.24,0,0,0,.75-.59c.49-.49.53-.5,1.12-.09a7.2,7.2,0,0,0,1.65,1,6.68,6.68,0,0,0,6.26-.51,1.05,1.05,0,0,1,1.2-.06,10.28,10.28,0,0,0,8.49.47,4.13,4.13,0,0,1,2.82,0,11.34,11.34,0,0,0,7.22.18,7,7,0,0,0,1.46-.67.93.93,0,0,1,1.19.05c1.91,1.59,5.68,1.27,7.5-.09a3.12,3.12,0,0,1,.76-.47c.31-.11.57-.1.59.3a7,7,0,0,1-.11,1.74c-2.5,1.91-6.55,2.15-8.88.58a1.33,1.33,0,0,0-1.48,0,10.6,10.6,0,0,1-8.33.35,3.76,3.76,0,0,1-.42-.16,2.22,2.22,0,0,0-1.92,0,10.22,10.22,0,0,1-5.73.7,11.93,11.93,0,0,1-2.87-1,1.19,1.19,0,0,0-1.26,0,7.93,7.93,0,0,1-4.31,1.2,8.36,8.36,0,0,1-3.57-1.06c-1-.52-1.72-.11-2.06.94a6,6,0,0,0-.44,2.61A.12.12,0,0,1,103.52,216.55Z"/><path class="cls-31" d="M103.64,216.52a3.74,3.74,0,0,0-.06-.54c-.14-.55-.38-1.11.28-1.52.05,0,.07-.15.06-.23-.08-.8.37-1.24,1.06-1.65.34-.2.45-.25.79,0a7.21,7.21,0,0,0,8.07.18,1.5,1.5,0,0,1,1.69,0,10.3,10.3,0,0,0,9,0,.87.87,0,0,1,.78,0,10.76,10.76,0,0,0,9.2,0,1.69,1.69,0,0,1,1.82.1,7.62,7.62,0,0,0,7.85-.18,1.29,1.29,0,0,1,.8-.31,4.46,4.46,0,0,1,.13,1.39,6.1,6.1,0,0,0,1.48,3.39,11.15,11.15,0,0,1,2,3.24c.1.31-.23.33-.25.52a.82.82,0,0,1-.86-.09,46.11,46.11,0,0,0-13.55-4.23,60.05,60.05,0,0,0-7.14-.68,45.55,45.55,0,0,0-8.37.41,53.67,53.67,0,0,0-10.58,2.53c-1.26.45-2.53.87-3.74,1.44a1,1,0,0,1-.75.13c-.24-.49.21-.87.24-1.32,0-.19.12-.38.11-.59,0-.4,0-.8,0-1.2A2.48,2.48,0,0,0,103.64,216.52Z"/><path d="M152.39,188H150c0-.39.46-.31.51-.62l-3-1.23a.41.41,0,0,0-.61.24,1.32,1.32,0,0,1-1.32.77c-.4-.12-.49-.44-.54-.77a4.44,4.44,0,0,1-.07-.61c0-.66-.34-.83-1-.5-.3.16-.61.31-.9.48s-.47.12-.47-.24,0-.82,0-1.22-.26-.75-.73-.85a6.41,6.41,0,0,0-.77-.13c-1-.09-1-.08-1-1,0-.63,0-1.27,0-1.9,0-.41-.15-.53-.56-.52-.69,0-1.39,0-2.08,0-.37,0-.49-.12-.49-.46,0-1,0-2,0-2.94,0-.36.14-.54.53-.52H138c1.11,0,1.42-.47,1-1.45,0-.07-.11-.15-.1-.22,0-.29-.2-.69.12-.84s.5.22.73.4c1.16.87,2.31,1.76,3.51,2.58a79.63,79.63,0,0,0,8.83,5.24c1.16.58,2.33,1.13,3.52,1.64.26.11.45.22.47.5,0,1.2-.21,2.39-.17,3.59a5.82,5.82,0,0,0,.61,2.69c.08.15.31.5,0,.56s-.8.23-1.07-.12a5.43,5.43,0,0,1-.5-1,.52.52,0,0,1-.25-.34c-.09-1.1-.09-1.1-1.27-1.11A1.64,1.64,0,0,1,152.39,188Z"/><path class="cls-31" d="M145.87,207.44c-.25-.36-.68-.55-.9-.94s-.34-.12-.55,0a7.56,7.56,0,0,1-5.42,1.56,5.23,5.23,0,0,1-3-1.18c-.16-.14-.27-.23-.5-.1-3.24,1.87-6.58,1.63-10,.43a1.51,1.51,0,0,0-1.11,0,11.64,11.64,0,0,1-8.17.32c-.61-.22-1.16-.73-1.74-.73s-1,.61-1.56.81a7.29,7.29,0,0,1-7.27-1.16c-.22-.17-.31-.27-.55,0a5.31,5.31,0,0,1-7.09.61c-.45-.32-.62-.6-.4-1.08-.06-.15.05-.27.1-.41.26-.74.33-.77,1.11-.53a6.86,6.86,0,0,0,6-.66,1,1,0,0,1,1.08,0,8.93,8.93,0,0,0,3.21,1.11,7.89,7.89,0,0,0,4.78-1c.24-.13.46-.32.77-.18a7.49,7.49,0,0,0,4.21,1.37,10.46,10.46,0,0,0,5.37-.87,1.34,1.34,0,0,1,1.54,0,6.47,6.47,0,0,0,3.22.82,12.16,12.16,0,0,0,5-.58c.52-.21.95-.56,1.45-.78a.69.69,0,0,1,.55.14,8.09,8.09,0,0,0,7.88.11c.67-.33,1.18-.42,1.73.13.34.35.89.42,1.26.74A4,4,0,0,1,145.87,207.44Z"/><path class="cls-31" d="M145.08,210.58c-.18-.34-.34-.35-.68-.09a7.43,7.43,0,0,1-5.49,1.54,5.08,5.08,0,0,1-3-1.2.35.35,0,0,0-.5-.06c-3.19,1.84-6.5,1.61-9.85.45a1.56,1.56,0,0,0-1.16,0,11.5,11.5,0,0,1-8.23.32A5,5,0,0,1,115,211a.81.81,0,0,0-1.14,0c-1.87,1.48-5.53,1.4-7.74-.25-.55-.41-.93-.68-1.41,0a.79.79,0,0,1-.13.13c-.73.62-.71.6-1.39,0a4.94,4.94,0,0,0-1.38-1,6.08,6.08,0,0,0,2.93-1.12c.57-.5.91-.27,1.39,0a7.33,7.33,0,0,0,8.13-.28.54.54,0,0,1,.68,0,10.68,10.68,0,0,0,5.07,1.29,12.67,12.67,0,0,0,4.44-1.06,1.13,1.13,0,0,1,1,0,13.15,13.15,0,0,0,3.67,1,10.39,10.39,0,0,0,5.81-1.15.78.78,0,0,1,.92,0,7.75,7.75,0,0,0,8.12.22c.52-.3.91-.55,1.38,0A5.2,5.2,0,0,1,145.08,210.58Z"/><path class="cls-32" d="M103.35,220.3c1.2-.33,2.3-.9,3.46-1.32A58.69,58.69,0,0,1,117,216.32a49.4,49.4,0,0,1,6.42-.63,54.91,54.91,0,0,1,9,.47,48.8,48.8,0,0,1,12.47,3.21c1,.41,2,.9,3,1.37a.82.82,0,0,0,.55.12c-.06.27-.34.35-.5.53a29.25,29.25,0,0,0-5.52-2.43A52.85,52.85,0,0,0,121,216.34a53.56,53.56,0,0,0-17.33,4.45c-.46.2-.91.46-1.36.68-.22,0-.18-.17-.1-.24C102.6,220.92,102.85,220.48,103.35,220.3Z"/><path class="cls-6" d="M146.88,205.41a2.81,2.81,0,0,1-1.63-.79c-.39-.38-.67-.28-1-.07a8.28,8.28,0,0,1-7.4.46,13.58,13.58,0,0,1-1.34-.71,5.64,5.64,0,0,1,1-1.06.77.77,0,0,1,.44.09,7.72,7.72,0,0,0,5.32.19,13.07,13.07,0,0,0,1.78-.69l.57-.43c.2-.17.37,0,.48.09a6.68,6.68,0,0,0,2.11,1.48c.68.43,0,.83-.05,1.24C147.09,205.29,147,205.35,146.88,205.41Z"/><path class="cls-33" d="M150.61,212.88h.19c.51.06,1.19-.25,1.48.12s0,.9,0,1.37c0,1.21-.77,2.07-1.4,3a9.62,9.62,0,0,1-1.39,1.85c-.79-1.28,0-2.47.28-3.62.23-.85.4-1.71.68-2.55C150.49,213,150.5,212.87,150.61,212.88Z"/><path class="cls-34" d="M164.58,185.89a2.19,2.19,0,0,0,1.12.19,11.81,11.81,0,0,0-1.3,2.15c-.06.16-.14.33-.19.49-.19.68-.36,1.35-.54,2a1,1,0,0,1-1,0,9.39,9.39,0,0,1,1.53-4.5A4.46,4.46,0,0,1,164.58,185.89Z"/><path class="cls-35" d="M161,190.21a16.35,16.35,0,0,0-.26-4.77c.29-.23.54-.2,1,.12a10,10,0,0,1,.1,4.22c0,.3-.06.6-.09.91C161.11,191,160.93,190.87,161,190.21Z"/><path class="cls-36" d="M161,190.21c-.07.66.39.52.79.47-.35,1-.18,2.11-.71,3.08-.09.17,0,.4-.06.6-.11.86-.54,1.65-.63,2.51,0,.09,0,.23-.15.22s-.26-.1-.24-.24a4.75,4.75,0,0,1,.16-1.61,7.55,7.55,0,0,0,.37-1.9C160.68,192.31,160.82,191.26,161,190.21Z"/><path class="cls-37" d="M162.71,190.74a3.16,3.16,0,0,1,1,0,22.06,22.06,0,0,1-1.3,4.61,4,4,0,0,1-.53.81c-.06.08-.14.18-.25.09a.24.24,0,0,1,0-.22,15.13,15.13,0,0,0,1-4.28C162.61,191.42,162.66,191.08,162.71,190.74Z"/><path class="cls-38" d="M144,202.84a7.61,7.61,0,0,1-7.29.59,1.19,1.19,0,0,1-.24-.19c.08-.16-.2-.34,0-.48a8.71,8.71,0,0,0,7.24.08C143.81,202.8,143.91,202.83,144,202.84Z"/><path class="cls-17" d="M132.67,190.84h22.08c-.24.2-.54.11-.8.11H133.16C133,190.93,132.81,191,132.67,190.84Z"/><path class="cls-39" d="M157.48,202.59a9.77,9.77,0,0,1,.46-2.85,7.42,7.42,0,0,0,.18-2.06,9.69,9.69,0,0,0-.18-2.89c.86,1,.54,5.53-.46,7.8Z"/><path class="cls-40" d="M154.35,209.21a5.21,5.21,0,0,1,.33-2,4.05,4.05,0,0,0,.05-1.39,8.05,8.05,0,0,0-.43-3.44,1.19,1.19,0,0,1,.55,1,34,34,0,0,1-.1,4.87,3.28,3.28,0,0,1-.41,1Z"/><path class="cls-39" d="M149.63,205.54c-.36-1.6-.91-3.21.09-5A20.09,20.09,0,0,0,149.63,205.54Z"/><path class="cls-41" d="M157.48,202.59a2.33,2.33,0,0,1-.22,1.28,1.36,1.36,0,0,0,0,1.24c.3.56-.17,1,0,1.53-.16-.1-.24-.12-.24-.16a12,12,0,0,1,.23-3.74c0-.12.14-.14.25-.15Z"/><path class="cls-42" d="M159.06,200.12v-4.88a17.25,17.25,0,0,1,.17,4.89Z"/><path class="cls-43" d="M153.28,197.83a5.62,5.62,0,0,1,0-4.68C153,194.71,152.53,196.27,153.28,197.83Z"/><path class="cls-44" d="M150.61,212.88l-.17.14a20.14,20.14,0,0,0-.19-3.86A7.08,7.08,0,0,1,150.61,212.88Z"/><path class="cls-45" d="M148.49,204.11a22.54,22.54,0,0,1,0-2.44c0-.14,0-.3.25-.27s.16.14.14.23a12.69,12.69,0,0,0-.13,2.35s-.06.09-.09.14Z"/><path class="cls-17" d="M154.87,189.35l.11.26c-.32.36,0,.84-.23,1.21a.4.4,0,0,0-.31-.15,4.13,4.13,0,0,1,0-2.4c.31-.19.37,0,.39.23S154.74,189.08,154.87,189.35Z"/><path class="cls-46" d="M153.31,212.28c0-.93.61-1.68.79-2.56,0-.14,0-.41.26-.52h0a6.81,6.81,0,0,1-1,3.08Z"/><path class="cls-47" d="M147.15,204a4.15,4.15,0,0,1-2-1.26c-.16-.16-.26-.38-.55-.31,0-.33.28-.25.39-.12C145.54,203,146.49,203.33,147.15,204Z"/><path class="cls-48" d="M159.69,152.22c.27-.11.06-.35.15-.51a4.86,4.86,0,0,1,.41,2.1A2.77,2.77,0,0,1,159.69,152.22Z"/><path class="cls-49" d="M163.09,172.75c.29-.34.06-.73.11-1.09s0-.48,0-.72c.33.13.22.41.24.63,0,.39,0,.77,0,1.16,0,.13.07.34-.13.36S163.11,172.92,163.09,172.75Z"/><path class="cls-50" d="M156,204.7v3.39h-.07v-3.41Z"/><path class="cls-51" d="M161.75,185.56c-.35,0-.65-.36-1-.12-.35-.08-.25-.39-.35-.6a2.22,2.22,0,0,0,1.15.33C161.62,185.29,161.83,185.34,161.75,185.56Z"/><path class="cls-52" d="M153.3,212.28c0,.33-.11.7.49.56,0,.36-.39.45-.56.85a2.52,2.52,0,0,1,.08-1.4Z"/><path class="cls-50" d="M155.43,210c-.17-.57.41-.87.41-1.36A1.29,1.29,0,0,1,155.43,210Z"/><path class="cls-53" d="M157.46,140.76c-.45-.22-.19-.64-.37-1,.42.05.47.32.51.58C157.39,140.44,157.54,140.63,157.46,140.76Z"/><path class="cls-45" d="M149.1,206.32a2.24,2.24,0,0,1-.21-1.35A2.72,2.72,0,0,1,149.1,206.32Z"/><path class="cls-54" d="M170.14,168.54a1.15,1.15,0,0,1,.23-.89.75.75,0,0,1,.13.66C170.27,168.23,170.27,168.47,170.14,168.54Z"/><path class="cls-55" d="M164.27,166.13c0-.29-.17-.64.25-.83C164.49,165.59,164.66,165.94,164.27,166.13Z"/><path class="cls-56" d="M156.95,168.82c-.36-.15-.23-.44-.23-.69C157.1,168.27,156.94,168.57,156.95,168.82Z"/><path class="cls-57" d="M126,254.55c0,.22.18.57-.12.65a3.58,3.58,0,0,1-1.16,0c-.14,0-.1-.2-.1-.32-.09-1.94-.17-3.87-.26-5.81,0-.27.07-.38.35-.37h.06c1.36-.13,1.45-.08,1.86,1.15.35,1.07,1,2,1.28,3.12,0,.06.11.1.23.21.23-.73.41-1.42.6-2.1a16.15,16.15,0,0,0,.7-2.32c0-.21.15-.28.39-.32,1.55-.23,1.55-.24,1.62,1.21s.09,3.14.21,4.71c.05.72-.46.51-.82.58s-.45-.22-.46-.5q0-1.31-.07-2.63c-.19-.28-.07-.59-.11-.89s-.09-.21-.24-.09c-.39,1.31-.79,2.61-1.15,3.93-.09.32-.31.3-.53.3s-.51.15-.65-.2c-.27-.64-.63-1.25-.85-1.9a10.18,10.18,0,0,1-.74-1.85c0-.19-.21-.17-.23-.19v2.33C126.07,253.69,125.78,254.16,126,254.55Z"/><path d="M142,249c0,1.21,0,2.33,0,3.45,0,.4,0,.63-.55.78s-.56-.15-.74-.41c-.78-1.11-1.62-2.2-2.36-3.34-.39-.61-.79-1.21-1.18-1.8,0,0,0-.06,0-.06,1.2-.41,1.21-.41,1.9.63.44.67.86,1.36,1.26,2.06.1.18.28.27.4.41,0-1.21,0-2.4,0-3.6,0-.43.12-.58.56-.71s.48.2.63.41l2,3c0-1.26,0-2.47,0-3.68,0-.36.75-.88,1.12-.77.17.05.13.19.13.3,0,2,0,4.08.07,6.12,0,.53-.44.41-.71.54s-.39-.09-.52-.29C143.36,251,142.68,250,142,249Z"/><path class="cls-57" d="M86.18,241.57c-.3.74-.95,1.27-1.31,2-.11.21-.26.13-.43,0-.84-.42-.91-.68-.33-1.39a30.15,30.15,0,0,0,2.11-2.95c.31-.49.68-.95,1-1.42.12-.17.22-.22.42-.08.58.41,1.18.79,1.76,1.2a2,2,0,0,1,.91,2.42,2.2,2.2,0,0,1-2.76,1.21c0,.83,0,1.64,0,2.45,0,.33.06.55-.47.29a1.36,1.36,0,0,1-.91-1.67,12.15,12.15,0,0,0,.13-1.46C86.37,242,86.68,241.68,86.18,241.57Z"/><path d="M157.12,242.9c-.18.34,0,.4.4.46A1.9,1.9,0,0,1,159,245a1.93,1.93,0,0,1-1.09,1.89,11.2,11.2,0,0,1-1.05.57c-.85.42-.87.43-1.33-.34q-1.19-2-2.31-4c-.5-.9-.47-.9.51-1.44a2.47,2.47,0,0,1,2.35-.41A1.58,1.58,0,0,1,157.12,242.9Z"/><path d="M95.44,246.85a1.86,1.86,0,0,1-2.56,1.29,14.91,14.91,0,0,1-2.18-1c.64-1.21,1.24-2.44,1.94-3.61a17.63,17.63,0,0,1,1-1.92c.12-.15.2-.27.38-.17a11.56,11.56,0,0,1,1.88,1,1.64,1.64,0,0,1-.4,2.83c-.46.2,0,.39-.08.58A1.09,1.09,0,0,1,95.44,246.85Z"/><path class="cls-57" d="M153.12,249.08l-.28.14c-1,.5-1,.51-1.75-.33a.47.47,0,0,0-.65-.17,5,5,0,0,1-.9.34c-.85.22-1.26.63-1.11,1.55s-.8.49-1.1.88l-.14-.09c0-.42,0-.85,0-1.27a48.53,48.53,0,0,0-.27-5.17c0-.51.34-.55.68-.71a.59.59,0,0,1,.81.15C150,246,151.54,247.51,153.12,249.08Z"/><path d="M173.53,235.74c-.1.12-.19.24-.29.34-.37.41-.78.67-1.33.25a1.53,1.53,0,0,0-.51-.25c-.47-.13-2.05,1.38-1.93,1.82.06.22.13.43.2.65a1,1,0,0,1-.67,1.13c-.24,0-.35-.24-.4-.41-.16-.48-.36-.93-.54-1.4-.5-1.27-1-2.54-1.56-3.78a.93.93,0,0,1,.39-1.38.43.43,0,0,1,.47-.05l6,2.92A1.36,1.36,0,0,1,173.53,235.74Z"/><path d="M133.88,254.54s0,0,0,0c-1.27.35-1.3.34-1.07-.86.36-1.8.76-3.6,1.1-5.41.1-.52.53-.39.84-.49a.52.52,0,0,1,.67.29c.8,1.34,1.67,2.64,2.5,4a6.69,6.69,0,0,1,.93,1.67l-.32.06c-1,.17-1.05.18-1.53-.74a.44.44,0,0,0-.54-.29c-.64.11-1.28.19-1.92.31s-.28.53-.37.81S134.09,254.38,133.88,254.54Z"/><path d="M107.66,251.34c.1-1.34.67-2.59.84-3.92a.53.53,0,0,1,.77-.45c.38.12.84.14.62.71-.41,1-.47,2.16-.82,3.22-.15.45-.38,1,.19,1.45a.74.74,0,0,0,1.26-.34,15.09,15.09,0,0,0,.69-2.65c.06-.56.41-1.05.43-1.63,0-.24.23-.19.4-.15l1,.26a6.22,6.22,0,0,0-.3.92,23.76,23.76,0,0,1-1,3.8,2.17,2.17,0,0,1-3.4.88,1.45,1.45,0,0,1-.67-1A1.32,1.32,0,0,1,107.66,251.34Z"/><path d="M94.92,249.11l2.52-2.56,2.27-2.32a.41.41,0,0,1,.56-.08c.24.15.68.07.67.52,0,2.14-.05,4.28-.08,6.42,0,.09,0,.21-.11.25s-1.22-.52-1.16-.79c.24-.94-.27-1.36-1.15-1.56l-.18-.06c-1.07-.39-1.08-.4-1.83.44a.42.42,0,0,1-.55.12Z"/><path d="M83.64,234.8c.26.05.43.37.72.55.54.34,1,.78,1.54,1.14s.27.66,0,1-.57,0-.82-.08a2.93,2.93,0,0,1-.54-.41c-.93-.74-1-.72-1.6.25-.17.26-.08.41.13.56l1.21.85a.36.36,0,0,1,0,.65c-.22.16-.36.68-.82.26s-.82-.64-1.21-1c-.22-.19-.34-.14-.51.07-.83,1-.83,1,.27,1.79.09.06.15.14.23.21.49.41.44.88-.13,1.19a.28.28,0,0,1-.34-.06c-.82-.63-1.63-1.26-2.47-1.88-.2-.14-.18-.26-.06-.4,1.11-1.26,2.23-2.51,3.33-3.77.24-.27.37-.63.69-.85C83.38,234.87,83.4,234.74,83.64,234.8Z"/><path d="M162.39,240.94c0,.16-.16.18-.27.24-.5.31-1,.65-1.48,1-.13.08-.24.14-.15.26.26.36.53.71.82,1s.36,0,.5-.08a13.33,13.33,0,0,0,1.2-.79c.28-.21.43-.21.58.11a.85.85,0,0,0,.32.44c.16.09.12.19-.07.3-.87.54-1.71,1.12-2.57,1.68-.21.14-.34.13-.51-.11-.7-1-1.43-2.05-2.16-3.07q-.63-.88-1.29-1.74c-.16-.2-.26-.3.07-.49.85-.5,1.65-1.07,2.47-1.61.64-.41.5.4.85.51.18.05.15.3-.15.43a6.51,6.51,0,0,0-.89.59c-.7.45-.76.83-.18,1.42a.43.43,0,0,0,.63.1c.37-.27.77-.49,1.16-.74.17-.1.3-.4.53-.2A4.47,4.47,0,0,1,162.39,240.94Z"/><path class="cls-57" d="M107.2,247.66c-.12.17.17.63-.23.58s-1,.07-.95-.62c0-.38-.32-.51-.63-.58a.66.66,0,0,0-.75.34.67.67,0,0,0,.13.89c.49.43,1.15.64,1.51,1.25a1.33,1.33,0,0,1,.24,1,2.23,2.23,0,0,1-3.41,1.71,2,2,0,0,1-.8-2.25c.05-.11.1-.18.22-.11.37.19,1.08,0,.9.78-.08.38.21.64.62.73A.81.81,0,0,0,105,251a.82.82,0,0,0-.15-1.07c-.3-.28-.66-.49-1-.76a1.71,1.71,0,0,1-.34-2.13,1.75,1.75,0,0,1,1.6-1.12,2.09,2.09,0,0,1,1.91.9A1.5,1.5,0,0,1,107.2,247.66Z"/><path class="cls-57" d="M164.74,234.51c.45,1.4.75,2.78,1.12,4.14a5,5,0,0,0,1.27,1.75c.18.2.43.43.06.54s-.58,1-1.06.24c-1-1.64-2.85-2.24-4.48-3.09l-.06,0c-1.14-.63-1.08-.36-.12-1.17.35-.29.61,0,.86.09.62.32,1.21.68,1.81,1,.1.06.21.2.33.07s0-.21-.08-.32c-.25-.74-.48-1.49-.72-2.24-.06-.19,0-.29.18-.39S164.4,234.75,164.74,234.51Z"/><path class="cls-57" d="M77.28,238a2,2,0,0,1-1.45-.93,1.8,1.8,0,0,1,.09-1.92c.12-.22.27-.26.44-.06s.9.48.58,1.11c-.07.14.06.32.29.41a.66.66,0,0,0,.71-.13,21.9,21.9,0,0,0,1.7-1.76c.5-.5,1-1,1.48-1.53.23-.26.38-.18.56,0a1.41,1.41,0,0,0,.38.31c.28.15.26.38,0,.6-1,1.08-2.08,2.17-3.14,3.25A2.07,2.07,0,0,1,77.28,238Z"/><path class="cls-57" d="M115.35,251.18c.52-.81,1.3-1.44,1.83-2.24s1.21-.46,1.92-.35c-.81.92-1.58,1.83-2.4,2.69-.2.21-.21.35-.09.51.64.92.88,2,1.45,3a1.11,1.11,0,0,1,.07.27c-.41,0-.8-.08-1.17-.15-.12,0-.29-.1-.32-.18-.34-1-1-2-1.28-3C115.3,251.5,115.23,251.34,115.35,251.18Z"/><path class="cls-58" d="M115.35,251.18v.49c-.2-.18-.33-.26-.37.11-.07.79-.19,1.57-.25,2.36,0,.37-.18.45-.52.37a2.88,2.88,0,0,0-.57-.09c-.35,0-.4-.19-.31-.44a18.06,18.06,0,0,0,.5-3.35c.2-.22,0-.54.22-.76l.16-1.45c0-.25,0-.61.43-.46s1-.18.86.61a16,16,0,0,0-.22,1.87C115.26,250.69,115.08,251,115.35,251.18Z"/><path class="cls-57" d="M119.62,252.22c.07-1.31.15-2.27.17-3.23,0-.36.13-.44.5-.41,1,.08,1.1.11.88,1a30.47,30.47,0,0,0-.32,3.7,10.94,10.94,0,0,0-.09,1.47c0,.54-.37.37-.66.36s-.66.06-.61-.45C119.58,253.74,119.6,252.8,119.62,252.22Z"/><path class="cls-59" d="M130,250.88c-.07-.21.07-.33.28-.53a3.94,3.94,0,0,1,.07,1.51C129.87,251.64,130.31,251.14,130,250.88Z"/><path class="cls-60" d="M126,254.55c-.43-.37-.2-.83-.22-1.26C126.25,253.66,126,254.13,126,254.55Z"/><path class="cls-61" d="M107.66,251.34v1.13A.69.69,0,0,1,107.66,251.34Z"/><path class="cls-62" d="M95.44,246.85v-1C95.81,246.16,95.85,246.5,95.44,246.85Z"/><path class="cls-63" d="M86.18,241.57a.23.23,0,0,1,.22-.25c.19,0,.19.15.17.25s.12.5-.25.6C86.2,242,86.44,241.73,86.18,241.57Z"/><path class="cls-64" d="M114,249.87c0,.27.16.59-.22.76C113.83,250.36,113.64,250,114,249.87Z"/><path class="cls-65" d="M133.88,254.54c0-.23-.1-.51.25-.62C134.13,254.15,134.29,254.45,133.88,254.54Z"/><path class="cls-6" d="M83.84,186.81l.24-.75a.61.61,0,0,0-.18-.72,11.42,11.42,0,0,1-2.27-3.47,3.61,3.61,0,0,1-.63-1.39,2.33,2.33,0,0,1,1-2.54.52.52,0,0,0,.24-.54A2.45,2.45,0,0,1,84.8,175c.44,0,.6-.28.36-.64a.84.84,0,0,0-.17-.18c-1.41-1.15-2-2.77-2.78-4.3a2.13,2.13,0,0,1,.64-2.46.81.81,0,0,0,.4-.77c-.12-1,1.14-2,2.09-1.94a.6.6,0,0,0,.72-.44,2,2,0,0,1,.67-.81c.2-.13.42-.22.63-.33a3.6,3.6,0,0,1,4,.76,1.26,1.26,0,0,1,.34.77,2.06,2.06,0,0,1-.15,1.07c-.09.16-.23.33,0,.49a.5.5,0,0,0,.54,0,1.46,1.46,0,0,1,.39-.2,1.65,1.65,0,0,1,1.32,2.08c-.14.34-.17.54.19.75a1,1,0,0,1,.47.89,3,3,0,0,1-.82,2.07c-.1.13-.25.32-.48.12a.42.42,0,0,0-.58-.23c-.42.12-.82.27-1.22.42-.62.24-.85.1-.89-.51,0-.06,0-.12,0-.18s.08-.47-.13-.57-.34.19-.48.32-.43.15-.51-.14a1.21,1.21,0,0,1,.05-.84,3.73,3.73,0,0,0,.14-1.76,4.62,4.62,0,0,0-1,1.23c-.19.24-.36.51-.56.75-.41.52-.66.52-1.14,0-.16-.16-.28-.36-.45-.53s-.26-.32-.46-.5c-.32.6-.58,1.29-1.42,1.28a1.14,1.14,0,0,1-.94-.72,4.63,4.63,0,0,0,1.67,3.66c.25.22.48.37.84.1a3.87,3.87,0,0,1,4.21-.29,1.12,1.12,0,0,0,1.4-.06.53.53,0,0,1,.58-.17c.13.4-.23.54-.47.71s-.48.39-.22.75a1.08,1.08,0,0,1,.17.76c-.06.54.15.81.73.94A2,2,0,0,1,93.94,178a1.58,1.58,0,0,1-.15,1c-.07.15-.16.25,0,.41a2.1,2.1,0,0,1,.53,2.57,3.54,3.54,0,0,1-.68,1,.3.3,0,0,1-.45-.16c-.06-.11-.12-.2-.27-.18-.6.19-1.18.43-1.77.61s-.84,0-.88-.58c0,0,0-.08,0-.12,0-.28.12-.65-.15-.8s-.42.26-.64.38-.22.17-.35.07a.43.43,0,0,1-.13-.45,10.89,10.89,0,0,0,.1-2.13c0-.14.05-.28-.06-.42a10.12,10.12,0,0,0-1.65,2.18c-.48.68-.63.7-1.18.05-.39-.46-.79-.92-1.15-1.4a2,2,0,0,1-.66,1.36c-.54.52-1.32.29-1.79-.47-.4,1.12.93,3.47,1.91,4.1.26.17.45,0,.66-.08a4.55,4.55,0,0,1,2.63-.52,2.57,2.57,0,0,1,2.2,1.31c.07.16.09.34.15.51a1.11,1.11,0,0,1,0,.16c.07.14-.07.39.25.38,1.45-.36,2.66.22,2.94,1.41a.94.94,0,0,1,0,.48c-.1.34,0,.49.39.59a1.18,1.18,0,0,1,1,1.18l0,.26a2.52,2.52,0,0,1-.39,2.56.21.21,0,0,1-.26-.08c-.24-.69-.26-.69-.87-.22-.39.29-.71.66-1.12.93s-.64.18-.8-.22a7,7,0,0,0-.43-.82c-.16-.29-.33-.29-.51,0a1.66,1.66,0,0,1-.1.16c-.14.17-.09.53-.38.5s-.27-.36-.34-.59c-.25-.9-.58-1.78-.9-2.67-.32,1.05-.68,2.07-.91,3.13-.11.53-.4.62-.9.31s-1.1-.71-1.77-1.09c0,.83.11,1.65-.85,2-.59.2-1-.19-1.37-.56a4.77,4.77,0,0,0,2,2.9,4.47,4.47,0,0,1,1,.79v.09A4.2,4.2,0,0,1,84,196.61c-.77-.57-1.3-1.37-2.08-1.94a3,3,0,0,1-.65-2.68s0,0,0-.05c.79-.42.4-1.06.33-1.63a2.47,2.47,0,0,1,.76-2,.83.83,0,0,1,.34-.34A8.67,8.67,0,0,0,83.84,186.81Z"/><path class="cls-6" d="M89.29,209.18a4.61,4.61,0,0,1-2.55-1.87c-.11-.14-.09-.36-.38-.3A2.39,2.39,0,0,1,84,205.92a3.06,3.06,0,0,1,1.54-4.82c.08,0,.17-.09.24-.08.93.1.93-.37.76-1a1.51,1.51,0,0,1,0-.73,1.12,1.12,0,0,0-.64-1.5h0a.55.55,0,0,1,.5,0,6,6,0,0,0,4.44-.43,1.2,1.2,0,0,1,.36-.12.47.47,0,0,0,.7-.12.65.65,0,0,1,.76-.29c.53.26.67.79.91,1.23s.4.45.86.35a3.64,3.64,0,0,1,3.9,1,3,3,0,0,1,.76,2.15c0,.22,0,.47-.34.5-.17,0-.43-.29-.41.13s-.2.48-.3.72-.32.3-.58.21c-.64,0-1,.51-1.5.77a10.81,10.81,0,0,0-1.58,1,.56.56,0,0,1-.92-.14c-.74-1-1.53-2-2.25-3.11-.22.25-.15.56-.29.79a.87.87,0,0,0-.16.65,17.69,17.69,0,0,1-.26,2.05c-.1.59-.39.79-1,.69s-1.05-.23-1.57-.36-.57.06-.49.43a4.87,4.87,0,0,0,1.5,2.83C89.07,208.81,89.32,208.91,89.29,209.18Z"/><path class="cls-8" d="M89.29,209.18a4.75,4.75,0,0,1-2.09-3.69c0-.4.17-.38.44-.32.63.14,1.25.27,1.87.44s.78,0,.84-.52c.08-.71.17-1.41.26-2.12.18-.19.05-.47.23-.66s.09-.52.15-.78c0-.1-.06-.27.14-.27s.2.1.27.22c.67,1.13,1.56,2.13,2.28,3.23.19.29.32.16.51,0,.94-.59,1.89-1.17,2.83-1.76.18-.12.32-.2.51,0,.78.87.78,1.73,0,3.06a8.91,8.91,0,0,1-1.58,2.07h0a4.26,4.26,0,0,0-4.43,1.4c-.19.22-.38.11-.59.09l-1.08-.13Z"/><path class="cls-58" d="M83.84,186.81a1.43,1.43,0,0,0,0,.24c.07.49,0,.86-.68.82-.32,0-.49.32-.78.39a5.75,5.75,0,0,1-.12-1.73,3.06,3.06,0,0,1,1.25-.12C83.83,186.38,83.79,186.64,83.84,186.81Z"/><path class="cls-66" d="M97.53,222.8a12.73,12.73,0,0,0,2.47-.25A3,3,0,0,1,97.53,222.8Z"/><path class="cls-67" d="M95.43,221.81l.9.5C95.93,222.42,95.45,222.15,95.43,221.81Z"/><path class="cls-23" d="M133.76,221.22l-1.19,2.11c-.11.2-.3.19-.5.15s-.38-.12-.4-.38c-.09-.86-.21-1.72-.33-2.64a.72.72,0,0,0-.31.64c-.09.58-.2,1.16-.27,1.74,0,.35-.26.34-.54.33s-.35-.18-.33-.45c.09-1.22.57-2.37.63-3.59,0-.21.14-.33.34-.25s.75-.08.88.35a3.39,3.39,0,0,1,.08.61c.21.22,0,.54.23.76.05.4.1.81.16,1.21,0,.1-.06.27.14.28a.25.25,0,0,0,.24-.16c.39-.7.84-1.38,1.17-2.11.24-.51.61-.32,1-.29s.35.32.31.59a28,28,0,0,1-.6,3.4c-.1.32-.24.3-.49.28s-.36-.15-.32-.4c.1-.6.18-1.21.27-1.81a.3.3,0,0,0,.08-.36C133.93,221.15,133.84,221.18,133.76,221.22Z"/><path class="cls-2" d="M113.82,219.92c.81-.31.74-.28,1.13.37s.42,1.24,1,1.74a12.86,12.86,0,0,1,.29-2.36c.07-.21.14-.32.35-.35s.28.1.38.25c.44.63.56,1.41,1.28,2,0-.71,0-1.41,0-2.12,0-.53.39-.54.72-.54s.2.34.19.51a20,20,0,0,1-.37,3.63c-.05.21-.13.33-.35.37s-.32,0-.46-.22c-.46-.61-.5-1.4-1.18-2.06,0,.35,0,.62,0,.88a4.55,4.55,0,0,1-.21,1.49c-.07.18-.13.28-.33.29s-.32,0-.43-.17c-.32-.6-.66-1.19-1-1.79S114.16,220.56,113.82,219.92Z"/><path class="cls-2" d="M142.1,223.05a1,1,0,0,1-1,.88c-.4,0-.34.24-.28.45.12.47.26.95.41,1.46-1.57-.2-1-1.51-1.5-2.25a4.87,4.87,0,0,0-.51,1.26c0,.26-.2.37-.45.23s-.64,0-.46-.47c.46-1.17.91-2.35,1.36-3.53,0-.09,0-.18.19-.2a3.55,3.55,0,0,1,2.26,1.3A.82.82,0,0,1,142.1,223.05Z"/><path class="cls-68" d="M111.44,222.18c0-.45.09-.89.12-1.34,0-.25,0-.45.39-.51a.57.57,0,0,1,.68.26c.82,1.14,1.69,2.26,2.52,3.36-.5.27-.92.31-1.25-.22s-.62-.14-1-.1c-.6.07-1,.25-1,.92,0,.46-.46.38-.72.41s-.17-.29-.16-.44c0-.45.06-.89.1-1.34C111.45,222.89,111.2,222.49,111.44,222.18Z"/><path class="cls-2" d="M123.78,222.86c-.63.2-1.08.08-1.26-.54-.07-.23-.23-.26-.45-.24a6.35,6.35,0,0,1-.84,0,.49.49,0,0,0-.59.48c0,.21,0,.43-.38.48-.59.09-.73,0-.54-.53.4-1.18.9-2.33,1.19-3.55.07-.31.32-.27.54-.31s.4.1.51.34C122.54,220.29,123.15,221.55,123.78,222.86Z"/><path class="cls-2" d="M135.3,222.67a16,16,0,0,1,.62-2.52c.15-.55.47-.15.7-.13s.28.23.12.42c0,0,0,0,0,0-.22.81-.31,1.66-.61,2.46-.13.35.11.58.45.68s.45-.17.6-.41a4.48,4.48,0,0,0,.48-1.74c.06-.35.31-.6.35-1s.26-.11.41-.08.41,0,.34.32c-.26,1-.47,2.09-.82,3.1a1.15,1.15,0,0,1-1.25.66c-.58-.07-1.17-.17-1.35-.84A1.05,1.05,0,0,1,135.3,222.67Z"/><path class="cls-69" d="M126.34,221.07c0-.33,0-.65,0-1s.18-.85-.56-.8c-.27,0-.16-.28-.17-.45s0-.31.29-.3l2,.09c.22,0,.35.09.33.34s-.06.44-.34.4c-.63-.1-.63.25-.63.67,0,.83-.05,1.67,0,2.5,0,.35-.16.39-.47.38s-.5,0-.48-.39,0-1,0-1.47Z"/><path class="cls-2" d="M110.68,225a1.2,1.2,0,0,1-2,.23c-.12-.13-.38-.3-.21-.41s.5-.39.8-.21.31.24.51.12.17-.38.1-.56c-.26-.75-.52-1.51-.85-2.24-.23-.51-.15-.74.41-.85.21,0,.32,0,.38.2a25.65,25.65,0,0,1,.86,2.71A1,1,0,0,1,110.68,225Z"/><path class="cls-23" d="M129,223c-.58.11-.8-.06-.73-.66.13-1.05.18-2.11.22-3.17,0-.38.18-.47.56-.47s.4.23.38.51c-.07,1-.13,2-.19,3C129.09,222.51,129.3,222.84,129,223Z"/><path class="cls-70" d="M103.35,220.3l-1.1,1.11s0,0,0,0l.06,0-.13.22c-.23-.18-.46,0-.84.07,1.05-.94,2-1.78,2.15-3.1.06-.7,0-1.42,0-2.13l.12,0c.36.13.24.41.24.65a1.76,1.76,0,0,0,0,1.33A15.43,15.43,0,0,1,103.35,220.3Z"/><path class="cls-71" d="M110.68,225l0-1C111.09,224.35,111.11,224.69,110.68,225Z"/><path class="cls-72" d="M135.3,222.67v1C134.88,223.34,134.92,223,135.3,222.67Z"/><path class="cls-73" d="M111.44,222.18c0,.35.18.74-.22,1C111.24,222.85,111,222.45,111.44,222.18Z"/><path class="cls-74" d="M142.1,223.05v-.87C142.53,222.48,142.51,222.77,142.1,223.05Z"/><path class="cls-75" d="M133.76,221.22c0-.16.07-.31.26-.35,0,0,.11.07.11.11,0,.22.09.49-.24.6C133.82,221.48,133.94,221.3,133.76,221.22Z"/><path class="cls-76" d="M132,220.61c-.4-.17-.21-.49-.23-.76C132.21,220,132,220.34,132,220.61Z"/><path class="cls-77" d="M129,223c.08-.25-.15-.59.25-.74C129.25,222.55,129.55,222.92,129,223Z"/><path class="cls-8" d="M124.49,235.21c1.89-.38,3.76-.88,5.6-1.43.34.33.82.23,1.21.26,1,.09,2,.3,3,.29a2.18,2.18,0,0,1,.69.16.38.38,0,0,1,.2.64,3.14,3.14,0,0,1-3.34,1.49c-2.28-.32-4.56-.67-6.81-1.2A1.26,1.26,0,0,1,124.49,235.21Z"/><path class="cls-5" d="M98.71,202c.45-.34.27-.82.17-1.17-.65-2.34-2.69-2.8-4.72-2.13-.28.09-.39.13-.57-.19-.3-.56-.4-1.25-1-1.63a.28.28,0,0,1,0-.39,17.83,17.83,0,0,0,1.83-3.21,4.59,4.59,0,0,0,.45-2.53,1.56,1.56,0,0,0,.86.21c7,0,13.92,0,20.88,0,.71,0,.89-.41,1.2-.81a7.34,7.34,0,0,0,1.4-1.88,13.93,13.93,0,0,0,1.58-1.8c.21.13.13.33.12.5,0,3.59,0,7.18,0,10.77a4.4,4.4,0,0,1-1.79,3.52,2.7,2.7,0,0,1-3.63-.41c-.32-.35-.49-.5-.69.08-.09.26-.31.47-.37.75a1.72,1.72,0,0,1-.85,1.22,4.56,4.56,0,0,1-2.89.85,8.92,8.92,0,0,1-4.57-.84,2.23,2.23,0,0,1-.71-.36c-.22-.09-.38.05-.53.15a6.6,6.6,0,0,1-5.58.9l-.63-.14c-.45-.19-.58-.46-.24-.84C98.5,202.42,98.46,202.13,98.71,202Z"/><path class="cls-6" d="M128.88,198.4a6.3,6.3,0,0,0,2,3.07,3.27,3.27,0,0,0,3.9-.27c.34-.34.49-.34.62.11a3.93,3.93,0,0,0,.43.93c.45.74.26,1.22-.58,1.85a6.25,6.25,0,0,1-3.37,1.25c-2,.14-4,.34-5.82-.72a2,2,0,0,0-2.08,0,10.13,10.13,0,0,1-8.33,0,4.41,4.41,0,0,1-1.19-.89,1.52,1.52,0,0,1,.07-1.86s.11-.07.14-.11c.17-.24.05-.7.43-.74s.41.35.66.52a3,3,0,0,0,3.9-.41,4.32,4.32,0,0,0,1.28-2.3c.05-.35.17-.45.47-.16a2.85,2.85,0,0,0,.37.23c.91.61.92.62,1.76-.08.18-.15.31-.19.49,0s.29.23.43.36c.65.63.65.63,1.28,0s.68-.66,1.43.07c.29.28.43.29.71,0A10.75,10.75,0,0,1,128.88,198.4Z"/><path class="cls-6" d="M127.23,130.64a2.7,2.7,0,0,1,.34,1.4q.1,4.64.19,9.28c0,1.39,0,2.77,0,4.16.07,4.1.07,8.2.25,12.29.14,3,.2,6,.27,9a2,2,0,0,0,.05.3c.07,4.24,0,8.49.25,12.73.19,3.42.12,6.84.28,10.26a6.79,6.79,0,0,1-1.08,1.34c-.22-.14-.49-.26-.55-.54a3.26,3.26,0,0,1,0-.61c-.07-6.47,0-12.94-.22-19.41-.36-12.28-.29-24.56-.49-36.83,0-.83-.21-1.65-.2-2.48,0-.5.13-.76.68-.78C127.09,130.76,127.16,130.68,127.23,130.64Z"/><path class="cls-6" d="M121.77,163.64a1.28,1.28,0,0,0,.08-.66c.06-3,.06-5.91.19-8.86.3-6.75.37-13.51.52-20.27,0-.24,0-.49,0-.73,0-.63,0-1.26.06-1.9,0-.21,0-.46.31-.41s.67,0,.61.44a2.39,2.39,0,0,0,0,.31c-.08,9.82,0,19.64-.26,29.45s-.19,19.46-.31,29.19c0,.53-.38.77-.61,1.14-.08.13-.22.12-.31,0-.27-.36-.65-.63-.92-1s-.11-.79,0-1.19a2,2,0,0,0,.1-.53q.18-9,.35-17.94a1.65,1.65,0,0,0,0-.18,1.17,1.17,0,0,0,.11-.71c0-1.34,0-2.68,0-4a1,1,0,0,1,.12-.71Z"/><path class="cls-9" d="M125.18,161.05q0-14.64,0-29.28c0-.16,0-.33,0-.49s.21-.25.39-.29.24.14.25.29,0,.12,0,.18c.33,6.64.26,13.29.35,19.94.09,6.35,0,12.7.23,19,.23,6.53.15,13.05.33,19.58a2.61,2.61,0,0,1-.65,1.57c-.12.18-.25.15-.36,0a2.06,2.06,0,0,1-.57-1.28Q125.21,175.69,125.18,161.05Z"/><path class="cls-6" d="M124.65,161.11q0,14.58,0,29.16c0,.16,0,.33,0,.49,0,.38-.13.87-.52.86s-.66-.42-.69-.85c0-.2,0-.41,0-.61.07-8.76,0-17.52.23-26.27.26-10.69.19-21.38.36-32.07,0-.16,0-.33,0-.49s0-.32.28-.31.35.1.33.34,0,.33,0,.49Q124.65,146.47,124.65,161.11Z"/><path class="cls-6" d="M98.71,202a1,1,0,0,1-.26.79c-.22.23-.08.38,0,.55a13.08,13.08,0,0,0,2.37.57,5.52,5.52,0,0,0,4.09-1.35c.13-.11.23-.4.5-.16s.27.33.52.34a8.63,8.63,0,0,0,6.47.9c.45-.12.83-.46,1.33-.42l.92,1.08c-.69.23-1.26.66-1.94.91a7.6,7.6,0,0,1-6.65-.55,1.08,1.08,0,0,0-1.32,0,6.74,6.74,0,0,1-6.13.52c-.5-.17-.66-.11-.7.35a.59.59,0,0,1-.31.5h-.11c0-.51.38-.9.42-1.41a2.88,2.88,0,0,0-.4-1.64c.31,0,.61-.4.63-.86,0-.19,0-.39.23-.45S98.66,201.83,98.71,202Z"/><path class="cls-6" d="M123,128.47a4.41,4.41,0,0,1,.12-2.68,5.73,5.73,0,0,1,.75-1.89c.2-.27.49-.49.59-.83.24-.36.42-.52.85-.09a6.15,6.15,0,0,1,1.5,2.67c-.06.57.33,1.06.32,1.64s.09,1.05-.44,1.43c-.38.35-.68.19-.93-.15s-.42-.32-.59,0-.33.35-.48,0c-.08-.19-.21-.37-.39-.1C123.87,129.13,123.46,128.84,123,128.47Z"/><path class="cls-6" d="M128.92,195.71c0,.64,0,1.21,0,1.78,0,.23,0,.45-.33.47-.07,0-.12.1-.19.16-.9.7-.91.71-1.72-.07-.2-.19-.32-.22-.52,0s-.56.43-.79.68-.5.22-.72-.05l0,0c-.76-.83-.77-.85-1.59-.1-.25.23-.36.27-.73.1a2,2,0,0,1-1.3-2.43c.06-.41.1-.46.52-.31a10.39,10.39,0,0,0,5.93.34C127.91,196.09,128.37,195.9,128.92,195.71Z"/><path class="cls-9" d="M128.92,193.53c0,.15,0,.27,0,.39,0,1.32,0,1.35-1.34,1.72a10.09,10.09,0,0,1-6.11-.32c-.62-.22-.45-.7-.46-1.12,0-.74,0-.72.75-.49a9.69,9.69,0,0,0,6.89-.16A1.25,1.25,0,0,1,128.92,193.53Z"/><path class="cls-9" d="M127.79,192.24c.45-.28.59-.82,1.14-1.09,0,.24,0,.41,0,.59,0,1.29,0,1.31-1.32,1.68a10.16,10.16,0,0,1-6.11-.3c-.55-.19-.52-.57-.48-1s-.17-.81.11-.88.53.39.72.65.4.41.63,0c.07-.12.23-.18.31-.29.27-.43.44-.24.61.07s.27.36.39.54c.32.49.49.27.69-.05l.22-.37c.15-.27.27-.31.51,0,.76.88.78.88,1.47-.08.23-.32.35-.37.58,0A4.58,4.58,0,0,0,127.79,192.24Z"/><path class="cls-9" d="M126.88,128.72c.31,0,.46.14.46.44s0,.68,0,1c-.1.13-.15.3-.35.34a9.07,9.07,0,0,1-4,.05c-.24-.06-.49-.18-.46-.43,0-.42-.21-.87.16-1.27s.41,0,.52.08.44.32.69.17.56-.55.89,0a.29.29,0,0,0,.24,0c.3-.52.56-.23.9,0S126.71,129.14,126.88,128.72Z"/><path class="cls-78" d="M113.76,203.21a7.58,7.58,0,0,1-7.8-.48,12.06,12.06,0,0,0,3.48.85,9.08,9.08,0,0,0,4-.7C113.85,202.78,113.78,203,113.76,203.21Z"/><path class="cls-20" d="M121.75,165.09c.08,1.71,0,3.43,0,5.14a.28.28,0,0,1-.19.29l0-3.6c0-.45,0-.89,0-1.34C121.52,165.39,121.43,165.15,121.75,165.09Z"/><path class="cls-30" d="M86.83,163.53c-.29.34-.69.62-.73,1.11,0,.28-.21.23-.41.22a2,2,0,0,0-2.3,2c0,.32,0,.49-.42.65a2.12,2.12,0,0,0-.52,2.55,13.89,13.89,0,0,1,.9,1.72,7,7,0,0,0,2,2.38c.46.3.09.63,0,.93s-.33.1-.51.07a2.26,2.26,0,0,0-2.08,1,3.55,3.55,0,0,1-.23.43c-.32.42,0,1-.22,1.34s-.83.41-1,.9a3.43,3.43,0,0,0,.54,3.18,23.49,23.49,0,0,0,1.53,2.55,4.05,4.05,0,0,0,.78.79c.53.35.3.52-.09.73a4.7,4.7,0,0,1-1.67.12l-10.81-.12c-.41,0-.62-.09-.56-.51a1.53,1.53,0,0,0,0-.24q0-30,0-60c0-.59.18-.77.79-.89a25.08,25.08,0,0,0,7.79-3,28.54,28.54,0,0,0,6.29-4.87,23.2,23.2,0,0,0,5.78-9.55,13.64,13.64,0,0,0,.44-1.88.63.63,0,0,1,.54-.57,104.46,104.46,0,0,1,17.07-3.6c1.72-.21,3.44-.41,5.21-.52-.69.49-1.38,1-2.05,1.49a18.5,18.5,0,0,0-3.54,3.71,28.7,28.7,0,0,0-1.87,3,11.86,11.86,0,0,0-.71,1.75,9.12,9.12,0,0,0-.75,2.5.69.69,0,0,1-.27.46l-8.49,2.94c-1.17.41-2.34.84-3.53,1.2-.47.14-.51.36-.34.7a17,17,0,0,1,1,2.48c.22.67.29.72,1,.48l9.89-3.4c.33,1.43.19,2.92.54,4.34a22.71,22.71,0,0,0,1.93,5.35,22.23,22.23,0,0,0,2.48,3.65c.16.2.05.21-.06.31a4.51,4.51,0,0,0-1.6,3.8c0,.67,0,1.35,0,2,0,.18-.11.43.21.5a3.34,3.34,0,0,0,2.54,3c.45.16.53.3.33.67a1.56,1.56,0,0,0-.11.78c0,1.88-.07,3.76,0,5.63.07,1.51.06,3,.1,4.53,0,.91.39,1.26,1.34,1.24.43,0,.63.13.71.52a9.66,9.66,0,0,1,.05,1.53c0,.31-.22.29-.44.3-1.09.05-1.64.58-1.65,1.61,0,.61-.19,1.28.53,1.7a.2.2,0,0,1,0,.36c-.66.44-.57,1.1-.52,1.71s-.12.68-.64.63a8,8,0,0,0-.85,0c-.78,0-1.12.33-1.14,1.08,0,.59,0,1.18,0,1.78,0,.34-.1.48-.48.46s-.79,0-1.17,0a1.39,1.39,0,0,0-1.57,1.5c0,.63,0,1.27,0,1.9,0,.83.46,1.26,1.36,1.27.48,0,1,0,1.43,0s.46.1.45.42c0,.69,0,1.39,0,2.08,0,.42.11.61.58.55a1.81,1.81,0,0,1,.46,0c.22,0,.54-.13.65.11s-.2.48-.4.63a84.52,84.52,0,0,1-9.76,6.41,59,59,0,0,1-7.24,3.49l-.06,0c-.21-.4.16-.47.39-.62a4.25,4.25,0,0,0,.82-2.12c0-1-.16-1.19-1.13-1.5a1.36,1.36,0,0,0,.39-1.71A1.85,1.85,0,0,0,92,176.41c-.5,0-.53-.19-.49-.58a1.55,1.55,0,0,0-.36-1.42c-.15-.14-.08-.24.11-.37a2.23,2.23,0,0,0,1-.86,4.83,4.83,0,0,1,.81-1.27l.06,0s0,0,0,.07c1-.42,1.65-2.68.7-3.1l-.56-.27a1.5,1.5,0,0,0-.81-2.52c-.11,0-.21,0-.31,0-.26,0-.63.06-.63-.25s0-.63.38-.77a8.6,8.6,0,0,0,1.1-.37,8.42,8.42,0,0,0,3.11-2.62A1.71,1.71,0,0,0,96,159.9c-.18-.23-.08-.4,0-.61a1.35,1.35,0,0,0-.79-2c-.37-.13-.74-.16-.69-.7.11-1,.08-1,.81-1.21l.32-.07A4.31,4.31,0,0,0,97.8,154a1.71,1.71,0,0,1,.53-.61,3,3,0,0,0,1-1.33.87.87,0,0,0-.37-1.22c-.3-.16-.27-.32-.12-.59a1.17,1.17,0,0,0-.61-1.81c-.3-.12-.76-.12-.67-.59s.48-.4.82-.46l.13,0a5,5,0,0,0,2.92-1.17,3.76,3.76,0,0,0,1-.84,1.15,1.15,0,0,0,.14-1.52.39.39,0,0,1,0-.54c.55-.68.51-1.3-.22-1.76-.49-.31-.66-.6-.36-1.09a.38.38,0,0,0,0-.12c.15-.66.15-.66.88-.52.93.19,2.1-.53,2-1.42-.12-1.45.69-2.57,1.25-3.79a3.25,3.25,0,0,0,.35-1.42c0-.75-.49-1.07-1.26-.83a3.48,3.48,0,0,0-1.25.76c-.57.51-1.09,1.06-1.62,1.59a1.75,1.75,0,0,1-1.2.53c-1.47.09-2.14,1-1.69,2.35.13.38,0,.59-.38.69a1.83,1.83,0,0,0-1,.61c-.17.21-.4.19-.65.13a1.53,1.53,0,0,0-2,1,.8.8,0,0,1-.5.51,1.6,1.6,0,0,0-1,1.58,2.7,2.7,0,0,0,.08.67,10.46,10.46,0,0,0,.52,2c.27.28.2.51-.1.72a2.13,2.13,0,0,0-1.19,1.06c-.09.26-.35.25-.6.25-1.18,0-1.7.37-2,1.41a1.11,1.11,0,0,1-.42.59,1.72,1.72,0,0,0-.49,2.34c.14.26.2.54.32.8a3.58,3.58,0,0,0,.73,1.52.49.49,0,0,1,.14.45,5,5,0,0,0-1.31,1.3c-.11.22-.39.2-.64.19A1.9,1.9,0,0,0,86.75,157a.83.83,0,0,1-.47.67,1.88,1.88,0,0,0-.81,1.94c.2.69.56,1.32.72,2a2.18,2.18,0,0,0,.37.95C86.75,162.87,87,163.15,86.83,163.53Z"/><path class="cls-6" d="M101,188.29c-.34-.44-.79-.42-1-.79a23.07,23.07,0,0,1,2.44-1,.29.29,0,0,1,.36.17,1,1,0,0,0,.28.41c.37.25.72.66,1.26.42a1.29,1.29,0,0,0,.81-1.14c.11-1.08.12-1.08,1.1-.49l.16.1c.82.41,1,.47,1-.53,0-1.65,0-1.73,1.87-1.75.58,0,.78-.14.75-.7,0-.77,0-1.55,0-2.33,0-.39.13-.48.52-.47.72,0,1.43,0,2.15,0,.35,0,.44-.11.44-.42,0-1.16,0-2.33,0-3.49,0-.36-.14-.47-.48-.45h-.13c-.47-.06-1.11.17-1.36-.15s-.06-.86-.06-1.31c0-.08,0-.16,0-.24,0-.45.15-1-.07-1.31s-.84-.1-1.29-.11-.4-.14-.39-.41c0-.69,0-1.39,0-2.08,0-.48-.15-.59-.62-.56s-1.09,0-1.63,0c-.76,0-1-.21-1-.9s0-1.55,0-2.33.32-.92,1-.93,1.17,0,1.76,0c.31,0,.41-.08.41-.38,0-.71,0-1.43,0-2.14,0-.55.22-.82.85-.8s1.23.19,1.64-.15.1-1,.12-1.45c0-.75.63-1,1.23-1.25-.95-.14-1.24-.47-1.22-1.32,0-.22,0-.45,0-.67a1.1,1.1,0,0,1,1.31-1.15c.63,0,.84-.15.79-.74a12.9,12.9,0,0,1,0-1.77c0-.33-.11-.44-.45-.4l-.45,0c-1,.07-1.38-.27-1.4-1.18q0-1.71,0-3.43c0-.83.37-1.19,1.25-1.24.4,0,.51-.17.5-.53,0-.8,0-1.59,0-2.39,0-.14-.08-.4.18-.39.62,0,.5-.35.51-.68,0-1.48.1-3,.13-4.43,0-.54.06-1,.81-1-.14-.39-.79,0-.81-.56s.24-.65.7-.84c-.42-.1-.58-.18-.29-.56.65-.83,1.21-1.73,1.8-2.61.09-.14.22-.2.57-.31a1.21,1.21,0,0,0-.33,1.1c0,1.59,0,3.18,0,4.78,0,.4-.12.55-.54.51-.19,0-.47-.1-.47.24s.27.28.46.26c.49-.05.56.18.55.57,0,2.92,0,5.84,0,8.76,0,.48-.13.66-.64.61-.25,0-.61-.05-.58.29s.35.25.58.23c.51-.06.64.14.64.61q0,3.7,0,7.41c0,.5-.12.72-.68.63a1.77,1.77,0,0,0-.45,0c-.17,0-.18.15-.18.27a.18.18,0,0,0,.18.21h.13c1,.14,1,.14,1,1.07,0,2.1,0,4.21,0,6.31,0,.43-.12.58-.58.54s-.65,0-1,0-.27.06-.27.25.1.24.28.24a9.53,9.53,0,0,0,1,0c.47,0,.57.13.57.55,0,4.72,0,9.43,0,14.15,0,2.37,0,4.74,0,7.1,0,.21-.17.48.17.65.16.08,0,.16-.09.17a4.63,4.63,0,0,1-.52,0q-10.2,0-20.4,0c-.54,0-.73-.13-.68-.64s-.19-1.28.1-1.59,1.14-.15,1.74-.16C98.35,188.27,99.58,188.29,101,188.29Z"/><path d="M94.77,190.46a1.46,1.46,0,0,0-1.63-1.1,1.68,1.68,0,0,0-.6-2.12,2.19,2.19,0,0,0-2.19-.24c-.24-.14-.07-.44-.26-.6a.5.5,0,0,0,0-.11c-.13-.29.11-.42.31-.51a7.18,7.18,0,0,0,1.9-1.43l.12-.13A.76.76,0,0,1,93,184a49,49,0,0,0,5.17-2.33c1.33-.67,2.61-1.41,3.89-2.15,1.76-1,3.44-2.14,5.13-3.26,1.18-.78,2.21-1.74,3.48-2.48a6.36,6.36,0,0,1,0,1.66c0,.45.11.6.61.6,1.48,0,1.48,0,1.48,1.39,0,.67,0,1.35,0,2,0,.36-.11.52-.52.5-.58,0-1.18,0-1.76,0s-.77.19-.74.73c0,.71,0,1.43,0,2.14,0,.39-.06.59-.56.6a10.07,10.07,0,0,0-1.53.21.57.57,0,0,0-.53.66c0,.43,0,.86,0,1.29s-.16.44-.52.29a9.07,9.07,0,0,0-1-.55c-.49-.14-.76-.1-.72.47a1.17,1.17,0,0,1-.11.71c-.2.36-.31.81-.83.82a1.24,1.24,0,0,1-1.07-.78c-.23-.42-.42-.38-.79-.21-.93.42-1.89.8-2.87,1.21.14.24.5.22.63.54-.94,0-1.87,0-2.78,0-.61,0-1.21.07-1.81.11-.39,0-.47.27-.33.49.34.54.12,1.12.18,1.67C95.17,190.58,95,190.57,94.77,190.46Z"/><path class="cls-9" d="M117.36,133.48l1.12.61a.41.41,0,0,1,.25.4c0,.18,0,.37,0,.55q0,26.21,0,52.42a2.68,2.68,0,0,1-.78,2.08c-.2.2-.36.43-.6.72Z"/><path class="cls-79" d="M93,184l-.53.38c-.19-.25,0-.44.15-.59a1.72,1.72,0,0,0,.47-1.29c.23-.17.27,0,.3.15s-.08.39.25.35c-.13.21-.35.36-.39.62Z"/><path class="cls-6" d="M154.45,188.26a11.75,11.75,0,0,1,0,2.42H132.76c.45-.2.36-.55.36-.85,0-7,0-14,0-21.06,0-.57.12-.84.77-.73a4.63,4.63,0,0,0,.65,0c.18,0,.28,0,.28-.23s0-.28-.25-.26h-.2c-1.24,0-1.24,0-1.24-1.18,0-2,0-4.08,0-6.12,0-.46.09-.68.63-.62.18,0,.53.17.54-.22s-.36-.29-.57-.26c-.51.05-.61-.13-.6-.58q0-3.73,0-7.47c0-.44.06-.71.62-.62.19,0,.47.1.49-.23s-.3-.3-.51-.27c-.51.07-.6-.14-.6-.58q0-4.41,0-8.82c0-.41.09-.61.57-.55.16,0,.42.07.44-.22s-.26-.29-.45-.27c-.49.06-.56-.15-.56-.55,0-1.69,0-3.39,0-5.08a.77.77,0,0,0-.06-.47c-.06-.09-.4.07-.22-.18s.25,0,.34.1c.68,1,1.38,2,2,3,.22.34-.29.11-.36.33.2.2.55.28.6.7.07.6-.5.37-.75.64.64.12.78.54.76,1,0,1.57.08,3.14.1,4.71,0,.29.1.43.41.4s.4.15.42.43a16.52,16.52,0,0,0,.11,2.79c1.55.33,1.55.33,1.55,1.92,0,1,0,1.92,0,2.88s-.35,1.21-1.34,1.14c-.84-.06-.84-.06-.83.73,0,.57,0,1.14,0,1.72,0,.29,0,.45.42.44s.91-.11,1.28.36a2.19,2.19,0,0,1,.35,2c-.12.46-.65.79-1.46.71,1.23.38,1.73,1,1.51,2.11-.12.58.06.9.77.81a6.77,6.77,0,0,1,.85,0c.72,0,1,.24,1,.93s0,1.31,0,2c0,.31.08.44.43.42.54,0,1.09,0,1.63,0,.7,0,1,.27,1,.95s0,1.59,0,2.39c0,.57-.28.82-.86.83s-1.26,0-1.89,0c-.35,0-.5.1-.48.46a11.11,11.11,0,0,0,.17,2c.09.4-.09.58-.56.59-1.33,0-1.33,0-1.32,1.27,0,.49,0,1,0,1.47,0,.27-.09.34-.37.35-.49,0-1.15-.17-1.44.14s-.08.94-.09,1.43c0,.8,0,1.59,0,2.39,0,.36.13.45.49.44.67,0,1.35,0,2,0,.38,0,.47.11.47.45,0,.84,0,1.67,0,2.51,0,.42.15.51.56.5a4.58,4.58,0,0,1,1.67.19c.29.1.42.23.4.52,0,.49,0,1,0,1.47s.24.47.54.34.77-.43,1.17-.63.58-.19.55.29a1.65,1.65,0,0,0,.25,1,1,1,0,0,0,1.83.15.91.91,0,0,1,1.36-.32c.58.3,1.2.53,1.84.8-.27.3-.71.34-1,.77h3.43A3.81,3.81,0,0,1,154.45,188.26Z"/><path class="cls-9" d="M132.45,190.26a4.47,4.47,0,0,1-1.44-2.92q.08-26.25,0-52.49a2.05,2.05,0,0,1,1.36-1.37c.15,0,.18.08.18.19s0,.37,0,.55q0,27.69,0,55.37C132.58,189.79,132.68,190,132.45,190.26Z"/><path class="cls-15" d="M154.45,188.26l-2.06,0V188c.62,0,1.24,0,1.86,0s.68.11.62.57a5.86,5.86,0,0,0,0,.78c-.22-.2-.1-.45-.12-.68S154.78,188.26,154.45,188.26Z"/><path class="cls-80" d="M97.38,208.71a5.07,5.07,0,0,0,2.64.91,4.68,4.68,0,0,0-2,.93c0-.58-.54-.91-.67-1.4,0-.1-.14-.16-.19-.24C97,208.65,97.16,208.64,97.38,208.71Z"/><path class="cls-81" d="M97.38,208.71c-.38.14.24.3,0,.44a12.18,12.18,0,0,0-1.45-1.05h0c.45.12.5-.35.85-.52C96.81,208.05,96.88,208.5,97.38,208.71Z"/><path class="cls-82" d="M138.16,216.21a9.39,9.39,0,0,0,4.22,0A6.09,6.09,0,0,1,138.16,216.21Z"/><path class="cls-83" d="M111.06,216.48a7.67,7.67,0,0,1-3.81-.38A15.58,15.58,0,0,0,111.06,216.48Z"/><path class="cls-6" d="M103.87,218.51a1.07,1.07,0,0,1,0-1.33Z"/><path class="cls-11" d="M89.18,240.51a1.13,1.13,0,0,1-1.35,1,6.13,6.13,0,0,1-.93-.38c-.24-.1-.23-.26-.1-.44l1-1.3a.27.27,0,0,1,.26-.14A2.32,2.32,0,0,1,89.18,240.51Z"/><path class="cls-84" d="M157.65,245.24c0,.3-.72,1-1,1a2.7,2.7,0,0,1-.83-1.35c.16-.4.59-.44,1-.47A.82.82,0,0,1,157.65,245.24Z"/><path class="cls-85" d="M156,242.91a.82.82,0,0,1-.68.85c-.35.1-.32-.29-.45-.48a.76.76,0,0,1-.1-.22c-.05-.2-.54-.31-.2-.56a1.07,1.07,0,0,1,1-.18C155.94,242.46,155.91,242.74,156,242.91Z"/><path class="cls-84" d="M94.28,246.2a.76.76,0,0,1-.79.84c-.38,0-.82-.09-1-.49a3.13,3.13,0,0,1,.82-1.34A1.41,1.41,0,0,1,94.28,246.2Z"/><path class="cls-86" d="M95.28,243.71a.68.68,0,0,1-.48.7c-.37.17-.66,0-1-.14s-.08-.2,0-.31c.13-.33.43-.58.52-.93,0-.13.21-.15.32,0S95.31,243.28,95.28,243.71Z"/><path class="cls-85" d="M148.35,246.14a15.61,15.61,0,0,1,1.46,1.48c-.36.17-.71.34-1.08.5s-.4.06-.39-.24C148.36,247.32,148.35,246.78,148.35,246.14Z"/><path class="cls-86" d="M170,235.38c-.44.13-.59.49-.89.72s-.48.09-.57-.14a4.38,4.38,0,0,0-.53-1.27.22.22,0,0,1,0-.22c.08-.09.19,0,.28,0Z"/><path class="cls-85" d="M134.65,251.1l.18-1.21c.59.34.62,1,1,1.43.1.1.17.32-.06.33-.47,0-.92.35-1.41.09C134.6,251.56,134.46,251.28,134.65,251.1Z"/><path class="cls-61" d="M134.65,251.1c0,.23.14.52-.23.64C134.4,251.49,134.3,251.23,134.65,251.1Z"/><path class="cls-87" d="M99.66,246c0,.65,0,1.2,0,1.75,0,.37-.18.35-.43.25s-.7-.29-1.1-.45Z"/><path class="cls-6" d="M95.78,155.41l-.19,0c-.26.07-.69.08-.76.23a5.65,5.65,0,0,0-.16,1.14c-.05.24.24.15.39.19a1.67,1.67,0,0,1,1.38,1.55,1,1,0,0,1-.54,1.09,1.61,1.61,0,0,1,.38,2.47A8.14,8.14,0,0,1,92.63,165a1.48,1.48,0,0,1-.55.17c-.5,0-.53.32-.52.6s.34.1.51.16.26,0,.36.11a.82.82,0,0,1-.8.39c-.44,0-.63-.26-.38-.59a1.94,1.94,0,0,0,.27-1.15,1.26,1.26,0,0,0,1.06-.1,9.86,9.86,0,0,0,2.3-1.47c.18-.14.4-.36.28-.57s-.42,0-.64,0-.59.14-.89.2c-.6.11-.69,0-.73-.52,0-.28.08-.57-.1-.82a.16.16,0,0,0-.14,0c-.25.12-.46.51-.76.31s-.05-.5,0-.75a4.5,4.5,0,0,1,.18-.9,1.24,1.24,0,0,0,.12-1.08h-.06l-.06,0a11.36,11.36,0,0,0-1.5,1.69c-.47.55-.68.53-1.15,0-.31-.37-.46-.83-.8-1.24-.3.57-.54,1.21-1.35,1.22-.5,0-.76-.34-.92-.88a2.29,2.29,0,0,0-.14,1.22c0,.22.12.44,0,.65a.12.12,0,0,1-.16,0,14.69,14.69,0,0,0-.57-1.47,2.35,2.35,0,0,1,0-1.79,1.08,1.08,0,0,1,.89-.92c.35-.05.24-.29.26-.47a2,2,0,0,1,2.52-1.78c.12,0,.25.14.32,0,.27-.66,1-1,1.37-1.55a5,5,0,0,1,2.76.38,1.69,1.69,0,0,1,.76.55,1.27,1.27,0,0,0,1.34.62C95.74,155.24,95.84,155.28,95.78,155.41Z"/><path class="cls-8" d="M91.37,197.32a7.7,7.7,0,0,1-3.15.87,5.72,5.72,0,0,1-2.31-.4,8,8,0,0,1-2.82-2.66,2.4,2.4,0,0,1-.31-1.38c.51.31.88,1,1.57.66.93-.44.64-1.31.64-2.09a12.15,12.15,0,0,1,2,1.25c.47.3.55.15.65-.25.18-.74.4-1.47.56-2.22a4.6,4.6,0,0,1,.5-1.06,13.71,13.71,0,0,1,1.17,3.41c.07,0,.12,0,.12-.06.1-.42.24-1,.65-1s.54.59.71.95c.34.72.31.75,1,.26s1.06-.86,1.65-1.33a2.26,2.26,0,0,1,.22.89,2.39,2.39,0,0,1-.47,1.42A7.45,7.45,0,0,1,91.93,197,1.33,1.33,0,0,1,91.37,197.32Z"/><path class="cls-8" d="M93,182.46c.41.49,0,.88-.23,1.25-.15.2-.37.36-.39.64h0a11.15,11.15,0,0,1-1.61,1.21c-.28.12-.52.39-.89.25-.72-1.28-2.54-1.45-3.82-1.05a2.39,2.39,0,0,0-.87.38c-.45.4-.7.18-1-.13-1.23-1.13-2.21-3.31-1.72-4.51.26.05.27.28.34.45a.89.89,0,0,0,.87.61,1,1,0,0,0,.86-.53,3.36,3.36,0,0,0,.46-1.24,13.19,13.19,0,0,1,1.57,1.79c.31.33.39.15.54-.06.39-.56.75-1.15,1.17-1.69.27-.35.47-.79,1-1a27.37,27.37,0,0,1-.1,3.44l.62-.65c.1-.1.17-.24.36-.2a.35.35,0,0,1,.29.36c0,.36.05.73.06,1.1s.16.42.49.28A14.6,14.6,0,0,1,93,182.46Z"/><path class="cls-8" d="M93.09,172a3.33,3.33,0,0,1-.88,1.22.81.81,0,0,0-.22.1,1.5,1.5,0,0,1-2.09.19A3.46,3.46,0,0,0,86,174c-.35.42-.68,0-.8-.13a5.14,5.14,0,0,1-1.86-3.44,1.6,1.6,0,0,1,0-.31c0-.14.06-.28.11-.48.19.26.34.49.52.69.41.46,1.13.24,1.48-.4.16-.29-.05-.82.36-.87s.3.55.6.72.39.47.58.7c.41.48.54.14.73-.12a14.06,14.06,0,0,1,1.85-2.3c.37,1.08-.17,2.1-.13,3.17.4-.1.34-.42.54-.58s.22-.2.39-.14a.31.31,0,0,1,.21.28,7.66,7.66,0,0,1,.06.91c0,.39.14.45.51.3a9.72,9.72,0,0,1,2-.64A.69.69,0,0,1,93.09,172Z"/><path class="cls-8" d="M86.18,161.65a4.8,4.8,0,0,1,0-1.88c0-.12,0-.32.24-.3s.14.17.16.28c.09.42.27.81.81.79a1.06,1.06,0,0,0,.93-.72c.1-.23.09-.53.4-.62a15.23,15.23,0,0,1,1,1.55c.26.51.47.17.63,0,.41-.42.77-.89,1.16-1.33.17-.2.38-.37.57-.56.47.37.23.8.12,1.21L92,161.72l.46-.35c.15-.11.22-.41.5-.27s.15.36.15.56,0,.65,0,1.06c.62-.15,1.23-.3,1.84-.43.16,0,.41-.08.48,0s0,.35-.06.51a3.33,3.33,0,0,1-1.18,1.08A8.2,8.2,0,0,1,92.11,165c-.35.12-.51.05-.59-.26-.09-.79-.71-1.14-1.37-1.43a3.51,3.51,0,0,0-2.81,0,.34.34,0,0,1-.48-.15A3.77,3.77,0,0,1,86.18,161.65Z"/><path class="cls-88" d="M91.37,197.32a8.82,8.82,0,0,0,2.86-4.19l.14.12a7.11,7.11,0,0,1-1.56,3.09c-.12.17-.29.29-.25.52a1.14,1.14,0,0,0-.62.46C91.8,197.46,91.56,197.76,91.37,197.32Z"/><path class="cls-79" d="M89.93,185.8a5.88,5.88,0,0,0,2.17-1.36c.11-.09.18-.16.33-.1a5.58,5.58,0,0,1-1.75,1.45c-.22.14-.59.15-.62.51C89.89,186.16,90,186,89.93,185.8Z"/><path class="cls-89" d="M86.18,161.65a5.14,5.14,0,0,1,.59,1.15.63.63,0,0,0,.57.46.77.77,0,0,1-.52.27c-.17-.66-.8-1.15-.79-1.88Z"/><path class="cls-90" d="M90.1,186.4c.39.08.19.39.26.6C89.85,187,90.15,186.61,90.1,186.4Z"/><path class="cls-91" d="M90.84,202.32c0,.23.16.53-.23.66C90.63,202.74,90.44,202.44,90.84,202.32Z"/><path class="cls-92" d="M141.35,222.72c0,.4-.35.57-.8.54-.24,0-.59,0-.67-.3a2.08,2.08,0,0,1,.64-1.13A.9.9,0,0,1,141.35,222.72Z"/><path class="cls-93" d="M112.28,221.55c.32.4.56.69.78,1,.06.07.13.2,0,.25a4.88,4.88,0,0,1-.74.16c-.14,0-.17-.09-.16-.2C112.18,222.38,112.23,222,112.28,221.55Z"/><path class="cls-94" d="M121.43,220.09c.42.21.4.66.55,1,.05.12,0,.2-.16.2a3.28,3.28,0,0,1-.77,0c-.14,0-.07-.24,0-.3C121.34,220.74,121.21,220.36,121.43,220.09Z"/><path class="cls-95" d="M105.44,202.39c-.53.18-.82.64-1.28.92a5.47,5.47,0,0,1-5.68,0,5.26,5.26,0,0,1,1.39.25,6.73,6.73,0,0,0,5.11-1.19C105.15,202.26,105.29,202.08,105.44,202.39Z"/><path class="cls-6" d="M94.62,145c-.25,0-.32-.17-.36-.36-.16-.83-.36-1.66-.48-2.5a1.65,1.65,0,0,1,1.3-1.79c.28-.09.2-.28.26-.44a1.73,1.73,0,0,1,2.27-1c.17.1.3.14.43-.05a1.76,1.76,0,0,1,1.26-.75c.28,0,.29-.14.17-.36a1.7,1.7,0,0,1,1.51-2.6,2.44,2.44,0,0,0,1.84-1,8.18,8.18,0,0,1,2.21-1.81,1.38,1.38,0,0,1,1.36-.05c.45.25.39.69.38,1.1a5.89,5.89,0,0,1-.89,2.38,3.71,3.71,0,0,0-.65,2.07,1.88,1.88,0,0,1-1.78,2.21,2.21,2.21,0,0,1-1.15-.22c-.08.38,0,.8-.31,1.12-.18.16,0,.25.18.31a1.54,1.54,0,0,1,1,1.15c.18.54-.24.89-.64,1.21a1.22,1.22,0,0,1,.15,1.74,3.94,3.94,0,0,1-1.3,1c.08-.53-.19-.69-.71-.6a1.84,1.84,0,0,1-.32,0c-.87,0-.92-.06-.7-.82.08-.28.06-.38-.29-.29-.55.14-.58.1-.46-.43s.49-1,.5-1.56a2.84,2.84,0,0,0-1.08.73c-1,.81-1.22.76-1.56-.43a2.83,2.83,0,0,0-.27-.68,1,1,0,0,1-1,.83.86.86,0,0,1-.91-.77C94.23,143.15,94.48,143.51,94.62,145Z"/><path class="cls-6" d="M90,152.11c-.22-.68-.76-1.27-.68-2a1.51,1.51,0,0,1,1-1.49c.21-.07.17-.2.19-.33a1.82,1.82,0,0,1,2.27-1.65c.13,0,.3.14.35-.1.15-.66.76-.88,1.29-1.18a2.76,2.76,0,0,1,3.47,1.34,2.46,2.46,0,0,0,.79.83,4.19,4.19,0,0,1-.45,0c-.3,0-.51.1-.55.39s.29.22.45.25a1.39,1.39,0,0,1,.71,2.38c.91.51,1,1.13.43,2a2.54,2.54,0,0,1-1.08,1.12c.18-.56.13-.63-.41-.54-.32.05-.63.13-.95.2s-.62,0-.63-.45c0-.12,0-.24,0-.37s0-.43-.42-.28-.61.1-.54-.41a3.6,3.6,0,0,1,.14-.9,1.29,1.29,0,0,0,.13-.9,4.77,4.77,0,0,0-1,1.1c-1,1.18-1.2.94-1.63-.08a1.25,1.25,0,0,0-.41-.53c-1.12,1.21-1.31,1.24-2.14.41C90,151.3,90.25,151.76,90,152.11Z"/><path class="cls-96" d="M90,152.11a2.83,2.83,0,0,1,.06-1.39c0-.09,0-.22.17-.21a.25.25,0,0,1,.19.14c.1.46.38.78.87.7a1.13,1.13,0,0,0,.84-1c0-.09,0-.21.18-.29a8,8,0,0,1,.91,1.45c.12.31.24.39.52.09a14.47,14.47,0,0,1,1.89-2c.19,1-.37,1.75-.26,2.62a.36.36,0,0,0,.35-.15c.09-.13.17-.32.38-.26s.21.28.21.46c0,1,0,1,1.09.75a1.28,1.28,0,0,1,.37-.09c.25,0,.56-.31.7,0a.62.62,0,0,1-.32.73l-.19.38a6.22,6.22,0,0,1-2.3,1.22c-.7.27-1-.1-1.46-.58a3.14,3.14,0,0,0-2.72-.93c-.24,0-.52.17-.68-.14A2.57,2.57,0,0,1,90,152.11Z"/><path class="cls-96" d="M98.65,147.51c-.42,0-.68,0-.88-.56a2.65,2.65,0,0,0-3.06-1.62h-.32c.13-.09.3-.16.23-.36-.51-.69-.45-2.49.13-2.91,0,.46.18.93.72.92s.88-.44,1-.95c.42.34.42.83.56,1.27s.35.63.85.23a6.59,6.59,0,0,1,1.85-1.27,6.22,6.22,0,0,1-.32,1.22,5.42,5.42,0,0,0-.44,1.1c.15.08.19-.07.28-.09s.39-.35.61-.09.08.38-.05.6c-.31.49-.22.63.37.62h1.54c.12.35-.26.48-.34.73A4.81,4.81,0,0,1,98.65,147.51Z"/><path class="cls-97" d="M95.66,155.29c.82-.32,1.51-.86,2.3-1.22a4.93,4.93,0,0,1-2.19,1.34Z"/><path class="cls-69" d="M113,186.63h1.89c.21,0,.46-.06.44.28s-.25.23-.43.23c-1,0-2.09,0-3.13,0-.43,0-.62.08-.59.54s.27,1.12-.09,1.4-1,.07-1.45.07l-2.28,0c-.18,0-.4.06-.4-.25s.21-.25.4-.25c.93,0,1.87,0,2.8,0,.38,0,.54-.05.52-.46s-.28-1.18.09-1.46,1-.08,1.58-.09Z"/><path class="cls-69" d="M140.75,189.15c-.59,0-1.17,0-1.76,0-.33,0-.49-.06-.45-.4a7.94,7.94,0,0,0,0-.79c0-.82,0-.82-.9-.82h-2.8c-.18,0-.41,0-.43-.24s.23-.26.4-.26h3.9c.28,0,.41.09.36.36a.73.73,0,0,0,0,.12c0,.49-.19,1.13.07,1.41s1,.08,1.55.1,1.21,0,1.82,0c.21,0,.39,0,.37.27s-.18.23-.35.23h-1.82Z"/><path class="cls-98" d="M92.17,160.08c-.1-.4.15-.83-.12-1.21.08-.17.32-.38.34-.1S92.67,159.72,92.17,160.08Z"/></g></svg>