<svg id="Layer_1" data-name="Layer 1" xmlns="http://www.w3.org/2000/svg" xmlns:xlink="http://www.w3.org/1999/xlink" viewBox="0 0 250 350"><defs><style>.cls-1{fill:url(#linear-gradient);}.cls-2{fill:url(#linear-gradient-2);}.cls-3{fill:url(#linear-gradient-3);}.cls-4{fill:url(#linear-gradient-4);}.cls-5{fill:url(#linear-gradient-5);}.cls-6{fill:url(#linear-gradient-6);}.cls-7{fill:url(#linear-gradient-7);}.cls-8{fill:url(#linear-gradient-8);}.cls-9{fill:url(#linear-gradient-9);}.cls-10{fill:url(#linear-gradient-10);}.cls-11{fill:url(#linear-gradient-11);}.cls-12{fill:url(#linear-gradient-12);}</style><linearGradient id="linear-gradient" x1="53.07" y1="165.22" x2="196.93" y2="165.22" gradientUnits="userSpaceOnUse"><stop offset="0" stop-color="#cce0f4"/><stop offset="0.13" stop-color="#c3ddec"/><stop offset="0.35" stop-color="#a9d6d8"/><stop offset="0.63" stop-color="#80cab6"/><stop offset="0.96" stop-color="#47b987"/><stop offset="0.99" stop-color="#40b782"/></linearGradient><linearGradient id="linear-gradient-2" x1="115.78" y1="176.31" x2="146.76" y2="176.31" xlink:href="#linear-gradient"/><linearGradient id="linear-gradient-3" x1="131.24" y1="175.01" x2="131.24" y2="175.01" xlink:href="#linear-gradient"/><linearGradient id="linear-gradient-4" x1="131.95" y1="169.33" x2="131.97" y2="169.33" xlink:href="#linear-gradient"/><linearGradient id="linear-gradient-5" x1="131.94" y1="169.31" x2="131.97" y2="169.31" xlink:href="#linear-gradient"/><linearGradient id="linear-gradient-6" x1="124.18" y1="176.31" x2="138.37" y2="176.31" xlink:href="#linear-gradient"/><linearGradient id="linear-gradient-7" x1="131.94" y1="169.33" x2="131.95" y2="169.33" xlink:href="#linear-gradient"/><linearGradient id="linear-gradient-8" x1="131.97" y1="169.32" x2="131.97" y2="169.32" gradientTransform="translate(253.44 -7.68) rotate(72.4)" xlink:href="#linear-gradient"/><linearGradient id="linear-gradient-9" x1="131.93" y1="169.37" x2="131.96" y2="169.37" xlink:href="#linear-gradient"/><linearGradient id="linear-gradient-10" x1="131.94" y1="169.32" x2="131.97" y2="169.32" xlink:href="#linear-gradient"/><linearGradient id="linear-gradient-11" x1="130.32" y1="172.69" x2="132.7" y2="172.69" xlink:href="#linear-gradient"/><linearGradient id="linear-gradient-12" x1="131.37" y1="179.12" x2="134.27" y2="179.12" xlink:href="#linear-gradient"/></defs><title>electron-kasir</title><path class="cls-1" d="M192.44,157.12c-5.75-6.18-13.17-9.51-20.91-12.2-16.38-5.68-33.4-7.48-51.63-7.94a111.84,111.84,0,0,1,18.84-18.33c4.45-3.42,9.13-6.48,14.6-8,7.14-2,11.12.93,11.62,8.24a43.6,43.6,0,0,1-1.4,14.88c-.65,2.31-.09,4.18,2.16,4.87,2.57.78,3.85-.76,4.54-3.22a47.44,47.44,0,0,0,1.36-19.15c-1.25-9.54-8.3-14.41-17.73-12.78-6.23,1.08-11.53,4.16-16.59,7.7-9.11,6.36-16.78,14.25-23.92,22.7-1.24,1.47-2.2,3.29-4.62,3.47-4.41.33-8.8,1-13.2,1.47-1.55.18-2.67.09-3.08-1.91-1.62-7.91-2.64-15.84-.64-23.8,1.54-6.14,5.4-8,11.38-5.72,3.8,1.43,7,3.91,10.1,6.42,1.77,1.41,3.7,1.62,5.27-.4s.72-3.5-.87-4.87a43.15,43.15,0,0,0-11.1-7.23c-10.36-4.43-19-.2-21.64,10.74-1.92,7.95-1.35,16,.32,23.84.8,3.76,0,4.81-3.58,5.75-9,2.36-17.9,5.27-24.53,12.43-5.35,5.78-5.46,13-.35,19,3.71,4.33,8.48,7.18,13.55,9.62,2.21,1.06,4.31,1.33,5.57-1.07s-.18-4-2.39-5.07A40.7,40.7,0,0,1,64.4,171c-6-5.21-5.91-10,.47-14.73,6.22-4.61,13.53-6.68,20.85-8.69,1.88-.51,2.4.47,2.88,2.13a79.78,79.78,0,0,0,3.53,10.11,6.61,6.61,0,0,1-.47,6.41,119,119,0,0,0-11.36,29.06c-1.74,7.42-2.91,14.92-.43,22.41,2.14,6.48,6.82,9.77,13.6,9.65,8-.15,14.33-4.4,20.69-8.58,2.13-1.4,3.74-3.19,2.14-5.63s-4-1.51-6-.1a55,55,0,0,1-10,5.78c-9.76,4.16-14.59,1.05-14.69-9.45-.13-13.58,5.29-25.53,10.87-37.58,1.43.85,1.65,2.22,2.2,3.33,6.17,12.49,13.32,24.36,22.38,35,6.53,7.67,13.56,14.82,23,19,10.32,4.54,19,.2,21.68-10.69a48.38,48.38,0,0,0,.56-17.93c-2.16-16.31-7.74-31.58-14.94-46.29-1.11-2.27-2.32-4.74-5.41-3.29s-2,3.88-.85,6.2a154.15,154.15,0,0,1,12.53,34.12c1.93,8.53,3.41,17.16,1.27,25.89-1.51,6.17-5.32,8.15-11.25,6a33.17,33.17,0,0,1-9.85-6c-12-9.92-21-22.34-28.06-36-11.14-21.75-11.47-13.39,2-34,1.59-2.44,3.54-3.19,6.41-3.2a180,180,0,0,1,32.45,2.75c12,2.15,23.82,5.07,33.9,12.45,7.61,5.57,7.32,11.54-.61,16.56a66,66,0,0,1-11.26,5.24c-1.91.76-3.13,2.26-2.14,4.42.88,1.9,2.39,2.6,4.6,1.86,6-2,11.73-4.6,16.52-8.86C198.42,172.25,198.7,163.85,192.44,157.12ZM98,155.06c-3.85-9.77-5.29-9.33,6.56-10.14Z"/><path class="cls-2" d="M145.83,187.55c.3-.17.38-.3.21-.65a1.36,1.36,0,0,1,.38-1.79c.47-.33.38-.55.15-1q-3.65-6.22-7.26-12.46l-6.43-11.06c-.32-.55-.65-1.1-1-1.66-.15-.28-.27-.42-.64-.25a1.42,1.42,0,0,1-1.93-.52c-.22-.28-.35-.28-.62-.12l-12,7c-.28.16-.35.28-.2.6a1.32,1.32,0,0,1-.29,1.74c-.64.43-.39.73-.13,1.18q7.19,12.34,14.37,24.69c.08.14.18.28.25.43s.27.29.55.17a1.43,1.43,0,0,1,1.94.48c.24.31.38.3.68.13Q139.83,191,145.83,187.55Zm-12.52,6.09a1.79,1.79,0,0,0-1.64-.49c-.49.11-.69-.06-.92-.46q-5.91-10.2-11.85-20.39c-.74-1.27-1.47-2.54-2.22-3.8-.16-.27-.22-.44.05-.72a1.88,1.88,0,0,0,.48-1.78.53.53,0,0,1,.32-.67q5.5-3.18,11-6.4a.53.53,0,0,1,.74.08,1.77,1.77,0,0,0,1.64.46c.48-.12.65.07.86.43q3.48,6,7,12t7,12c.23.39.4.67,0,1.09a1.7,1.7,0,0,0-.38,1.66.48.48,0,0,1-.29.62q-5.53,3.2-11,6.43A.49.49,0,0,1,133.31,193.64Z"/><polygon class="cls-3" points="131.24 175.01 131.24 175.01 131.24 175.01 131.24 175.01"/><path class="cls-4" d="M132,169.34v0h0Z"/><path class="cls-5" d="M132,169.32h0Z"/><path class="cls-6" d="M135.26,182.18a7,7,0,0,0,2.4-8.93,6.6,6.6,0,0,0-5.71-3.95h0v0c.56,1,1.13,1.94,1.68,2.91a1.91,1.91,0,0,1-.05,2.37,1.94,1.94,0,0,1-2.35.39h0a1.51,1.51,0,0,1-.76,1.41,6.72,6.72,0,0,0-1.3,1,.88.88,0,0,1-.15-.14c-.62-1-.62-1,.31-1.73a1.61,1.61,0,0,0,0-2.72c-.21-.19-.34-.05-.5,0-.47.27-1,.52-1.41.82s-.61-.18-.78-.44-.51-.53,0-.84c1.57-.88,3.11-1.8,4.66-2.7.19-.11.37-.25.55-.37,0,0,0,0,0,0h0a.93.93,0,0,0-.24-.07,7.09,7.09,0,1,0,3.54,12.95Zm-3.57-.74a1.9,1.9,0,0,1-1-2.32l-1.25.73a.75.75,0,0,1-1.2-.62c0-.23.13-.28.26-.36l4.85-2.82c.13-.07.31-.25.41,0s.6.57.36,1c-.15.24-.08.22.09.32a2,2,0,0,1,.31,3.53l-.22.17A2.44,2.44,0,0,1,131.68,181.44Z"/><path class="cls-7" d="M131.94,169.31s0,0,0,0h0Z"/><circle class="cls-8" cx="131.97" cy="169.32" transform="matrix(0.3, -0.95, 0.95, 0.3, -69.33, 243.89)"/><path class="cls-9" d="M131.94,169.34s0,0,0,.06l0-.06h0Z"/><path class="cls-10" d="M132,169.33h0Z"/><path class="cls-11" d="M132.43,172.39a3.73,3.73,0,0,1-.32-.55c-.23-.63-.55-.59-1.05-.27-.89.57-.91.54-.41,1.41l.21.37c.42.7.79.83,1.37.49S132.84,173.12,132.43,172.39Z"/><path class="cls-12" d="M134,178.23a1,1,0,0,0-.94-.38,2.39,2.39,0,0,0-.83.32c-.77.45-1,1-.81,1.56a.92.92,0,0,0,.91.66,2.14,2.14,0,0,0,1.76-1A.92.92,0,0,0,134,178.23Z"/></svg>