<svg id="Layer_1" data-name="Layer 1" xmlns="http://www.w3.org/2000/svg" viewBox="0 0 250 350"><defs><style>.cls-1,.cls-3{fill:#40b782;}.cls-2{fill:#848484;}.cls-3{font-size:32.75px;font-family:Bebas, Bebas;}</style></defs><title>isshort</title><g id="isshort"><path class="cls-1" d="M49.2,221.25c-7.9,0-15.8-.18-23.69.07-4.35.14-5.73-1.64-5.72-5.77q.13-41,0-81.93c0-3.63,1.36-5,4.92-4.94,9,.12,18.09,0,28.06,0C37.06,139.35,32.81,152.57,40,166.64c3.46,6.76,9.63,10.62,16,14.06,4.51,2.41,9.38,4.18,13.16,7.83s4.74,7.9,2.54,12.73c-2,4.47-5.81,5.59-10.38,5.46-5.12-.14-9.47-2.08-13.56-5-2.09-1.48-4.95-4.75-6.63-.39-1.5,3.89-7.92,7.84-1.59,12.65,3.08,2.34,6.65,4,10,6Z"/><path class="cls-2" d="M106.48,184.83a18,18,0,0,1,0-2.94v-19a11.78,11.78,0,0,1-.12-2.16c.06-2.18.09-4.37.12-6.55V140.73q0-3.64,0-7.28c0-2.26.55-4.8-3.23-4.76-9.41.12-18.82,0-28.49,0,.67,2.48,2.42,2.16,3.52,2.7,10.61,5.26,10.83,6,5.81,16.3-1.5,3.07-2.59,4.62-5.8,1.55a23.39,23.39,0,0,0-12.43-6c-4.64-.77-8.95-.08-11.25,4.79-2.18,4.61-1.1,8.75,2.58,12a46.42,46.42,0,0,0,7.45,5.14c3.82,2.24,7.91,4,11.65,6.37,9.23,5.82,14.05,14.17,13.31,25.23-.73,10.89-5.38,19.16-16.24,23-.18.06-.13.78-.2,1.29,9.31,0,18.6-.23,27.88.1,3.71.14,5.17-.86,5.47-3.75V211.9C106.34,202.88,106.44,193.85,106.48,184.83Z"/><text class="cls-3" transform="translate(6 188.04)">I</text><path class="cls-2" d="M129.08,180.8a8.17,8.17,0,0,1-1.58,5.21,5.62,5.62,0,0,1-3,2.06,8.09,8.09,0,0,1-2.45.34,6.92,6.92,0,0,1-4.29-1.28,7.32,7.32,0,0,1-2.24-2.85,11.29,11.29,0,0,1-1-4.15l4.17-.29a6.33,6.33,0,0,0,1.36,3.68,2.23,2.23,0,0,0,1.81.82,2.74,2.74,0,0,0,2.3-1.41,3.54,3.54,0,0,0,.45-1.93,5.39,5.39,0,0,0-1.65-3.63l-3.92-3.69a16.18,16.18,0,0,1-3.09-3.79,8.78,8.78,0,0,1-1-4.09,7.13,7.13,0,0,1,2.67-6,6.64,6.64,0,0,1,4.09-1.23,7.42,7.42,0,0,1,4,1.06,6.07,6.07,0,0,1,2.1,2.28,8.58,8.58,0,0,1,1,3.37l-4.22.77a4.93,4.93,0,0,0-1-2.78,2.13,2.13,0,0,0-1.74-.74,2,2,0,0,0-1.84,1.07,4.14,4.14,0,0,0-.51,2.14,6.44,6.44,0,0,0,1.73,4.08,15.41,15.41,0,0,0,2,1.85q1.54,1.28,2,1.79a15.5,15.5,0,0,1,2.51,3.21,11.36,11.36,0,0,1,.67,1.38A8.17,8.17,0,0,1,129.08,180.8Z"/><path class="cls-2" d="M137.12,175.7V188h-4.4V158.87h4.4v12.39h5.28V158.87h4.4V188h-4.4V175.7Z"/><path class="cls-2" d="M157.65,158.52a7,7,0,0,1,7,7v15.91a7,7,0,0,1-7,7,6.65,6.65,0,0,1-4.92-2,6.77,6.77,0,0,1-2-4.94V165.51a7,7,0,0,1,6.94-7Zm2.4,6.91a2.48,2.48,0,0,0-2.51-2.51,2.46,2.46,0,0,0-1.78.73,2.39,2.39,0,0,0-.74,1.78v16a2.4,2.4,0,0,0,.74,1.77,2.44,2.44,0,0,0,1.78.74,2.5,2.5,0,0,0,2.51-2.51Z"/><path class="cls-2" d="M175.45,158.87q3.68,0,5.39,2a7.34,7.34,0,0,1,1.52,4.93v4.24A6.78,6.78,0,0,1,180,175.3L183.27,188h-4.74l-2.68-11-.4,0h-2.52v11h-4.4V158.87Zm2.62,7a2.23,2.23,0,0,0-2.5-2.54h-2.65v9.32h2.65a2.39,2.39,0,0,0,1.78-.74,2.46,2.46,0,0,0,.73-1.78Z"/><path class="cls-2" d="M190.26,163.27h-4.67v-4.4h13.72v4.4h-4.65V188h-4.4Z"/><path class="cls-2" d="M202.33,183.66h4.4v4.4h-4.4Z"/><path class="cls-2" d="M214.63,170.6h-3.29v-3.1H221v3.1h-3.28V188h-3.1Z"/><path class="cls-2" d="M226.59,181.55V188h-3.1V167.5h3.1v7.32l3.76-7.32h3.31l-4.23,8.4,5,12.14h-3.64l-3.24-8.32Z"/></g></svg>