<svg id="Layer_1" data-name="Layer 1" xmlns="http://www.w3.org/2000/svg" viewBox="0 0 250 350"><defs><style>.cls-1{fill:#3ab4b9;}.cls-2{fill:#fefef0;}.cls-3{fill:#f1b8b2;}.cls-4{fill:#c1e6e3;}.cls-5{fill:#e33c77;}.cls-6{fill:#e43b77;}.cls-7{fill:#edb7b5;}.cls-8{fill:#e6b8b5;}.cls-9{fill:#e4b9bd;}.cls-10{fill:#b2b8bd;}.cls-11{fill:#e2bdb8;}.cls-12{fill:#a9bcbb;}.cls-13{fill:#90b8be;}.cls-14{fill:#977197;}.cls-15{fill:#718c9c;}.cls-16{fill:#907795;}.cls-17{fill:#986f8b;}.cls-18{fill:#8c75a2;}.cls-19{fill:#98ebef;}.cls-20{fill:#8a7897;}.cls-21{fill:#48949f;}.cls-22{fill:#48949e;}.cls-23,.cls-31{fill:#3bb4b9;}.cls-24{fill:#3ab6b8;}.cls-25{fill:#3ab5b6;}.cls-26{fill:#3cb4b8;}.cls-27{fill:#3bb4b8;}.cls-28{fill:#3cb4b9;}.cls-29{fill:none;}.cls-30{fill:#39b5b7;}.cls-31{font-size:23.4px;font-family:PizzaBot, PizzaBot;}</style></defs><title>projectThumbs</title><g id="mikubot"><path class="cls-1" d="M80.16,150.66a37.57,37.57,0,0,0,15.69,11.65c1.57.66,3.18,1.23,5,1.94-2.56,3.12-5,6.1-7.44,9.08a2,2,0,0,1-1.82.65c-14.14-.91-26.41-5.72-35.56-17.06a4.72,4.72,0,0,1-1-3.31,160.51,160.51,0,0,1,7-42.23A202.76,202.76,0,0,1,71.34,87c1.36-3,3.84-4.68,6.46-6.23,8.7-5.14,17.93-8.74,28.15-9.38a5.47,5.47,0,0,1,1.11,0c.53.08,1.12.26,1.13.88s-.57.61-1,.75c-3,1-6.1,2-9.08,3.14a82.91,82.91,0,0,0-19,10.22c-.62.46-1.43.78-1.85,1.9,4.27-1.9,8.32-3.68,12.46-5.26a102.16,102.16,0,0,1,27.88-6,112.24,112.24,0,0,1,20.81.06,97.92,97.92,0,0,1,24.76,5.8c2.69,1,5.33,2.18,8,3.28A6.2,6.2,0,0,1,175,87.76c-1.05-.92-2.44-1.41-3.26-2.62-6.74-5-14.34-8.11-22.18-10.8a5.78,5.78,0,0,1-1.68-.59c-.5-.39-1.83.11-1.5-1.13a1.79,1.79,0,0,1,1.93-1.25,48.49,48.49,0,0,1,5.34.51A67.91,67.91,0,0,1,180.45,83a6.65,6.65,0,0,1,2.34,2.6,166.32,166.32,0,0,1,12.43,33.82A180.42,180.42,0,0,1,200,151.83c.3,4.58-2.37,7.05-5.09,9.58-7.37,6.83-16.22,10.48-26.12,12.11-4.41.72-7.81.51-10.19-3.81-1-1.85-3.83-3.36-3.61-5.06.19-1.43,3.46-1.58,5.32-2.42a43.42,43.42,0,0,0,15.56-11.34,6.34,6.34,0,0,0,.64-1.16c-.15-1.82.87-3.4,1.07-5.15.1-.53.81-.87.45-1.57-.81.19-1.06.9-1.43,1.49-.15.28-.32.55-.49.82a31.16,31.16,0,0,1-10.46,8.6,7.77,7.77,0,0,1-1.66.66,1.65,1.65,0,0,1-1.68-.33c-.48-.52-.27-1.12,0-1.68a15.92,15.92,0,0,1,1.53-2.47,76.36,76.36,0,0,0,8.72-15.59c.62-1.6,1-3.28,1.58-4.9a4.32,4.32,0,0,0-.62-3.82c-.85-2-2.53-3.57-3.28-5.54-.22,1,2.56,2.37-.24,3.3a48.44,48.44,0,0,1-8.61-5.47c-3.84-2.78-7.76-5.48-11.43-8.49-1.51-1.4-3.27-2.45-5-3.85-.62,1.66-.27,3.09-.37,4.47-.71,4.2-1.26,8.42-1.75,12.65-.25,2.18-1.31,2.69-3.2,1.56a10.73,10.73,0,0,1-2.07-1.71,38,38,0,0,0-4.11-4.53,10.78,10.78,0,0,0,.75,3c.59,1.69,1.12,3.41,1.78,5.08.36.92.76,1.94,0,2.74s-1.71.25-2.56.05a34.21,34.21,0,0,1-11.9-5.56c-.27-.12-.38-.51-.76-.48.15.16.3.31.45.49.42.63,1,1.32.31,2s-1.25.14-1.83-.19a58.34,58.34,0,0,1-14.35-11.51c-1.65-2.2-3.72-4-5.41-6.21-.9-1.16-1.51-1-2,.28-1,2.69-2.5,5.21-3.05,8.08-2.07,4.07-2.91,8.57-4.55,12.78-.16.41-.24.86-.4,1.28-.3.82-.48,1.94-1.55,1.94s-1.36-1.16-1.61-2.09a10.22,10.22,0,0,1-.57-1.82c.22,1.83,0,3.67.11,5.51-.79,4.76,1.21,8.52,4.16,12,1.49,1.76,3.06,3.46,4.43,5.33.51.69,1.31,1.52.59,2.39s-1.54.19-2.26-.16a47.21,47.21,0,0,1-11.59-7.48c-1.05-1.74-2.7-2.92-4.33-4.72,0,3.52,1.44,6.15,2.77,8.82A1.62,1.62,0,0,1,80.16,150.66Z"/><path class="cls-2" d="M173.9,125.63c1.3,1.2,1.39,2.52.9,4.22-2.36,8.21-6.75,15.35-11.54,22.29-.38.55-1.37,1.11-.72,1.83s1.41,0,2.08-.26c4.55-2,8-5.32,11.27-8.94.74,1.36,0,3.86-1.5,5.32a2.65,2.65,0,0,1-1,.54c-2.45,2.83-6,3.83-9.19,5.35-7.69,3.68-16,5.42-24.34,6.75a66.8,66.8,0,0,1-12.87.85A90.27,90.27,0,0,1,100,158.89a148.26,148.26,0,0,1-14.84-5.94c-1.64-.79-3-2.09-5-2.29l-.47-.52c.09-1.15-.56-2.1-.9-3.13s-1-2.26,0-3.05c1.19-.93,1.89.57,2.79,1a1.08,1.08,0,0,1,.29.32c4.16,3,8.2,6.14,13.39,7.93a5.1,5.1,0,0,0-1.45-2.53c-2.07-2.45-4-5-6-7.5-2.41-3-2.64-6.18-2.24-9.66A21.6,21.6,0,0,0,86,131c.19-.7.28-1.44,1.25-1.44.26.75.25,1.63,1.27,2.21,1.43-4.34,2.87-8.6,4.21-12.89a8.89,8.89,0,0,1,1.66-3.31,42.94,42.94,0,0,1,3.22-6.24c.87-1.29,1.79-1.51,2.91-.42,1.6,1.56,3.49,2.8,5,4.49,4.61,4.35,9.28,8.63,14.92,11.67.24.13.5.24.89.43a2.41,2.41,0,0,0-.74-1.87c-.38-.93-.09-1.19.83-.83a39.07,39.07,0,0,0,12.78,5.76c.48.11,1.06.52,1.47.07s.13-1.14-.1-1.68a35.37,35.37,0,0,1-2-5.9c-.25-.71-.56-1.53.27-2s1.2.4,1.64.86a24.68,24.68,0,0,0,2.1,2c1.32.89,2.4,3,3.95,2.45,1.35-.47.46-2.67.78-4.07.79-3.47.68-7.08,1.62-10.54.86-3.88.85-3.88,4.33-1.86a9.73,9.73,0,0,1,2,1.34l17.64,12.47L170,123.3A5.32,5.32,0,0,1,173.9,125.63Z"/><path class="cls-3" d="M173.44,150.63c1.14-1.82,2.55-3.52,2.45-5.86l.26-.45c.45-.45.72-1.24,1.56-1,.55.16.54.63.36,1.09a10.12,10.12,0,0,1-1.59,5.31C175.41,149.81,174.73,151.25,173.44,150.63Z"/><path class="cls-4" d="M171.69,85.14a8.57,8.57,0,0,1,4.1,3.42l-4.65-2.42A1.07,1.07,0,0,0,171.69,85.14Z"/><path class="cls-5" d="M180.64,86.06c.56,1,1.13,2,1.68,3,.93,1.69.66,3.37.22,5.17a61.7,61.7,0,0,1-3.05,10.5,7.94,7.94,0,0,1-2.32-7.82c.55-.85.32-1.91.76-2.78-.16-2.72,1.3-5.24,1-8A1.1,1.1,0,0,1,180.64,86.06Z"/><path class="cls-6" d="M75.64,91.46l.12,2.62c.82,1.12,0,2.58.75,3.72a40.06,40.06,0,0,0,.19,4.86c.26,1.72-1,2.23-2,2.95-.74.53-.89-.27-1-.65a9.16,9.16,0,0,1-.74-3.62c-.72-.8-.05-2-.79-2.78L72,96c-.67-.83,0-2-.76-2.81-.35-2.88,2.32-4.47,3-6.93.08-.28.43.34.56.64C75.79,88.3,74.71,90.06,75.64,91.46Z"/><path class="cls-7" d="M105.5,113.43a27.42,27.42,0,0,1-5.29-4c-.91-1-1.32-.89-2.11.24-1.33,1.92-2,4.26-3.69,5.92.43-3.43,2.23-6.33,3.57-9.42.47-1.09,1.09-.62,1.49-.09C101.38,108.63,103.8,110.74,105.5,113.43Z"/><path class="cls-8" d="M81.92,145.32c-1.09,0-2-1.7-2.82-.93s.38,2.14.55,3.27c.12.81.83,1.65,0,2.48-2-3.16-3.44-6.48-3-10.95C78.45,141.74,80.84,142.94,81.92,145.32Z"/><path class="cls-9" d="M150.22,109.31A16.2,16.2,0,0,1,147.4,108c-1.89-1.38-2.83-.9-3.13,1.32,0,.19-.25.36-.38.53,0-1.25,0-2.51,0-3.76s.75-1.66,1.54-.87C147,106.69,149,107.53,150.22,109.31Z"/><path class="cls-10" d="M173.9,125.63c-1.22-.89-2.78-1.21-3.85-2.33,1.27-.36.47-1,.3-1.65-.27-1-1.67-1.72-.95-3.41C170.77,121,173,122.87,173.9,125.63Z"/><path class="cls-11" d="M87.27,129.6c-1.1,1.09-.81,2.76-1.66,4a25.88,25.88,0,0,1,.49-7.72Z"/><path class="cls-12" d="M137.56,122c-1-.2-1.52-1.07-2.26-1.63-.44-.34-.74-1.12-1.39-.85s-.15,1.06-.37,1.58c-.6-.5-.44-1.23-.55-1.87s-1.13-1.24-.37-1.75c.92-.62,1.39.52,1.89,1C135.6,119.59,136.55,120.81,137.56,122Z"/><path class="cls-13" d="M178.08,144.43c-.53-2-1.28-.09-1.93-.11a1.66,1.66,0,0,1,.72-1.31c.53-.43,1-1.58,1.67-1A1.48,1.48,0,0,1,178.08,144.43Z"/><path class="cls-14" d="M75.64,91.46c-1.57-1.29-.58-3-.79-4.56C76.54,88.17,75.42,89.94,75.64,91.46Z"/><path class="cls-15" d="M76.51,97.8c-1.47-1-.63-2.45-.75-3.72C77.32,95.06,76.38,96.54,76.51,97.8Z"/><path class="cls-16" d="M72.16,98.57c1.39.61.71,1.8.79,2.78C71.54,100.74,72.27,99.54,72.16,98.57Z"/><path class="cls-17" d="M71.27,93.19c1.4.63.69,1.82.76,2.81C70.65,95.36,71.38,94.16,71.27,93.19Z"/><path class="cls-18" d="M180.64,86.06l-1.69,0c0-.56-.36-1.45.36-1.5A1.34,1.34,0,0,1,180.64,86.06Z"/><path class="cls-19" d="M121.4,122.83c-.54,0-.84.27-.83.83a3.49,3.49,0,0,1-1.23-2A3.6,3.6,0,0,1,121.4,122.83Z"/><path class="cls-20" d="M177.92,94.09c-.11,1,.65,2.17-.76,2.78A2.91,2.91,0,0,1,177.92,94.09Z"/><path class="cls-21" d="M148.4,131a23.48,23.48,0,0,1,.91-6.84c.59-2,1.73-3.46,4-3.66a4.73,4.73,0,0,1,4.9,2.84c2.86,6,2.1,12.08-.39,17.94-1.21,2.84-4.32,3-6.37.46C148.88,138.61,148.46,134.83,148.4,131Z"/><path class="cls-22" d="M99.42,130.7a16.65,16.65,0,0,1,1.21-7.22c.74-1.57,1.78-2.81,3.66-2.86a4.43,4.43,0,0,1,4.27,2.41c3.08,6,3,12.26.41,18.38-1.2,2.89-4.5,3.05-6.55.52C99.76,138.65,99.45,134.7,99.42,130.7Z"/></g><g id="mikubot2"><path class="cls-23" d="M183.73,218.12c-.19,3.72.44,7.48-.44,11.17-1,4.3-3.74,6.64-8.15,6.76-4.79.13-9.58,0-14.37.07-1.81,0-2.4-.66-2.51-2.45-.42-6.89-.48-6.87,6.56-6.79,2.22,0,4.44,0,6.66-.05,2.78-.11,4.29-1.62,4.4-4.4a29,29,0,0,0-.05-4.55c-.29-2.43-1.39-4.15-4.2-4.21s-4.26,1.47-4.67,4.14c0,.23,0,.47,0,.7-.23,1.57.73,3.75-.81,4.59-1.92,1-4.34.36-6.54.3a1.16,1.16,0,0,1-1.15-1.11c-.1-1.63,0-3.27-.15-4.9-.15-2.18,1.45-2,2.84-2.62,1.89-.85,1.33-3.22,1.1-4.74-.53-3.45,1.06-4,3.91-3.91,4.9.13,9.81.09,14.72,0,2.06,0,3,.73,2.91,2.88C183.64,212,183.72,215.08,183.73,218.12Z"/><path class="cls-24" d="M77.7,206.64c3.74,0,7.47.06,11.2,0,2,0,3,.56,2.94,2.77-.09,7.59,0,15.17,0,22.76,0,3.49-2.73,5.12-6,3.83-1.41-.56-1.84-4.1-.36-5.43a3.61,3.61,0,0,0,1.37-3c0-4.32,0-8.64,0-13,0-1,.24-2.33-1.43-2.16-1.3.13-1.6,1.12-1.59,2.3.05,5.6.05,11.19.12,16.79,0,3.95-2,5.65-5.77,4.43-2.94-1-1.31-3.49-1.51-5.38a26.26,26.26,0,0,0,.29-17.88A6,6,0,0,1,77.7,206.64Z"/><path class="cls-25" d="M73.64,234.66c-.59,1.92-2.14,1.56-3.43,1.24s-1-1.66-1-2.65c0-1.27-.07-2.56,0-3.83.16-2.75-.84-2.4-2.44-.52-.93-4.06-.48-7.3,2.3-10.16,1.07-1.1,2.86-3.06-.92-3-.73,0-1.5-.22-1.61-1-.21-1.46-.74-3.95.41-4.16,2.84-.52,1.84-7.14,6.57-3.95.7,1.18.24,3.16,2.45,3.3.59,0,.59.86.71,1.44a39,39,0,0,1,.52,15.82c-.19,1-.35,3.06-2.25,1.14v0c-1.66-.13-1,1.15-1.07,1.88C73.7,231.68,74.09,233.19,73.64,234.66Z"/><path class="cls-26" d="M127.56,229c-.67-3.32.37-4.26,3.68-3.62,6.18,1.2,12.43,2.09,18.68,2.81,4.3.5,2.85,3.58,2.83,5.83,0,2.89-2.28,2-3.91,1.75-6-.81-12-1.76-18-2.5C128,232.92,126.83,231.66,127.56,229Z"/><path class="cls-27" d="M152.14,212.29c.41,2.64-.32,3.51-3.2,3C143,214.21,137,213.47,131,212.87c-3.95-.4-3.06-3.21-2.88-5.4.22-2.72,2.43-1.41,3.81-1.26,5.65.63,11.28,1.45,16.93,2.11C151.36,208.62,152.83,209.58,152.14,212.29Z"/><path class="cls-28" d="M148.45,225c-5.93-.93-12-1.95-18.12-2.83-3.28-.48-1.9-2.94-2.05-4.64-.2-2.14,1.43-2,2.88-1.86,6,.8,12,1.73,18,2.43,3.58.42,3,2.91,2.89,5.18C152,226,149.88,224.61,148.45,225Z"/><path class="cls-23" d="M121.22,232.93c-.09-3.62-.05-7.24-.07-10.87-2.16-1.29-4.54-.74-6.8-.69-5.18.13-10.4-.66-15.54.57,0,3.74,0,7.48-.12,11.21-.06,2,.46,3,2.72,3,5.61-.11,11.22-.09,16.83,0C120.62,236.19,121.27,235.07,121.22,232.93Zm-7-6.75h-9.2A18.8,18.8,0,0,1,114.26,226.18Zm-9.41,5a18.46,18.46,0,0,1,10,.11A21.41,21.41,0,0,1,104.85,231.21Z"/><path class="cls-29" d="M109.79,215.67c1.1,0,2.74.28,2.66-1.3-.07-1.37-1.67-.48-2.74-.87-.59.64-2.25-.69-2.33.95C107.32,215.82,108.8,215.67,109.79,215.67Z"/><path class="cls-30" d="M119.89,220.61a2.78,2.78,0,0,0,2.65-1.33h0c-.11-1.19.76-2.64-.78-3.44-1-.51-2.74.44-3.12-.88-.57-2,1.69-.85,2.31-1.65a2.08,2.08,0,0,0,.36-.95c.26-1.88,0-3-2.48-3-2,0-4.7,1.42-5.91-1.15-1.4-3-4.92-1.61-5.07-1.19-1.27,3.58-4.12,2.11-6.38,2.42-1.13.16-2.71-.6-2.92,1.49-.15,1.52-.28,2.86,1.89,2.81a.89.89,0,0,1,.93,1.16.92.92,0,0,1-1.08.67c-3.56-.24-3.4,1.83-2.7,4.27a2.54,2.54,0,0,0,1.89.73C106.28,220.74,113.08,220.67,119.89,220.61Zm-10.17-7.12c1.06.39,2.67-.5,2.74.87.08,1.59-1.56,1.3-2.66,1.3s-2.47.14-2.4-1.23C107.47,212.8,109.13,214.14,109.72,213.5Z"/><text class="cls-31" transform="translate(135.41 256.29)">Bot</text></g></svg>