<?xml version="1.0" ?><svg id="Lager_1" style="enable-background:new 0 0 128 128;" version="1.1" viewBox="0 0 128 128" xml:space="preserve" xmlns="http://www.w3.org/2000/svg" xmlns:xlink="http://www.w3.org/1999/xlink"><style type="text/css">
	.st0{fill:#85C808;}
	.st1{fill:#FFFFFF;}
</style><path class="st0" d="M64,14c-27.6,0-50,22.4-50,50s22.4,50,50,50s50-22.4,50-50S91.6,14,64,14z"/><g><g><path class="st1" d="M42.5,50.3c-2.2,0-3.9,1.8-3.9,3.9v15.7c0,2.2,1.8,3.9,3.9,3.9c2.2,0,3.9-1.8,3.9-3.9V54.2    C46.4,52,44.6,50.3,42.5,50.3z"/><path class="st1" d="M85.5,50.3c-2.2,0-3.9,1.8-3.9,3.9v15.7c0,2.2,1.8,3.9,3.9,3.9c2.2,0,3.9-1.8,3.9-3.9V54.2    C89.4,52,87.7,50.3,85.5,50.3z"/><path class="st1" d="M48.3,81.6h3.9v9.8c0,2.2,1.8,3.9,3.9,3.9c2.2,0,3.9-1.8,3.9-3.9v-9.8h7.8v9.8c0,2.2,1.8,3.9,3.9,3.9    c2.2,0,3.9-1.8,3.9-3.9v-9.8h3.9V52.2H48.3V81.6z"/><path class="st1" d="M73.2,37.7l2-3.5c0.3-0.5,0.1-1.1-0.4-1.3c-0.5-0.3-1.1-0.1-1.3,0.4l-2,3.4c-2.2-1.3-4.8-2-7.6-2    c-2.8,0-5.3,0.7-7.6,2l-2-3.4c-0.3-0.5-0.9-0.6-1.3-0.4c-0.5,0.3-0.6,0.9-0.4,1.3l2,3.5c-3.9,2.8-6.4,7.4-6.4,12.6h31.3    C79.7,45.1,77.1,40.5,73.2,37.7z M58.1,44.4c-1.1,0-2-0.9-2-2s0.9-2,2-2c1.1,0,2,0.9,2,2S59.2,44.4,58.1,44.4z M69.9,44.4    c-1.1,0-2-0.9-2-2s0.9-2,2-2c1.1,0,2,0.9,2,2S71,44.4,69.9,44.4z"/></g><g/><g/><g/><g/><g/><g/></g></svg>