<?xml version="1.0" encoding="utf-8"?>
<!-- Generator: Adobe Illustrator 21.0.0, SVG Export Plug-In . SVG Version: 6.00 Build 0)  -->
<svg version="1.1" id="Layer_1" xmlns="http://www.w3.org/2000/svg" xmlns:xlink="http://www.w3.org/1999/xlink" x="0px" y="0px"
	 viewBox="0 0 1080 1080" style="enable-background:new 0 0 1080 1080;" xml:space="preserve">
<style type="text/css">
	.st0{fill:#121212;}
</style>
<title>bgbrian11</title>
<path class="st0" d="M1074.9,0.2c-230.6,0-461.2,0-691.8,0c-17.8,4-92,115-93.1,116.5c-5,8.7-9.4,18-14,27c-1.3,2.7-2.5,5.5-3.6,8.3
	s-2.4,5.5-3.7,8.1c-1,2.2-1.9,4.4-2.6,6.7c-3.7,9.2-7.1,18.5-10,28.1c-0.3,0.9-0.6,1.8-0.9,2.7c-0.2,0.4-0.3,0.9-0.4,1.4
	c-1,3.9-2.3,7.7-3.4,11.6c-0.4,1.6-0.8,3.3-1.3,4.9c-0.4,1.9-1.1,3.8-1.7,5.6c0,0.1-0.1,0.3-0.1,0.5c-0.3,2.6-0.9,5.1-1.7,7.6v0.1
	c-0.4,1.8-0.8,3.6-1.3,5.4c-0.3,2.1-0.8,4.1-1.6,6.1c-0.4,2-0.8,4.1-1.2,6.2c0.2,1,0.1,2-0.1,2.9c-0.6,2.3-0.8,4.6-1.2,6.9
	c-0.5,2.3-0.7,4.9-1.1,7.3c-8.7,75,1,198.5,1.4,203.1c1.3,9.9,2.6,19.8,4.1,29.6c1,7,2,14,3.5,20.9c1.5,5.8,1.4,12.1,3.1,17.8
	c2.5,12.4,4.9,24.8,7.5,37.1c0.3,1.3,0.6,2.7,1,4c1.8,8,3.3,16,5.2,23.9c1.1,5,2.2,10,3.3,15c0.6,2.7,0.8,5.6,2.7,7.4
	c2.7-1.2,1.8-4,1.4-6.3c-0.9-6-2.6-11.7-3.4-17.7c-1.4-10.1-3.9-19.8-5.7-29.7c-0.1-0.5-0.1-1.1-0.3-1.6c-0.3-1.1-0.5-2.1-0.5-3.3
	c-2.1-13-4.5-25.9-6.7-38.9c0-0.3-0.1-0.6-0.2-0.9c1.8,7.6,2.3,15.9,5.7,22.8c0.4,0.2,1,0,1.2-0.4c1.7-6.2-0.9-11.7-1.9-17.4
	c-0.2-0.9-0.3-1.8-0.5-2.7c0.2,0.4,0.4,0.8,0.9,0.7c1.2-0.1,1.5-1.4,1.5-2.7c0-4.1-0.1-8.2-0.3-12.3c-0.4-6.4,0.1-12.7,1.7-18.9
	c0.4,5.8,1.9,11.4,4.3,16.6c0.9,1.4,0.9,3.2,1.2,4.8c0.1,0.5,0.2,1,0.3,1.4c1,2.2,1,4.8,1.4,7.2c1.3,6.7,2.6,13.4,3.8,20.1
	c0.6,2.3,0.8,4.2-0.7,6.3c-1.8,2.5-1.6,5.5,1.1,6.8c2.6,1.2,3.4,3.7,3.8,6.9c2.8,13.6,5.7,27,8.7,40.5c1.7,6.6,2.8,13.5,4.5,20.1
	c3.4,16.4,7.2,32.6,10.5,49c0.4,2.7,1.3,5.2,1.9,7.8c1,3.4,1.4,7.1,2.2,10.6c1.1,3.7,1.8,7.2-2.3,8.4c-0.8,0.2-1.2,1.3-1.5,2.3
	c-0.5,1.3-0.8,2.8,0,4s1.8,0.3,2.5-0.3c2.3-2,4.2-2.5,4.6,2.3c2,5.7,3,11.8,4.3,17.9c0.7,3.1,1.2,6.3,2.1,9.3c0.1,1,0.4,1.9,0.8,2.9
	c0.4,0.8,0.7,2,1.6,1.7s1-1.7,1.1-2.9s-0.4-2.7,0.4-3.9c0.6-1,0.9-2.1,0.9-3.3c-4.2-5.4-4.1-13-5.5-19.9c-0.5-2.2-0.5-4.5-0.9-6.8
	c-1.4-3.6-1.7-7.6-2.5-11.4c-1.1-5.6-2.6-11-3.3-16.7c-1.3-6.6-2.8-13-4.1-19.6c-3.6-18.5-7.6-36.9-11.1-55.4
	c-0.5-2.2-1.1-4.3-1.8-6.4c0.2,0.5,0.5,0.8,1,0.7c1.1-0.2,1.2-1.7,1.3-2.9c0-3-0.7-6-1-8.9c2.4,10.1,4.7,20.2,6.5,30.5
	c1.2,6.5,2.7,12.9,3.8,19.5c1.7,8.8,3.4,17.6,4.7,26.5c0.4,5.4,2.8,10,3.5,15.3c2,7.9,3.6,16,5.6,23.9c2.6,9.7,4.3,19.7,6.9,29.4
	c1,4.1,1.8,8.2,2.7,12.3c0.4,1.2,0.6,2.5,0.9,3.7c0.6,2.5,0.9,5.1,1.6,7.6c0.8,3.6,1.6,7.2,2.2,10.9c1.1,5.3,2.3,10.6,3.2,16
	c0.8,3.2,0.9,6.6,1.8,9.8c2.2,7.7,3.3,15.7,4.8,23.6c1.6,7.2,2.4,14.5,3.9,21.8c1.8,9.8,3.3,19.7,4.8,29.7c0.7,3.5,1.1,7.1,1.6,10.6
	c0.1,0.6,0.1,1.1,0.3,1.7c0.4,1.4,0.5,2.7,0.6,4.1c1.8,13.5,3.5,27.1,5.2,40.7c0.2,1.5,0,2.8,0,4.3c2.8,21.3,4.2,42.8,5.2,64.4
	c0.2,1.8,0.8,3.4,0.6,5.3c-0.1,2.1,0.1,4.2,0.1,6.3c0,1.2,0,2.5,0,3.7c-0.2,2.9-0.2,5.8,0.1,8.7c0.6,4.4,0.4,9,0.6,13.4
	c0.2,4.9,1.9,7.6,4.4,7.6s4.5-2.8,4.6-7.5c0.1-9.1,0.2-18.2,0-27.3c0.2,5.1,0.5,10.2,0.7,15.3c0,1.7,0.1,4.1,1.7,4.4
	c1.8,0.3,2.4-2,2.8-3.9c0.9-4.8,1-9.6,0.5-14.5c-1.4-16.2-1.2-32.5-2.3-48.7c-0.2-1.6-0.3-3.2-0.4-4.8c-1-11.9-2.2-23.7-3.5-35.5
	c1.4,11.8,3.1,23.5,3.7,35.4c1.6,15.6,0.9,31.4,2.2,47c0.4,4.3,0.4,4.3,3.4,2.5c-0.6,20.1,0.8,40.1-1.5,60
	c-0.8,6.8-0.3,13.9-0.7,20.8c-0.1,1.2,0.3,2.4,1,3.4H1080V0.7C1078.3-0.4,1076.6,0.2,1074.9,0.2z M248.9,481.5
	c0-0.6-0.1-1.1-0.2-1.7C248.9,480.4,248.9,481,248.9,481.5L248.9,481.5z M249.1,482.9c0,0.1,0.1,0.2,0.2,0.3l0.1,0.4
	C249.2,483.4,249.2,483.2,249.1,482.9L249.1,482.9z M250.6,491.8c1.3,7.8,2.6,15.6,4,23.4C253.3,507.4,251.8,499.6,250.6,491.8
	L250.6,491.8z M258.2,512.9c0.3,1.7,0.6,3.5,0.9,5.4C258.7,516.4,258.5,514.6,258.2,512.9L258.2,512.9z M290.4,584.1
	c0.2,0.3,0.3,0.6,0.3,1C290.7,584.8,290.6,584.4,290.4,584.1L290.4,584.1z M291,585.9C291,585.9,291,585.8,291,585.9
	C291.1,585.8,291.1,585.8,291,585.9c0.1,0,0.1,0.1,0.1,0.1C291.1,586,291,585.9,291,585.9L291,585.9z M291.5,588.1
	c0.3,1.3,0.6,2.6,0.9,3.9c0,0.1,0.1,0.2,0.1,0.3C292,590.9,291.7,589.5,291.5,588.1L291.5,588.1z M364.7,885.6
	c-2.7-20.3-5.9-40.4-9-58.4c3.4,19.7,6.7,40.9,9.6,62.9C365.1,888.6,364.9,887.1,364.7,885.6z M370.3,934.8c0.4,2.2,0.9,4.4,0.4,6.7
	c0-0.4,0-0.8,0-1.2C370.6,938.5,370.5,936.6,370.3,934.8z M370.7,942c0.3,2.3,0.5,4.6,0.7,6.8C371,946.6,370.8,944.3,370.7,942
	L370.7,942z M365.1,839.7c0.8,0.2,0.1,0.5,0.1,0.8c2.4,17.1,4.5,34.2,6.4,51.4C369.7,874.5,367.6,857.1,365.1,839.7z M373.9,989.3
	c-0.1-2.5-0.2-5-0.3-7.4c-0.5-9.6-1.1-19.2-1.7-28.8C372.9,965.1,373.5,977.2,373.9,989.3z"/>
</svg>
