<svg xmlns="http://www.w3.org/2000/svg" viewBox="0 0 1080 1080"><defs><style>.a{fill:#1e1e1e;}</style></defs><title>bgbrian11</title><path class="a" d="M1074.87.15Q729,.11,383.06.12c-17.75,4-92,115-93.08,116.54-5,8.69-9.4,18-14,27-1.29,2.71-2.47,5.51-3.59,8.34s-2.36,5.51-3.74,8.09a46.69,46.69,0,0,0-2.59,6.66c-3.67,9.16-7.08,18.49-10,28.13-.32.9-.61,1.81-.92,2.71-.17.43-.3.89-.43,1.35-1,3.92-2.31,7.68-3.36,11.57-.39,1.65-.8,3.28-1.26,4.9-.45,1.93-1.06,3.78-1.68,5.62,0,.15-.07.31-.1.46a41.4,41.4,0,0,1-1.7,7.61l0,.06c-.39,1.81-.79,3.61-1.28,5.38a22.41,22.41,0,0,1-1.65,6.05q-.64,3-1.21,6.18a7.68,7.68,0,0,1-.08,2.91c-.57,2.26-.75,4.63-1.24,6.91s-.73,4.86-1.15,7.27C231.28,338.83,241,462.4,241.39,467q1.92,14.83,4.07,29.61c1,7,2,14.05,3.51,20.9,1.48,5.78,1.38,12.06,3.06,17.77,2.49,12.36,4.87,24.76,7.51,37.06.29,1.34.61,2.68.95,4,1.77,8,3.33,16,5.21,23.87,1.14,5,2.2,10,3.29,15,.59,2.68.81,5.6,2.71,7.42,2.67-1.17,1.78-4,1.43-6.27-.92-6-2.6-11.71-3.43-17.73-1.38-10.07-3.85-19.76-5.71-29.66a12.88,12.88,0,0,0-.27-1.63,12.92,12.92,0,0,1-.53-3.25c-2.15-13-4.55-25.93-6.74-38.93-.05-.3-.1-.61-.16-.91,1.84,7.61,2.25,15.87,5.67,22.78a1,1,0,0,0,1.23-.36c1.73-6.24-.89-11.71-1.89-17.4-.16-.89-.34-1.78-.52-2.66.17.44.43.76.94.74,1.16-.06,1.52-1.36,1.51-2.67,0-4.11-.09-8.2-.28-12.31a62.26,62.26,0,0,1,1.66-18.93,47.33,47.33,0,0,0,4.31,16.65c.86,1.4.9,3.16,1.17,4.82a12.78,12.78,0,0,0,.33,1.42c.95,2.21.95,4.76,1.38,7.16,1.3,6.69,2.59,13.37,3.77,20.1.61,2.27.82,4.2-.69,6.33-1.81,2.55-1.64,5.47,1.11,6.75,2.57,1.2,3.39,3.72,3.8,6.87,2.76,13.56,5.69,27,8.67,40.51,1.74,6.6,2.79,13.48,4.46,20.11,3.37,16.37,7.22,32.56,10.48,49,.42,2.69,1.25,5.2,1.91,7.78,1,3.42,1.37,7.08,2.18,10.57,1.12,3.74,1.82,7.21-2.31,8.43-.75.22-1.21,1.32-1.55,2.31-.45,1.33-.78,2.77.05,4s1.77.31,2.5-.31c2.32-2,4.16-2.53,4.57,2.28,2,5.73,3.05,11.83,4.27,17.88.67,3.12,1.22,6.29,2.1,9.32a11.12,11.12,0,0,0,.82,2.86c.37.84.71,2,1.63,1.73s1-1.73,1.11-2.92-.41-2.71.35-3.93a5.29,5.29,0,0,0,.86-3.32c-4.24-5.43-4.08-13-5.47-19.89-.45-2.23-.54-4.53-.91-6.78-1.35-3.6-1.74-7.58-2.53-11.4-1.07-5.59-2.56-11-3.27-16.74-1.33-6.56-2.82-13-4.06-19.63-3.61-18.49-7.59-36.86-11.06-55.41a55.87,55.87,0,0,0-1.8-6.36c.21.45.51.75,1,.68,1.12-.18,1.24-1.71,1.27-2.94,0-3-.68-5.95-1-8.94,2.44,10.07,4.71,20.22,6.5,30.55,1.19,6.52,2.71,12.92,3.81,19.47,1.66,8.82,3.36,17.62,4.7,26.54.36,5.43,2.78,10,3.51,15.27,2,7.93,3.64,16,5.61,23.88,2.61,9.65,4.33,19.68,6.86,29.37,1,4.07,1.79,8.24,2.74,12.33.36,1.22.64,2.48.92,3.74.65,2.48.93,5.1,1.57,7.58.79,3.61,1.57,7.22,2.23,10.88,1.12,5.31,2.27,10.61,3.16,16,.84,3.18.86,6.63,1.79,9.77,2.2,7.66,3.29,15.72,4.79,23.64,1.6,7.15,2.4,14.55,3.85,21.75,1.75,9.83,3.28,19.73,4.76,29.65.68,3.5,1.12,7.07,1.61,10.62a12.9,12.9,0,0,0,.27,1.65,18.37,18.37,0,0,1,.58,4.14c1.82,13.54,3.52,27.1,5.18,40.67.17,1.46,0,2.83,0,4.25,2.83,21.32,4.16,42.85,5.24,64.43.24,1.75.83,3.44.57,5.29-.09,2.1.07,4.19.08,6.29,0,1.23,0,2.46,0,3.7a54.68,54.68,0,0,0,.06,8.68c.61,4.44.42,9,.64,13.42.24,4.91,1.91,7.64,4.42,7.57s4.49-2.83,4.56-7.52c.14-9.09.2-18.19,0-27.29.2,5.1.51,10.18.66,15.27,0,1.71.08,4.09,1.67,4.36,1.8.31,2.38-2,2.77-3.9a50.52,50.52,0,0,0,.49-14.47c-1.35-16.19-1.16-32.49-2.25-48.7a48.18,48.18,0,0,1-.35-4.81c-1-11.88-2.22-23.7-3.47-35.53,1.44,11.76,3.1,23.48,3.66,35.41,1.64,15.58.88,31.36,2.16,47,.35,4.28.43,4.27,3.4,2.45-.64,20.12.78,40.08-1.45,60-.76,6.76-.27,13.89-.73,20.84a5.42,5.42,0,0,0,1,3.42H1080V.65C1078.34-.41,1076.57.15,1074.87.15Zm-826,481.37a10.54,10.54,0,0,0-.22-1.67A3.2,3.2,0,0,1,248.86,481.52Zm.23,1.41a1.5,1.5,0,0,0,.19.32l.06.36A3.48,3.48,0,0,1,249.09,482.93Zm1.55,8.85c1.27,7.81,2.65,15.59,4,23.36C253.26,507.38,251.8,499.62,250.64,491.78Zm7.58,21.09c.32,1.7.62,3.53.9,5.4C258.74,516.43,258.49,514.59,258.22,512.87Zm32.2,71.25a2.07,2.07,0,0,1,.32,1A2.81,2.81,0,0,0,290.42,584.12Zm.61,1.74s0-.07,0-.1a.44.44,0,0,0,.08.11.43.43,0,0,1,0,.11S291.05,585.89,291,585.86Zm.46,2.23c.28,1.3.59,2.6.86,3.9a3.4,3.4,0,0,1,.07.34A28,28,0,0,1,291.49,588.09ZM364.7,885.58c-2.73-20.25-5.88-40.38-8.95-58.42,3.39,19.67,6.71,40.92,9.56,62.94C365.11,888.59,364.91,887.08,364.7,885.58Zm5.62,49.23c.36,2.19.9,4.36.39,6.66,0-.38,0-.77,0-1.15C370.62,938.48,370.47,936.64,370.32,934.81Zm.38,7.18c.26,2.28.5,4.57.73,6.85A52.52,52.52,0,0,1,370.7,942Zm-5.63-102.3c.76.23.12.55.15.8q3.6,25.6,6.44,51.37C369.7,874.45,367.58,857.06,365.07,839.69Zm8.8,149.62c-.1-2.48-.2-5-.34-7.44-.53-9.63-1.15-19.24-1.71-28.85C372.91,965.07,373.55,977.18,373.87,989.31Z"/></svg>