<svg id="Layer_1" data-name="Layer 1" xmlns="http://www.w3.org/2000/svg" viewBox="0 0 300 1000"><title>whoami</title><path d="M91.29,867.21V844.74l61.84-13.28v-.31l-61.84-12V798.71l61.15-12.2v-.31L91.29,773.54V750.45l102.56,24.71v21.16L148,806.13q-7.53,1.62-14.52,2.7v.31q11.91,1.93,15.9,2.78l44.48,9.73V842.5Z"/><path d="M91.29,737.86v-23.4h38V693.69h-38v-23.4H193.85v23.4H151.21v20.77h42.64v23.4Z"/><path d="M196.38,614.6q0,18.69-14.25,28.5T141,652.91q-24.81,0-38.68-9.85T88.45,615.61q0-18.77,13.91-28.69T142.07,577q25.81,0,40.06,9.77T196.38,614.6Zm-84.66.85q0,12.67,29.58,12.67,19.05,0,25.43-3.2t6.38-9.31q0-6.56-6.38-10.08t-25-3.51Q111.72,602,111.72,615.45Z"/><path d="M193.85,448.72V473L176.71,477V501.7l17.13,4.09v23.86L91.29,502.32V476.06Zm-35.57,32.74q-22.89,5.25-43.56,7.88v.31q21.28,2.78,43.56,7.8Z"/><path d="M91.29,429.41V399.84q33.19-6.33,57.08-10l-15.9-2.55q-9.29-1.54-18.13-3.32l-23-4.56v-30.2l102.56-11.74v23.17l-70.52,6.26,70.52,14.44v15.83l-70.68,15.14,70.68,6v22.16Z"/><path d="M91.29,279.44V256H193.85v23.4Z"/><path d="M123,175.88V200.2q-17.59-.62-26.08-9.46t-8.49-22.43q0-14.21,8.68-22.7t23.28-8.5q22,0,31.42,18.07h13.37v23.4H139.07q-.23-8.65-3.88-12.47t-12.79-3.82q-12.44,0-12.44,6.49Q110,175.65,123,175.88ZM183.94,179a12,12,0,0,1-8.87-3.78,12.43,12.43,0,0,1-3.73-9,12.56,12.56,0,0,1,3.57-9.19,12.75,12.75,0,0,1,17.94.12,12.91,12.91,0,0,1,0,18.11A12,12,0,0,1,183.94,179Z"/></svg>